<?xml version="1.0" encoding="utf-8"?>
<!-- Generator: Adobe Illustrator 21.0.0, SVG Export Plug-In . SVG Version: 6.00 Build 0)  -->
<svg version="1.1" id="Layer_1" xmlns="http://www.w3.org/2000/svg" xmlns:xlink="http://www.w3.org/1999/xlink" x="0px" y="0px"
	 viewBox="0 0 288 288" style="enable-background:new 0 0 288 288;" xml:space="preserve">
<style type="text/css">
	.st0{fill:none;}
	.st1{fill-rule:evenodd;clip-rule:evenodd;fill:#FFF9AE;}
	.st2{opacity:0.85;}
	.st3{fill:#FFFAB8;}
	.st4{opacity:0.8;}
	.st5{opacity:0.44;fill:url(#SVGID_1_);stroke:url(#SVGID_2_);stroke-width:0.9061;stroke-miterlimit:10;}
</style>
<g>
	<g>
		<g>
			<rect x="139.7" y="82.1" class="st0" width="3.1" height="10.8"/>
			<path class="st1" d="M141.5,91.4c-0.1-0.3-0.2,0.1-0.5,0c0.2-0.2,0.2-0.5,0.1-0.8c0.2-0.2,0.4-0.4,0.7-0.2
				c-0.5-1.1-0.5-2.4-0.8-3.3c-0.3,0.1-0.5,0-0.7-0.3c1.3-0.8-0.2-2,0.6-2.9c-0.2-0.6-1-0.5-1.2-1c0.5-1.8,3.4-0.2,2.2,1.2
				c0.5,2,1.4,4.8,0.5,6.6c0.6,0.6,0.1,1.2,0.1,2c-0.3,0.2-0.4,0.2-0.7,0.1C141.8,92.3,141,91.8,141.5,91.4z"/>
		</g>
		<g>
			<rect x="139.7" y="82.7" class="st0" width="3.1" height="10.8"/>
			<path class="st1" d="M141.5,91.9c-0.1-0.3-0.2,0.1-0.5,0c0.2-0.2,0.2-0.5,0.1-0.8c0.2-0.2,0.4-0.4,0.7-0.2
				c-0.5-1.1-0.5-2.4-0.8-3.3c-0.3,0.1-0.5,0-0.7-0.3c1.3-0.8-0.2-2,0.6-2.9c-0.2-0.6-1-0.5-1.2-1c0.5-1.8,3.4-0.2,2.2,1.2
				c0.5,2,1.4,4.8,0.5,6.6c0.6,0.6,0.1,1.2,0.1,2c-0.3,0.2-0.4,0.2-0.7,0.1C141.8,92.9,141,92.3,141.5,91.9z"/>
		</g>
		<g>
			<rect x="139.7" y="83.2" class="st0" width="3.1" height="10.8"/>
			<path class="st1" d="M141.5,92.5c-0.1-0.3-0.2,0.1-0.5,0c0.2-0.2,0.2-0.5,0.1-0.8c0.2-0.2,0.4-0.4,0.7-0.2
				c-0.5-1.1-0.5-2.4-0.8-3.3c-0.3,0.1-0.5,0-0.7-0.3c1.3-0.8-0.2-2,0.6-2.9c-0.2-0.6-1-0.5-1.2-1c0.5-1.8,3.4-0.2,2.2,1.2
				c0.5,2,1.4,4.8,0.5,6.6c0.6,0.6,0.1,1.2,0.1,2c-0.3,0.2-0.4,0.2-0.7,0.1C141.8,93.4,141,92.8,141.5,92.5z"/>
		</g>
		<g>
			<rect x="139.7" y="83.8" class="st0" width="3.1" height="10.8"/>
			<path class="st1" d="M141.5,93c-0.1-0.3-0.2,0.1-0.5,0c0.2-0.2,0.2-0.5,0.1-0.8c0.2-0.2,0.4-0.4,0.7-0.2
				c-0.5-1.1-0.5-2.4-0.8-3.3c-0.3,0.1-0.5,0-0.7-0.3c1.3-0.8-0.2-2,0.6-2.9c-0.2-0.6-1-0.5-1.2-1c0.5-1.8,3.4-0.2,2.2,1.2
				c0.5,2,1.4,4.8,0.5,6.6c0.6,0.6,0.1,1.2,0.1,2c-0.3,0.2-0.4,0.2-0.7,0.1C141.8,94,141,93.4,141.5,93z"/>
		</g>
		<g>
			<rect x="139.7" y="84.3" class="st0" width="3.1" height="10.8"/>
			<path class="st1" d="M141.5,93.5c-0.1-0.3-0.2,0.1-0.5,0c0.2-0.2,0.2-0.5,0.1-0.8c0.2-0.2,0.4-0.4,0.7-0.2
				c-0.5-1.1-0.5-2.4-0.8-3.3c-0.3,0.1-0.5,0-0.7-0.3c1.3-0.8-0.2-2,0.6-2.9c-0.2-0.6-1-0.5-1.2-1c0.5-1.8,3.4-0.2,2.2,1.2
				c0.5,2,1.4,4.8,0.5,6.6c0.6,0.6,0.1,1.2,0.1,2c-0.3,0.2-0.4,0.2-0.7,0.1C141.8,94.5,141,93.9,141.5,93.5z"/>
		</g>
		<g>
			<rect x="139.7" y="84.8" class="st0" width="3.1" height="10.8"/>
			<path class="st1" d="M141.5,94.1c-0.1-0.3-0.2,0.1-0.5,0c0.2-0.2,0.2-0.5,0.1-0.8c0.2-0.2,0.4-0.4,0.7-0.2
				c-0.5-1.1-0.5-2.4-0.8-3.3c-0.3,0.1-0.5,0-0.7-0.3c1.3-0.8-0.2-2,0.6-2.9c-0.2-0.6-1-0.5-1.2-1c0.5-1.8,3.4-0.2,2.2,1.2
				c0.5,2,1.4,4.8,0.5,6.6c0.6,0.6,0.1,1.2,0.1,2c-0.3,0.2-0.4,0.2-0.7,0.1C141.8,95,141,94.5,141.5,94.1z"/>
		</g>
		<g>
			<rect x="139.7" y="85.4" class="st0" width="3.1" height="10.8"/>
			<path class="st1" d="M141.5,94.6c-0.1-0.3-0.2,0.1-0.5,0c0.2-0.2,0.2-0.5,0.1-0.8c0.2-0.2,0.4-0.4,0.7-0.2
				c-0.5-1.1-0.5-2.4-0.8-3.3c-0.3,0.1-0.5,0-0.7-0.3c1.3-0.8-0.2-2,0.6-2.9c-0.2-0.6-1-0.5-1.2-1c0.5-1.8,3.4-0.2,2.2,1.2
				c0.5,2,1.4,4.8,0.5,6.6c0.6,0.6,0.1,1.2,0.1,2c-0.3,0.2-0.4,0.2-0.7,0.1C141.8,95.6,141,95,141.5,94.6z"/>
		</g>
		<g>
			<rect x="139.7" y="85.9" class="st0" width="3.1" height="10.8"/>
			<path class="st1" d="M141.5,95.2c-0.1-0.3-0.2,0.1-0.5,0c0.2-0.2,0.2-0.5,0.1-0.8c0.2-0.2,0.4-0.4,0.7-0.2
				c-0.5-1.1-0.5-2.4-0.8-3.3c-0.3,0.1-0.5,0-0.7-0.3c1.3-0.8-0.2-2,0.6-2.9c-0.2-0.6-1-0.5-1.2-1c0.5-1.8,3.4-0.2,2.2,1.2
				c0.5,2,1.4,4.8,0.5,6.6c0.6,0.6,0.1,1.2,0.1,2c-0.3,0.2-0.4,0.2-0.7,0.1C141.8,96.1,141,95.5,141.5,95.2z"/>
		</g>
		<g>
			<rect x="139.7" y="86.5" class="st0" width="3.1" height="10.8"/>
			<path class="st1" d="M141.5,95.7c-0.1-0.3-0.2,0.1-0.5,0c0.2-0.2,0.2-0.5,0.1-0.8c0.2-0.2,0.4-0.4,0.7-0.2
				c-0.5-1.1-0.5-2.4-0.8-3.3c-0.3,0.1-0.5,0-0.7-0.3c1.3-0.8-0.2-2,0.6-2.9c-0.2-0.6-1-0.5-1.2-1c0.5-1.8,3.4-0.2,2.2,1.2
				c0.5,2,1.4,4.8,0.5,6.6c0.6,0.6,0.1,1.2,0.1,2c-0.3,0.2-0.4,0.2-0.7,0.1C141.8,96.6,141,96.1,141.5,95.7z"/>
		</g>
		<g>
			<rect x="139.7" y="87" class="st0" width="3.1" height="10.8"/>
			<path class="st1" d="M141.5,96.2c-0.1-0.3-0.2,0.1-0.5,0c0.2-0.2,0.2-0.5,0.1-0.8c0.2-0.2,0.4-0.4,0.7-0.2
				c-0.5-1.1-0.5-2.4-0.8-3.3c-0.3,0.1-0.5,0-0.7-0.3c1.3-0.8-0.2-2,0.6-2.9c-0.2-0.6-1-0.5-1.2-1c0.5-1.8,3.4-0.2,2.2,1.2
				c0.5,2,1.4,4.8,0.5,6.6c0.6,0.6,0.1,1.2,0.1,2c-0.3,0.2-0.4,0.2-0.7,0.1C141.8,97.2,141,96.6,141.5,96.2z"/>
		</g>
		<g>
			<rect x="139.7" y="87.5" class="st0" width="3.1" height="10.8"/>
			<path class="st1" d="M141.5,96.8c-0.1-0.3-0.2,0.1-0.5,0c0.2-0.2,0.2-0.5,0.1-0.8c0.2-0.2,0.4-0.4,0.7-0.2
				c-0.5-1.1-0.5-2.4-0.8-3.3c-0.3,0.1-0.5,0-0.7-0.3c1.3-0.8-0.2-2,0.6-2.9c-0.2-0.6-1-0.5-1.2-1c0.5-1.8,3.4-0.2,2.2,1.2
				c0.5,2,1.4,4.8,0.5,6.6c0.6,0.6,0.1,1.2,0.1,2c-0.3,0.2-0.4,0.2-0.7,0.1C141.8,97.7,141,97.2,141.5,96.8z"/>
		</g>
		<g>
			<rect x="139.7" y="88.1" class="st0" width="3.1" height="10.8"/>
			<path class="st1" d="M141.5,97.3c-0.1-0.3-0.2,0.1-0.5,0c0.2-0.2,0.2-0.5,0.1-0.8c0.2-0.2,0.4-0.4,0.7-0.2
				c-0.5-1.1-0.5-2.4-0.8-3.3c-0.3,0.1-0.5,0-0.7-0.3c1.3-0.8-0.2-2,0.6-2.9c-0.2-0.6-1-0.5-1.2-1c0.5-1.8,3.4-0.2,2.2,1.2
				c0.5,2,1.4,4.8,0.5,6.6c0.6,0.6,0.1,1.2,0.1,2c-0.3,0.2-0.4,0.2-0.7,0.1C141.8,98.3,141,97.7,141.5,97.3z"/>
		</g>
		<g>
			<rect x="139.7" y="88.6" class="st0" width="3.1" height="10.8"/>
			<path class="st1" d="M141.5,97.9c-0.1-0.3-0.2,0.1-0.5,0c0.2-0.2,0.2-0.5,0.1-0.8c0.2-0.2,0.4-0.4,0.7-0.2
				c-0.5-1.1-0.5-2.4-0.8-3.3c-0.3,0.1-0.5,0-0.7-0.3c1.3-0.8-0.2-2,0.6-2.9c-0.2-0.6-1-0.5-1.2-1c0.5-1.8,3.4-0.2,2.2,1.2
				c0.5,2,1.4,4.8,0.5,6.6c0.6,0.6,0.1,1.2,0.1,2c-0.3,0.2-0.4,0.2-0.7,0.1C141.8,98.8,141,98.2,141.5,97.9z"/>
		</g>
		<g>
			<rect x="139.7" y="89.2" class="st0" width="3.1" height="10.8"/>
			<path class="st1" d="M141.5,98.4c-0.1-0.3-0.2,0.1-0.5,0c0.2-0.2,0.2-0.5,0.1-0.8c0.2-0.2,0.4-0.4,0.7-0.2
				c-0.5-1.1-0.5-2.4-0.8-3.3c-0.3,0.1-0.5,0-0.7-0.3c1.3-0.8-0.2-2,0.6-2.9c-0.2-0.6-1-0.5-1.2-1c0.5-1.8,3.4-0.2,2.2,1.2
				c0.5,2,1.4,4.8,0.5,6.6c0.6,0.6,0.1,1.2,0.1,2c-0.3,0.2-0.4,0.2-0.7,0.1C141.8,99.3,141,98.8,141.5,98.4z"/>
		</g>
		<g>
			<rect x="139.7" y="89.7" class="st0" width="3.1" height="10.8"/>
			<path class="st1" d="M141.5,98.9c-0.1-0.3-0.2,0.1-0.5,0c0.2-0.2,0.2-0.5,0.1-0.8c0.2-0.2,0.4-0.4,0.7-0.2
				c-0.5-1.1-0.5-2.4-0.8-3.3c-0.3,0.1-0.5,0-0.7-0.3c1.3-0.8-0.2-2,0.6-2.9c-0.2-0.6-1-0.5-1.2-1c0.5-1.8,3.4-0.2,2.2,1.2
				c0.5,2,1.4,4.8,0.5,6.6c0.6,0.6,0.1,1.2,0.1,2c-0.3,0.2-0.4,0.2-0.7,0.1C141.8,99.9,141,99.3,141.5,98.9z"/>
		</g>
		<g>
			<rect x="139.7" y="90.2" class="st0" width="3.1" height="10.8"/>
			<path class="st1" d="M141.5,99.5c-0.1-0.3-0.2,0.1-0.5,0c0.2-0.2,0.2-0.5,0.1-0.8c0.2-0.2,0.4-0.4,0.7-0.2
				c-0.5-1.1-0.5-2.4-0.8-3.3c-0.3,0.1-0.5,0-0.7-0.3c1.3-0.8-0.2-2,0.6-2.9c-0.2-0.6-1-0.5-1.2-1c0.5-1.8,3.4-0.2,2.2,1.2
				c0.5,2,1.4,4.8,0.5,6.6c0.6,0.6,0.1,1.2,0.1,2c-0.3,0.2-0.4,0.2-0.7,0.1C141.8,100.4,141,99.9,141.5,99.5z"/>
		</g>
		<g>
			<rect x="139.7" y="90.8" class="st0" width="3.1" height="10.8"/>
			<path class="st1" d="M141.5,100c-0.1-0.3-0.2,0.1-0.5,0c0.2-0.2,0.2-0.5,0.1-0.8c0.2-0.2,0.4-0.4,0.7-0.2
				c-0.5-1.1-0.5-2.4-0.8-3.3c-0.3,0.1-0.5,0-0.7-0.3c1.3-0.8-0.2-2,0.6-2.9c-0.2-0.6-1-0.5-1.2-1c0.5-1.8,3.4-0.2,2.2,1.2
				c0.5,2,1.4,4.8,0.5,6.6c0.6,0.6,0.1,1.2,0.1,2c-0.3,0.2-0.4,0.2-0.7,0.1C141.8,101,141,100.4,141.5,100z"/>
		</g>
		<g>
			<rect x="139.7" y="91.3" class="st0" width="3.1" height="10.8"/>
			<path class="st1" d="M141.5,100.6c-0.1-0.3-0.2,0.1-0.5,0c0.2-0.2,0.2-0.5,0.1-0.8c0.2-0.2,0.4-0.4,0.7-0.2
				c-0.5-1.1-0.5-2.4-0.8-3.3c-0.3,0.1-0.5,0-0.7-0.3c1.3-0.8-0.2-2,0.6-2.9c-0.2-0.6-1-0.5-1.2-1c0.5-1.8,3.4-0.2,2.2,1.2
				c0.5,2,1.4,4.8,0.5,6.6c0.6,0.6,0.1,1.2,0.1,2c-0.3,0.2-0.4,0.2-0.7,0.1C141.8,101.5,141,100.9,141.5,100.6z"/>
		</g>
		<g>
			<rect x="139.7" y="91.9" class="st0" width="3.1" height="10.8"/>
			<path class="st1" d="M141.5,101.1c-0.1-0.3-0.2,0.1-0.5,0c0.2-0.2,0.2-0.5,0.1-0.8c0.2-0.2,0.4-0.4,0.7-0.2
				c-0.5-1.1-0.5-2.4-0.8-3.3c-0.3,0.1-0.5,0-0.7-0.3c1.3-0.8-0.2-2,0.6-2.9c-0.2-0.6-1-0.5-1.2-1c0.5-1.8,3.4-0.2,2.2,1.2
				c0.5,2,1.4,4.8,0.5,6.6c0.6,0.6,0.1,1.2,0.1,2c-0.3,0.2-0.4,0.2-0.7,0.1C141.8,102,141,101.5,141.5,101.1z"/>
		</g>
		<g>
			<rect x="139.7" y="92.4" class="st0" width="3.1" height="10.8"/>
			<path class="st1" d="M141.5,101.6c-0.1-0.3-0.2,0.1-0.5,0c0.2-0.2,0.2-0.5,0.1-0.8c0.2-0.2,0.4-0.4,0.7-0.2
				c-0.5-1.1-0.5-2.4-0.8-3.3c-0.3,0.1-0.5,0-0.7-0.3c1.3-0.8-0.2-2,0.6-2.9c-0.2-0.6-1-0.5-1.2-1c0.5-1.8,3.4-0.2,2.2,1.2
				c0.5,2,1.4,4.8,0.5,6.6c0.6,0.6,0.1,1.2,0.1,2c-0.3,0.2-0.4,0.2-0.7,0.1C141.8,102.6,141,102,141.5,101.6z"/>
		</g>
		<g>
			<rect x="139.7" y="92.9" class="st0" width="3.1" height="10.8"/>
			<path class="st1" d="M141.5,102.2c-0.1-0.3-0.2,0.1-0.5,0c0.2-0.2,0.2-0.5,0.1-0.8c0.2-0.2,0.4-0.4,0.7-0.2
				c-0.5-1.1-0.5-2.4-0.8-3.3c-0.3,0.1-0.5,0-0.7-0.3c1.3-0.8-0.2-2,0.6-2.9c-0.2-0.6-1-0.5-1.2-1c0.5-1.8,3.4-0.2,2.2,1.2
				c0.5,2,1.4,4.8,0.5,6.6c0.6,0.6,0.1,1.2,0.1,2c-0.3,0.2-0.4,0.2-0.7,0.1C141.8,103.1,141,102.6,141.5,102.2z"/>
		</g>
		<g>
			<rect x="139.7" y="93.5" class="st0" width="3.1" height="10.8"/>
			<path class="st1" d="M141.5,102.7c-0.1-0.3-0.2,0.1-0.5,0c0.2-0.2,0.2-0.5,0.1-0.8c0.2-0.2,0.4-0.4,0.7-0.2
				c-0.5-1.1-0.5-2.4-0.8-3.3c-0.3,0.1-0.5,0-0.7-0.3c1.3-0.8-0.2-2,0.6-2.9c-0.2-0.6-1-0.5-1.2-1c0.5-1.8,3.4-0.2,2.2,1.2
				c0.5,2,1.4,4.8,0.5,6.6c0.6,0.6,0.1,1.2,0.1,2c-0.3,0.2-0.4,0.2-0.7,0.1C141.8,103.7,141,103.1,141.5,102.7z"/>
		</g>
		<g>
			<rect x="139.7" y="94" class="st0" width="3.1" height="10.8"/>
			<path class="st1" d="M141.5,103.3c-0.1-0.3-0.2,0.1-0.5,0c0.2-0.2,0.2-0.5,0.1-0.8c0.2-0.2,0.4-0.4,0.7-0.2
				c-0.5-1.1-0.5-2.4-0.8-3.3c-0.3,0.1-0.5,0-0.7-0.3c1.3-0.8-0.2-2,0.6-2.9c-0.2-0.6-1-0.5-1.2-1c0.5-1.8,3.4-0.2,2.2,1.2
				c0.5,2,1.4,4.8,0.5,6.6c0.6,0.6,0.1,1.2,0.1,2c-0.3,0.2-0.4,0.2-0.7,0.1C141.8,104.2,141,103.6,141.5,103.3z"/>
		</g>
		<g>
			<rect x="139.7" y="94.6" class="st0" width="3.1" height="10.8"/>
			<path class="st1" d="M141.5,103.8c-0.1-0.3-0.2,0.1-0.5,0c0.2-0.2,0.2-0.5,0.1-0.8c0.2-0.2,0.4-0.4,0.7-0.2
				c-0.5-1.1-0.5-2.4-0.8-3.3c-0.3,0.1-0.5,0-0.7-0.3c1.3-0.8-0.2-2,0.6-2.9c-0.2-0.6-1-0.5-1.2-1c0.5-1.8,3.4-0.2,2.2,1.2
				c0.5,2,1.4,4.8,0.5,6.6c0.6,0.6,0.1,1.2,0.1,2c-0.3,0.2-0.4,0.2-0.7,0.1C141.8,104.7,141,104.2,141.5,103.8z"/>
		</g>
		<g>
			<rect x="139.7" y="95.1" class="st0" width="3.1" height="10.8"/>
			<path class="st1" d="M141.5,104.3c-0.1-0.3-0.2,0.1-0.5,0c0.2-0.2,0.2-0.5,0.1-0.8c0.2-0.2,0.4-0.4,0.7-0.2
				c-0.5-1.1-0.5-2.4-0.8-3.3c-0.3,0.1-0.5,0-0.7-0.3c1.3-0.8-0.2-2,0.6-2.9c-0.2-0.6-1-0.5-1.2-1c0.5-1.8,3.4-0.2,2.2,1.2
				c0.5,2,1.4,4.8,0.5,6.6c0.6,0.6,0.1,1.2,0.1,2c-0.3,0.2-0.4,0.2-0.7,0.1C141.8,105.3,141,104.7,141.5,104.3z"/>
		</g>
		<g>
			<rect x="139.7" y="95.6" class="st0" width="3.1" height="10.8"/>
			<path class="st1" d="M141.5,104.9c-0.1-0.3-0.2,0.1-0.5,0c0.2-0.2,0.2-0.5,0.1-0.8c0.2-0.2,0.4-0.4,0.7-0.2
				c-0.5-1.1-0.5-2.4-0.8-3.3c-0.3,0.1-0.5,0-0.7-0.3c1.3-0.8-0.2-2,0.6-2.9c-0.2-0.6-1-0.5-1.2-1c0.5-1.8,3.4-0.2,2.2,1.2
				c0.5,2,1.4,4.8,0.5,6.6c0.6,0.6,0.1,1.2,0.1,2c-0.3,0.2-0.4,0.2-0.7,0.1C141.8,105.8,141,105.3,141.5,104.9z"/>
		</g>
		<g>
			<rect x="139.7" y="96.2" class="st0" width="3.1" height="10.8"/>
			<path class="st1" d="M141.5,105.4c-0.1-0.3-0.2,0.1-0.5,0c0.2-0.2,0.2-0.5,0.1-0.8c0.2-0.2,0.4-0.4,0.7-0.2
				c-0.5-1.1-0.5-2.4-0.8-3.3c-0.3,0.1-0.5,0-0.7-0.3c1.3-0.8-0.2-2,0.6-2.9c-0.2-0.6-1-0.5-1.2-1c0.5-1.8,3.4-0.2,2.2,1.2
				c0.5,2,1.4,4.8,0.5,6.6c0.6,0.6,0.1,1.2,0.1,2c-0.3,0.2-0.4,0.2-0.7,0.1C141.8,106.4,141,105.8,141.5,105.4z"/>
		</g>
		<g>
			<rect x="139.7" y="96.7" class="st0" width="3.1" height="10.8"/>
			<path class="st1" d="M141.5,106c-0.1-0.3-0.2,0.1-0.5,0c0.2-0.2,0.2-0.5,0.1-0.8c0.2-0.2,0.4-0.4,0.7-0.2
				c-0.5-1.1-0.5-2.4-0.8-3.3c-0.3,0.1-0.5,0-0.7-0.3c1.3-0.8-0.2-2,0.6-2.9c-0.2-0.6-1-0.5-1.2-1c0.5-1.8,3.4-0.2,2.2,1.2
				c0.5,2,1.4,4.8,0.5,6.6c0.6,0.6,0.1,1.2,0.1,2c-0.3,0.2-0.4,0.2-0.7,0.1C141.8,106.9,141,106.3,141.5,106z"/>
		</g>
		<g>
			<rect x="139.7" y="97.2" class="st0" width="3.1" height="10.8"/>
			<path class="st1" d="M141.5,106.5c-0.1-0.3-0.2,0.1-0.5,0c0.2-0.2,0.2-0.5,0.1-0.8c0.2-0.2,0.4-0.4,0.7-0.2
				c-0.5-1.1-0.5-2.4-0.8-3.3c-0.3,0.1-0.5,0-0.7-0.3c1.3-0.8-0.2-2,0.6-2.9c-0.2-0.6-1-0.5-1.2-1c0.5-1.8,3.4-0.2,2.2,1.2
				c0.5,2,1.4,4.8,0.5,6.6c0.6,0.6,0.1,1.2,0.1,2c-0.3,0.2-0.4,0.2-0.7,0.1C141.8,107.4,141,106.9,141.5,106.5z"/>
		</g>
		<g>
			<rect x="139.7" y="97.8" class="st0" width="3.1" height="10.8"/>
			<path class="st1" d="M141.5,107c-0.1-0.3-0.2,0.1-0.5,0c0.2-0.2,0.2-0.5,0.1-0.8c0.2-0.2,0.4-0.4,0.7-0.2
				c-0.5-1.1-0.5-2.4-0.8-3.3c-0.3,0.1-0.5,0-0.7-0.3c1.3-0.8-0.2-2,0.6-2.9c-0.2-0.6-1-0.5-1.2-1c0.5-1.8,3.4-0.2,2.2,1.2
				c0.5,2,1.4,4.8,0.5,6.6c0.6,0.6,0.1,1.2,0.1,2c-0.3,0.2-0.4,0.2-0.7,0.1C141.8,108,141,107.4,141.5,107z"/>
		</g>
		<g>
			<rect x="139.7" y="98.3" class="st0" width="3.1" height="10.8"/>
			<path class="st1" d="M141.5,107.6c-0.1-0.3-0.2,0.1-0.5,0c0.2-0.2,0.2-0.5,0.1-0.8c0.2-0.2,0.4-0.4,0.7-0.2
				c-0.5-1.1-0.5-2.4-0.8-3.3c-0.3,0.1-0.5,0-0.7-0.3c1.3-0.8-0.2-2,0.6-2.9c-0.2-0.6-1-0.5-1.2-1c0.5-1.8,3.4-0.2,2.2,1.2
				c0.5,2,1.4,4.8,0.5,6.6c0.6,0.6,0.1,1.2,0.1,2c-0.3,0.2-0.4,0.2-0.7,0.1C141.8,108.5,141,108,141.5,107.6z"/>
		</g>
		<g>
			<rect x="139.7" y="98.9" class="st0" width="3.1" height="10.8"/>
			<path class="st1" d="M141.5,108.1c-0.1-0.3-0.2,0.1-0.5,0c0.2-0.2,0.2-0.5,0.1-0.8c0.2-0.2,0.4-0.4,0.7-0.2
				c-0.5-1.1-0.5-2.4-0.8-3.3c-0.3,0.1-0.5,0-0.7-0.3c1.3-0.8-0.2-2,0.6-2.9c-0.2-0.6-1-0.5-1.2-1c0.5-1.8,3.4-0.2,2.2,1.2
				c0.5,2,1.4,4.8,0.5,6.6c0.6,0.6,0.1,1.2,0.1,2c-0.3,0.2-0.4,0.2-0.7,0.1C141.8,109.1,141,108.5,141.5,108.1z"/>
		</g>
		<g>
			<rect x="139.7" y="99.4" class="st0" width="3.1" height="10.8"/>
			<path class="st1" d="M141.5,108.7c-0.1-0.3-0.2,0.1-0.5,0c0.2-0.2,0.2-0.5,0.1-0.8c0.2-0.2,0.4-0.4,0.7-0.2
				c-0.5-1.1-0.5-2.4-0.8-3.3c-0.3,0.1-0.5,0-0.7-0.3c1.3-0.8-0.2-2,0.6-2.9c-0.2-0.6-1-0.5-1.2-1c0.5-1.8,3.4-0.2,2.2,1.2
				c0.5,2,1.4,4.8,0.5,6.6c0.6,0.6,0.1,1.2,0.1,2c-0.3,0.2-0.4,0.2-0.7,0.1C141.8,109.6,141,109,141.5,108.7z"/>
		</g>
		<g>
			<rect x="139.7" y="99.9" class="st0" width="3.1" height="10.8"/>
			<path class="st1" d="M141.5,109.2c-0.1-0.3-0.2,0.1-0.5,0c0.2-0.2,0.2-0.5,0.1-0.8c0.2-0.2,0.4-0.4,0.7-0.2
				c-0.5-1.1-0.5-2.4-0.8-3.3c-0.3,0.1-0.5,0-0.7-0.3c1.3-0.8-0.2-2,0.6-2.9c-0.2-0.6-1-0.5-1.2-1c0.5-1.8,3.4-0.2,2.2,1.2
				c0.5,2,1.4,4.8,0.5,6.6c0.6,0.6,0.1,1.2,0.1,2c-0.3,0.2-0.4,0.2-0.7,0.1C141.8,110.1,141,109.6,141.5,109.2z"/>
		</g>
		<g>
			<rect x="139.7" y="100.5" class="st0" width="3.1" height="10.8"/>
			<path class="st1" d="M141.5,109.7c-0.1-0.3-0.2,0.1-0.5,0c0.2-0.2,0.2-0.5,0.1-0.8c0.2-0.2,0.4-0.4,0.7-0.2
				c-0.5-1.1-0.5-2.4-0.8-3.3c-0.3,0.1-0.5,0-0.7-0.3c1.3-0.8-0.2-2,0.6-2.9c-0.2-0.6-1-0.5-1.2-1c0.5-1.8,3.4-0.2,2.2,1.2
				c0.5,2,1.4,4.8,0.5,6.6c0.6,0.6,0.1,1.2,0.1,2c-0.3,0.2-0.4,0.2-0.7,0.1C141.8,110.7,141,110.1,141.5,109.7z"/>
		</g>
		<g>
			<rect x="139.7" y="101" class="st0" width="3.1" height="10.8"/>
			<path class="st1" d="M141.5,110.3c-0.1-0.3-0.2,0.1-0.5,0c0.2-0.2,0.2-0.5,0.1-0.8c0.2-0.2,0.4-0.4,0.7-0.2
				c-0.5-1.1-0.5-2.4-0.8-3.3c-0.3,0.1-0.5,0-0.7-0.3c1.3-0.8-0.2-2,0.6-2.9c-0.2-0.6-1-0.5-1.2-1c0.5-1.8,3.4-0.2,2.2,1.2
				c0.5,2,1.4,4.8,0.5,6.6c0.6,0.6,0.1,1.2,0.1,2c-0.3,0.2-0.4,0.2-0.7,0.1C141.8,111.2,141,110.7,141.5,110.3z"/>
		</g>
		<g>
			<rect x="139.7" y="101.6" class="st0" width="3.1" height="10.8"/>
			<path class="st1" d="M141.5,110.8c-0.1-0.3-0.2,0.1-0.5,0c0.2-0.2,0.2-0.5,0.1-0.8c0.2-0.2,0.4-0.4,0.7-0.2
				c-0.5-1.1-0.5-2.4-0.8-3.3c-0.3,0.1-0.5,0-0.7-0.3c1.3-0.8-0.2-2,0.6-2.9c-0.2-0.6-1-0.5-1.2-1c0.5-1.8,3.4-0.2,2.2,1.2
				c0.5,2,1.4,4.8,0.5,6.6c0.6,0.6,0.1,1.2,0.1,2c-0.3,0.2-0.4,0.2-0.7,0.1C141.8,111.8,141,111.2,141.5,110.8z"/>
		</g>
		<g>
			<rect x="139.7" y="102.1" class="st0" width="3.1" height="10.8"/>
			<path class="st1" d="M141.5,111.4c-0.1-0.3-0.2,0.1-0.5,0c0.2-0.2,0.2-0.5,0.1-0.8c0.2-0.2,0.4-0.4,0.7-0.2
				c-0.5-1.1-0.5-2.4-0.8-3.3c-0.3,0.1-0.5,0-0.7-0.3c1.3-0.8-0.2-2,0.6-2.9c-0.2-0.6-1-0.5-1.2-1c0.5-1.8,3.4-0.2,2.2,1.2
				c0.5,2,1.4,4.8,0.5,6.6c0.6,0.6,0.1,1.2,0.1,2c-0.3,0.2-0.4,0.2-0.7,0.1C141.8,112.3,141,111.7,141.5,111.4z"/>
		</g>
		<g>
			<rect x="139.7" y="102.6" class="st0" width="3.1" height="10.8"/>
			<path class="st1" d="M141.5,111.9c-0.1-0.3-0.2,0.1-0.5,0c0.2-0.2,0.2-0.5,0.1-0.8c0.2-0.2,0.4-0.4,0.7-0.2
				c-0.5-1.1-0.5-2.4-0.8-3.3c-0.3,0.1-0.5,0-0.7-0.3c1.3-0.8-0.2-2,0.6-2.9c-0.2-0.6-1-0.5-1.2-1c0.5-1.8,3.4-0.2,2.2,1.2
				c0.5,2,1.4,4.8,0.5,6.6c0.6,0.6,0.1,1.2,0.1,2c-0.3,0.2-0.4,0.2-0.7,0.1C141.8,112.8,141,112.3,141.5,111.9z"/>
		</g>
		<g>
			<rect x="139.7" y="103.2" class="st0" width="3.1" height="10.8"/>
			<path class="st1" d="M141.5,112.4c-0.1-0.3-0.2,0.1-0.5,0c0.2-0.2,0.2-0.5,0.1-0.8c0.2-0.2,0.4-0.4,0.7-0.2
				c-0.5-1.1-0.5-2.4-0.8-3.3c-0.3,0.1-0.5,0-0.7-0.3c1.3-0.8-0.2-2,0.6-2.9c-0.2-0.6-1-0.5-1.2-1c0.5-1.8,3.4-0.2,2.2,1.2
				c0.5,2,1.4,4.8,0.5,6.6c0.6,0.6,0.1,1.2,0.1,2c-0.3,0.2-0.4,0.2-0.7,0.1C141.8,113.4,141,112.8,141.5,112.4z"/>
		</g>
		<g>
			<rect x="139.7" y="103.7" class="st0" width="3.1" height="10.8"/>
			<path class="st1" d="M141.5,113c-0.1-0.3-0.2,0.1-0.5,0c0.2-0.2,0.2-0.5,0.1-0.8c0.2-0.2,0.4-0.4,0.7-0.2
				c-0.5-1.1-0.5-2.4-0.8-3.3c-0.3,0.1-0.5,0-0.7-0.3c1.3-0.8-0.2-2,0.6-2.9c-0.2-0.6-1-0.5-1.2-1c0.5-1.8,3.4-0.2,2.2,1.2
				c0.5,2,1.4,4.8,0.5,6.6c0.6,0.6,0.1,1.2,0.1,2c-0.3,0.2-0.4,0.2-0.7,0.1C141.8,113.9,141,113.4,141.5,113z"/>
		</g>
		<g>
			<rect x="139.7" y="104.3" class="st0" width="3.1" height="10.8"/>
			<path class="st1" d="M141.5,113.5c-0.1-0.3-0.2,0.1-0.5,0c0.2-0.2,0.2-0.5,0.1-0.8c0.2-0.2,0.4-0.4,0.7-0.2
				c-0.5-1.1-0.5-2.4-0.8-3.3c-0.3,0.1-0.5,0-0.7-0.3c1.3-0.8-0.2-2,0.6-2.9c-0.2-0.6-1-0.5-1.2-1c0.5-1.8,3.4-0.2,2.2,1.2
				c0.5,2,1.4,4.8,0.5,6.6c0.6,0.6,0.1,1.2,0.1,2c-0.3,0.2-0.4,0.2-0.7,0.1C141.8,114.5,141,113.9,141.5,113.5z"/>
		</g>
		<g>
			<rect x="139.7" y="104.8" class="st0" width="3.1" height="10.8"/>
			<path class="st1" d="M141.5,114.1c-0.1-0.3-0.2,0.1-0.5,0c0.2-0.2,0.2-0.5,0.1-0.8c0.2-0.2,0.4-0.4,0.7-0.2
				c-0.5-1.1-0.5-2.4-0.8-3.3c-0.3,0.1-0.5,0-0.7-0.3c1.3-0.8-0.2-2,0.6-2.9c-0.2-0.6-1-0.5-1.2-1c0.5-1.8,3.4-0.2,2.2,1.2
				c0.5,2,1.4,4.8,0.5,6.6c0.6,0.6,0.1,1.2,0.1,2c-0.3,0.2-0.4,0.2-0.7,0.1C141.8,115,141,114.4,141.5,114.1z"/>
		</g>
		<g>
			<rect x="139.7" y="105.3" class="st0" width="3.1" height="10.8"/>
			<path class="st1" d="M141.5,114.6c-0.1-0.3-0.2,0.1-0.5,0c0.2-0.2,0.2-0.5,0.1-0.8c0.2-0.2,0.4-0.4,0.7-0.2
				c-0.5-1.1-0.5-2.4-0.8-3.3c-0.3,0.1-0.5,0-0.7-0.3c1.3-0.8-0.2-2,0.6-2.9c-0.2-0.6-1-0.5-1.2-1c0.5-1.8,3.4-0.2,2.2,1.2
				c0.5,2,1.4,4.8,0.5,6.6c0.6,0.6,0.1,1.2,0.1,2c-0.3,0.2-0.4,0.2-0.7,0.1C141.8,115.5,141,115,141.5,114.6z"/>
		</g>
		<g>
			<rect x="139.7" y="105.9" class="st0" width="3.1" height="10.8"/>
			<path class="st1" d="M141.5,115.1c-0.1-0.3-0.2,0.1-0.5,0c0.2-0.2,0.2-0.5,0.1-0.8c0.2-0.2,0.4-0.4,0.7-0.2
				c-0.5-1.1-0.5-2.4-0.8-3.3c-0.3,0.1-0.5,0-0.7-0.3c1.3-0.8-0.2-2,0.6-2.9c-0.2-0.6-1-0.5-1.2-1c0.5-1.8,3.4-0.2,2.2,1.2
				c0.5,2,1.4,4.8,0.5,6.6c0.6,0.6,0.1,1.2,0.1,2c-0.3,0.2-0.4,0.2-0.7,0.1C141.8,116.1,141,115.5,141.5,115.1z"/>
		</g>
		<g>
			<rect x="139.7" y="106.4" class="st0" width="3.1" height="10.8"/>
			<path class="st1" d="M141.5,115.7c-0.1-0.3-0.2,0.1-0.5,0c0.2-0.2,0.2-0.5,0.1-0.8c0.2-0.2,0.4-0.4,0.7-0.2
				c-0.5-1.1-0.5-2.4-0.8-3.3c-0.3,0.1-0.5,0-0.7-0.3c1.3-0.8-0.2-2,0.6-2.9c-0.2-0.6-1-0.5-1.2-1c0.5-1.8,3.4-0.2,2.2,1.2
				c0.5,2,1.4,4.8,0.5,6.6c0.6,0.6,0.1,1.2,0.1,2c-0.3,0.2-0.4,0.2-0.7,0.1C141.8,116.6,141,116,141.5,115.7z"/>
		</g>
		<g>
			<rect x="139.7" y="107" class="st0" width="3.1" height="10.8"/>
			<path class="st1" d="M141.5,116.2c-0.1-0.3-0.2,0.1-0.5,0c0.2-0.2,0.2-0.5,0.1-0.8c0.2-0.2,0.4-0.4,0.7-0.2
				c-0.5-1.1-0.5-2.4-0.8-3.3c-0.3,0.1-0.5,0-0.7-0.3c1.3-0.8-0.2-2,0.6-2.9c-0.2-0.6-1-0.5-1.2-1c0.5-1.8,3.4-0.2,2.2,1.2
				c0.5,2,1.4,4.8,0.5,6.6c0.6,0.6,0.1,1.2,0.1,2c-0.3,0.2-0.4,0.2-0.7,0.1C141.8,117.2,141,116.6,141.5,116.2z"/>
		</g>
		<g>
			<rect x="139.7" y="107.5" class="st0" width="3.1" height="10.8"/>
			<path class="st1" d="M141.5,116.8c-0.1-0.3-0.2,0.1-0.5,0c0.2-0.2,0.2-0.5,0.1-0.8c0.2-0.2,0.4-0.4,0.7-0.2
				c-0.5-1.1-0.5-2.4-0.8-3.3c-0.3,0.1-0.5,0-0.7-0.3c1.3-0.8-0.2-2,0.6-2.9c-0.2-0.6-1-0.5-1.2-1c0.5-1.8,3.4-0.2,2.2,1.2
				c0.5,2,1.4,4.8,0.5,6.6c0.6,0.6,0.1,1.2,0.1,2c-0.3,0.2-0.4,0.2-0.7,0.1C141.8,117.7,141,117.1,141.5,116.8z"/>
		</g>
		<g>
			<rect x="139.7" y="108" class="st0" width="3.1" height="10.8"/>
			<path class="st1" d="M141.5,117.3c-0.1-0.3-0.2,0.1-0.5,0c0.2-0.2,0.2-0.5,0.1-0.8c0.2-0.2,0.4-0.4,0.7-0.2
				c-0.5-1.1-0.5-2.4-0.8-3.3c-0.3,0.1-0.5,0-0.7-0.3c1.3-0.8-0.2-2,0.6-2.9c-0.2-0.6-1-0.5-1.2-1c0.5-1.8,3.4-0.2,2.2,1.2
				c0.5,2,1.4,4.8,0.5,6.6c0.6,0.6,0.1,1.2,0.1,2c-0.3,0.2-0.4,0.2-0.7,0.1C141.8,118.2,141,117.7,141.5,117.3z"/>
		</g>
		<g>
			<rect x="139.7" y="108.6" class="st0" width="3.1" height="10.8"/>
			<path class="st1" d="M141.5,117.8c-0.1-0.3-0.2,0.1-0.5,0c0.2-0.2,0.2-0.5,0.1-0.8c0.2-0.2,0.4-0.4,0.7-0.2
				c-0.5-1.1-0.5-2.4-0.8-3.3c-0.3,0.1-0.5,0-0.7-0.3c1.3-0.8-0.2-2,0.6-2.9c-0.2-0.6-1-0.5-1.2-1c0.5-1.8,3.4-0.2,2.2,1.2
				c0.5,2,1.4,4.8,0.5,6.6c0.6,0.6,0.1,1.2,0.1,2c-0.3,0.2-0.4,0.2-0.7,0.1C141.8,118.8,141,118.2,141.5,117.8z"/>
		</g>
		<g>
			<rect x="139.7" y="109.1" class="st0" width="3.1" height="10.8"/>
			<path class="st1" d="M141.5,118.4c-0.1-0.3-0.2,0.1-0.5,0c0.2-0.2,0.2-0.5,0.1-0.8c0.2-0.2,0.4-0.4,0.7-0.2
				c-0.5-1.1-0.5-2.4-0.8-3.3c-0.3,0.1-0.5,0-0.7-0.3c1.3-0.8-0.2-2,0.6-2.9c-0.2-0.6-1-0.5-1.2-1c0.5-1.8,3.4-0.2,2.2,1.2
				c0.5,2,1.4,4.8,0.5,6.6c0.6,0.6,0.1,1.2,0.1,2c-0.3,0.2-0.4,0.2-0.7,0.1C141.8,119.3,141,118.7,141.5,118.4z"/>
		</g>
		<g>
			<rect x="139.7" y="109.7" class="st0" width="3.1" height="10.8"/>
			<path class="st1" d="M141.5,118.9c-0.1-0.3-0.2,0.1-0.5,0c0.2-0.2,0.2-0.5,0.1-0.8c0.2-0.2,0.4-0.4,0.7-0.2
				c-0.5-1.1-0.5-2.4-0.8-3.3c-0.3,0.1-0.5,0-0.7-0.3c1.3-0.8-0.2-2,0.6-2.9c-0.2-0.6-1-0.5-1.2-1c0.5-1.8,3.4-0.2,2.2,1.2
				c0.5,2,1.4,4.8,0.5,6.6c0.6,0.6,0.1,1.2,0.1,2c-0.3,0.2-0.4,0.2-0.7,0.1C141.8,119.9,141,119.3,141.5,118.9z"/>
		</g>
		<g>
			<rect x="139.7" y="110.2" class="st0" width="3.1" height="10.8"/>
			<path class="st1" d="M141.5,119.4c-0.1-0.3-0.2,0.1-0.5,0c0.2-0.2,0.2-0.5,0.1-0.8c0.2-0.2,0.4-0.4,0.7-0.2
				c-0.5-1.1-0.5-2.4-0.8-3.3c-0.3,0.1-0.5,0-0.7-0.3c1.3-0.8-0.2-2,0.6-2.9c-0.2-0.6-1-0.5-1.2-1c0.5-1.8,3.4-0.2,2.2,1.2
				c0.5,2,1.4,4.8,0.5,6.6c0.6,0.6,0.1,1.2,0.1,2c-0.3,0.2-0.4,0.2-0.7,0.1C141.8,120.4,141,119.8,141.5,119.4z"/>
		</g>
		<g>
			<rect x="139.7" y="110.7" class="st0" width="3.1" height="10.8"/>
			<path class="st1" d="M141.5,120c-0.1-0.3-0.2,0.1-0.5,0c0.2-0.2,0.2-0.5,0.1-0.8c0.2-0.2,0.4-0.4,0.7-0.2
				c-0.5-1.1-0.5-2.4-0.8-3.3c-0.3,0.1-0.5,0-0.7-0.3c1.3-0.8-0.2-2,0.6-2.9c-0.2-0.6-1-0.5-1.2-1c0.5-1.8,3.4-0.2,2.2,1.2
				c0.5,2,1.4,4.8,0.5,6.6c0.6,0.6,0.1,1.2,0.1,2c-0.3,0.2-0.4,0.2-0.7,0.1C141.8,120.9,141,120.4,141.5,120z"/>
		</g>
		<g>
			<rect x="139.7" y="111.3" class="st0" width="3.1" height="10.8"/>
			<path class="st1" d="M141.5,120.5c-0.1-0.3-0.2,0.1-0.5,0c0.2-0.2,0.2-0.5,0.1-0.8c0.2-0.2,0.4-0.4,0.7-0.2
				c-0.5-1.1-0.5-2.4-0.8-3.3c-0.3,0.1-0.5,0-0.7-0.3c1.3-0.8-0.2-2,0.6-2.9c-0.2-0.6-1-0.5-1.2-1c0.5-1.8,3.4-0.2,2.2,1.2
				c0.5,2,1.4,4.8,0.5,6.6c0.6,0.6,0.1,1.2,0.1,2c-0.3,0.2-0.4,0.2-0.7,0.1C141.8,121.5,141,120.9,141.5,120.5z"/>
		</g>
		<g>
			<rect x="139.7" y="111.8" class="st0" width="3.1" height="10.8"/>
			<path class="st1" d="M141.5,121.1c-0.1-0.3-0.2,0.1-0.5,0c0.2-0.2,0.2-0.5,0.1-0.8c0.2-0.2,0.4-0.4,0.7-0.2
				c-0.5-1.1-0.5-2.4-0.8-3.3c-0.3,0.1-0.5,0-0.7-0.3c1.3-0.8-0.2-2,0.6-2.9c-0.2-0.6-1-0.5-1.2-1c0.5-1.8,3.4-0.2,2.2,1.2
				c0.5,2,1.4,4.8,0.5,6.6c0.6,0.6,0.1,1.2,0.1,2c-0.3,0.2-0.4,0.2-0.7,0.1C141.8,122,141,121.4,141.5,121.1z"/>
		</g>
		<g>
			<rect x="139.7" y="112.4" class="st0" width="3.1" height="10.8"/>
			<path class="st1" d="M141.5,121.6c-0.1-0.3-0.2,0.1-0.5,0c0.2-0.2,0.2-0.5,0.1-0.8c0.2-0.2,0.4-0.4,0.7-0.2
				c-0.5-1.1-0.5-2.4-0.8-3.3c-0.3,0.1-0.5,0-0.7-0.3c1.3-0.8-0.2-2,0.6-2.9c-0.2-0.6-1-0.5-1.2-1c0.5-1.8,3.4-0.2,2.2,1.2
				c0.5,2,1.4,4.8,0.5,6.6c0.6,0.6,0.1,1.2,0.1,2c-0.3,0.2-0.4,0.2-0.7,0.1C141.8,122.6,141,122,141.5,121.6z"/>
		</g>
		<g>
			<rect x="139.7" y="112.9" class="st0" width="3.1" height="10.8"/>
			<path class="st1" d="M141.5,122.1c-0.1-0.3-0.2,0.1-0.5,0c0.2-0.2,0.2-0.5,0.1-0.8c0.2-0.2,0.4-0.4,0.7-0.2
				c-0.5-1.1-0.5-2.4-0.8-3.3c-0.3,0.1-0.5,0-0.7-0.3c1.3-0.8-0.2-2,0.6-2.9c-0.2-0.6-1-0.5-1.2-1c0.5-1.8,3.4-0.2,2.2,1.2
				c0.5,2,1.4,4.8,0.5,6.6c0.6,0.6,0.1,1.2,0.1,2c-0.3,0.2-0.4,0.2-0.7,0.1C141.8,123.1,141,122.5,141.5,122.1z"/>
		</g>
		<g>
			<rect x="139.7" y="113.4" class="st0" width="3.1" height="10.8"/>
			<path class="st1" d="M141.5,122.7c-0.1-0.3-0.2,0.1-0.5,0c0.2-0.2,0.2-0.5,0.1-0.8c0.2-0.2,0.4-0.4,0.7-0.2
				c-0.5-1.1-0.5-2.4-0.8-3.3c-0.3,0.1-0.5,0-0.7-0.3c1.3-0.8-0.2-2,0.6-2.9c-0.2-0.6-1-0.5-1.2-1c0.5-1.8,3.4-0.2,2.2,1.2
				c0.5,2,1.4,4.8,0.5,6.6c0.6,0.6,0.1,1.2,0.1,2c-0.3,0.2-0.4,0.2-0.7,0.1C141.8,123.6,141,123.1,141.5,122.7z"/>
		</g>
		<g>
			<rect x="139.7" y="114" class="st0" width="3.1" height="10.8"/>
			<path class="st1" d="M141.5,123.2c-0.1-0.3-0.2,0.1-0.5,0c0.2-0.2,0.2-0.5,0.1-0.8c0.2-0.2,0.4-0.4,0.7-0.2
				c-0.5-1.1-0.5-2.4-0.8-3.3c-0.3,0.1-0.5,0-0.7-0.3c1.3-0.8-0.2-2,0.6-2.9c-0.2-0.6-1-0.5-1.2-1c0.5-1.8,3.4-0.2,2.2,1.2
				c0.5,2,1.4,4.8,0.5,6.6c0.6,0.6,0.1,1.2,0.1,2c-0.3,0.2-0.4,0.2-0.7,0.1C141.8,124.2,141,123.6,141.5,123.2z"/>
		</g>
		<g>
			<rect x="139.7" y="114.5" class="st0" width="3.1" height="10.8"/>
			<path class="st1" d="M141.5,123.8c-0.1-0.3-0.2,0.1-0.5,0c0.2-0.2,0.2-0.5,0.1-0.8c0.2-0.2,0.4-0.4,0.7-0.2
				c-0.5-1.1-0.5-2.4-0.8-3.3c-0.3,0.1-0.5,0-0.7-0.3c1.3-0.8-0.2-2,0.6-2.9c-0.2-0.6-1-0.5-1.2-1c0.5-1.8,3.4-0.2,2.2,1.2
				c0.5,2,1.4,4.8,0.5,6.6c0.6,0.6,0.1,1.2,0.1,2c-0.3,0.2-0.4,0.2-0.7,0.1C141.8,124.7,141,124.1,141.5,123.8z"/>
		</g>
		<g>
			<rect x="139.7" y="115.1" class="st0" width="3.1" height="10.8"/>
			<path class="st1" d="M141.5,124.3c-0.1-0.3-0.2,0.1-0.5,0c0.2-0.2,0.2-0.5,0.1-0.8c0.2-0.2,0.4-0.4,0.7-0.2
				c-0.5-1.1-0.5-2.4-0.8-3.3c-0.3,0.1-0.5,0-0.7-0.3c1.3-0.8-0.2-2,0.6-2.9c-0.2-0.6-1-0.5-1.2-1c0.5-1.8,3.4-0.2,2.2,1.2
				c0.5,2,1.4,4.8,0.5,6.6c0.6,0.6,0.1,1.2,0.1,2c-0.3,0.2-0.4,0.2-0.7,0.1C141.8,125.2,141,124.7,141.5,124.3z"/>
		</g>
		<g>
			<rect x="139.7" y="115.6" class="st0" width="3.1" height="10.8"/>
			<path class="st1" d="M141.5,124.8c-0.1-0.3-0.2,0.1-0.5,0c0.2-0.2,0.2-0.5,0.1-0.8c0.2-0.2,0.4-0.4,0.7-0.2
				c-0.5-1.1-0.5-2.4-0.8-3.3c-0.3,0.1-0.5,0-0.7-0.3c1.3-0.8-0.2-2,0.6-2.9c-0.2-0.6-1-0.5-1.2-1c0.5-1.8,3.4-0.2,2.2,1.2
				c0.5,2,1.4,4.8,0.5,6.6c0.6,0.6,0.1,1.2,0.1,2c-0.3,0.2-0.4,0.2-0.7,0.1C141.8,125.8,141,125.2,141.5,124.8z"/>
		</g>
		<g>
			<rect x="139.7" y="116.1" class="st0" width="3.1" height="10.8"/>
			<path class="st1" d="M141.5,125.4c-0.1-0.3-0.2,0.1-0.5,0c0.2-0.2,0.2-0.5,0.1-0.8c0.2-0.2,0.4-0.4,0.7-0.2
				c-0.5-1.1-0.5-2.4-0.8-3.3c-0.3,0.1-0.5,0-0.7-0.3c1.3-0.8-0.2-2,0.6-2.9c-0.2-0.6-1-0.5-1.2-1c0.5-1.8,3.4-0.2,2.2,1.2
				c0.5,2,1.4,4.8,0.5,6.6c0.6,0.6,0.1,1.2,0.1,2c-0.3,0.2-0.4,0.2-0.7,0.1C141.8,126.3,141,125.8,141.5,125.4z"/>
		</g>
		<g>
			<rect x="139.7" y="116.7" class="st0" width="3.1" height="10.8"/>
			<path class="st1" d="M141.5,125.9c-0.1-0.3-0.2,0.1-0.5,0c0.2-0.2,0.2-0.5,0.1-0.8c0.2-0.2,0.4-0.4,0.7-0.2
				c-0.5-1.1-0.5-2.4-0.8-3.3c-0.3,0.1-0.5,0-0.7-0.3c1.3-0.8-0.2-2,0.6-2.9c-0.2-0.6-1-0.5-1.2-1c0.5-1.8,3.4-0.2,2.2,1.2
				c0.5,2,1.4,4.8,0.5,6.6c0.6,0.6,0.1,1.2,0.1,2c-0.3,0.2-0.4,0.2-0.7,0.1C141.8,126.9,141,126.3,141.5,125.9z"/>
		</g>
		<g>
			<rect x="139.7" y="117.2" class="st0" width="3.1" height="10.8"/>
			<path class="st1" d="M141.5,126.5c-0.1-0.3-0.2,0.1-0.5,0c0.2-0.2,0.2-0.5,0.1-0.8c0.2-0.2,0.4-0.4,0.7-0.2
				c-0.5-1.1-0.5-2.4-0.8-3.3c-0.3,0.1-0.5,0-0.7-0.3c1.3-0.8-0.2-2,0.6-2.9c-0.2-0.6-1-0.5-1.2-1c0.5-1.8,3.4-0.2,2.2,1.2
				c0.5,2,1.4,4.8,0.5,6.6c0.6,0.6,0.1,1.2,0.1,2c-0.3,0.2-0.4,0.2-0.7,0.1C141.8,127.4,141,126.8,141.5,126.5z"/>
		</g>
		<g>
			<rect x="139.7" y="117.8" class="st0" width="3.1" height="10.8"/>
			<path class="st1" d="M141.5,127c-0.1-0.3-0.2,0.1-0.5,0c0.2-0.2,0.2-0.5,0.1-0.8c0.2-0.2,0.4-0.4,0.7-0.2
				c-0.5-1.1-0.5-2.4-0.8-3.3c-0.3,0.1-0.5,0-0.7-0.3c1.3-0.8-0.2-2,0.6-2.9c-0.2-0.6-1-0.5-1.2-1c0.5-1.8,3.4-0.2,2.2,1.2
				c0.5,2,1.4,4.8,0.5,6.6c0.6,0.6,0.1,1.2,0.1,2c-0.3,0.2-0.4,0.2-0.7,0.1C141.8,127.9,141,127.4,141.5,127z"/>
		</g>
		<g>
			<rect x="139.7" y="118.3" class="st0" width="3.1" height="10.8"/>
			<path class="st1" d="M141.5,127.5c-0.1-0.3-0.2,0.1-0.5,0c0.2-0.2,0.2-0.5,0.1-0.8c0.2-0.2,0.4-0.4,0.7-0.2
				c-0.5-1.1-0.5-2.4-0.8-3.3c-0.3,0.1-0.5,0-0.7-0.3c1.3-0.8-0.2-2,0.6-2.9c-0.2-0.6-1-0.5-1.2-1c0.5-1.8,3.4-0.2,2.2,1.2
				c0.5,2,1.4,4.8,0.5,6.6c0.6,0.6,0.1,1.2,0.1,2c-0.3,0.2-0.4,0.2-0.7,0.1C141.8,128.5,141,127.9,141.5,127.5z"/>
		</g>
		<g>
			<rect x="139.7" y="118.8" class="st0" width="3.1" height="10.8"/>
			<path class="st1" d="M141.5,128.1c-0.1-0.3-0.2,0.1-0.5,0c0.2-0.2,0.2-0.5,0.1-0.8c0.2-0.2,0.4-0.4,0.7-0.2
				c-0.5-1.1-0.5-2.4-0.8-3.3c-0.3,0.1-0.5,0-0.7-0.3c1.3-0.8-0.2-2,0.6-2.9c-0.2-0.6-1-0.5-1.2-1c0.5-1.8,3.4-0.2,2.2,1.2
				c0.5,2,1.4,4.8,0.5,6.6c0.6,0.6,0.1,1.2,0.1,2c-0.3,0.2-0.4,0.2-0.7,0.1C141.8,129,141,128.5,141.5,128.1z"/>
		</g>
		<g>
			<rect x="139.7" y="119.4" class="st0" width="3.1" height="10.8"/>
			<path class="st1" d="M141.5,128.6c-0.1-0.3-0.2,0.1-0.5,0c0.2-0.2,0.2-0.5,0.1-0.8c0.2-0.2,0.4-0.4,0.7-0.2
				c-0.5-1.1-0.5-2.4-0.8-3.3c-0.3,0.1-0.5,0-0.7-0.3c1.3-0.8-0.2-2,0.6-2.9c-0.2-0.6-1-0.5-1.2-1c0.5-1.8,3.4-0.2,2.2,1.2
				c0.5,2,1.4,4.8,0.5,6.6c0.6,0.6,0.1,1.2,0.1,2c-0.3,0.2-0.4,0.2-0.7,0.1C141.8,129.6,141,129,141.5,128.6z"/>
		</g>
		<g>
			<rect x="139.7" y="119.9" class="st0" width="3.1" height="10.8"/>
			<path class="st1" d="M141.5,129.2c-0.1-0.3-0.2,0.1-0.5,0c0.2-0.2,0.2-0.5,0.1-0.8c0.2-0.2,0.4-0.4,0.7-0.2
				c-0.5-1.1-0.5-2.4-0.8-3.3c-0.3,0.1-0.5,0-0.7-0.3c1.3-0.8-0.2-2,0.6-2.9c-0.2-0.6-1-0.5-1.2-1c0.5-1.8,3.4-0.2,2.2,1.2
				c0.5,2,1.4,4.8,0.5,6.6c0.6,0.6,0.1,1.2,0.1,2c-0.3,0.2-0.4,0.2-0.7,0.1C141.8,130.1,141,129.5,141.5,129.2z"/>
		</g>
		<g>
			<rect x="139.7" y="120.5" class="st0" width="3.1" height="10.8"/>
			<path class="st1" d="M141.5,129.7c-0.1-0.3-0.2,0.1-0.5,0c0.2-0.2,0.2-0.5,0.1-0.8c0.2-0.2,0.4-0.4,0.7-0.2
				c-0.5-1.1-0.5-2.4-0.8-3.3c-0.3,0.1-0.5,0-0.7-0.3c1.3-0.8-0.2-2,0.6-2.9c-0.2-0.6-1-0.5-1.2-1c0.5-1.8,3.4-0.2,2.2,1.2
				c0.5,2,1.4,4.8,0.5,6.6c0.6,0.6,0.1,1.2,0.1,2c-0.3,0.2-0.4,0.2-0.7,0.1C141.8,130.6,141,130.1,141.5,129.7z"/>
		</g>
		<g>
			<rect x="139.7" y="121" class="st0" width="3.1" height="10.8"/>
			<path class="st1" d="M141.5,130.2c-0.1-0.3-0.2,0.1-0.5,0c0.2-0.2,0.2-0.5,0.1-0.8c0.2-0.2,0.4-0.4,0.7-0.2
				c-0.5-1.1-0.5-2.4-0.8-3.3c-0.3,0.1-0.5,0-0.7-0.3c1.3-0.8-0.2-2,0.6-2.9c-0.2-0.6-1-0.5-1.2-1c0.5-1.8,3.4-0.2,2.2,1.2
				c0.5,2,1.4,4.8,0.5,6.6c0.6,0.6,0.1,1.2,0.1,2c-0.3,0.2-0.4,0.2-0.7,0.1C141.8,131.2,141,130.6,141.5,130.2z"/>
		</g>
		<g>
			<rect x="139.7" y="121.5" class="st0" width="3.1" height="10.8"/>
			<path class="st1" d="M141.5,130.8c-0.1-0.3-0.2,0.1-0.5,0c0.2-0.2,0.2-0.5,0.1-0.8c0.2-0.2,0.4-0.4,0.7-0.2
				c-0.5-1.1-0.5-2.4-0.8-3.3c-0.3,0.1-0.5,0-0.7-0.3c1.3-0.8-0.2-2,0.6-2.9c-0.2-0.6-1-0.5-1.2-1c0.5-1.8,3.4-0.2,2.2,1.2
				c0.5,2,1.4,4.8,0.5,6.6c0.6,0.6,0.1,1.2,0.1,2c-0.3,0.2-0.4,0.2-0.7,0.1C141.8,131.7,141,131.2,141.5,130.8z"/>
		</g>
		<g>
			<rect x="139.7" y="122.1" class="st0" width="3.1" height="10.8"/>
			<path class="st1" d="M141.5,131.3c-0.1-0.3-0.2,0.1-0.5,0c0.2-0.2,0.2-0.5,0.1-0.8c0.2-0.2,0.4-0.4,0.7-0.2
				c-0.5-1.1-0.5-2.4-0.8-3.3c-0.3,0.1-0.5,0-0.7-0.3c1.3-0.8-0.2-2,0.6-2.9c-0.2-0.6-1-0.5-1.2-1c0.5-1.8,3.4-0.2,2.2,1.2
				c0.5,2,1.4,4.8,0.5,6.6c0.6,0.6,0.1,1.2,0.1,2c-0.3,0.2-0.4,0.2-0.7,0.1C141.8,132.3,141,131.7,141.5,131.3z"/>
		</g>
		<g>
			<rect x="139.7" y="122.6" class="st0" width="3.1" height="10.8"/>
			<path class="st1" d="M141.5,131.9c-0.1-0.3-0.2,0.1-0.5,0c0.2-0.2,0.2-0.5,0.1-0.8c0.2-0.2,0.4-0.4,0.7-0.2
				c-0.5-1.1-0.5-2.4-0.8-3.3c-0.3,0.1-0.5,0-0.7-0.3c1.3-0.8-0.2-2,0.6-2.9c-0.2-0.6-1-0.5-1.2-1c0.5-1.8,3.4-0.2,2.2,1.2
				c0.5,2,1.4,4.8,0.5,6.6c0.6,0.6,0.1,1.2,0.1,2c-0.3,0.2-0.4,0.2-0.7,0.1C141.8,132.8,141,132.2,141.5,131.9z"/>
		</g>
		<g>
			<rect x="139.7" y="123.2" class="st0" width="3.1" height="10.8"/>
			<path class="st1" d="M141.5,132.4c-0.1-0.3-0.2,0.1-0.5,0c0.2-0.2,0.2-0.5,0.1-0.8c0.2-0.2,0.4-0.4,0.7-0.2
				c-0.5-1.1-0.5-2.4-0.8-3.3c-0.3,0.1-0.5,0-0.7-0.3c1.3-0.8-0.2-2,0.6-2.9c-0.2-0.6-1-0.5-1.2-1c0.5-1.8,3.4-0.2,2.2,1.2
				c0.5,2,1.4,4.8,0.5,6.6c0.6,0.6,0.1,1.2,0.1,2c-0.3,0.2-0.4,0.2-0.7,0.1C141.8,133.3,141,132.8,141.5,132.4z"/>
		</g>
		<g>
			<rect x="139.7" y="123.7" class="st0" width="3.1" height="10.8"/>
			<path class="st1" d="M141.5,132.9c-0.1-0.3-0.2,0.1-0.5,0c0.2-0.2,0.2-0.5,0.1-0.8c0.2-0.2,0.4-0.4,0.7-0.2
				c-0.5-1.1-0.5-2.4-0.8-3.3c-0.3,0.1-0.5,0-0.7-0.3c1.3-0.8-0.2-2,0.6-2.9c-0.2-0.6-1-0.5-1.2-1c0.5-1.8,3.4-0.2,2.2,1.2
				c0.5,2,1.4,4.8,0.5,6.6c0.6,0.6,0.1,1.2,0.1,2c-0.3,0.2-0.4,0.2-0.7,0.1C141.8,133.9,141,133.3,141.5,132.9z"/>
		</g>
		<g>
			<rect x="139.7" y="124.2" class="st0" width="3.1" height="10.8"/>
			<path class="st1" d="M141.5,133.5c-0.1-0.3-0.2,0.1-0.5,0c0.2-0.2,0.2-0.5,0.1-0.8c0.2-0.2,0.4-0.4,0.7-0.2
				c-0.5-1.1-0.5-2.4-0.8-3.3c-0.3,0.1-0.5,0-0.7-0.3c1.3-0.8-0.2-2,0.6-2.9c-0.2-0.6-1-0.5-1.2-1c0.5-1.8,3.4-0.2,2.2,1.2
				c0.5,2,1.4,4.8,0.5,6.6c0.6,0.6,0.1,1.2,0.1,2c-0.3,0.2-0.4,0.2-0.7,0.1C141.8,134.4,141,133.9,141.5,133.5z"/>
		</g>
		<g>
			<rect x="139.7" y="124.8" class="st0" width="3.1" height="10.8"/>
			<path class="st1" d="M141.5,134c-0.1-0.3-0.2,0.1-0.5,0c0.2-0.2,0.2-0.5,0.1-0.8c0.2-0.2,0.4-0.4,0.7-0.2
				c-0.5-1.1-0.5-2.4-0.8-3.3c-0.3,0.1-0.5,0-0.7-0.3c1.3-0.8-0.2-2,0.6-2.9c-0.2-0.6-1-0.5-1.2-1c0.5-1.8,3.4-0.2,2.2,1.2
				c0.5,2,1.4,4.8,0.5,6.6c0.6,0.6,0.1,1.2,0.1,2c-0.3,0.2-0.4,0.2-0.7,0.1C141.8,135,141,134.4,141.5,134z"/>
		</g>
		<g>
			<rect x="139.7" y="125.3" class="st0" width="3.1" height="10.8"/>
			<path class="st1" d="M141.5,134.6c-0.1-0.3-0.2,0.1-0.5,0c0.2-0.2,0.2-0.5,0.1-0.8c0.2-0.2,0.4-0.4,0.7-0.2
				c-0.5-1.1-0.5-2.4-0.8-3.3c-0.3,0.1-0.5,0-0.7-0.3c1.3-0.8-0.2-2,0.6-2.9c-0.2-0.6-1-0.5-1.2-1c0.5-1.8,3.4-0.2,2.2,1.2
				c0.5,2,1.4,4.8,0.5,6.6c0.6,0.6,0.1,1.2,0.1,2c-0.3,0.2-0.4,0.2-0.7,0.1C141.8,135.5,141,134.9,141.5,134.6z"/>
		</g>
		<g>
			<rect x="139.7" y="125.8" class="st0" width="3.1" height="10.8"/>
			<path class="st1" d="M141.5,135.1c-0.1-0.3-0.2,0.1-0.5,0c0.2-0.2,0.2-0.5,0.1-0.8c0.2-0.2,0.4-0.4,0.7-0.2
				c-0.5-1.1-0.5-2.4-0.8-3.3c-0.3,0.1-0.5,0-0.7-0.3c1.3-0.8-0.2-2,0.6-2.9c-0.2-0.6-1-0.5-1.2-1c0.5-1.8,3.4-0.2,2.2,1.2
				c0.5,2,1.4,4.8,0.5,6.6c0.6,0.6,0.1,1.2,0.1,2c-0.3,0.2-0.4,0.2-0.7,0.1C141.8,136,141,135.5,141.5,135.1z"/>
		</g>
		<g>
			<rect x="139.7" y="126.4" class="st0" width="3.1" height="10.8"/>
			<path class="st1" d="M141.5,135.6c-0.1-0.3-0.2,0.1-0.5,0c0.2-0.2,0.2-0.5,0.1-0.8c0.2-0.2,0.4-0.4,0.7-0.2
				c-0.5-1.1-0.5-2.4-0.8-3.3c-0.3,0.1-0.5,0-0.7-0.3c1.3-0.8-0.2-2,0.6-2.9c-0.2-0.6-1-0.5-1.2-1c0.5-1.8,3.4-0.2,2.2,1.2
				c0.5,2,1.4,4.8,0.5,6.6c0.6,0.6,0.1,1.2,0.1,2c-0.3,0.2-0.4,0.2-0.7,0.1C141.8,136.6,141,136,141.5,135.6z"/>
		</g>
		<g>
			<rect x="139.7" y="126.9" class="st0" width="3.1" height="10.8"/>
			<path class="st1" d="M141.5,136.2c-0.1-0.3-0.2,0.1-0.5,0c0.2-0.2,0.2-0.5,0.1-0.8c0.2-0.2,0.4-0.4,0.7-0.2
				c-0.5-1.1-0.5-2.4-0.8-3.3c-0.3,0.1-0.5,0-0.7-0.3c1.3-0.8-0.2-2,0.6-2.9c-0.2-0.6-1-0.5-1.2-1c0.5-1.8,3.4-0.2,2.2,1.2
				c0.5,2,1.4,4.8,0.5,6.6c0.6,0.6,0.1,1.2,0.1,2c-0.3,0.2-0.4,0.2-0.7,0.1C141.8,137.1,141,136.6,141.5,136.2z"/>
		</g>
		<g>
			<rect x="139.7" y="127.5" class="st0" width="3.1" height="10.8"/>
			<path class="st1" d="M141.5,136.7c-0.1-0.3-0.2,0.1-0.5,0c0.2-0.2,0.2-0.5,0.1-0.8c0.2-0.2,0.4-0.4,0.7-0.2
				c-0.5-1.1-0.5-2.4-0.8-3.3c-0.3,0.1-0.5,0-0.7-0.3c1.3-0.8-0.2-2,0.6-2.9c-0.2-0.6-1-0.5-1.2-1c0.5-1.8,3.4-0.2,2.2,1.2
				c0.5,2,1.4,4.8,0.5,6.6c0.6,0.6,0.1,1.2,0.1,2c-0.3,0.2-0.4,0.2-0.7,0.1C141.8,137.7,141,137.1,141.5,136.7z"/>
		</g>
		<g>
			<rect x="139.7" y="128" class="st0" width="3.1" height="10.8"/>
			<path class="st1" d="M141.5,137.3c-0.1-0.3-0.2,0.1-0.5,0c0.2-0.2,0.2-0.5,0.1-0.8c0.2-0.2,0.4-0.4,0.7-0.2
				c-0.5-1.1-0.5-2.4-0.8-3.3c-0.3,0.1-0.5,0-0.7-0.3c1.3-0.8-0.2-2,0.6-2.9c-0.2-0.6-1-0.5-1.2-1c0.5-1.8,3.4-0.2,2.2,1.2
				c0.5,2,1.4,4.8,0.5,6.6c0.6,0.6,0.1,1.2,0.1,2c-0.3,0.2-0.4,0.2-0.7,0.1C141.8,138.2,141,137.6,141.5,137.3z"/>
		</g>
		<g>
			<rect x="139.7" y="128.5" class="st0" width="3.1" height="10.8"/>
			<path class="st1" d="M141.5,137.8c-0.1-0.3-0.2,0.1-0.5,0c0.2-0.2,0.2-0.5,0.1-0.8c0.2-0.2,0.4-0.4,0.7-0.2
				c-0.5-1.1-0.5-2.4-0.8-3.3c-0.3,0.1-0.5,0-0.7-0.3c1.3-0.8-0.2-2,0.6-2.9c-0.2-0.6-1-0.5-1.2-1c0.5-1.8,3.4-0.2,2.2,1.2
				c0.5,2,1.4,4.8,0.5,6.6c0.6,0.6,0.1,1.2,0.1,2c-0.3,0.2-0.4,0.2-0.7,0.1C141.8,138.7,141,138.2,141.5,137.8z"/>
		</g>
		<g>
			<rect x="139.7" y="129.1" class="st0" width="3.1" height="10.8"/>
			<path class="st1" d="M141.5,138.3c-0.1-0.3-0.2,0.1-0.5,0c0.2-0.2,0.2-0.5,0.1-0.8c0.2-0.2,0.4-0.4,0.7-0.2
				c-0.5-1.1-0.5-2.4-0.8-3.3c-0.3,0.1-0.5,0-0.7-0.3c1.3-0.8-0.2-2,0.6-2.9c-0.2-0.6-1-0.5-1.2-1c0.5-1.8,3.4-0.2,2.2,1.2
				c0.5,2,1.4,4.8,0.5,6.6c0.6,0.6,0.1,1.2,0.1,2c-0.3,0.2-0.4,0.2-0.7,0.1C141.8,139.3,141,138.7,141.5,138.3z"/>
		</g>
		<g>
			<rect x="139.7" y="129.6" class="st0" width="3.1" height="10.8"/>
			<path class="st1" d="M141.5,138.9c-0.1-0.3-0.2,0.1-0.5,0c0.2-0.2,0.2-0.5,0.1-0.8c0.2-0.2,0.4-0.4,0.7-0.2
				c-0.5-1.1-0.5-2.4-0.8-3.3c-0.3,0.1-0.5,0-0.7-0.3c1.3-0.8-0.2-2,0.6-2.9c-0.2-0.6-1-0.5-1.2-1c0.5-1.8,3.4-0.2,2.2,1.2
				c0.5,2,1.4,4.8,0.5,6.6c0.6,0.6,0.1,1.2,0.1,2c-0.3,0.2-0.4,0.2-0.7,0.1C141.8,139.8,141,139.3,141.5,138.9z"/>
		</g>
		<g>
			<rect x="139.7" y="130.2" class="st0" width="3.1" height="10.8"/>
			<path class="st1" d="M141.5,139.4c-0.1-0.3-0.2,0.1-0.5,0c0.2-0.2,0.2-0.5,0.1-0.8c0.2-0.2,0.4-0.4,0.7-0.2
				c-0.5-1.1-0.5-2.4-0.8-3.3c-0.3,0.1-0.5,0-0.7-0.3c1.3-0.8-0.2-2,0.6-2.9c-0.2-0.6-1-0.5-1.2-1c0.5-1.8,3.4-0.2,2.2,1.2
				c0.5,2,1.4,4.8,0.5,6.6c0.6,0.6,0.1,1.2,0.1,2c-0.3,0.2-0.4,0.2-0.7,0.1C141.8,140.4,141,139.8,141.5,139.4z"/>
		</g>
		<g>
			<rect x="139.7" y="130.7" class="st0" width="3.1" height="10.8"/>
			<path class="st1" d="M141.5,140c-0.1-0.3-0.2,0.1-0.5,0c0.2-0.2,0.2-0.5,0.1-0.8c0.2-0.2,0.4-0.4,0.7-0.2
				c-0.5-1.1-0.5-2.4-0.8-3.3c-0.3,0.1-0.5,0-0.7-0.3c1.3-0.8-0.2-2,0.6-2.9c-0.2-0.6-1-0.5-1.2-1c0.5-1.8,3.4-0.2,2.2,1.2
				c0.5,2,1.4,4.8,0.5,6.6c0.6,0.6,0.1,1.2,0.1,2c-0.3,0.2-0.4,0.2-0.7,0.1C141.8,140.9,141,140.3,141.5,140z"/>
		</g>
		<g>
			<rect x="139.7" y="131.2" class="st0" width="3.1" height="10.8"/>
			<path class="st1" d="M141.5,140.5c-0.1-0.3-0.2,0.1-0.5,0c0.2-0.2,0.2-0.5,0.1-0.8c0.2-0.2,0.4-0.4,0.7-0.2
				c-0.5-1.1-0.5-2.4-0.8-3.3c-0.3,0.1-0.5,0-0.7-0.3c1.3-0.8-0.2-2,0.6-2.9c-0.2-0.6-1-0.5-1.2-1c0.5-1.8,3.4-0.2,2.2,1.2
				c0.5,2,1.4,4.8,0.5,6.6c0.6,0.6,0.1,1.2,0.1,2c-0.3,0.2-0.4,0.2-0.7,0.1C141.8,141.4,141,140.9,141.5,140.5z"/>
		</g>
		<g>
			<rect x="139.7" y="131.8" class="st0" width="3.1" height="10.8"/>
			<path class="st1" d="M141.5,141c-0.1-0.3-0.2,0.1-0.5,0c0.2-0.2,0.2-0.5,0.1-0.8c0.2-0.2,0.4-0.4,0.7-0.2
				c-0.5-1.1-0.5-2.4-0.8-3.3c-0.3,0.1-0.5,0-0.7-0.3c1.3-0.8-0.2-2,0.6-2.9c-0.2-0.6-1-0.5-1.2-1c0.5-1.8,3.4-0.2,2.2,1.2
				c0.5,2,1.4,4.8,0.5,6.6c0.6,0.6,0.1,1.2,0.1,2c-0.3,0.2-0.4,0.2-0.7,0.1C141.8,142,141,141.4,141.5,141z"/>
		</g>
		<g>
			<rect x="139.7" y="132.3" class="st0" width="3.1" height="10.8"/>
			<path class="st1" d="M141.5,141.6c-0.1-0.3-0.2,0.1-0.5,0c0.2-0.2,0.2-0.5,0.1-0.8c0.2-0.2,0.4-0.4,0.7-0.2
				c-0.5-1.1-0.5-2.4-0.8-3.3c-0.3,0.1-0.5,0-0.7-0.3c1.3-0.8-0.2-2,0.6-2.9c-0.2-0.6-1-0.5-1.2-1c0.5-1.8,3.4-0.2,2.2,1.2
				c0.5,2,1.4,4.8,0.5,6.6c0.6,0.6,0.1,1.2,0.1,2c-0.3,0.2-0.4,0.2-0.7,0.1C141.8,142.5,141,141.9,141.5,141.6z"/>
		</g>
		<g>
			<rect x="139.7" y="132.9" class="st0" width="3.1" height="10.8"/>
			<path class="st1" d="M141.5,142.1c-0.1-0.3-0.2,0.1-0.5,0c0.2-0.2,0.2-0.5,0.1-0.8c0.2-0.2,0.4-0.4,0.7-0.2
				c-0.5-1.1-0.5-2.4-0.8-3.3c-0.3,0.1-0.5,0-0.7-0.3c1.3-0.8-0.2-2,0.6-2.9c-0.2-0.6-1-0.5-1.2-1c0.5-1.8,3.4-0.2,2.2,1.2
				c0.5,2,1.4,4.8,0.5,6.6c0.6,0.6,0.1,1.2,0.1,2c-0.3,0.2-0.4,0.2-0.7,0.1C141.8,143.1,141,142.5,141.5,142.1z"/>
		</g>
		<g>
			<rect x="139.7" y="133.4" class="st0" width="3.1" height="10.8"/>
			<path class="st1" d="M141.5,142.7c-0.1-0.3-0.2,0.1-0.5,0c0.2-0.2,0.2-0.5,0.1-0.8c0.2-0.2,0.4-0.4,0.7-0.2
				c-0.5-1.1-0.5-2.4-0.8-3.3c-0.3,0.1-0.5,0-0.7-0.3c1.3-0.8-0.2-2,0.6-2.9c-0.2-0.6-1-0.5-1.2-1c0.5-1.8,3.4-0.2,2.2,1.2
				c0.5,2,1.4,4.8,0.5,6.6c0.6,0.6,0.1,1.2,0.1,2c-0.3,0.2-0.4,0.2-0.7,0.1C141.8,143.6,141,143,141.5,142.7z"/>
		</g>
		<g>
			<rect x="139.7" y="133.9" class="st0" width="3.1" height="10.8"/>
			<path class="st1" d="M141.5,143.2c-0.1-0.3-0.2,0.1-0.5,0c0.2-0.2,0.2-0.5,0.1-0.8c0.2-0.2,0.4-0.4,0.7-0.2
				c-0.5-1.1-0.5-2.4-0.8-3.3c-0.3,0.1-0.5,0-0.7-0.3c1.3-0.8-0.2-2,0.6-2.9c-0.2-0.6-1-0.5-1.2-1c0.5-1.8,3.4-0.2,2.2,1.2
				c0.5,2,1.4,4.8,0.5,6.6c0.6,0.6,0.1,1.2,0.1,2c-0.3,0.2-0.4,0.2-0.7,0.1C141.8,144.1,141,143.6,141.5,143.2z"/>
		</g>
		<g>
			<rect x="139.7" y="134.5" class="st0" width="3.1" height="10.8"/>
			<path class="st1" d="M141.5,143.7c-0.1-0.3-0.2,0.1-0.5,0c0.2-0.2,0.2-0.5,0.1-0.8c0.2-0.2,0.4-0.4,0.7-0.2
				c-0.5-1.1-0.5-2.4-0.8-3.3c-0.3,0.1-0.5,0-0.7-0.3c1.3-0.8-0.2-2,0.6-2.9c-0.2-0.6-1-0.5-1.2-1c0.5-1.8,3.4-0.2,2.2,1.2
				c0.5,2,1.4,4.8,0.5,6.6c0.6,0.6,0.1,1.2,0.1,2c-0.3,0.2-0.4,0.2-0.7,0.1C141.8,144.7,141,144.1,141.5,143.7z"/>
		</g>
		<g>
			<rect x="139.7" y="135" class="st0" width="3.1" height="10.8"/>
			<path class="st1" d="M141.5,144.3c-0.1-0.3-0.2,0.1-0.5,0c0.2-0.2,0.2-0.5,0.1-0.8c0.2-0.2,0.4-0.4,0.7-0.2
				c-0.5-1.1-0.5-2.4-0.8-3.3c-0.3,0.1-0.5,0-0.7-0.3c1.3-0.8-0.2-2,0.6-2.9c-0.2-0.6-1-0.5-1.2-1c0.5-1.8,3.4-0.2,2.2,1.2
				c0.5,2,1.4,4.8,0.5,6.6c0.6,0.6,0.1,1.2,0.1,2c-0.3,0.2-0.4,0.2-0.7,0.1C141.8,145.2,141,144.6,141.5,144.3z"/>
		</g>
		<g>
			<rect x="139.7" y="135.6" class="st0" width="3.1" height="10.8"/>
			<path class="st1" d="M141.5,144.8c-0.1-0.3-0.2,0.1-0.5,0c0.2-0.2,0.2-0.5,0.1-0.8c0.2-0.2,0.4-0.4,0.7-0.2
				c-0.5-1.1-0.5-2.4-0.8-3.3c-0.3,0.1-0.5,0-0.7-0.3c1.3-0.8-0.2-2,0.6-2.9c-0.2-0.6-1-0.5-1.2-1c0.5-1.8,3.4-0.2,2.2,1.2
				c0.5,2,1.4,4.8,0.5,6.6c0.6,0.6,0.1,1.2,0.1,2c-0.3,0.2-0.4,0.2-0.7,0.1C141.8,145.8,141,145.2,141.5,144.8z"/>
		</g>
		<g>
			<rect x="139.7" y="136.1" class="st0" width="3.1" height="10.8"/>
			<path class="st1" d="M141.5,145.4c-0.1-0.3-0.2,0.1-0.5,0c0.2-0.2,0.2-0.5,0.1-0.8c0.2-0.2,0.4-0.4,0.7-0.2
				c-0.5-1.1-0.5-2.4-0.8-3.3c-0.3,0.1-0.5,0-0.7-0.3c1.3-0.8-0.2-2,0.6-2.9c-0.2-0.6-1-0.5-1.2-1c0.5-1.8,3.4-0.2,2.2,1.2
				c0.5,2,1.4,4.8,0.5,6.6c0.6,0.6,0.1,1.2,0.1,2c-0.3,0.2-0.4,0.2-0.7,0.1C141.8,146.3,141,145.7,141.5,145.4z"/>
		</g>
		<g>
			<rect x="139.7" y="136.6" class="st0" width="3.1" height="10.8"/>
			<path class="st1" d="M141.5,145.9c-0.1-0.3-0.2,0.1-0.5,0c0.2-0.2,0.2-0.5,0.1-0.8c0.2-0.2,0.4-0.4,0.7-0.2
				c-0.5-1.1-0.5-2.4-0.8-3.3c-0.3,0.1-0.5,0-0.7-0.3c1.3-0.8-0.2-2,0.6-2.9c-0.2-0.6-1-0.5-1.2-1c0.5-1.8,3.4-0.2,2.2,1.2
				c0.5,2,1.4,4.8,0.5,6.6c0.6,0.6,0.1,1.2,0.1,2c-0.3,0.2-0.4,0.2-0.7,0.1C141.8,146.8,141,146.3,141.5,145.9z"/>
		</g>
		<g>
			<rect x="139.7" y="137.2" class="st0" width="3.1" height="10.8"/>
			<path class="st1" d="M141.5,146.4c-0.1-0.3-0.2,0.1-0.5,0c0.2-0.2,0.2-0.5,0.1-0.8c0.2-0.2,0.4-0.4,0.7-0.2
				c-0.5-1.1-0.5-2.4-0.8-3.3c-0.3,0.1-0.5,0-0.7-0.3c1.3-0.8-0.2-2,0.6-2.9c-0.2-0.6-1-0.5-1.2-1c0.5-1.8,3.4-0.2,2.2,1.2
				c0.5,2,1.4,4.8,0.5,6.6c0.6,0.6,0.1,1.2,0.1,2c-0.3,0.2-0.4,0.2-0.7,0.1C141.8,147.4,141,146.8,141.5,146.4z"/>
		</g>
		<g>
			<rect x="139.7" y="137.7" class="st0" width="3.1" height="10.8"/>
			<path class="st1" d="M141.5,147c-0.1-0.3-0.2,0.1-0.5,0c0.2-0.2,0.2-0.5,0.1-0.8c0.2-0.2,0.4-0.4,0.7-0.2
				c-0.5-1.1-0.5-2.4-0.8-3.3c-0.3,0.1-0.5,0-0.7-0.3c1.3-0.8-0.2-2,0.6-2.9c-0.2-0.6-1-0.5-1.2-1c0.5-1.8,3.4-0.2,2.2,1.2
				c0.5,2,1.4,4.8,0.5,6.6c0.6,0.6,0.1,1.2,0.1,2c-0.3,0.2-0.4,0.2-0.7,0.1C141.8,147.9,141,147.3,141.5,147z"/>
		</g>
		<g>
			<rect x="139.7" y="138.3" class="st0" width="3.1" height="10.8"/>
			<path class="st1" d="M141.5,147.5c-0.1-0.3-0.2,0.1-0.5,0c0.2-0.2,0.2-0.5,0.1-0.8c0.2-0.2,0.4-0.4,0.7-0.2
				c-0.5-1.1-0.5-2.4-0.8-3.3c-0.3,0.1-0.5,0-0.7-0.3c1.3-0.8-0.2-2,0.6-2.9c-0.2-0.6-1-0.5-1.2-1c0.5-1.8,3.4-0.2,2.2,1.2
				c0.5,2,1.4,4.8,0.5,6.6c0.6,0.6,0.1,1.2,0.1,2c-0.3,0.2-0.4,0.2-0.7,0.1C141.8,148.5,141,147.9,141.5,147.5z"/>
		</g>
		<g>
			<rect x="139.7" y="138.8" class="st0" width="3.1" height="10.8"/>
			<path class="st1" d="M141.5,148c-0.1-0.3-0.2,0.1-0.5,0c0.2-0.2,0.2-0.5,0.1-0.8c0.2-0.2,0.4-0.4,0.7-0.2
				c-0.5-1.1-0.5-2.4-0.8-3.3c-0.3,0.1-0.5,0-0.7-0.3c1.3-0.8-0.2-2,0.6-2.9c-0.2-0.6-1-0.5-1.2-1c0.5-1.8,3.4-0.2,2.2,1.2
				c0.5,2,1.4,4.8,0.5,6.6c0.6,0.6,0.1,1.2,0.1,2c-0.3,0.2-0.4,0.2-0.7,0.1C141.8,149,141,148.4,141.5,148z"/>
		</g>
		<g>
			<rect x="139.7" y="139.3" class="st0" width="3.1" height="10.8"/>
			<path class="st1" d="M141.5,148.6c-0.1-0.3-0.2,0.1-0.5,0c0.2-0.2,0.2-0.5,0.1-0.8c0.2-0.2,0.4-0.4,0.7-0.2
				c-0.5-1.1-0.5-2.4-0.8-3.3c-0.3,0.1-0.5,0-0.7-0.3c1.3-0.8-0.2-2,0.6-2.9c-0.2-0.6-1-0.5-1.2-1c0.5-1.8,3.4-0.2,2.2,1.2
				c0.5,2,1.4,4.8,0.5,6.6c0.6,0.6,0.1,1.2,0.1,2c-0.3,0.2-0.4,0.2-0.7,0.1C141.8,149.5,141,149,141.5,148.6z"/>
		</g>
		<g>
			<rect x="139.7" y="139.9" class="st0" width="3.1" height="10.8"/>
			<path class="st1" d="M141.5,149.1c-0.1-0.3-0.2,0.1-0.5,0c0.2-0.2,0.2-0.5,0.1-0.8c0.2-0.2,0.4-0.4,0.7-0.2
				c-0.5-1.1-0.5-2.4-0.8-3.3c-0.3,0.1-0.5,0-0.7-0.3c1.3-0.8-0.2-2,0.6-2.9c-0.2-0.6-1-0.5-1.2-1c0.5-1.8,3.4-0.2,2.2,1.2
				c0.5,2,1.4,4.8,0.5,6.6c0.6,0.6,0.1,1.2,0.1,2c-0.3,0.2-0.4,0.2-0.7,0.1C141.8,150.1,141,149.5,141.5,149.1z"/>
		</g>
		<g>
			<rect x="139.7" y="140.4" class="st0" width="3.1" height="10.8"/>
			<path class="st1" d="M141.5,149.7c-0.1-0.3-0.2,0.1-0.5,0c0.2-0.2,0.2-0.5,0.1-0.8c0.2-0.2,0.4-0.4,0.7-0.2
				c-0.5-1.1-0.5-2.4-0.8-3.3c-0.3,0.1-0.5,0-0.7-0.3c1.3-0.8-0.2-2,0.6-2.9c-0.2-0.6-1-0.5-1.2-1c0.5-1.8,3.4-0.2,2.2,1.2
				c0.5,2,1.4,4.8,0.5,6.6c0.6,0.6,0.1,1.2,0.1,2c-0.3,0.2-0.4,0.2-0.7,0.1C141.8,150.6,141,150,141.5,149.7z"/>
		</g>
		<g>
			<rect x="139.7" y="141" class="st0" width="3.1" height="10.8"/>
			<path class="st1" d="M141.5,150.2c-0.1-0.3-0.2,0.1-0.5,0c0.2-0.2,0.2-0.5,0.1-0.8c0.2-0.2,0.4-0.4,0.7-0.2
				c-0.5-1.1-0.5-2.4-0.8-3.3c-0.3,0.1-0.5,0-0.7-0.3c1.3-0.8-0.2-2,0.6-2.9c-0.2-0.6-1-0.5-1.2-1c0.5-1.8,3.4-0.2,2.2,1.2
				c0.5,2,1.4,4.8,0.5,6.6c0.6,0.6,0.1,1.2,0.1,2c-0.3,0.2-0.4,0.2-0.7,0.1C141.8,151.2,141,150.6,141.5,150.2z"/>
		</g>
		<g>
			<rect x="139.7" y="141.5" class="st0" width="3.1" height="10.8"/>
			<path class="st1" d="M141.5,150.7c-0.1-0.3-0.2,0.1-0.5,0c0.2-0.2,0.2-0.5,0.1-0.8c0.2-0.2,0.4-0.4,0.7-0.2
				c-0.5-1.1-0.5-2.4-0.8-3.3c-0.3,0.1-0.5,0-0.7-0.3c1.3-0.8-0.2-2,0.6-2.9c-0.2-0.6-1-0.5-1.2-1c0.5-1.8,3.4-0.2,2.2,1.2
				c0.5,2,1.4,4.8,0.5,6.6c0.6,0.6,0.1,1.2,0.1,2c-0.3,0.2-0.4,0.2-0.7,0.1C141.8,151.7,141,151.1,141.5,150.7z"/>
		</g>
		<g>
			<rect x="139.7" y="142" class="st0" width="3.1" height="10.8"/>
			<path class="st1" d="M141.5,151.3c-0.1-0.3-0.2,0.1-0.5,0c0.2-0.2,0.2-0.5,0.1-0.8c0.2-0.2,0.4-0.4,0.7-0.2
				c-0.5-1.1-0.5-2.4-0.8-3.3c-0.3,0.1-0.5,0-0.7-0.3c1.3-0.8-0.2-2,0.6-2.9c-0.2-0.6-1-0.5-1.2-1c0.5-1.8,3.4-0.2,2.2,1.2
				c0.5,2,1.4,4.8,0.5,6.6c0.6,0.6,0.1,1.2,0.1,2c-0.3,0.2-0.4,0.2-0.7,0.1C141.8,152.2,141,151.7,141.5,151.3z"/>
		</g>
		<g>
			<rect x="139.7" y="142.6" class="st0" width="3.1" height="10.8"/>
			<path class="st1" d="M141.5,151.8c-0.1-0.3-0.2,0.1-0.5,0c0.2-0.2,0.2-0.5,0.1-0.8c0.2-0.2,0.4-0.4,0.7-0.2
				c-0.5-1.1-0.5-2.4-0.8-3.3c-0.3,0.1-0.5,0-0.7-0.3c1.3-0.8-0.2-2,0.6-2.9c-0.2-0.6-1-0.5-1.2-1c0.5-1.8,3.4-0.2,2.2,1.2
				c0.5,2,1.4,4.8,0.5,6.6c0.6,0.6,0.1,1.2,0.1,2c-0.3,0.2-0.4,0.2-0.7,0.1C141.8,152.8,141,152.2,141.5,151.8z"/>
		</g>
		<g>
			<rect x="139.7" y="143.1" class="st0" width="3.1" height="10.8"/>
			<path class="st1" d="M141.5,152.4c-0.1-0.3-0.2,0.1-0.5,0c0.2-0.2,0.2-0.5,0.1-0.8c0.2-0.2,0.4-0.4,0.7-0.2
				c-0.5-1.1-0.5-2.4-0.8-3.3c-0.3,0.1-0.5,0-0.7-0.3c1.3-0.8-0.2-2,0.6-2.9c-0.2-0.6-1-0.5-1.2-1c0.5-1.8,3.4-0.2,2.2,1.2
				c0.5,2,1.4,4.8,0.5,6.6c0.6,0.6,0.1,1.2,0.1,2c-0.3,0.2-0.4,0.2-0.7,0.1C141.8,153.3,141,152.7,141.5,152.4z"/>
		</g>
		<g>
			<rect x="139.7" y="143.7" class="st0" width="3.1" height="10.8"/>
			<path class="st1" d="M141.5,152.9c-0.1-0.3-0.2,0.1-0.5,0c0.2-0.2,0.2-0.5,0.1-0.8c0.2-0.2,0.4-0.4,0.7-0.2
				c-0.5-1.1-0.5-2.4-0.8-3.3c-0.3,0.1-0.5,0-0.7-0.3c1.3-0.8-0.2-2,0.6-2.9c-0.2-0.6-1-0.5-1.2-1c0.5-1.8,3.4-0.2,2.2,1.2
				c0.5,2,1.4,4.8,0.5,6.6c0.6,0.6,0.1,1.2,0.1,2c-0.3,0.2-0.4,0.2-0.7,0.1C141.8,153.8,141,153.3,141.5,152.9z"/>
		</g>
		<g>
			<rect x="139.7" y="144.2" class="st0" width="3.1" height="10.8"/>
			<path class="st1" d="M141.5,153.4c-0.1-0.3-0.2,0.1-0.5,0c0.2-0.2,0.2-0.5,0.1-0.8c0.2-0.2,0.4-0.4,0.7-0.2
				c-0.5-1.1-0.5-2.4-0.8-3.3c-0.3,0.1-0.5,0-0.7-0.3c1.3-0.8-0.2-2,0.6-2.9c-0.2-0.6-1-0.5-1.2-1c0.5-1.8,3.4-0.2,2.2,1.2
				c0.5,2,1.4,4.8,0.5,6.6c0.6,0.6,0.1,1.2,0.1,2c-0.3,0.2-0.4,0.2-0.7,0.1C141.8,154.4,141,153.8,141.5,153.4z"/>
		</g>
		<g>
			<rect x="139.7" y="144.7" class="st0" width="3.1" height="10.8"/>
			<path class="st1" d="M141.5,154c-0.1-0.3-0.2,0.1-0.5,0c0.2-0.2,0.2-0.5,0.1-0.8c0.2-0.2,0.4-0.4,0.7-0.2
				c-0.5-1.1-0.5-2.4-0.8-3.3c-0.3,0.1-0.5,0-0.7-0.3c1.3-0.8-0.2-2,0.6-2.9c-0.2-0.6-1-0.5-1.2-1c0.5-1.8,3.4-0.2,2.2,1.2
				c0.5,2,1.4,4.8,0.5,6.6c0.6,0.6,0.1,1.2,0.1,2c-0.3,0.2-0.4,0.2-0.7,0.1C141.8,154.9,141,154.4,141.5,154z"/>
		</g>
		<g>
			<rect x="139.7" y="145.3" class="st0" width="3.1" height="10.8"/>
			<path class="st1" d="M141.5,154.5c-0.1-0.3-0.2,0.1-0.5,0c0.2-0.2,0.2-0.5,0.1-0.8c0.2-0.2,0.4-0.4,0.7-0.2
				c-0.5-1.1-0.5-2.4-0.8-3.3c-0.3,0.1-0.5,0-0.7-0.3c1.3-0.8-0.2-2,0.6-2.9c-0.2-0.6-1-0.5-1.2-1c0.5-1.8,3.4-0.2,2.2,1.2
				c0.5,2,1.4,4.8,0.5,6.6c0.6,0.6,0.1,1.2,0.1,2c-0.3,0.2-0.4,0.2-0.7,0.1C141.8,155.5,141,154.9,141.5,154.5z"/>
		</g>
		<g>
			<rect x="139.7" y="145.8" class="st0" width="3.1" height="10.8"/>
			<path class="st1" d="M141.5,155.1c-0.1-0.3-0.2,0.1-0.5,0c0.2-0.2,0.2-0.5,0.1-0.8c0.2-0.2,0.4-0.4,0.7-0.2
				c-0.5-1.1-0.5-2.4-0.8-3.3c-0.3,0.1-0.5,0-0.7-0.3c1.3-0.8-0.2-2,0.6-2.9c-0.2-0.6-1-0.5-1.2-1c0.5-1.8,3.4-0.2,2.2,1.2
				c0.5,2,1.4,4.8,0.5,6.6c0.6,0.6,0.1,1.2,0.1,2c-0.3,0.2-0.4,0.2-0.7,0.1C141.8,156,141,155.4,141.5,155.1z"/>
		</g>
		<g>
			<rect x="139.7" y="146.4" class="st0" width="3.1" height="10.8"/>
			<path class="st1" d="M141.5,155.6c-0.1-0.3-0.2,0.1-0.5,0c0.2-0.2,0.2-0.5,0.1-0.8c0.2-0.2,0.4-0.4,0.7-0.2
				c-0.5-1.1-0.5-2.4-0.8-3.3c-0.3,0.1-0.5,0-0.7-0.3c1.3-0.8-0.2-2,0.6-2.9c-0.2-0.6-1-0.5-1.2-1c0.5-1.8,3.4-0.2,2.2,1.2
				c0.5,2,1.4,4.8,0.5,6.6c0.6,0.6,0.1,1.2,0.1,2c-0.3,0.2-0.4,0.2-0.7,0.1C141.8,156.5,141,156,141.5,155.6z"/>
		</g>
		<g>
			<rect x="139.7" y="146.9" class="st0" width="3.1" height="10.8"/>
			<path class="st1" d="M141.5,156.1c-0.1-0.3-0.2,0.1-0.5,0c0.2-0.2,0.2-0.5,0.1-0.8c0.2-0.2,0.4-0.4,0.7-0.2
				c-0.5-1.1-0.5-2.4-0.8-3.3c-0.3,0.1-0.5,0-0.7-0.3c1.3-0.8-0.2-2,0.6-2.9c-0.2-0.6-1-0.5-1.2-1c0.5-1.8,3.4-0.2,2.2,1.2
				c0.5,2,1.4,4.8,0.5,6.6c0.6,0.6,0.1,1.2,0.1,2c-0.3,0.2-0.4,0.2-0.7,0.1C141.8,157.1,141,156.5,141.5,156.1z"/>
		</g>
		<g>
			<rect x="139.7" y="147.4" class="st0" width="3.1" height="10.8"/>
			<path class="st1" d="M141.5,156.7c-0.1-0.3-0.2,0.1-0.5,0c0.2-0.2,0.2-0.5,0.1-0.8c0.2-0.2,0.4-0.4,0.7-0.2
				c-0.5-1.1-0.5-2.4-0.8-3.3c-0.3,0.1-0.5,0-0.7-0.3c1.3-0.8-0.2-2,0.6-2.9c-0.2-0.6-1-0.5-1.2-1c0.5-1.8,3.4-0.2,2.2,1.2
				c0.5,2,1.4,4.8,0.5,6.6c0.6,0.6,0.1,1.2,0.1,2c-0.3,0.2-0.4,0.2-0.7,0.1C141.8,157.6,141,157.1,141.5,156.7z"/>
		</g>
		<g>
			<rect x="139.7" y="148" class="st0" width="3.1" height="10.8"/>
			<path class="st1" d="M141.5,157.2c-0.1-0.3-0.2,0.1-0.5,0c0.2-0.2,0.2-0.5,0.1-0.8c0.2-0.2,0.4-0.4,0.7-0.2
				c-0.5-1.1-0.5-2.4-0.8-3.3c-0.3,0.1-0.5,0-0.7-0.3c1.3-0.8-0.2-2,0.6-2.9c-0.2-0.6-1-0.5-1.2-1c0.5-1.8,3.4-0.2,2.2,1.2
				c0.5,2,1.4,4.8,0.5,6.6c0.6,0.6,0.1,1.2,0.1,2c-0.3,0.2-0.4,0.2-0.7,0.1C141.8,158.2,141,157.6,141.5,157.2z"/>
		</g>
		<g>
			<rect x="139.7" y="148.5" class="st0" width="3.1" height="10.8"/>
			<path class="st1" d="M141.5,157.8c-0.1-0.3-0.2,0.1-0.5,0c0.2-0.2,0.2-0.5,0.1-0.8c0.2-0.2,0.4-0.4,0.7-0.2
				c-0.5-1.1-0.5-2.4-0.8-3.3c-0.3,0.1-0.5,0-0.7-0.3c1.3-0.8-0.2-2,0.6-2.9c-0.2-0.6-1-0.5-1.2-1c0.5-1.8,3.4-0.2,2.2,1.2
				c0.5,2,1.4,4.8,0.5,6.6c0.6,0.6,0.1,1.2,0.1,2c-0.3,0.2-0.4,0.2-0.7,0.1C141.8,158.7,141,158.1,141.5,157.8z"/>
		</g>
		<g>
			<rect x="139.7" y="149.1" class="st0" width="3.1" height="10.8"/>
			<path class="st1" d="M141.5,158.3c-0.1-0.3-0.2,0.1-0.5,0c0.2-0.2,0.2-0.5,0.1-0.8c0.2-0.2,0.4-0.4,0.7-0.2
				c-0.5-1.1-0.5-2.4-0.8-3.3c-0.3,0.1-0.5,0-0.7-0.3c1.3-0.8-0.2-2,0.6-2.9c-0.2-0.6-1-0.5-1.2-1c0.5-1.8,3.4-0.2,2.2,1.2
				c0.5,2,1.4,4.8,0.5,6.6c0.6,0.6,0.1,1.2,0.1,2c-0.3,0.2-0.4,0.2-0.7,0.1C141.8,159.2,141,158.7,141.5,158.3z"/>
		</g>
		<g>
			<rect x="139.7" y="149.6" class="st0" width="3.1" height="10.8"/>
			<path class="st1" d="M141.5,158.8c-0.1-0.3-0.2,0.1-0.5,0c0.2-0.2,0.2-0.5,0.1-0.8c0.2-0.2,0.4-0.4,0.7-0.2
				c-0.5-1.1-0.5-2.4-0.8-3.3c-0.3,0.1-0.5,0-0.7-0.3c1.3-0.8-0.2-2,0.6-2.9c-0.2-0.6-1-0.5-1.2-1c0.5-1.8,3.4-0.2,2.2,1.2
				c0.5,2,1.4,4.8,0.5,6.6c0.6,0.6,0.1,1.2,0.1,2c-0.3,0.2-0.4,0.2-0.7,0.1C141.8,159.8,141,159.2,141.5,158.8z"/>
		</g>
		<g>
			<rect x="139.7" y="150.1" class="st0" width="3.1" height="10.8"/>
			<path class="st1" d="M141.5,159.4c-0.1-0.3-0.2,0.1-0.5,0c0.2-0.2,0.2-0.5,0.1-0.8c0.2-0.2,0.4-0.4,0.7-0.2
				c-0.5-1.1-0.5-2.4-0.8-3.3c-0.3,0.1-0.5,0-0.7-0.3c1.3-0.8-0.2-2,0.6-2.9c-0.2-0.6-1-0.5-1.2-1c0.5-1.8,3.4-0.2,2.2,1.2
				c0.5,2,1.4,4.8,0.5,6.6c0.6,0.6,0.1,1.2,0.1,2c-0.3,0.2-0.4,0.2-0.7,0.1C141.8,160.3,141,159.8,141.5,159.4z"/>
		</g>
		<g>
			<rect x="139.7" y="150.7" class="st0" width="3.1" height="10.8"/>
			<path class="st1" d="M141.5,159.9c-0.1-0.3-0.2,0.1-0.5,0c0.2-0.2,0.2-0.5,0.1-0.8c0.2-0.2,0.4-0.4,0.7-0.2
				c-0.5-1.1-0.5-2.4-0.8-3.3c-0.3,0.1-0.5,0-0.7-0.3c1.3-0.8-0.2-2,0.6-2.9c-0.2-0.6-1-0.5-1.2-1c0.5-1.8,3.4-0.2,2.2,1.2
				c0.5,2,1.4,4.8,0.5,6.6c0.6,0.6,0.1,1.2,0.1,2c-0.3,0.2-0.4,0.2-0.7,0.1C141.8,160.9,141,160.3,141.5,159.9z"/>
		</g>
		<g>
			<rect x="139.7" y="151.2" class="st0" width="3.1" height="10.8"/>
			<path class="st1" d="M141.5,160.5c-0.1-0.3-0.2,0.1-0.5,0c0.2-0.2,0.2-0.5,0.1-0.8c0.2-0.2,0.4-0.4,0.7-0.2
				c-0.5-1.1-0.5-2.4-0.8-3.3c-0.3,0.1-0.5,0-0.7-0.3c1.3-0.8-0.2-2,0.6-2.9c-0.2-0.6-1-0.5-1.2-1c0.5-1.8,3.4-0.2,2.2,1.2
				c0.5,2,1.4,4.8,0.5,6.6c0.6,0.6,0.1,1.2,0.1,2c-0.3,0.2-0.4,0.2-0.7,0.1C141.8,161.4,141,160.8,141.5,160.5z"/>
		</g>
		<g>
			<rect x="139.7" y="151.8" class="st0" width="3.1" height="10.8"/>
			<path class="st1" d="M141.5,161c-0.1-0.3-0.2,0.1-0.5,0c0.2-0.2,0.2-0.5,0.1-0.8c0.2-0.2,0.4-0.4,0.7-0.2
				c-0.5-1.1-0.5-2.4-0.8-3.3c-0.3,0.1-0.5,0-0.7-0.3c1.3-0.8-0.2-2,0.6-2.9c-0.2-0.6-1-0.5-1.2-1c0.5-1.8,3.4-0.2,2.2,1.2
				c0.5,2,1.4,4.8,0.5,6.6c0.6,0.6,0.1,1.2,0.1,2c-0.3,0.2-0.4,0.2-0.7,0.1C141.8,161.9,141,161.4,141.5,161z"/>
		</g>
		<g>
			<rect x="139.7" y="152.3" class="st0" width="3.1" height="10.8"/>
			<path class="st1" d="M141.5,161.5c-0.1-0.3-0.2,0.1-0.5,0c0.2-0.2,0.2-0.5,0.1-0.8c0.2-0.2,0.4-0.4,0.7-0.2
				c-0.5-1.1-0.5-2.4-0.8-3.3c-0.3,0.1-0.5,0-0.7-0.3c1.3-0.8-0.2-2,0.6-2.9c-0.2-0.6-1-0.5-1.2-1c0.5-1.8,3.4-0.2,2.2,1.2
				c0.5,2,1.4,4.8,0.5,6.6c0.6,0.6,0.1,1.2,0.1,2c-0.3,0.2-0.4,0.2-0.7,0.1C141.8,162.5,141,161.9,141.5,161.5z"/>
		</g>
		<g>
			<rect x="139.7" y="152.8" class="st0" width="3.1" height="10.8"/>
			<path class="st1" d="M141.5,162.1c-0.1-0.3-0.2,0.1-0.5,0c0.2-0.2,0.2-0.5,0.1-0.8c0.2-0.2,0.4-0.4,0.7-0.2
				c-0.5-1.1-0.5-2.4-0.8-3.3c-0.3,0.1-0.5,0-0.7-0.3c1.3-0.8-0.2-2,0.6-2.9c-0.2-0.6-1-0.5-1.2-1c0.5-1.8,3.4-0.2,2.2,1.2
				c0.5,2,1.4,4.8,0.5,6.6c0.6,0.6,0.1,1.2,0.1,2c-0.3,0.2-0.4,0.2-0.7,0.1C141.8,163,141,162.5,141.5,162.1z"/>
		</g>
		<g>
			<rect x="139.7" y="153.4" class="st0" width="3.1" height="10.8"/>
			<path class="st1" d="M141.5,162.6c-0.1-0.3-0.2,0.1-0.5,0c0.2-0.2,0.2-0.5,0.1-0.8c0.2-0.2,0.4-0.4,0.7-0.2
				c-0.5-1.1-0.5-2.4-0.8-3.3c-0.3,0.1-0.5,0-0.7-0.3c1.3-0.8-0.2-2,0.6-2.9c-0.2-0.6-1-0.5-1.2-1c0.5-1.8,3.4-0.2,2.2,1.2
				c0.5,2,1.4,4.8,0.5,6.6c0.6,0.6,0.1,1.2,0.1,2c-0.3,0.2-0.4,0.2-0.7,0.1C141.8,163.6,141,163,141.5,162.6z"/>
		</g>
		<g>
			<rect x="139.7" y="153.9" class="st0" width="3.1" height="10.8"/>
			<path class="st1" d="M141.5,163.2c-0.1-0.3-0.2,0.1-0.5,0c0.2-0.2,0.2-0.5,0.1-0.8c0.2-0.2,0.4-0.4,0.7-0.2
				c-0.5-1.1-0.5-2.4-0.8-3.3c-0.3,0.1-0.5,0-0.7-0.3c1.3-0.8-0.2-2,0.6-2.9c-0.2-0.6-1-0.5-1.2-1c0.5-1.8,3.4-0.2,2.2,1.2
				c0.5,2,1.4,4.8,0.5,6.6c0.6,0.6,0.1,1.2,0.1,2c-0.3,0.2-0.4,0.2-0.7,0.1C141.8,164.1,141,163.5,141.5,163.2z"/>
		</g>
		<g>
			<rect x="139.7" y="154.4" class="st0" width="3.1" height="10.8"/>
			<path class="st1" d="M141.5,163.7c-0.1-0.3-0.2,0.1-0.5,0c0.2-0.2,0.2-0.5,0.1-0.8c0.2-0.2,0.4-0.4,0.7-0.2
				c-0.5-1.1-0.5-2.4-0.8-3.3c-0.3,0.1-0.5,0-0.7-0.3c1.3-0.8-0.2-2,0.6-2.9c-0.2-0.6-1-0.5-1.2-1c0.5-1.8,3.4-0.2,2.2,1.2
				c0.5,2,1.4,4.8,0.5,6.6c0.6,0.6,0.1,1.2,0.1,2c-0.3,0.2-0.4,0.2-0.7,0.1C141.8,164.6,141,164.1,141.5,163.7z"/>
		</g>
		<g>
			<rect x="139.7" y="155" class="st0" width="3.1" height="10.8"/>
			<path class="st1" d="M141.5,164.2c-0.1-0.3-0.2,0.1-0.5,0c0.2-0.2,0.2-0.5,0.1-0.8c0.2-0.2,0.4-0.4,0.7-0.2
				c-0.5-1.1-0.5-2.4-0.8-3.3c-0.3,0.1-0.5,0-0.7-0.3c1.3-0.8-0.2-2,0.6-2.9c-0.2-0.6-1-0.5-1.2-1c0.5-1.8,3.4-0.2,2.2,1.2
				c0.5,2,1.4,4.8,0.5,6.6c0.6,0.6,0.1,1.2,0.1,2c-0.3,0.2-0.4,0.2-0.7,0.1C141.8,165.2,141,164.6,141.5,164.2z"/>
		</g>
		<g>
			<rect x="139.7" y="155.5" class="st0" width="3.1" height="10.8"/>
			<path class="st1" d="M141.5,164.8c-0.1-0.3-0.2,0.1-0.5,0c0.2-0.2,0.2-0.5,0.1-0.8c0.2-0.2,0.4-0.4,0.7-0.2
				c-0.5-1.1-0.5-2.4-0.8-3.3c-0.3,0.1-0.5,0-0.7-0.3c1.3-0.8-0.2-2,0.6-2.9c-0.2-0.6-1-0.5-1.2-1c0.5-1.8,3.4-0.2,2.2,1.2
				c0.5,2,1.4,4.8,0.5,6.6c0.6,0.6,0.1,1.2,0.1,2c-0.3,0.2-0.4,0.2-0.7,0.1C141.8,165.7,141,165.2,141.5,164.8z"/>
		</g>
		<g>
			<rect x="139.7" y="156.1" class="st0" width="3.1" height="10.8"/>
			<path class="st1" d="M141.5,165.3c-0.1-0.3-0.2,0.1-0.5,0c0.2-0.2,0.2-0.5,0.1-0.8c0.2-0.2,0.4-0.4,0.7-0.2
				c-0.5-1.1-0.5-2.4-0.8-3.3c-0.3,0.1-0.5,0-0.7-0.3c1.3-0.8-0.2-2,0.6-2.9c-0.2-0.6-1-0.5-1.2-1c0.5-1.8,3.4-0.2,2.2,1.2
				c0.5,2,1.4,4.8,0.5,6.6c0.6,0.6,0.1,1.2,0.1,2c-0.3,0.2-0.4,0.2-0.7,0.1C141.8,166.3,141,165.7,141.5,165.3z"/>
		</g>
		<g>
			<rect x="139.7" y="156.6" class="st0" width="3.1" height="10.8"/>
			<path class="st1" d="M141.5,165.9c-0.1-0.3-0.2,0.1-0.5,0c0.2-0.2,0.2-0.5,0.1-0.8c0.2-0.2,0.4-0.4,0.7-0.2
				c-0.5-1.1-0.5-2.4-0.8-3.3c-0.3,0.1-0.5,0-0.7-0.3c1.3-0.8-0.2-2,0.6-2.9c-0.2-0.6-1-0.5-1.2-1c0.5-1.8,3.4-0.2,2.2,1.2
				c0.5,2,1.4,4.8,0.5,6.6c0.6,0.6,0.1,1.2,0.1,2c-0.3,0.2-0.4,0.2-0.7,0.1C141.8,166.8,141,166.2,141.5,165.9z"/>
		</g>
		<g>
			<rect x="139.7" y="157.1" class="st0" width="3.1" height="10.8"/>
			<path class="st1" d="M141.5,166.4c-0.1-0.3-0.2,0.1-0.5,0c0.2-0.2,0.2-0.5,0.1-0.8c0.2-0.2,0.4-0.4,0.7-0.2
				c-0.5-1.1-0.5-2.4-0.8-3.3c-0.3,0.1-0.5,0-0.7-0.3c1.3-0.8-0.2-2,0.6-2.9c-0.2-0.6-1-0.5-1.2-1c0.5-1.8,3.4-0.2,2.2,1.2
				c0.5,2,1.4,4.8,0.5,6.6c0.6,0.6,0.1,1.2,0.1,2c-0.3,0.2-0.4,0.2-0.7,0.1C141.8,167.3,141,166.8,141.5,166.4z"/>
		</g>
		<g>
			<rect x="139.7" y="157.7" class="st0" width="3.1" height="10.8"/>
			<path class="st1" d="M141.5,166.9c-0.1-0.3-0.2,0.1-0.5,0c0.2-0.2,0.2-0.5,0.1-0.8c0.2-0.2,0.4-0.4,0.7-0.2
				c-0.5-1.1-0.5-2.4-0.8-3.3c-0.3,0.1-0.5,0-0.7-0.3c1.3-0.8-0.2-2,0.6-2.9c-0.2-0.6-1-0.5-1.2-1c0.5-1.8,3.4-0.2,2.2,1.2
				c0.5,2,1.4,4.8,0.5,6.6c0.6,0.6,0.1,1.2,0.1,2c-0.3,0.2-0.4,0.2-0.7,0.1C141.8,167.9,141,167.3,141.5,166.9z"/>
		</g>
		<g>
			<rect x="139.7" y="158.2" class="st0" width="3.1" height="10.8"/>
			<path class="st1" d="M141.5,167.5c-0.1-0.3-0.2,0.1-0.5,0c0.2-0.2,0.2-0.5,0.1-0.8c0.2-0.2,0.4-0.4,0.7-0.2
				c-0.5-1.1-0.5-2.4-0.8-3.3c-0.3,0.1-0.5,0-0.7-0.3c1.3-0.8-0.2-2,0.6-2.9c-0.2-0.6-1-0.5-1.2-1c0.5-1.8,3.4-0.2,2.2,1.2
				c0.5,2,1.4,4.8,0.5,6.6c0.6,0.6,0.1,1.2,0.1,2c-0.3,0.2-0.4,0.2-0.7,0.1C141.8,168.4,141,167.9,141.5,167.5z"/>
		</g>
		<g>
			<rect x="139.7" y="158.8" class="st0" width="3.1" height="10.8"/>
			<path class="st1" d="M141.5,168c-0.1-0.3-0.2,0.1-0.5,0c0.2-0.2,0.2-0.5,0.1-0.8c0.2-0.2,0.4-0.4,0.7-0.2
				c-0.5-1.1-0.5-2.4-0.8-3.3c-0.3,0.1-0.5,0-0.7-0.3c1.3-0.8-0.2-2,0.6-2.9c-0.2-0.6-1-0.5-1.2-1c0.5-1.8,3.4-0.2,2.2,1.2
				c0.5,2,1.4,4.8,0.5,6.6c0.6,0.6,0.1,1.2,0.1,2c-0.3,0.2-0.4,0.2-0.7,0.1C141.8,169,141,168.4,141.5,168z"/>
		</g>
		<g>
			<rect x="139.7" y="159.3" class="st0" width="3.1" height="10.8"/>
			<path class="st1" d="M141.5,168.6c-0.1-0.3-0.2,0.1-0.5,0c0.2-0.2,0.2-0.5,0.1-0.8c0.2-0.2,0.4-0.4,0.7-0.2
				c-0.5-1.1-0.5-2.4-0.8-3.3c-0.3,0.1-0.5,0-0.7-0.3c1.3-0.8-0.2-2,0.6-2.9c-0.2-0.6-1-0.5-1.2-1c0.5-1.8,3.4-0.2,2.2,1.2
				c0.5,2,1.4,4.8,0.5,6.6c0.6,0.6,0.1,1.2,0.1,2c-0.3,0.2-0.4,0.2-0.7,0.1C141.8,169.5,141,168.9,141.5,168.6z"/>
		</g>
		<g>
			<rect x="139.7" y="159.8" class="st0" width="3.1" height="10.8"/>
			<path class="st1" d="M141.5,169.1c-0.1-0.3-0.2,0.1-0.5,0c0.2-0.2,0.2-0.5,0.1-0.8c0.2-0.2,0.4-0.4,0.7-0.2
				c-0.5-1.1-0.5-2.4-0.8-3.3c-0.3,0.1-0.5,0-0.7-0.3c1.3-0.8-0.2-2,0.6-2.9c-0.2-0.6-1-0.5-1.2-1c0.5-1.8,3.4-0.2,2.2,1.2
				c0.5,2,1.4,4.8,0.5,6.6c0.6,0.6,0.1,1.2,0.1,2c-0.3,0.2-0.4,0.2-0.7,0.1C141.8,170,141,169.5,141.5,169.1z"/>
		</g>
		<g>
			<rect x="139.7" y="160.4" class="st0" width="3.1" height="10.8"/>
			<path class="st1" d="M141.5,169.6c-0.1-0.3-0.2,0.1-0.5,0c0.2-0.2,0.2-0.5,0.1-0.8c0.2-0.2,0.4-0.4,0.7-0.2
				c-0.5-1.1-0.5-2.4-0.8-3.3c-0.3,0.1-0.5,0-0.7-0.3c1.3-0.8-0.2-2,0.6-2.9c-0.2-0.6-1-0.5-1.2-1c0.5-1.8,3.4-0.2,2.2,1.2
				c0.5,2,1.4,4.8,0.5,6.6c0.6,0.6,0.1,1.2,0.1,2c-0.3,0.2-0.4,0.2-0.7,0.1C141.8,170.6,141,170,141.5,169.6z"/>
		</g>
		<g>
			<rect x="139.7" y="160.9" class="st0" width="3.1" height="10.8"/>
			<path class="st1" d="M141.5,170.2c-0.1-0.3-0.2,0.1-0.5,0c0.2-0.2,0.2-0.5,0.1-0.8c0.2-0.2,0.4-0.4,0.7-0.2
				c-0.5-1.1-0.5-2.4-0.8-3.3c-0.3,0.1-0.5,0-0.7-0.3c1.3-0.8-0.2-2,0.6-2.9c-0.2-0.6-1-0.5-1.2-1c0.5-1.8,3.4-0.2,2.2,1.2
				c0.5,2,1.4,4.8,0.5,6.6c0.6,0.6,0.1,1.2,0.1,2c-0.3,0.2-0.4,0.2-0.7,0.1C141.8,171.1,141,170.5,141.5,170.2z"/>
		</g>
		<g>
			<rect x="139.7" y="161.5" class="st0" width="3.1" height="10.8"/>
			<path class="st1" d="M141.5,170.7c-0.1-0.3-0.2,0.1-0.5,0c0.2-0.2,0.2-0.5,0.1-0.8c0.2-0.2,0.4-0.4,0.7-0.2
				c-0.5-1.1-0.5-2.4-0.8-3.3c-0.3,0.1-0.5,0-0.7-0.3c1.3-0.8-0.2-2,0.6-2.9c-0.2-0.6-1-0.5-1.2-1c0.5-1.8,3.4-0.2,2.2,1.2
				c0.5,2,1.4,4.8,0.5,6.6c0.6,0.6,0.1,1.2,0.1,2c-0.3,0.2-0.4,0.2-0.7,0.1C141.8,171.7,141,171.1,141.5,170.7z"/>
		</g>
		<g>
			<rect x="139.7" y="162" class="st0" width="3.1" height="10.8"/>
			<path class="st1" d="M141.5,171.3c-0.1-0.3-0.2,0.1-0.5,0c0.2-0.2,0.2-0.5,0.1-0.8c0.2-0.2,0.4-0.4,0.7-0.2
				c-0.5-1.1-0.5-2.4-0.8-3.3c-0.3,0.1-0.5,0-0.7-0.3c1.3-0.8-0.2-2,0.6-2.9c-0.2-0.6-1-0.5-1.2-1c0.5-1.8,3.4-0.2,2.2,1.2
				c0.5,2,1.4,4.8,0.5,6.6c0.6,0.6,0.1,1.2,0.1,2c-0.3,0.2-0.4,0.2-0.7,0.1C141.8,172.2,141,171.6,141.5,171.3z"/>
		</g>
		<g>
			<rect x="139.7" y="162.5" class="st0" width="3.1" height="10.8"/>
			<path class="st1" d="M141.5,171.8c-0.1-0.3-0.2,0.1-0.5,0c0.2-0.2,0.2-0.5,0.1-0.8c0.2-0.2,0.4-0.4,0.7-0.2
				c-0.5-1.1-0.5-2.4-0.8-3.3c-0.3,0.1-0.5,0-0.7-0.3c1.3-0.8-0.2-2,0.6-2.9c-0.2-0.6-1-0.5-1.2-1c0.5-1.8,3.4-0.2,2.2,1.2
				c0.5,2,1.4,4.8,0.5,6.6c0.6,0.6,0.1,1.2,0.1,2c-0.3,0.2-0.4,0.2-0.7,0.1C141.8,172.7,141,172.2,141.5,171.8z"/>
		</g>
		<g>
			<rect x="139.7" y="163.1" class="st0" width="3.1" height="10.8"/>
			<path class="st1" d="M141.5,172.3c-0.1-0.3-0.2,0.1-0.5,0c0.2-0.2,0.2-0.5,0.1-0.8c0.2-0.2,0.4-0.4,0.7-0.2
				c-0.5-1.1-0.5-2.4-0.8-3.3c-0.3,0.1-0.5,0-0.7-0.3c1.3-0.8-0.2-2,0.6-2.9c-0.2-0.6-1-0.5-1.2-1c0.5-1.8,3.4-0.2,2.2,1.2
				c0.5,2,1.4,4.8,0.5,6.6c0.6,0.6,0.1,1.2,0.1,2c-0.3,0.2-0.4,0.2-0.7,0.1C141.8,173.3,141,172.7,141.5,172.3z"/>
		</g>
		<g>
			<rect x="139.7" y="163.6" class="st0" width="3.1" height="10.8"/>
			<path class="st1" d="M141.5,172.9c-0.1-0.3-0.2,0.1-0.5,0c0.2-0.2,0.2-0.5,0.1-0.8c0.2-0.2,0.4-0.4,0.7-0.2
				c-0.5-1.1-0.5-2.4-0.8-3.3c-0.3,0.1-0.5,0-0.7-0.3c1.3-0.8-0.2-2,0.6-2.9c-0.2-0.6-1-0.5-1.2-1c0.5-1.8,3.4-0.2,2.2,1.2
				c0.5,2,1.4,4.8,0.5,6.6c0.6,0.6,0.1,1.2,0.1,2c-0.3,0.2-0.4,0.2-0.7,0.1C141.8,173.8,141,173.2,141.5,172.9z"/>
		</g>
		<g>
			<rect x="139.7" y="164.2" class="st0" width="3.1" height="10.8"/>
			<path class="st1" d="M141.5,173.4c-0.1-0.3-0.2,0.1-0.5,0c0.2-0.2,0.2-0.5,0.1-0.8c0.2-0.2,0.4-0.4,0.7-0.2
				c-0.5-1.1-0.5-2.4-0.8-3.3c-0.3,0.1-0.5,0-0.7-0.3c1.3-0.8-0.2-2,0.6-2.9c-0.2-0.6-1-0.5-1.2-1c0.5-1.8,3.4-0.2,2.2,1.2
				c0.5,2,1.4,4.8,0.5,6.6c0.6,0.6,0.1,1.2,0.1,2c-0.3,0.2-0.4,0.2-0.7,0.1C141.8,174.4,141,173.8,141.5,173.4z"/>
		</g>
		<g>
			<rect x="139.7" y="164.7" class="st0" width="3.1" height="10.8"/>
			<path class="st1" d="M141.5,174c-0.1-0.3-0.2,0.1-0.5,0c0.2-0.2,0.2-0.5,0.1-0.8c0.2-0.2,0.4-0.4,0.7-0.2
				c-0.5-1.1-0.5-2.4-0.8-3.3c-0.3,0.1-0.5,0-0.7-0.3c1.3-0.8-0.2-2,0.6-2.9c-0.2-0.6-1-0.5-1.2-1c0.5-1.8,3.4-0.2,2.2,1.2
				c0.5,2,1.4,4.8,0.5,6.6c0.6,0.6,0.1,1.2,0.1,2c-0.3,0.2-0.4,0.2-0.7,0.1C141.8,174.9,141,174.3,141.5,174z"/>
		</g>
		<g>
			<rect x="139.7" y="165.2" class="st0" width="3.1" height="10.8"/>
			<path class="st1" d="M141.5,174.5c-0.1-0.3-0.2,0.1-0.5,0c0.2-0.2,0.2-0.5,0.1-0.8c0.2-0.2,0.4-0.4,0.7-0.2
				c-0.5-1.1-0.5-2.4-0.8-3.3c-0.3,0.1-0.5,0-0.7-0.3c1.3-0.8-0.2-2,0.6-2.9c-0.2-0.6-1-0.5-1.2-1c0.5-1.8,3.4-0.2,2.2,1.2
				c0.5,2,1.4,4.8,0.5,6.6c0.6,0.6,0.1,1.2,0.1,2c-0.3,0.2-0.4,0.2-0.7,0.1C141.8,175.4,141,174.9,141.5,174.5z"/>
		</g>
		<g>
			<rect x="139.7" y="165.8" class="st0" width="3.1" height="10.8"/>
			<path class="st1" d="M141.5,175c-0.1-0.3-0.2,0.1-0.5,0c0.2-0.2,0.2-0.5,0.1-0.8c0.2-0.2,0.4-0.4,0.7-0.2
				c-0.5-1.1-0.5-2.4-0.8-3.3c-0.3,0.1-0.5,0-0.7-0.3c1.3-0.8-0.2-2,0.6-2.9c-0.2-0.6-1-0.5-1.2-1c0.5-1.8,3.4-0.2,2.2,1.2
				c0.5,2,1.4,4.8,0.5,6.6c0.6,0.6,0.1,1.2,0.1,2c-0.3,0.2-0.4,0.2-0.7,0.1C141.8,176,141,175.4,141.5,175z"/>
		</g>
		<g>
			<rect x="139.7" y="166.3" class="st0" width="3.1" height="10.8"/>
			<path class="st1" d="M141.5,175.6c-0.1-0.3-0.2,0.1-0.5,0c0.2-0.2,0.2-0.5,0.1-0.8c0.2-0.2,0.4-0.4,0.7-0.2
				c-0.5-1.1-0.5-2.4-0.8-3.3c-0.3,0.1-0.5,0-0.7-0.3c1.3-0.8-0.2-2,0.6-2.9c-0.2-0.6-1-0.5-1.2-1c0.5-1.8,3.4-0.2,2.2,1.2
				c0.5,2,1.4,4.8,0.5,6.6c0.6,0.6,0.1,1.2,0.1,2c-0.3,0.2-0.4,0.2-0.7,0.1C141.8,176.5,141,175.9,141.5,175.6z"/>
		</g>
		<g>
			<rect x="139.7" y="166.9" class="st0" width="3.1" height="10.8"/>
			<path class="st1" d="M141.5,176.1c-0.1-0.3-0.2,0.1-0.5,0c0.2-0.2,0.2-0.5,0.1-0.8c0.2-0.2,0.4-0.4,0.7-0.2
				c-0.5-1.1-0.5-2.4-0.8-3.3c-0.3,0.1-0.5,0-0.7-0.3c1.3-0.8-0.2-2,0.6-2.9c-0.2-0.6-1-0.5-1.2-1c0.5-1.8,3.4-0.2,2.2,1.2
				c0.5,2,1.4,4.8,0.5,6.6c0.6,0.6,0.1,1.2,0.1,2c-0.3,0.2-0.4,0.2-0.7,0.1C141.8,177.1,141,176.5,141.5,176.1z"/>
		</g>
		<g>
			<rect x="139.7" y="167.4" class="st0" width="3.1" height="10.8"/>
			<path class="st1" d="M141.5,176.6c-0.1-0.3-0.2,0.1-0.5,0c0.2-0.2,0.2-0.5,0.1-0.8c0.2-0.2,0.4-0.4,0.7-0.2
				c-0.5-1.1-0.5-2.4-0.8-3.3c-0.3,0.1-0.5,0-0.7-0.3c1.3-0.8-0.2-2,0.6-2.9c-0.2-0.6-1-0.5-1.2-1c0.5-1.8,3.4-0.2,2.2,1.2
				c0.5,2,1.4,4.8,0.5,6.6c0.6,0.6,0.1,1.2,0.1,2c-0.3,0.2-0.4,0.2-0.7,0.1C141.8,177.6,141,177,141.5,176.6z"/>
		</g>
		<g>
			<rect x="139.7" y="167.9" class="st0" width="3.1" height="10.8"/>
			<path class="st1" d="M141.5,177.2c-0.1-0.3-0.2,0.1-0.5,0c0.2-0.2,0.2-0.5,0.1-0.8c0.2-0.2,0.4-0.4,0.7-0.2
				c-0.5-1.1-0.5-2.4-0.8-3.3c-0.3,0.1-0.5,0-0.7-0.3c1.3-0.8-0.2-2,0.6-2.9c-0.2-0.6-1-0.5-1.2-1c0.5-1.8,3.4-0.2,2.2,1.2
				c0.5,2,1.4,4.8,0.5,6.6c0.6,0.6,0.1,1.2,0.1,2c-0.3,0.2-0.4,0.2-0.7,0.1C141.8,178.1,141,177.6,141.5,177.2z"/>
		</g>
		<g>
			<rect x="139.7" y="168.5" class="st0" width="3.1" height="10.8"/>
			<path class="st1" d="M141.5,177.7c-0.1-0.3-0.2,0.1-0.5,0c0.2-0.2,0.2-0.5,0.1-0.8c0.2-0.2,0.4-0.4,0.7-0.2
				c-0.5-1.1-0.5-2.4-0.8-3.3c-0.3,0.1-0.5,0-0.7-0.3c1.3-0.8-0.2-2,0.6-2.9c-0.2-0.6-1-0.5-1.2-1c0.5-1.8,3.4-0.2,2.2,1.2
				c0.5,2,1.4,4.8,0.5,6.6c0.6,0.6,0.1,1.2,0.1,2c-0.3,0.2-0.4,0.2-0.7,0.1C141.8,178.7,141,178.1,141.5,177.7z"/>
		</g>
		<g>
			<rect x="139.7" y="169" class="st0" width="3.1" height="10.8"/>
			<path class="st1" d="M141.5,178.3c-0.1-0.3-0.2,0.1-0.5,0c0.2-0.2,0.2-0.5,0.1-0.8c0.2-0.2,0.4-0.4,0.7-0.2
				c-0.5-1.1-0.5-2.4-0.8-3.3c-0.3,0.1-0.5,0-0.7-0.3c1.3-0.8-0.2-2,0.6-2.9c-0.2-0.6-1-0.5-1.2-1c0.5-1.8,3.4-0.2,2.2,1.2
				c0.5,2,1.4,4.8,0.5,6.6c0.6,0.6,0.1,1.2,0.1,2c-0.3,0.2-0.4,0.2-0.7,0.1C141.8,179.2,141,178.6,141.5,178.3z"/>
		</g>
		<g>
			<rect x="139.7" y="169.6" class="st0" width="3.1" height="10.8"/>
			<path class="st1" d="M141.5,178.8c-0.1-0.3-0.2,0.1-0.5,0c0.2-0.2,0.2-0.5,0.1-0.8c0.2-0.2,0.4-0.4,0.7-0.2
				c-0.5-1.1-0.5-2.4-0.8-3.3c-0.3,0.1-0.5,0-0.7-0.3c1.3-0.8-0.2-2,0.6-2.9c-0.2-0.6-1-0.5-1.2-1c0.5-1.8,3.4-0.2,2.2,1.2
				c0.5,2,1.4,4.8,0.5,6.6c0.6,0.6,0.1,1.2,0.1,2c-0.3,0.2-0.4,0.2-0.7,0.1C141.8,179.7,141,179.2,141.5,178.8z"/>
		</g>
		<g>
			<rect x="139.7" y="170.1" class="st0" width="3.1" height="10.8"/>
			<path class="st1" d="M141.5,179.3c-0.1-0.3-0.2,0.1-0.5,0c0.2-0.2,0.2-0.5,0.1-0.8c0.2-0.2,0.4-0.4,0.7-0.2
				c-0.5-1.1-0.5-2.4-0.8-3.3c-0.3,0.1-0.5,0-0.7-0.3c1.3-0.8-0.2-2,0.6-2.9c-0.2-0.6-1-0.5-1.2-1c0.5-1.8,3.4-0.2,2.2,1.2
				c0.5,2,1.4,4.8,0.5,6.6c0.6,0.6,0.1,1.2,0.1,2c-0.3,0.2-0.4,0.2-0.7,0.1C141.8,180.3,141,179.7,141.5,179.3z"/>
		</g>
		<g>
			<rect x="139.7" y="170.6" class="st0" width="3.1" height="10.8"/>
			<path class="st1" d="M141.5,179.9c-0.1-0.3-0.2,0.1-0.5,0c0.2-0.2,0.2-0.5,0.1-0.8c0.2-0.2,0.4-0.4,0.7-0.2
				c-0.5-1.1-0.5-2.4-0.8-3.3c-0.3,0.1-0.5,0-0.7-0.3c1.3-0.8-0.2-2,0.6-2.9c-0.2-0.6-1-0.5-1.2-1c0.5-1.8,3.4-0.2,2.2,1.2
				c0.5,2,1.4,4.8,0.5,6.6c0.6,0.6,0.1,1.2,0.1,2c-0.3,0.2-0.4,0.2-0.7,0.1C141.8,180.8,141,180.3,141.5,179.9z"/>
		</g>
		<g>
			<rect x="139.7" y="171.2" class="st0" width="3.1" height="10.8"/>
			<path class="st1" d="M141.5,180.4c-0.1-0.3-0.2,0.1-0.5,0c0.2-0.2,0.2-0.5,0.1-0.8c0.2-0.2,0.4-0.4,0.7-0.2
				c-0.5-1.1-0.5-2.4-0.8-3.3c-0.3,0.1-0.5,0-0.7-0.3c1.3-0.8-0.2-2,0.6-2.9c-0.2-0.6-1-0.5-1.2-1c0.5-1.8,3.4-0.2,2.2,1.2
				c0.5,2,1.4,4.8,0.5,6.6c0.6,0.6,0.1,1.2,0.1,2c-0.3,0.2-0.4,0.2-0.7,0.1C141.8,181.4,141,180.8,141.5,180.4z"/>
		</g>
		<g>
			<rect x="139.7" y="171.7" class="st0" width="3.1" height="10.8"/>
			<path class="st1" d="M141.5,181c-0.1-0.3-0.2,0.1-0.5,0c0.2-0.2,0.2-0.5,0.1-0.8c0.2-0.2,0.4-0.4,0.7-0.2
				c-0.5-1.1-0.5-2.4-0.8-3.3c-0.3,0.1-0.5,0-0.7-0.3c1.3-0.8-0.2-2,0.6-2.9c-0.2-0.6-1-0.5-1.2-1c0.5-1.8,3.4-0.2,2.2,1.2
				c0.5,2,1.4,4.8,0.5,6.6c0.6,0.6,0.1,1.2,0.1,2c-0.3,0.2-0.4,0.2-0.7,0.1C141.8,181.9,141,181.3,141.5,181z"/>
		</g>
		<g>
			<rect x="139.7" y="172.3" class="st0" width="3.1" height="10.8"/>
			<path class="st1" d="M141.5,181.5c-0.1-0.3-0.2,0.1-0.5,0c0.2-0.2,0.2-0.5,0.1-0.8c0.2-0.2,0.4-0.4,0.7-0.2
				c-0.5-1.1-0.5-2.4-0.8-3.3c-0.3,0.1-0.5,0-0.7-0.3c1.3-0.8-0.2-2,0.6-2.9c-0.2-0.6-1-0.5-1.2-1c0.5-1.8,3.4-0.2,2.2,1.2
				c0.5,2,1.4,4.8,0.5,6.6c0.6,0.6,0.1,1.2,0.1,2c-0.3,0.2-0.4,0.2-0.7,0.1C141.8,182.4,141,181.9,141.5,181.5z"/>
		</g>
		<g>
			<rect x="139.7" y="172.8" class="st0" width="3.1" height="10.8"/>
			<path class="st1" d="M141.5,182c-0.1-0.3-0.2,0.1-0.5,0c0.2-0.2,0.2-0.5,0.1-0.8c0.2-0.2,0.4-0.4,0.7-0.2
				c-0.5-1.1-0.5-2.4-0.8-3.3c-0.3,0.1-0.5,0-0.7-0.3c1.3-0.8-0.2-2,0.6-2.9c-0.2-0.6-1-0.5-1.2-1c0.5-1.8,3.4-0.2,2.2,1.2
				c0.5,2,1.4,4.8,0.5,6.6c0.6,0.6,0.1,1.2,0.1,2c-0.3,0.2-0.4,0.2-0.7,0.1C141.8,183,141,182.4,141.5,182z"/>
		</g>
		<g>
			<rect x="139.7" y="173.3" class="st0" width="3.1" height="10.8"/>
			<path class="st1" d="M141.5,182.6c-0.1-0.3-0.2,0.1-0.5,0c0.2-0.2,0.2-0.5,0.1-0.8c0.2-0.2,0.4-0.4,0.7-0.2
				c-0.5-1.1-0.5-2.4-0.8-3.3c-0.3,0.1-0.5,0-0.7-0.3c1.3-0.8-0.2-2,0.6-2.9c-0.2-0.6-1-0.5-1.2-1c0.5-1.8,3.4-0.2,2.2,1.2
				c0.5,2,1.4,4.8,0.5,6.6c0.6,0.6,0.1,1.2,0.1,2c-0.3,0.2-0.4,0.2-0.7,0.1C141.8,183.5,141,183,141.5,182.6z"/>
		</g>
		<g>
			<rect x="139.7" y="173.9" class="st0" width="3.1" height="10.8"/>
			<path class="st1" d="M141.5,183.1c-0.1-0.3-0.2,0.1-0.5,0c0.2-0.2,0.2-0.5,0.1-0.8c0.2-0.2,0.4-0.4,0.7-0.2
				c-0.5-1.1-0.5-2.4-0.8-3.3c-0.3,0.1-0.5,0-0.7-0.3c1.3-0.8-0.2-2,0.6-2.9c-0.2-0.6-1-0.5-1.2-1c0.5-1.8,3.4-0.2,2.2,1.2
				c0.5,2,1.4,4.8,0.5,6.6c0.6,0.6,0.1,1.2,0.1,2c-0.3,0.2-0.4,0.2-0.7,0.1C141.8,184.1,141,183.5,141.5,183.1z"/>
		</g>
		<g>
			<rect x="139.7" y="174.4" class="st0" width="3.1" height="10.8"/>
			<path class="st1" d="M141.5,183.7c-0.1-0.3-0.2,0.1-0.5,0c0.2-0.2,0.2-0.5,0.1-0.8c0.2-0.2,0.4-0.4,0.7-0.2
				c-0.5-1.1-0.5-2.4-0.8-3.3c-0.3,0.1-0.5,0-0.7-0.3c1.3-0.8-0.2-2,0.6-2.9c-0.2-0.6-1-0.5-1.2-1c0.5-1.8,3.4-0.2,2.2,1.2
				c0.5,2,1.4,4.8,0.5,6.6c0.6,0.6,0.1,1.2,0.1,2c-0.3,0.2-0.4,0.2-0.7,0.1C141.8,184.6,141,184,141.5,183.7z"/>
		</g>
		<g>
			<rect x="139.7" y="175" class="st0" width="3.1" height="10.8"/>
			<path class="st1" d="M141.5,184.2c-0.1-0.3-0.2,0.1-0.5,0c0.2-0.2,0.2-0.5,0.1-0.8c0.2-0.2,0.4-0.4,0.7-0.2
				c-0.5-1.1-0.5-2.4-0.8-3.3c-0.3,0.1-0.5,0-0.7-0.3c1.3-0.8-0.2-2,0.6-2.9c-0.2-0.6-1-0.5-1.2-1c0.5-1.8,3.4-0.2,2.2,1.2
				c0.5,2,1.4,4.8,0.5,6.6c0.6,0.6,0.1,1.2,0.1,2c-0.3,0.2-0.4,0.2-0.7,0.1C141.8,185.1,141,184.6,141.5,184.2z"/>
		</g>
		<g>
			<rect x="139.7" y="175.5" class="st0" width="3.1" height="10.8"/>
			<path class="st1" d="M141.5,184.7c-0.1-0.3-0.2,0.1-0.5,0c0.2-0.2,0.2-0.5,0.1-0.8c0.2-0.2,0.4-0.4,0.7-0.2
				c-0.5-1.1-0.5-2.4-0.8-3.3c-0.3,0.1-0.5,0-0.7-0.3c1.3-0.8-0.2-2,0.6-2.9c-0.2-0.6-1-0.5-1.2-1c0.5-1.8,3.4-0.2,2.2,1.2
				c0.5,2,1.4,4.8,0.5,6.6c0.6,0.6,0.1,1.2,0.1,2c-0.3,0.2-0.4,0.2-0.7,0.1C141.8,185.7,141,185.1,141.5,184.7z"/>
		</g>
		<g>
			<rect x="139.7" y="176" class="st0" width="3.1" height="10.8"/>
			<path class="st1" d="M141.5,185.3c-0.1-0.3-0.2,0.1-0.5,0c0.2-0.2,0.2-0.5,0.1-0.8c0.2-0.2,0.4-0.4,0.7-0.2
				c-0.5-1.1-0.5-2.4-0.8-3.3c-0.3,0.1-0.5,0-0.7-0.3c1.3-0.8-0.2-2,0.6-2.9c-0.2-0.6-1-0.5-1.2-1c0.5-1.8,3.4-0.2,2.2,1.2
				c0.5,2,1.4,4.8,0.5,6.6c0.6,0.6,0.1,1.2,0.1,2c-0.3,0.2-0.4,0.2-0.7,0.1C141.8,186.2,141,185.7,141.5,185.3z"/>
		</g>
		<g>
			<rect x="139.7" y="176.6" class="st0" width="3.1" height="10.8"/>
			<path class="st1" d="M141.5,185.8c-0.1-0.3-0.2,0.1-0.5,0c0.2-0.2,0.2-0.5,0.1-0.8c0.2-0.2,0.4-0.4,0.7-0.2
				c-0.5-1.1-0.5-2.4-0.8-3.3c-0.3,0.1-0.5,0-0.7-0.3c1.3-0.8-0.2-2,0.6-2.9c-0.2-0.6-1-0.5-1.2-1c0.5-1.8,3.4-0.2,2.2,1.2
				c0.5,2,1.4,4.8,0.5,6.6c0.6,0.6,0.1,1.2,0.1,2c-0.3,0.2-0.4,0.2-0.7,0.1C141.8,186.8,141,186.2,141.5,185.8z"/>
		</g>
		<g>
			<rect x="139.7" y="177.1" class="st0" width="3.1" height="10.8"/>
			<path class="st1" d="M141.5,186.4c-0.1-0.3-0.2,0.1-0.5,0c0.2-0.2,0.2-0.5,0.1-0.8c0.2-0.2,0.4-0.4,0.7-0.2
				c-0.5-1.1-0.5-2.4-0.8-3.3c-0.3,0.1-0.5,0-0.7-0.3c1.3-0.8-0.2-2,0.6-2.9c-0.2-0.6-1-0.5-1.2-1c0.5-1.8,3.4-0.2,2.2,1.2
				c0.5,2,1.4,4.8,0.5,6.6c0.6,0.6,0.1,1.2,0.1,2c-0.3,0.2-0.4,0.2-0.7,0.1C141.8,187.3,141,186.7,141.5,186.4z"/>
		</g>
		<g>
			<rect x="139.7" y="177.7" class="st0" width="3.1" height="10.8"/>
			<path class="st1" d="M141.5,186.9c-0.1-0.3-0.2,0.1-0.5,0c0.2-0.2,0.2-0.5,0.1-0.8c0.2-0.2,0.4-0.4,0.7-0.2
				c-0.5-1.1-0.5-2.4-0.8-3.3c-0.3,0.1-0.5,0-0.7-0.3c1.3-0.8-0.2-2,0.6-2.9c-0.2-0.6-1-0.5-1.2-1c0.5-1.8,3.4-0.2,2.2,1.2
				c0.5,2,1.4,4.8,0.5,6.6c0.6,0.6,0.1,1.2,0.1,2c-0.3,0.2-0.4,0.2-0.7,0.1C141.8,187.8,141,187.3,141.5,186.9z"/>
		</g>
		<g>
			<rect x="139.7" y="178.2" class="st0" width="3.1" height="10.8"/>
			<path class="st1" d="M141.5,187.4c-0.1-0.3-0.2,0.1-0.5,0c0.2-0.2,0.2-0.5,0.1-0.8c0.2-0.2,0.4-0.4,0.7-0.2
				c-0.5-1.1-0.5-2.4-0.8-3.3c-0.3,0.1-0.5,0-0.7-0.3c1.3-0.8-0.2-2,0.6-2.9c-0.2-0.6-1-0.5-1.2-1c0.5-1.8,3.4-0.2,2.2,1.2
				c0.5,2,1.4,4.8,0.5,6.6c0.6,0.6,0.1,1.2,0.1,2c-0.3,0.2-0.4,0.2-0.7,0.1C141.8,188.4,141,187.8,141.5,187.4z"/>
		</g>
		<g>
			<rect x="139.7" y="178.7" class="st0" width="3.1" height="10.8"/>
			<path class="st1" d="M141.5,188c-0.1-0.3-0.2,0.1-0.5,0c0.2-0.2,0.2-0.5,0.1-0.8c0.2-0.2,0.4-0.4,0.7-0.2
				c-0.5-1.1-0.5-2.4-0.8-3.3c-0.3,0.1-0.5,0-0.7-0.3c1.3-0.8-0.2-2,0.6-2.9c-0.2-0.6-1-0.5-1.2-1c0.5-1.8,3.4-0.2,2.2,1.2
				c0.5,2,1.4,4.8,0.5,6.6c0.6,0.6,0.1,1.2,0.1,2c-0.3,0.2-0.4,0.2-0.7,0.1C141.8,188.9,141,188.4,141.5,188z"/>
		</g>
		<g>
			<rect x="139.7" y="179.3" class="st0" width="3.1" height="10.8"/>
			<path class="st1" d="M141.5,188.5c-0.1-0.3-0.2,0.1-0.5,0c0.2-0.2,0.2-0.5,0.1-0.8c0.2-0.2,0.4-0.4,0.7-0.2
				c-0.5-1.1-0.5-2.4-0.8-3.3c-0.3,0.1-0.5,0-0.7-0.3c1.3-0.8-0.2-2,0.6-2.9c-0.2-0.6-1-0.5-1.2-1c0.5-1.8,3.4-0.2,2.2,1.2
				c0.5,2,1.4,4.8,0.5,6.6c0.6,0.6,0.1,1.2,0.1,2c-0.3,0.2-0.4,0.2-0.7,0.1C141.8,189.5,141,188.9,141.5,188.5z"/>
		</g>
		<g>
			<rect x="139.7" y="179.8" class="st0" width="3.1" height="10.8"/>
			<path class="st1" d="M141.5,189.1c-0.1-0.3-0.2,0.1-0.5,0c0.2-0.2,0.2-0.5,0.1-0.8c0.2-0.2,0.4-0.4,0.7-0.2
				c-0.5-1.1-0.5-2.4-0.8-3.3c-0.3,0.1-0.5,0-0.7-0.3c1.3-0.8-0.2-2,0.6-2.9c-0.2-0.6-1-0.5-1.2-1c0.5-1.8,3.4-0.2,2.2,1.2
				c0.5,2,1.4,4.8,0.5,6.6c0.6,0.6,0.1,1.2,0.1,2c-0.3,0.2-0.4,0.2-0.7,0.1C141.8,190,141,189.4,141.5,189.1z"/>
		</g>
		<g>
			<rect x="139.7" y="180.4" class="st0" width="3.1" height="10.8"/>
			<path class="st1" d="M141.5,189.6c-0.1-0.3-0.2,0.1-0.5,0c0.2-0.2,0.2-0.5,0.1-0.8c0.2-0.2,0.4-0.4,0.7-0.2
				c-0.5-1.1-0.5-2.4-0.8-3.3c-0.3,0.1-0.5,0-0.7-0.3c1.3-0.8-0.2-2,0.6-2.9c-0.2-0.6-1-0.5-1.2-1c0.5-1.8,3.4-0.2,2.2,1.2
				c0.5,2,1.4,4.8,0.5,6.6c0.6,0.6,0.1,1.2,0.1,2c-0.3,0.2-0.4,0.2-0.7,0.1C141.8,190.5,141,190,141.5,189.6z"/>
		</g>
		<g>
			<rect x="139.7" y="180.9" class="st0" width="3.1" height="10.8"/>
			<path class="st1" d="M141.5,190.1c-0.1-0.3-0.2,0.1-0.5,0c0.2-0.2,0.2-0.5,0.1-0.8c0.2-0.2,0.4-0.4,0.7-0.2
				c-0.5-1.1-0.5-2.4-0.8-3.3c-0.3,0.1-0.5,0-0.7-0.3c1.3-0.8-0.2-2,0.6-2.9c-0.2-0.6-1-0.5-1.2-1c0.5-1.8,3.4-0.2,2.2,1.2
				c0.5,2,1.4,4.8,0.5,6.6c0.6,0.6,0.1,1.2,0.1,2c-0.3,0.2-0.4,0.2-0.7,0.1C141.8,191.1,141,190.5,141.5,190.1z"/>
		</g>
		<g>
			<rect x="139.7" y="181.4" class="st0" width="3.1" height="10.8"/>
			<path class="st1" d="M141.5,190.7c-0.1-0.3-0.2,0.1-0.5,0c0.2-0.2,0.2-0.5,0.1-0.8c0.2-0.2,0.4-0.4,0.7-0.2
				c-0.5-1.1-0.5-2.4-0.8-3.3c-0.3,0.1-0.5,0-0.7-0.3c1.3-0.8-0.2-2,0.6-2.9c-0.2-0.6-1-0.5-1.2-1c0.5-1.8,3.4-0.2,2.2,1.2
				c0.5,2,1.4,4.8,0.5,6.6c0.6,0.6,0.1,1.2,0.1,2c-0.3,0.2-0.4,0.2-0.7,0.1C141.8,191.6,141,191.1,141.5,190.7z"/>
		</g>
		<g>
			<rect x="139.7" y="182" class="st0" width="3.1" height="10.8"/>
			<path class="st1" d="M141.5,191.2c-0.1-0.3-0.2,0.1-0.5,0c0.2-0.2,0.2-0.5,0.1-0.8c0.2-0.2,0.4-0.4,0.7-0.2
				c-0.5-1.1-0.5-2.4-0.8-3.3c-0.3,0.1-0.5,0-0.7-0.3c1.3-0.8-0.2-2,0.6-2.9c-0.2-0.6-1-0.5-1.2-1c0.5-1.8,3.4-0.2,2.2,1.2
				c0.5,2,1.4,4.8,0.5,6.6c0.6,0.6,0.1,1.2,0.1,2c-0.3,0.2-0.4,0.2-0.7,0.1C141.8,192.2,141,191.6,141.5,191.2z"/>
		</g>
		<g>
			<rect x="139.7" y="182.5" class="st0" width="3.1" height="10.8"/>
			<path class="st1" d="M141.5,191.8c-0.1-0.3-0.2,0.1-0.5,0c0.2-0.2,0.2-0.5,0.1-0.8c0.2-0.2,0.4-0.4,0.7-0.2
				c-0.5-1.1-0.5-2.4-0.8-3.3c-0.3,0.1-0.5,0-0.7-0.3c1.3-0.8-0.2-2,0.6-2.9c-0.2-0.6-1-0.5-1.2-1c0.5-1.8,3.4-0.2,2.2,1.2
				c0.5,2,1.4,4.8,0.5,6.6c0.6,0.6,0.1,1.2,0.1,2c-0.3,0.2-0.4,0.2-0.7,0.1C141.8,192.7,141,192.1,141.5,191.8z"/>
		</g>
		<g>
			<rect x="139.7" y="183" class="st0" width="3.1" height="10.8"/>
			<path class="st1" d="M141.5,192.3c-0.1-0.3-0.2,0.1-0.5,0c0.2-0.2,0.2-0.5,0.1-0.8c0.2-0.2,0.4-0.4,0.7-0.2
				c-0.5-1.1-0.5-2.4-0.8-3.3c-0.3,0.1-0.5,0-0.7-0.3c1.3-0.8-0.2-2,0.6-2.9c-0.2-0.6-1-0.5-1.2-1c0.5-1.8,3.4-0.2,2.2,1.2
				c0.5,2,1.4,4.8,0.5,6.6c0.6,0.6,0.1,1.2,0.1,2c-0.3,0.2-0.4,0.2-0.7,0.1C141.8,193.2,141,192.7,141.5,192.3z"/>
		</g>
		<g>
			<rect x="139.7" y="183.6" class="st0" width="3.1" height="10.8"/>
			<path class="st1" d="M141.5,192.8c-0.1-0.3-0.2,0.1-0.5,0c0.2-0.2,0.2-0.5,0.1-0.8c0.2-0.2,0.4-0.4,0.7-0.2
				c-0.5-1.1-0.5-2.4-0.8-3.3c-0.3,0.1-0.5,0-0.7-0.3c1.3-0.8-0.2-2,0.6-2.9c-0.2-0.6-1-0.5-1.2-1c0.5-1.8,3.4-0.2,2.2,1.2
				c0.5,2,1.4,4.8,0.5,6.6c0.6,0.6,0.1,1.2,0.1,2c-0.3,0.2-0.4,0.2-0.7,0.1C141.8,193.8,141,193.2,141.5,192.8z"/>
		</g>
		<g>
			<rect x="139.7" y="184.1" class="st0" width="3.1" height="10.8"/>
			<path class="st1" d="M141.5,193.4c-0.1-0.3-0.2,0.1-0.5,0c0.2-0.2,0.2-0.5,0.1-0.8c0.2-0.2,0.4-0.4,0.7-0.2
				c-0.5-1.1-0.5-2.4-0.8-3.3c-0.3,0.1-0.5,0-0.7-0.3c1.3-0.8-0.2-2,0.6-2.9c-0.2-0.6-1-0.5-1.2-1c0.5-1.8,3.4-0.2,2.2,1.2
				c0.5,2,1.4,4.8,0.5,6.6c0.6,0.6,0.1,1.2,0.1,2c-0.3,0.2-0.4,0.2-0.7,0.1C141.8,194.3,141,193.8,141.5,193.4z"/>
		</g>
		<g>
			<rect x="139.7" y="184.7" class="st0" width="3.1" height="10.8"/>
			<path class="st1" d="M141.5,193.9c-0.1-0.3-0.2,0.1-0.5,0c0.2-0.2,0.2-0.5,0.1-0.8c0.2-0.2,0.4-0.4,0.7-0.2
				c-0.5-1.1-0.5-2.4-0.8-3.3c-0.3,0.1-0.5,0-0.7-0.3c1.3-0.8-0.2-2,0.6-2.9c-0.2-0.6-1-0.5-1.2-1c0.5-1.8,3.4-0.2,2.2,1.2
				c0.5,2,1.4,4.8,0.5,6.6c0.6,0.6,0.1,1.2,0.1,2c-0.3,0.2-0.4,0.2-0.7,0.1C141.8,194.9,141,194.3,141.5,193.9z"/>
		</g>
		<g>
			<rect x="139.7" y="185.2" class="st0" width="3.1" height="10.8"/>
			<path class="st1" d="M141.5,194.5c-0.1-0.3-0.2,0.1-0.5,0c0.2-0.2,0.2-0.5,0.1-0.8c0.2-0.2,0.4-0.4,0.7-0.2
				c-0.5-1.1-0.5-2.4-0.8-3.3c-0.3,0.1-0.5,0-0.7-0.3c1.3-0.8-0.2-2,0.6-2.9c-0.2-0.6-1-0.5-1.2-1c0.5-1.8,3.4-0.2,2.2,1.2
				c0.5,2,1.4,4.8,0.5,6.6c0.6,0.6,0.1,1.2,0.1,2c-0.3,0.2-0.4,0.2-0.7,0.1C141.8,195.4,141,194.8,141.5,194.5z"/>
		</g>
		<g>
			<rect x="139.7" y="185.7" class="st0" width="3.1" height="10.8"/>
			<path class="st1" d="M141.5,195c-0.1-0.3-0.2,0.1-0.5,0c0.2-0.2,0.2-0.5,0.1-0.8c0.2-0.2,0.4-0.4,0.7-0.2
				c-0.5-1.1-0.5-2.4-0.8-3.3c-0.3,0.1-0.5,0-0.7-0.3c1.3-0.8-0.2-2,0.6-2.9c-0.2-0.6-1-0.5-1.2-1c0.5-1.8,3.4-0.2,2.2,1.2
				c0.5,2,1.4,4.8,0.5,6.6c0.6,0.6,0.1,1.2,0.1,2c-0.3,0.2-0.4,0.2-0.7,0.1C141.8,195.9,141,195.4,141.5,195z"/>
		</g>
		<g>
			<rect x="139.7" y="186.3" class="st0" width="3.1" height="10.8"/>
			<path class="st1" d="M141.5,195.5c-0.1-0.3-0.2,0.1-0.5,0c0.2-0.2,0.2-0.5,0.1-0.8c0.2-0.2,0.4-0.4,0.7-0.2
				c-0.5-1.1-0.5-2.4-0.8-3.3c-0.3,0.1-0.5,0-0.7-0.3c1.3-0.8-0.2-2,0.6-2.9c-0.2-0.6-1-0.5-1.2-1c0.5-1.8,3.4-0.2,2.2,1.2
				c0.5,2,1.4,4.8,0.5,6.6c0.6,0.6,0.1,1.2,0.1,2c-0.3,0.2-0.4,0.2-0.7,0.1C141.8,196.5,141,195.9,141.5,195.5z"/>
		</g>
		<g>
			<rect x="139.7" y="186.8" class="st0" width="3.1" height="10.8"/>
			<path class="st1" d="M141.5,196.1c-0.1-0.3-0.2,0.1-0.5,0c0.2-0.2,0.2-0.5,0.1-0.8c0.2-0.2,0.4-0.4,0.7-0.2
				c-0.5-1.1-0.5-2.4-0.8-3.3c-0.3,0.1-0.5,0-0.7-0.3c1.3-0.8-0.2-2,0.6-2.9c-0.2-0.6-1-0.5-1.2-1c0.5-1.8,3.4-0.2,2.2,1.2
				c0.5,2,1.4,4.8,0.5,6.6c0.6,0.6,0.1,1.2,0.1,2c-0.3,0.2-0.4,0.2-0.7,0.1C141.8,197,141,196.5,141.5,196.1z"/>
		</g>
		<g>
			<rect x="139.7" y="187.4" class="st0" width="3.1" height="10.8"/>
			<path class="st1" d="M141.5,196.6c-0.1-0.3-0.2,0.1-0.5,0c0.2-0.2,0.2-0.5,0.1-0.8c0.2-0.2,0.4-0.4,0.7-0.2
				c-0.5-1.1-0.5-2.4-0.8-3.3c-0.3,0.1-0.5,0-0.7-0.3c1.3-0.8-0.2-2,0.6-2.9c-0.2-0.6-1-0.5-1.2-1c0.5-1.8,3.4-0.2,2.2,1.2
				c0.5,2,1.4,4.8,0.5,6.6c0.6,0.6,0.1,1.2,0.1,2c-0.3,0.2-0.4,0.2-0.7,0.1C141.8,197.6,141,197,141.5,196.6z"/>
		</g>
		<g>
			<rect x="139.7" y="187.9" class="st0" width="3.1" height="10.8"/>
			<path class="st1" d="M141.5,197.2c-0.1-0.3-0.2,0.1-0.5,0c0.2-0.2,0.2-0.5,0.1-0.8c0.2-0.2,0.4-0.4,0.7-0.2
				c-0.5-1.1-0.5-2.4-0.8-3.3c-0.3,0.1-0.5,0-0.7-0.3c1.3-0.8-0.2-2,0.6-2.9c-0.2-0.6-1-0.5-1.2-1c0.5-1.8,3.4-0.2,2.2,1.2
				c0.5,2,1.4,4.8,0.5,6.6c0.6,0.6,0.1,1.2,0.1,2c-0.3,0.2-0.4,0.2-0.7,0.1C141.8,198.1,141,197.5,141.5,197.2z"/>
		</g>
		<g>
			<rect x="139.7" y="188.4" class="st0" width="3.1" height="10.8"/>
			<path class="st1" d="M141.5,197.7c-0.1-0.3-0.2,0.1-0.5,0c0.2-0.2,0.2-0.5,0.1-0.8c0.2-0.2,0.4-0.4,0.7-0.2
				c-0.5-1.1-0.5-2.4-0.8-3.3c-0.3,0.1-0.5,0-0.7-0.3c1.3-0.8-0.2-2,0.6-2.9c-0.2-0.6-1-0.5-1.2-1c0.5-1.8,3.4-0.2,2.2,1.2
				c0.5,2,1.4,4.8,0.5,6.6c0.6,0.6,0.1,1.2,0.1,2c-0.3,0.2-0.4,0.2-0.7,0.1C141.8,198.6,141,198.1,141.5,197.7z"/>
		</g>
		<g>
			<rect x="139.7" y="189" class="st0" width="3.1" height="10.8"/>
			<path class="st1" d="M141.5,198.2c-0.1-0.3-0.2,0.1-0.5,0c0.2-0.2,0.2-0.5,0.1-0.8c0.2-0.2,0.4-0.4,0.7-0.2
				c-0.5-1.1-0.5-2.4-0.8-3.3c-0.3,0.1-0.5,0-0.7-0.3c1.3-0.8-0.2-2,0.6-2.9c-0.2-0.6-1-0.5-1.2-1c0.5-1.8,3.4-0.2,2.2,1.2
				c0.5,2,1.4,4.8,0.5,6.6c0.6,0.6,0.1,1.2,0.1,2c-0.3,0.2-0.4,0.2-0.7,0.1C141.8,199.2,141,198.6,141.5,198.2z"/>
		</g>
		<g>
			<rect x="139.7" y="189.5" class="st0" width="3.1" height="10.8"/>
			<path class="st1" d="M141.5,198.8c-0.1-0.3-0.2,0.1-0.5,0c0.2-0.2,0.2-0.5,0.1-0.8c0.2-0.2,0.4-0.4,0.7-0.2
				c-0.5-1.1-0.5-2.4-0.8-3.3c-0.3,0.1-0.5,0-0.7-0.3c1.3-0.8-0.2-2,0.6-2.9c-0.2-0.6-1-0.5-1.2-1c0.5-1.8,3.4-0.2,2.2,1.2
				c0.5,2,1.4,4.8,0.5,6.6c0.6,0.6,0.1,1.2,0.1,2c-0.3,0.2-0.4,0.2-0.7,0.1C141.8,199.7,141,199.1,141.5,198.8z"/>
		</g>
		<g>
			<rect x="139.7" y="190.1" class="st0" width="3.1" height="10.8"/>
			<path class="st1" d="M141.5,199.3c-0.1-0.3-0.2,0.1-0.5,0c0.2-0.2,0.2-0.5,0.1-0.8c0.2-0.2,0.4-0.4,0.7-0.2
				c-0.5-1.1-0.5-2.4-0.8-3.3c-0.3,0.1-0.5,0-0.7-0.3c1.3-0.8-0.2-2,0.6-2.9c-0.2-0.6-1-0.5-1.2-1c0.5-1.8,3.4-0.2,2.2,1.2
				c0.5,2,1.4,4.8,0.5,6.6c0.6,0.6,0.1,1.2,0.1,2c-0.3,0.2-0.4,0.2-0.7,0.1C141.8,200.3,141,199.7,141.5,199.3z"/>
		</g>
		<g>
			<rect x="139.7" y="190.6" class="st0" width="3.1" height="10.8"/>
			<path class="st1" d="M141.5,199.9c-0.1-0.3-0.2,0.1-0.5,0c0.2-0.2,0.2-0.5,0.1-0.8c0.2-0.2,0.4-0.4,0.7-0.2
				c-0.5-1.1-0.5-2.4-0.8-3.3c-0.3,0.1-0.5,0-0.7-0.3c1.3-0.8-0.2-2,0.6-2.9c-0.2-0.6-1-0.5-1.2-1c0.5-1.8,3.4-0.2,2.2,1.2
				c0.5,2,1.4,4.8,0.5,6.6c0.6,0.6,0.1,1.2,0.1,2c-0.3,0.2-0.4,0.2-0.7,0.1C141.8,200.8,141,200.2,141.5,199.9z"/>
		</g>
		<g>
			<rect x="139.7" y="191.1" class="st0" width="3.1" height="10.8"/>
			<path class="st1" d="M141.5,200.4c-0.1-0.3-0.2,0.1-0.5,0c0.2-0.2,0.2-0.5,0.1-0.8c0.2-0.2,0.4-0.4,0.7-0.2
				c-0.5-1.1-0.5-2.4-0.8-3.3c-0.3,0.1-0.5,0-0.7-0.3c1.3-0.8-0.2-2,0.6-2.9c-0.2-0.6-1-0.5-1.2-1c0.5-1.8,3.4-0.2,2.2,1.2
				c0.5,2,1.4,4.8,0.5,6.6c0.6,0.6,0.1,1.2,0.1,2c-0.3,0.2-0.4,0.2-0.7,0.1C141.8,201.3,141,200.8,141.5,200.4z"/>
		</g>
		<g>
			<rect x="139.7" y="191.7" class="st0" width="3.1" height="10.8"/>
			<path class="st1" d="M141.5,200.9c-0.1-0.3-0.2,0.1-0.5,0c0.2-0.2,0.2-0.5,0.1-0.8c0.2-0.2,0.4-0.4,0.7-0.2
				c-0.5-1.1-0.5-2.4-0.8-3.3c-0.3,0.1-0.5,0-0.7-0.3c1.3-0.8-0.2-2,0.6-2.9c-0.2-0.6-1-0.5-1.2-1c0.5-1.8,3.4-0.2,2.2,1.2
				c0.5,2,1.4,4.8,0.5,6.6c0.6,0.6,0.1,1.2,0.1,2c-0.3,0.2-0.4,0.2-0.7,0.1C141.8,201.9,141,201.3,141.5,200.9z"/>
		</g>
		<g>
			<rect x="139.7" y="192.2" class="st0" width="3.1" height="10.8"/>
			<path class="st1" d="M141.5,201.5c-0.1-0.3-0.2,0.1-0.5,0c0.2-0.2,0.2-0.5,0.1-0.8c0.2-0.2,0.4-0.4,0.7-0.2
				c-0.5-1.1-0.5-2.4-0.8-3.3c-0.3,0.1-0.5,0-0.7-0.3c1.3-0.8-0.2-2,0.6-2.9c-0.2-0.6-1-0.5-1.2-1c0.5-1.8,3.4-0.2,2.2,1.2
				c0.5,2,1.4,4.8,0.5,6.6c0.6,0.6,0.1,1.2,0.1,2c-0.3,0.2-0.4,0.2-0.7,0.1C141.8,202.4,141,201.8,141.5,201.5z"/>
		</g>
		<g>
			<rect x="139.7" y="192.8" class="st0" width="3.1" height="10.8"/>
			<path class="st1" d="M141.5,202c-0.1-0.3-0.2,0.1-0.5,0c0.2-0.2,0.2-0.5,0.1-0.8c0.2-0.2,0.4-0.4,0.7-0.2
				c-0.5-1.1-0.5-2.4-0.8-3.3c-0.3,0.1-0.5,0-0.7-0.3c1.3-0.8-0.2-2,0.6-2.9c-0.2-0.6-1-0.5-1.2-1c0.5-1.8,3.4-0.2,2.2,1.2
				c0.5,2,1.4,4.8,0.5,6.6c0.6,0.6,0.1,1.2,0.1,2c-0.3,0.2-0.4,0.2-0.7,0.1C141.8,203,141,202.4,141.5,202z"/>
		</g>
		<g>
			<rect x="139.7" y="193.3" class="st0" width="3.1" height="10.8"/>
			<path class="st1" d="M141.5,202.6c-0.1-0.3-0.2,0.1-0.5,0c0.2-0.2,0.2-0.5,0.1-0.8c0.2-0.2,0.4-0.4,0.7-0.2
				c-0.5-1.1-0.5-2.4-0.8-3.3c-0.3,0.1-0.5,0-0.7-0.3c1.3-0.8-0.2-2,0.6-2.9c-0.2-0.6-1-0.5-1.2-1c0.5-1.8,3.4-0.2,2.2,1.2
				c0.5,2,1.4,4.8,0.5,6.6c0.6,0.6,0.1,1.2,0.1,2c-0.3,0.2-0.4,0.2-0.7,0.1C141.8,203.5,141,202.9,141.5,202.6z"/>
		</g>
		<g>
			<rect x="139.7" y="193.8" class="st0" width="3.1" height="10.8"/>
			<path class="st1" d="M141.5,203.1c-0.1-0.3-0.2,0.1-0.5,0c0.2-0.2,0.2-0.5,0.1-0.8c0.2-0.2,0.4-0.4,0.7-0.2
				c-0.5-1.1-0.5-2.4-0.8-3.3c-0.3,0.1-0.5,0-0.7-0.3c1.3-0.8-0.2-2,0.6-2.9c-0.2-0.6-1-0.5-1.2-1c0.5-1.8,3.4-0.2,2.2,1.2
				c0.5,2,1.4,4.8,0.5,6.6c0.6,0.6,0.1,1.2,0.1,2c-0.3,0.2-0.4,0.2-0.7,0.1C141.8,204,141,203.5,141.5,203.1z"/>
		</g>
		<g>
			<rect x="139.7" y="194.4" class="st0" width="3.1" height="10.8"/>
			<path class="st1" d="M141.5,203.6c-0.1-0.3-0.2,0.1-0.5,0c0.2-0.2,0.2-0.5,0.1-0.8c0.2-0.2,0.4-0.4,0.7-0.2
				c-0.5-1.1-0.5-2.4-0.8-3.3c-0.3,0.1-0.5,0-0.7-0.3c1.3-0.8-0.2-2,0.6-2.9c-0.2-0.6-1-0.5-1.2-1c0.5-1.8,3.4-0.2,2.2,1.2
				c0.5,2,1.4,4.8,0.5,6.6c0.6,0.6,0.1,1.2,0.1,2c-0.3,0.2-0.4,0.2-0.7,0.1C141.8,204.6,141,204,141.5,203.6z"/>
		</g>
		<g>
			<rect x="139.7" y="194.9" class="st0" width="3.1" height="10.8"/>
			<path class="st1" d="M141.5,204.2c-0.1-0.3-0.2,0.1-0.5,0c0.2-0.2,0.2-0.5,0.1-0.8c0.2-0.2,0.4-0.4,0.7-0.2
				c-0.5-1.1-0.5-2.4-0.8-3.3c-0.3,0.1-0.5,0-0.7-0.3c1.3-0.8-0.2-2,0.6-2.9c-0.2-0.6-1-0.5-1.2-1c0.5-1.8,3.4-0.2,2.2,1.2
				c0.5,2,1.4,4.8,0.5,6.6c0.6,0.6,0.1,1.2,0.1,2c-0.3,0.2-0.4,0.2-0.7,0.1C141.8,205.1,141,204.5,141.5,204.2z"/>
		</g>
		<g>
			<rect x="139.7" y="195.5" class="st0" width="3.1" height="10.8"/>
			<path class="st1" d="M141.5,204.7c-0.1-0.3-0.2,0.1-0.5,0c0.2-0.2,0.2-0.5,0.1-0.8c0.2-0.2,0.4-0.4,0.7-0.2
				c-0.5-1.1-0.5-2.4-0.8-3.3c-0.3,0.1-0.5,0-0.7-0.3c1.3-0.8-0.2-2,0.6-2.9c-0.2-0.6-1-0.5-1.2-1c0.5-1.8,3.4-0.2,2.2,1.2
				c0.5,2,1.4,4.8,0.5,6.6c0.6,0.6,0.1,1.2,0.1,2c-0.3,0.2-0.4,0.2-0.7,0.1C141.8,205.7,141,205.1,141.5,204.7z"/>
		</g>
		<g>
			<rect x="139.7" y="196" class="st0" width="3.1" height="10.8"/>
			<path class="st1" d="M141.5,205.2c-0.1-0.3-0.2,0.1-0.5,0c0.2-0.2,0.2-0.5,0.1-0.8c0.2-0.2,0.4-0.4,0.7-0.2
				c-0.5-1.1-0.5-2.4-0.8-3.3c-0.3,0.1-0.5,0-0.7-0.3c1.3-0.8-0.2-2,0.6-2.9c-0.2-0.6-1-0.5-1.2-1c0.5-1.8,3.4-0.2,2.2,1.2
				c0.5,2,1.4,4.8,0.5,6.6c0.6,0.6,0.1,1.2,0.1,2c-0.3,0.2-0.4,0.2-0.7,0.1C141.8,206.2,141,205.6,141.5,205.2z"/>
		</g>
		<g>
			<rect x="139.7" y="196.5" class="st0" width="3.1" height="10.8"/>
			<path class="st1" d="M141.5,205.8c-0.1-0.3-0.2,0.1-0.5,0c0.2-0.2,0.2-0.5,0.1-0.8c0.2-0.2,0.4-0.4,0.7-0.2
				c-0.5-1.1-0.5-2.4-0.8-3.3c-0.3,0.1-0.5,0-0.7-0.3c1.3-0.8-0.2-2,0.6-2.9c-0.2-0.6-1-0.5-1.2-1c0.5-1.8,3.4-0.2,2.2,1.2
				c0.5,2,1.4,4.8,0.5,6.6c0.6,0.6,0.1,1.2,0.1,2c-0.3,0.2-0.4,0.2-0.7,0.1C141.8,206.7,141,206.2,141.5,205.8z"/>
		</g>
		<g>
			<rect x="139.7" y="197.1" class="st0" width="3.1" height="10.8"/>
			<path class="st1" d="M141.5,206.3c-0.1-0.3-0.2,0.1-0.5,0c0.2-0.2,0.2-0.5,0.1-0.8c0.2-0.2,0.4-0.4,0.7-0.2
				c-0.5-1.1-0.5-2.4-0.8-3.3c-0.3,0.1-0.5,0-0.7-0.3c1.3-0.8-0.2-2,0.6-2.9c-0.2-0.6-1-0.5-1.2-1c0.5-1.8,3.4-0.2,2.2,1.2
				c0.5,2,1.4,4.8,0.5,6.6c0.6,0.6,0.1,1.2,0.1,2c-0.3,0.2-0.4,0.2-0.7,0.1C141.8,207.3,141,206.7,141.5,206.3z"/>
		</g>
		<g>
			<rect x="139.7" y="197.6" class="st0" width="3.1" height="10.8"/>
			<path class="st1" d="M141.5,206.9c-0.1-0.3-0.2,0.1-0.5,0c0.2-0.2,0.2-0.5,0.1-0.8c0.2-0.2,0.4-0.4,0.7-0.2
				c-0.5-1.1-0.5-2.4-0.8-3.3c-0.3,0.1-0.5,0-0.7-0.3c1.3-0.8-0.2-2,0.6-2.9c-0.2-0.6-1-0.5-1.2-1c0.5-1.8,3.4-0.2,2.2,1.2
				c0.5,2,1.4,4.8,0.5,6.6c0.6,0.6,0.1,1.2,0.1,2c-0.3,0.2-0.4,0.2-0.7,0.1C141.8,207.8,141,207.2,141.5,206.9z"/>
		</g>
		<g>
			<rect x="139.7" y="198.2" class="st0" width="3.1" height="10.8"/>
			<path class="st1" d="M141.5,207.4c-0.1-0.3-0.2,0.1-0.5,0c0.2-0.2,0.2-0.5,0.1-0.8c0.2-0.2,0.4-0.4,0.7-0.2
				c-0.5-1.1-0.5-2.4-0.8-3.3c-0.3,0.1-0.5,0-0.7-0.3c1.3-0.8-0.2-2,0.6-2.9c-0.2-0.6-1-0.5-1.2-1c0.5-1.8,3.4-0.2,2.2,1.2
				c0.5,2,1.4,4.8,0.5,6.6c0.6,0.6,0.1,1.2,0.1,2c-0.3,0.2-0.4,0.2-0.7,0.1C141.8,208.3,141,207.8,141.5,207.4z"/>
		</g>
		<g>
			<rect x="139.7" y="198.7" class="st0" width="3.1" height="10.8"/>
			<path class="st1" d="M141.5,207.9c-0.1-0.3-0.2,0.1-0.5,0c0.2-0.2,0.2-0.5,0.1-0.8c0.2-0.2,0.4-0.4,0.7-0.2
				c-0.5-1.1-0.5-2.4-0.8-3.3c-0.3,0.1-0.5,0-0.7-0.3c1.3-0.8-0.2-2,0.6-2.9c-0.2-0.6-1-0.5-1.2-1c0.5-1.8,3.4-0.2,2.2,1.2
				c0.5,2,1.4,4.8,0.5,6.6c0.6,0.6,0.1,1.2,0.1,2c-0.3,0.2-0.4,0.2-0.7,0.1C141.8,208.9,141,208.3,141.5,207.9z"/>
		</g>
		<g>
			<rect x="139.7" y="199.2" class="st0" width="3.1" height="10.8"/>
			<path class="st1" d="M141.5,208.5c-0.1-0.3-0.2,0.1-0.5,0c0.2-0.2,0.2-0.5,0.1-0.8c0.2-0.2,0.4-0.4,0.7-0.2
				c-0.5-1.1-0.5-2.4-0.8-3.3c-0.3,0.1-0.5,0-0.7-0.3c1.3-0.8-0.2-2,0.6-2.9c-0.2-0.6-1-0.5-1.2-1c0.5-1.8,3.4-0.2,2.2,1.2
				c0.5,2,1.4,4.8,0.5,6.6c0.6,0.6,0.1,1.2,0.1,2c-0.3,0.2-0.4,0.2-0.7,0.1C141.8,209.4,141,208.9,141.5,208.5z"/>
		</g>
	</g>
</g>
<g>
	<g>
		<g>
			<g>
				<g class="st2">
					<g>
						<path class="st3" d="M115.3,181.6c0.2-0.3,0.4-0.5,0.6-0.8c-0.1,0.1-0.3,0.2-0.5,0.3C115.3,181.2,115.3,181.4,115.3,181.6z"/>
						<path class="st3" d="M116.5,180c0,0,0.1-0.1,0.1-0.1c0-0.1,0-0.1,0.1-0.2C116.6,179.8,116.6,179.9,116.5,180z"/>
						<path class="st3" d="M117.5,178.5c-0.2,0.2-0.4,0.5-0.5,0.7C117.1,179.1,117.3,178.8,117.5,178.5z"/>
						<path class="st3" d="M116.5,179.6c0.1,0,0.2,0,0.2,0.2c0,0,0,0,0,0c0.1-0.2,0.2-0.3,0.3-0.5
							C116.8,179.4,116.7,179.5,116.5,179.6z"/>
						<path class="st3" d="M116.5,179.6c-0.1,0-0.3,0.1-0.4,0.1C116.3,179.7,116.4,179.6,116.5,179.6z"/>
						<path class="st3" d="M115.2,178.1c0.1-0.2,0.5,0.2,0.6-0.2c0.4-0.8,0.6-1.5,1.1-2.1c0.1-0.4,0.9-0.4,1.1-0.8
							c0.4-0.8,1.1-2.9,0.4-1.9c-1.1,1.6-1.7,2.6-2.7,4.1c-0.7,1.2-1.3,2.5-2,3.7c-0.2,0.3-0.5,0.6-0.7,0.9c0.4-0.3,0.7-0.7,1.1-1.1
							C114.7,180.2,114.7,179,115.2,178.1z"/>
						<path class="st3" d="M110.4,187.4c0.1-0.2,0.2-0.5,0.2-0.5c0.8-0.4,1.2-1.2,1.6-1.9c-0.1,0-0.3,0.1-0.4,0.1
							c-0.3,0.4-0.2,0.5,0.2,0.3c-0.9,0.6-1.4,1.3-2,2.1C110.1,187.5,110.2,187.6,110.4,187.4z"/>
						<path class="st3" d="M109.6,187.9c0.1-0.2,0.2-0.3,0.3-0.5c0,0,0,0,0,0C109.8,187.6,109.7,187.8,109.6,187.9
							C109.6,187.9,109.6,187.9,109.6,187.9z"/>
						<path class="st3" d="M119.4,175.2c1.4-1.9,2.8-3.7,4.1-5.4c0-0.2,0-0.4,0.2-0.5c0.2-0.1,0.3-0.2,0.5-0.3
							c0.2-0.3,0.4-0.5,0.6-0.7c0.1-0.1,0.1-0.2,0.2-0.3c0,0,0,0,0,0c0.1-0.2,0-0.2-0.2-0.1c-0.1,0.1-0.2,0.1-0.4,0.1
							c0.1,0,0.2-0.1,0.4-0.1c0.1-0.1,0.3-0.2,0.4-0.3c0.1-0.3,0.3-0.5,0.5-0.7c-0.2,0.3-0.3,0.6-0.5,0.7c-0.1,0.2-0.2,0.3-0.3,0.5
							c0,0.1,0,0.1-0.1,0.2c0.5-0.6,0.9-1.1,1.4-1.7c0.1-0.1,0.2-0.3,0.2-0.4c0.3-0.5,0.5-0.9,0.9-1c0.1-0.1,0.2-0.2,0.2-0.3
							c0,0-0.1,0-0.1,0c0,0,0.1-0.1,0.1-0.1c0.3-0.4,0.7-0.8,1-1.3c0.1-0.3,0.3-0.7,0.4-1.1c0,0,0.3-0.1,0.4-0.1
							c0-0.2,0-0.4,0.2-0.7c-0.3,0.1-0.6,0.2-0.9,0.4c-0.4,0.1-0.1,1-0.7,1c0.7,0,0.3-0.9,0.7-1c0.2-0.1,0.5-0.2,0.9-0.4
							c0.2-0.5,0.7-1,1.3-1.2c-0.2,0.7-0.7,1-1.3,1.2c-0.1,0.2-0.2,0.5-0.2,0.7c-0.1,0-0.4,0.1-0.4,0.1c-0.2,0.3-0.3,0.7-0.4,1.1
							c0.7-0.8,1.4-1.7,2.1-2.5c4.6-5.5,8.5-10.8,13.2-16.6c2.5-3.1,5.1-6.1,7.6-8.9c5.1-5.6,8.6-11.6,14.3-16.9
							c2.2-2,5.2-6.5,6.9-8.8c1.6-3.6-1.5-3.4-1.7-3.3c-3,0.7-3.2,2.8-7,5.9c2.5-2.2-0.4,2.7-3.3,4.3c-4.3,2.3-6.8,8.3-10.5,12.3
							c-0.9,1-1.7,2.2-2.7,3.5c-5.6,6.3-9.7,13.1-15.1,20.1c-1.4,1.9-2.3,3.8-3.2,5.6c-0.8,1.2-1.9,2.3-2.6,3.2
							c-1.1,1.5-1.9,2.9-2.6,4.2c0.9-1.4,1.6-2.5,2.7-4.1c0.7-1,0,1.1-0.4,1.9c-0.1,0.4-0.9,0.4-1.1,0.8c-0.5,0.6-0.7,1.3-1.1,2.1
							c-0.1,0.4-0.5,0-0.6,0.2c-0.6,1-0.6,2.1-1.1,2.6c-0.4,0.4-0.8,0.7-1.1,1.1c-0.2,0.2-0.4,0.5-0.6,0.7c-0.1,0.2-0.2,0.4-0.3,0.6
							c0.2,0,0.4,0,0.6,0.1c-0.2,0.2-0.6,0.5-0.8,0.7c0.2-0.2,0.6-0.5,0.8-0.7c-0.2-0.1-0.4-0.2-0.6-0.1c-0.6,1.4-1.5,2.9-2.2,4.4
							c0,0,0,0,0.1,0c0.5-0.8,1.1-1.5,2-2.1c-0.4,0.3-0.4,0.1-0.2-0.3c0.1,0,0.3-0.1,0.4-0.1c-0.4,0.8-0.8,1.5-1.6,1.9
							c0,0-0.1,0.4-0.2,0.5c-0.2,0.2-0.3,0.1-0.5,0c-0.1,0.2-0.2,0.3-0.3,0.5C118.3,176,119.4,175.2,119.4,175.2z"/>
						<path class="st3" d="M125.2,167.5c-0.1,0.1-0.1,0.2-0.2,0.4c0.4-0.5,0.8-0.9,1.2-1.4C125.7,166.5,125.5,167,125.2,167.5z"/>
					</g>
				</g>
			</g>
		</g>
	</g>
</g>
<g>
	<g>
		<g>
			<g>
				<g class="st4">
					<path class="st3" d="M167.2,193.5c-0.6-3-5.7-11.6-7.6-15.6c-0.8-1.5-1.4-2.6-1.8-3.5c-0.3-0.7,0.5,0.9,1.8,3.5
						c0.6,1.1,1.3,2.4,2.2,4c-0.8-2.1-1.5-4.1-2-5.6c-0.6-1-1.1-1.9-1.7-2.9c-2.5-4.4-5-8.6-7.3-12.9c-0.8-1.6-2.9-5-3.6-6.6
						l11.1,18.9c-0.1-0.2-0.2-0.4-0.2-0.5l-5.6-10.1c-0.3-0.6-0.7-1.1-1-1.7l1,1.7c0.9,1.5,1.8,2.8,2.8,4.4c0.6,1,1.1,2.2,1.7,3.2
						c0.5,0.8,0.7,1.7,1.1,2.5l0.8,1.5c0.1,0.1,0.2,0.3,0.3,0.4c0,0,0,0,0,0c0-1.7-6.4-14.7-7.8-16.7c-1.1-1.6-2.6-2.7-3.8-4.5
						c-0.4-0.6-0.5-1.2-1-1.6c-0.1,0-0.3-0.2-0.5-0.4c-0.8-1.2-1.2-2.6-2-3.4c-0.5-0.6-0.1-3.3-0.5-3.3c-1.3,0.1-0.4,0-1.2-1.6
						c-0.1-0.2-0.9-0.6-1.1-1c-0.5-1.4-1.1-1.6-2.1-3c-1.6-1.9-1.3-2.8-3.1-4.3c-0.2-0.2-2.4-2.9-2.4-2.9c-1.3-2.4-2.7-3.5-3.1-5.8
						c-1.9-1.7-2.9-5-4.3-7.1c-1.5-2.2-1.5-3.4-2.3-5.7c-0.3-0.6-0.6-1-0.6-1.4c-0.1-0.4-0.9-1-1.2-1.6c0.1,0,0.2,0,0.4,0
						c-0.1-0.2-0.3-0.6-0.4-0.8c-0.1-0.2,0-0.2,0.2-0.2c0.2,0,0.5,0,0.4-0.5c-0.3-0.9-0.7-1.8-1.1-2.6c-0.6-0.7-1.3-1.4-1.9-2.1
						c-0.2,0-0.3,0.1-0.5,0c-0.2-0.2-0.4-0.4-0.6-0.6c-0.4,0-0.6,0.3-0.9,0.3c-0.8,0.5-2.2,0-2.8,0.7c-0.2,0.2,0.6,1.6,0.6,2.5
						c0,0.2-0.5,0-0.9,0.1c0.5,0.8,0.2,1-0.3,0.9c0.1,0.2,0.2,0.4,0.2,0.4c-0.1,0-0.5,0-0.5,0c0.9,2.2,1.5,4.9,3.1,6.6
						c0.3,0.4,0.9,1,1.4,1.3c0.2,0.2,0.4,0.8,0.4,1c0.5,0.2,0.7-0.1,1.1-0.1c0.6,1.6,2,5,3,4.3c0.7,1.2,1.3,1.1,2.1,2.3
						c1.1,1.6,2.4,3.6,3.6,5.6c0.7,1.1,1.4,2.1,2,3.2c0.2,0.4,0.5,0.8,0.7,1.1c4.9,7.9,7.7,14.3,13.2,21.6
						c11.1,14.8,19.3,33.5,21.4,37.5L167.2,193.5z"/>
				</g>
			</g>
		</g>
	</g>
</g>
<radialGradient id="SVGID_1_" cx="170.0747" cy="163.4542" r="112.9723" gradientTransform="matrix(-0.8912 0 0 -1.0493 292.1172 321.9535)" gradientUnits="userSpaceOnUse">
	<stop  offset="0" style="stop-color:#FFF9AE"/>
	<stop  offset="1" style="stop-color:#FFF9AE;stop-opacity:0"/>
</radialGradient>
<radialGradient id="SVGID_2_" cx="170.0747" cy="163.4542" r="113.4242" gradientTransform="matrix(-0.8912 0 0 -1.0493 292.1172 321.9535)" gradientUnits="userSpaceOnUse">
	<stop  offset="0" style="stop-color:#FFF9AE"/>
	<stop  offset="1" style="stop-color:#FFF9AE;stop-opacity:0"/>
</radialGradient>
<ellipse class="st5" cx="140.5" cy="150.4" rx="93" ry="126.9"/>
</svg>
