<?xml version="1.0" encoding="utf-8"?>
<!-- Generator: Adobe Illustrator 21.0.0, SVG Export Plug-In . SVG Version: 6.00 Build 0)  -->
<svg version="1.1" id="Layer_1" xmlns="http://www.w3.org/2000/svg" xmlns:xlink="http://www.w3.org/1999/xlink" x="0px" y="0px"
	 viewBox="0 0 288 288" style="enable-background:new 0 0 288 288;" xml:space="preserve">
<style type="text/css">
	.st0{fill:none;}
	.st1{fill-rule:evenodd;clip-rule:evenodd;fill:#FFF9AE;}
	.st2{opacity:0.85;}
	.st3{fill:#FFFAB8;}
	.st4{opacity:0.8;}
	.st5{opacity:0.44;fill:url(#SVGID_1_);stroke:url(#SVGID_2_);stroke-width:0.4158;stroke-miterlimit:10;}
</style>
<g>
	<g>
		<g>
			<rect x="149.3" y="249.3" class="st0" width="5.5" height="19"/>
			<path class="st1" d="M152.6,265.6c-0.1-0.5-0.4,0.2-0.8,0c0.3-0.4,0.4-0.9,0.2-1.5c0.4-0.3,0.7-0.6,1.3-0.3
				c-0.8-2-0.9-4.2-1.5-5.7c-0.6,0.2-0.9,0-1.3-0.5c2.4-1.4-0.4-3.6,1-5.1c-0.3-1-1.7-0.9-2.1-1.8c0.9-3.1,6-0.4,3.9,2.1
				c1,3.5,2.5,8.4,0.8,11.6c1.1,1,0.2,2,0.2,3.6c-0.5,0.3-0.7,0.3-1.3,0.2C153,267.3,151.6,266.3,152.6,265.6z"/>
		</g>
		<g>
			<rect x="149.3" y="248.4" class="st0" width="5.5" height="19"/>
			<path class="st1" d="M152.6,264.7c-0.1-0.5-0.4,0.2-0.8,0c0.3-0.4,0.4-0.9,0.2-1.5c0.4-0.3,0.7-0.6,1.3-0.3
				c-0.8-2-0.9-4.2-1.5-5.7c-0.6,0.2-0.9,0-1.3-0.5c2.4-1.4-0.4-3.6,1-5.1c-0.3-1-1.7-0.9-2.1-1.8c0.9-3.1,6-0.4,3.9,2.1
				c1,3.5,2.5,8.4,0.8,11.6c1.1,1,0.2,2,0.2,3.6c-0.5,0.3-0.7,0.3-1.3,0.2C153,266.3,151.6,265.3,152.6,264.7z"/>
		</g>
		<g>
			<rect x="149.3" y="247.4" class="st0" width="5.5" height="19"/>
			<path class="st1" d="M152.6,263.7c-0.1-0.5-0.4,0.2-0.8,0c0.3-0.4,0.4-0.9,0.2-1.5c0.4-0.3,0.7-0.6,1.3-0.3
				c-0.8-2-0.9-4.2-1.5-5.7c-0.6,0.2-0.9,0-1.3-0.5c2.4-1.4-0.4-3.6,1-5.1c-0.3-1-1.7-0.9-2.1-1.8c0.9-3.1,6-0.4,3.9,2.1
				c1,3.5,2.5,8.4,0.8,11.6c1.1,1,0.2,2,0.2,3.6c-0.5,0.3-0.7,0.3-1.3,0.2C153,265.4,151.6,264.4,152.6,263.7z"/>
		</g>
		<g>
			<rect x="149.3" y="246.5" class="st0" width="5.5" height="19"/>
			<path class="st1" d="M152.6,262.8c-0.1-0.5-0.4,0.2-0.8,0c0.3-0.4,0.4-0.9,0.2-1.5c0.4-0.3,0.7-0.6,1.3-0.3
				c-0.8-2-0.9-4.2-1.5-5.7c-0.6,0.2-0.9,0-1.3-0.5c2.4-1.4-0.4-3.6,1-5.1c-0.3-1-1.7-0.9-2.1-1.8c0.9-3.1,6-0.4,3.9,2.1
				c1,3.5,2.5,8.4,0.8,11.6c1.1,1,0.2,2,0.2,3.6c-0.5,0.3-0.7,0.3-1.3,0.2C153,264.4,151.6,263.4,152.6,262.8z"/>
		</g>
		<g>
			<rect x="149.3" y="245.5" class="st0" width="5.5" height="19"/>
			<path class="st1" d="M152.6,261.8c-0.1-0.5-0.4,0.2-0.8,0c0.3-0.4,0.4-0.9,0.2-1.5c0.4-0.3,0.7-0.6,1.3-0.3
				c-0.8-2-0.9-4.2-1.5-5.7c-0.6,0.2-0.9,0-1.3-0.5c2.4-1.4-0.4-3.6,1-5.1c-0.3-1-1.7-0.9-2.1-1.8c0.9-3.1,6-0.4,3.9,2.1
				c1,3.5,2.5,8.4,0.8,11.6c1.1,1,0.2,2,0.2,3.6c-0.5,0.3-0.7,0.3-1.3,0.2C153,263.5,151.6,262.5,152.6,261.8z"/>
		</g>
		<g>
			<rect x="149.3" y="244.6" class="st0" width="5.5" height="19"/>
			<path class="st1" d="M152.6,260.9c-0.1-0.5-0.4,0.2-0.8,0c0.3-0.4,0.4-0.9,0.2-1.5c0.4-0.3,0.7-0.6,1.3-0.3
				c-0.8-2-0.9-4.2-1.5-5.7c-0.6,0.2-0.9,0-1.3-0.5c2.4-1.4-0.4-3.6,1-5.1c-0.3-1-1.7-0.9-2.1-1.8c0.9-3.1,6-0.4,3.9,2.1
				c1,3.5,2.5,8.4,0.8,11.6c1.1,1,0.2,2,0.2,3.6c-0.5,0.3-0.7,0.3-1.3,0.2C153,262.5,151.6,261.5,152.6,260.9z"/>
		</g>
		<g>
			<rect x="149.3" y="243.6" class="st0" width="5.5" height="19"/>
			<path class="st1" d="M152.6,259.9c-0.1-0.5-0.4,0.2-0.8,0c0.3-0.4,0.4-0.9,0.2-1.5c0.4-0.3,0.7-0.6,1.3-0.3
				c-0.8-2-0.9-4.2-1.5-5.7c-0.6,0.2-0.9,0-1.3-0.5c2.4-1.4-0.4-3.6,1-5.1c-0.3-1-1.7-0.9-2.1-1.8c0.9-3.1,6-0.4,3.9,2.1
				c1,3.5,2.5,8.4,0.8,11.6c1.1,1,0.2,2,0.2,3.6c-0.5,0.3-0.7,0.3-1.3,0.2C153,261.6,151.6,260.6,152.6,259.9z"/>
		</g>
		<g>
			<rect x="149.3" y="242.7" class="st0" width="5.5" height="19"/>
			<path class="st1" d="M152.6,259c-0.1-0.5-0.4,0.2-0.8,0c0.3-0.4,0.4-0.9,0.2-1.5c0.4-0.3,0.7-0.6,1.3-0.3c-0.8-2-0.9-4.2-1.5-5.7
				c-0.6,0.2-0.9,0-1.3-0.5c2.4-1.4-0.4-3.6,1-5.1c-0.3-1-1.7-0.9-2.1-1.8c0.9-3.1,6-0.4,3.9,2.1c1,3.5,2.5,8.4,0.8,11.6
				c1.1,1,0.2,2,0.2,3.6c-0.5,0.3-0.7,0.3-1.3,0.2C153,260.6,151.6,259.6,152.6,259z"/>
		</g>
		<g>
			<rect x="149.3" y="241.8" class="st0" width="5.5" height="19"/>
			<path class="st1" d="M152.6,258c-0.1-0.5-0.4,0.2-0.8,0c0.3-0.4,0.4-0.9,0.2-1.5c0.4-0.3,0.7-0.6,1.3-0.3c-0.8-2-0.9-4.2-1.5-5.7
				c-0.6,0.2-0.9,0-1.3-0.5c2.4-1.4-0.4-3.6,1-5.1c-0.3-1-1.7-0.9-2.1-1.8c0.9-3.1,6-0.4,3.9,2.1c1,3.5,2.5,8.4,0.8,11.6
				c1.1,1,0.2,2,0.2,3.6c-0.5,0.3-0.7,0.3-1.3,0.2C153,259.7,151.6,258.7,152.6,258z"/>
		</g>
		<g>
			<rect x="149.3" y="240.8" class="st0" width="5.5" height="19"/>
			<path class="st1" d="M152.6,257.1c-0.1-0.5-0.4,0.2-0.8,0c0.3-0.4,0.4-0.9,0.2-1.5c0.4-0.3,0.7-0.6,1.3-0.3
				c-0.8-2-0.9-4.2-1.5-5.7c-0.6,0.2-0.9,0-1.3-0.5c2.4-1.4-0.4-3.6,1-5.1c-0.3-1-1.7-0.9-2.1-1.8c0.9-3.1,6-0.4,3.9,2.1
				c1,3.5,2.5,8.4,0.8,11.6c1.1,1,0.2,2,0.2,3.6c-0.5,0.3-0.7,0.3-1.3,0.2C153,258.7,151.6,257.7,152.6,257.1z"/>
		</g>
		<g>
			<rect x="149.3" y="239.9" class="st0" width="5.5" height="19"/>
			<path class="st1" d="M152.6,256.1c-0.1-0.5-0.4,0.2-0.8,0c0.3-0.4,0.4-0.9,0.2-1.5c0.4-0.3,0.7-0.6,1.3-0.3
				c-0.8-2-0.9-4.2-1.5-5.7c-0.6,0.2-0.9,0-1.3-0.5c2.4-1.4-0.4-3.6,1-5.1c-0.3-1-1.7-0.9-2.1-1.8c0.9-3.1,6-0.4,3.9,2.1
				c1,3.5,2.5,8.4,0.8,11.6c1.1,1,0.2,2,0.2,3.6c-0.5,0.3-0.7,0.3-1.3,0.2C153,257.8,151.6,256.8,152.6,256.1z"/>
		</g>
		<g>
			<rect x="149.3" y="238.9" class="st0" width="5.5" height="19"/>
			<path class="st1" d="M152.6,255.2c-0.1-0.5-0.4,0.2-0.8,0c0.3-0.4,0.4-0.9,0.2-1.5c0.4-0.3,0.7-0.6,1.3-0.3
				c-0.8-2-0.9-4.2-1.5-5.7c-0.6,0.2-0.9,0-1.3-0.5c2.4-1.4-0.4-3.6,1-5.1c-0.3-1-1.7-0.9-2.1-1.8c0.9-3.1,6-0.4,3.9,2.1
				c1,3.5,2.5,8.4,0.8,11.6c1.1,1,0.2,2,0.2,3.6c-0.5,0.3-0.7,0.3-1.3,0.2C153,256.8,151.6,255.8,152.6,255.2z"/>
		</g>
		<g>
			<rect x="149.3" y="238" class="st0" width="5.5" height="19"/>
			<path class="st1" d="M152.6,254.2c-0.1-0.5-0.4,0.2-0.8,0c0.3-0.4,0.4-0.9,0.2-1.5c0.4-0.3,0.7-0.6,1.3-0.3
				c-0.8-2-0.9-4.2-1.5-5.7c-0.6,0.2-0.9,0-1.3-0.5c2.4-1.4-0.4-3.6,1-5.1c-0.3-1-1.7-0.9-2.1-1.8c0.9-3.1,6-0.4,3.9,2.1
				c1,3.5,2.5,8.4,0.8,11.6c1.1,1,0.2,2,0.2,3.6c-0.5,0.3-0.7,0.3-1.3,0.2C153,255.9,151.6,254.9,152.6,254.2z"/>
		</g>
		<g>
			<rect x="149.3" y="237" class="st0" width="5.5" height="19"/>
			<path class="st1" d="M152.6,253.3c-0.1-0.5-0.4,0.2-0.8,0c0.3-0.4,0.4-0.9,0.2-1.5c0.4-0.3,0.7-0.6,1.3-0.3
				c-0.8-2-0.9-4.2-1.5-5.7c-0.6,0.2-0.9,0-1.3-0.5c2.4-1.4-0.4-3.6,1-5.1c-0.3-1-1.7-0.9-2.1-1.8c0.9-3.1,6-0.4,3.9,2.1
				c1,3.5,2.5,8.4,0.8,11.6c1.1,1,0.2,2,0.2,3.6c-0.5,0.3-0.7,0.3-1.3,0.2C153,254.9,151.6,253.9,152.6,253.3z"/>
		</g>
		<g>
			<rect x="149.3" y="236.1" class="st0" width="5.5" height="19"/>
			<path class="st1" d="M152.6,252.3c-0.1-0.5-0.4,0.2-0.8,0c0.3-0.4,0.4-0.9,0.2-1.5c0.4-0.3,0.7-0.6,1.3-0.3
				c-0.8-2-0.9-4.2-1.5-5.7c-0.6,0.2-0.9,0-1.3-0.5c2.4-1.4-0.4-3.6,1-5.1c-0.3-1-1.7-0.9-2.1-1.8c0.9-3.1,6-0.4,3.9,2.1
				c1,3.5,2.5,8.4,0.8,11.6c1.1,1,0.2,2,0.2,3.6c-0.5,0.3-0.7,0.3-1.3,0.2C153,254,151.6,253,152.6,252.3z"/>
		</g>
		<g>
			<rect x="149.3" y="235.1" class="st0" width="5.5" height="19"/>
			<path class="st1" d="M152.6,251.4c-0.1-0.5-0.4,0.2-0.8,0c0.3-0.4,0.4-0.9,0.2-1.5c0.4-0.3,0.7-0.6,1.3-0.3
				c-0.8-2-0.9-4.2-1.5-5.7c-0.6,0.2-0.9,0-1.3-0.5c2.4-1.4-0.4-3.6,1-5.1c-0.3-1-1.7-0.9-2.1-1.8c0.9-3.1,6-0.4,3.9,2.1
				c1,3.5,2.5,8.4,0.8,11.6c1.1,1,0.2,2,0.2,3.6c-0.5,0.3-0.7,0.3-1.3,0.2C153,253,151.6,252,152.6,251.4z"/>
		</g>
		<g>
			<rect x="149.3" y="234.2" class="st0" width="5.5" height="19"/>
			<path class="st1" d="M152.6,250.4c-0.1-0.5-0.4,0.2-0.8,0c0.3-0.4,0.4-0.9,0.2-1.5c0.4-0.3,0.7-0.6,1.3-0.3
				c-0.8-2-0.9-4.2-1.5-5.7c-0.6,0.2-0.9,0-1.3-0.5c2.4-1.4-0.4-3.6,1-5.1c-0.3-1-1.7-0.9-2.1-1.8c0.9-3.1,6-0.4,3.9,2.1
				c1,3.5,2.5,8.4,0.8,11.6c1.1,1,0.2,2,0.2,3.6c-0.5,0.3-0.7,0.3-1.3,0.2C153,252.1,151.6,251.1,152.6,250.4z"/>
		</g>
		<g>
			<rect x="149.3" y="233.2" class="st0" width="5.5" height="19"/>
			<path class="st1" d="M152.6,249.5c-0.1-0.5-0.4,0.2-0.8,0c0.3-0.4,0.4-0.9,0.2-1.5c0.4-0.3,0.7-0.6,1.3-0.3
				c-0.8-2-0.9-4.2-1.5-5.7c-0.6,0.2-0.9,0-1.3-0.5c2.4-1.4-0.4-3.6,1-5.1c-0.3-1-1.7-0.9-2.1-1.8c0.9-3.1,6-0.4,3.9,2.1
				c1,3.5,2.5,8.4,0.8,11.6c1.1,1,0.2,2,0.2,3.6c-0.5,0.3-0.7,0.3-1.3,0.2C153,251.1,151.6,250.1,152.6,249.5z"/>
		</g>
		<g>
			<rect x="149.3" y="232.3" class="st0" width="5.5" height="19"/>
			<path class="st1" d="M152.6,248.5c-0.1-0.5-0.4,0.2-0.8,0c0.3-0.4,0.4-0.9,0.2-1.5c0.4-0.3,0.7-0.6,1.3-0.3
				c-0.8-2-0.9-4.2-1.5-5.7c-0.6,0.2-0.9,0-1.3-0.5c2.4-1.4-0.4-3.6,1-5.1c-0.3-1-1.7-0.9-2.1-1.8c0.9-3.1,6-0.4,3.9,2.1
				c1,3.5,2.5,8.4,0.8,11.6c1.1,1,0.2,2,0.2,3.6c-0.5,0.3-0.7,0.3-1.3,0.2C153,250.2,151.6,249.2,152.6,248.5z"/>
		</g>
		<g>
			<rect x="149.3" y="231.3" class="st0" width="5.5" height="19"/>
			<path class="st1" d="M152.6,247.6c-0.1-0.5-0.4,0.2-0.8,0c0.3-0.4,0.4-0.9,0.2-1.5c0.4-0.3,0.7-0.6,1.3-0.3
				c-0.8-2-0.9-4.2-1.5-5.7c-0.6,0.2-0.9,0-1.3-0.5c2.4-1.4-0.4-3.6,1-5.1c-0.3-1-1.7-0.9-2.1-1.8c0.9-3.1,6-0.4,3.9,2.1
				c1,3.5,2.5,8.4,0.8,11.6c1.1,1,0.2,2,0.2,3.6c-0.5,0.3-0.7,0.3-1.3,0.2C153,249.2,151.6,248.2,152.6,247.6z"/>
		</g>
		<g>
			<rect x="149.3" y="230.4" class="st0" width="5.5" height="19"/>
			<path class="st1" d="M152.6,246.6c-0.1-0.5-0.4,0.2-0.8,0c0.3-0.4,0.4-0.9,0.2-1.5c0.4-0.3,0.7-0.6,1.3-0.3
				c-0.8-2-0.9-4.2-1.5-5.7c-0.6,0.2-0.9,0-1.3-0.5c2.4-1.4-0.4-3.6,1-5.1c-0.3-1-1.7-0.9-2.1-1.8c0.9-3.1,6-0.4,3.9,2.1
				c1,3.5,2.5,8.4,0.8,11.6c1.1,1,0.2,2,0.2,3.6c-0.5,0.3-0.7,0.3-1.3,0.2C153,248.3,151.6,247.3,152.6,246.6z"/>
		</g>
		<g>
			<rect x="149.3" y="229.4" class="st0" width="5.5" height="19"/>
			<path class="st1" d="M152.6,245.7c-0.1-0.5-0.4,0.2-0.8,0c0.3-0.4,0.4-0.9,0.2-1.5c0.4-0.3,0.7-0.6,1.3-0.3
				c-0.8-2-0.9-4.2-1.5-5.7c-0.6,0.2-0.9,0-1.3-0.5c2.4-1.4-0.4-3.6,1-5.1c-0.3-1-1.7-0.9-2.1-1.8c0.9-3.1,6-0.4,3.9,2.1
				c1,3.5,2.5,8.4,0.8,11.6c1.1,1,0.2,2,0.2,3.6c-0.5,0.3-0.7,0.3-1.3,0.2C153,247.3,151.6,246.3,152.6,245.7z"/>
		</g>
		<g>
			<rect x="149.3" y="228.5" class="st0" width="5.5" height="19"/>
			<path class="st1" d="M152.6,244.7c-0.1-0.5-0.4,0.2-0.8,0c0.3-0.4,0.4-0.9,0.2-1.5c0.4-0.3,0.7-0.6,1.3-0.3
				c-0.8-2-0.9-4.2-1.5-5.7c-0.6,0.2-0.9,0-1.3-0.5c2.4-1.4-0.4-3.6,1-5.1c-0.3-1-1.7-0.9-2.1-1.8c0.9-3.1,6-0.4,3.9,2.1
				c1,3.5,2.5,8.4,0.8,11.6c1.1,1,0.2,2,0.2,3.6c-0.5,0.3-0.7,0.3-1.3,0.2C153,246.4,151.6,245.4,152.6,244.7z"/>
		</g>
		<g>
			<rect x="149.3" y="227.5" class="st0" width="5.5" height="19"/>
			<path class="st1" d="M152.6,243.8c-0.1-0.5-0.4,0.2-0.8,0c0.3-0.4,0.4-0.9,0.2-1.5c0.4-0.3,0.7-0.6,1.3-0.3
				c-0.8-2-0.9-4.2-1.5-5.7c-0.6,0.2-0.9,0-1.3-0.5c2.4-1.4-0.4-3.6,1-5.1c-0.3-1-1.7-0.9-2.1-1.8c0.9-3.1,6-0.4,3.9,2.1
				c1,3.5,2.5,8.4,0.8,11.6c1.1,1,0.2,2,0.2,3.6c-0.5,0.3-0.7,0.3-1.3,0.2C153,245.4,151.6,244.4,152.6,243.8z"/>
		</g>
		<g>
			<rect x="149.3" y="226.6" class="st0" width="5.5" height="19"/>
			<path class="st1" d="M152.6,242.8c-0.1-0.5-0.4,0.2-0.8,0c0.3-0.4,0.4-0.9,0.2-1.5c0.4-0.3,0.7-0.6,1.3-0.3
				c-0.8-2-0.9-4.2-1.5-5.7c-0.6,0.2-0.9,0-1.3-0.5c2.4-1.4-0.4-3.6,1-5.1c-0.3-1-1.7-0.9-2.1-1.8c0.9-3.1,6-0.4,3.9,2.1
				c1,3.5,2.5,8.4,0.8,11.6c1.1,1,0.2,2,0.2,3.6c-0.5,0.3-0.7,0.3-1.3,0.2C153,244.5,151.6,243.5,152.6,242.8z"/>
		</g>
		<g>
			<rect x="149.3" y="225.6" class="st0" width="5.5" height="19"/>
			<path class="st1" d="M152.6,241.9c-0.1-0.5-0.4,0.2-0.8,0c0.3-0.4,0.4-0.9,0.2-1.5c0.4-0.3,0.7-0.6,1.3-0.3
				c-0.8-2-0.9-4.2-1.5-5.7c-0.6,0.2-0.9,0-1.3-0.5c2.4-1.4-0.4-3.6,1-5.1c-0.3-1-1.7-0.9-2.1-1.8c0.9-3.1,6-0.4,3.9,2.1
				c1,3.5,2.5,8.4,0.8,11.6c1.1,1,0.2,2,0.2,3.6c-0.5,0.3-0.7,0.3-1.3,0.2C153,243.5,151.6,242.5,152.6,241.9z"/>
		</g>
		<g>
			<rect x="149.3" y="224.7" class="st0" width="5.5" height="19"/>
			<path class="st1" d="M152.6,240.9c-0.1-0.5-0.4,0.2-0.8,0c0.3-0.4,0.4-0.9,0.2-1.5c0.4-0.3,0.7-0.6,1.3-0.3
				c-0.8-2-0.9-4.2-1.5-5.7c-0.6,0.2-0.9,0-1.3-0.5c2.4-1.4-0.4-3.6,1-5.1c-0.3-1-1.7-0.9-2.1-1.8c0.9-3.1,6-0.4,3.9,2.1
				c1,3.5,2.5,8.4,0.8,11.6c1.1,1,0.2,2,0.2,3.6c-0.5,0.3-0.7,0.3-1.3,0.2C153,242.6,151.6,241.6,152.6,240.9z"/>
		</g>
		<g>
			<rect x="149.3" y="223.7" class="st0" width="5.5" height="19"/>
			<path class="st1" d="M152.6,240c-0.1-0.5-0.4,0.2-0.8,0c0.3-0.4,0.4-0.9,0.2-1.5c0.4-0.3,0.7-0.6,1.3-0.3c-0.8-2-0.9-4.2-1.5-5.7
				c-0.6,0.2-0.9,0-1.3-0.5c2.4-1.4-0.4-3.6,1-5.1c-0.3-1-1.7-0.9-2.1-1.8c0.9-3.1,6-0.4,3.9,2.1c1,3.5,2.5,8.4,0.8,11.6
				c1.1,1,0.2,2,0.2,3.6c-0.5,0.3-0.7,0.3-1.3,0.2C153,241.6,151.6,240.6,152.6,240z"/>
		</g>
		<g>
			<rect x="149.3" y="222.8" class="st0" width="5.5" height="19"/>
			<path class="st1" d="M152.6,239c-0.1-0.5-0.4,0.2-0.8,0c0.3-0.4,0.4-0.9,0.2-1.5c0.4-0.3,0.7-0.6,1.3-0.3c-0.8-2-0.9-4.2-1.5-5.7
				c-0.6,0.2-0.9,0-1.3-0.5c2.4-1.4-0.4-3.6,1-5.1c-0.3-1-1.7-0.9-2.1-1.8c0.9-3.1,6-0.4,3.9,2.1c1,3.5,2.5,8.4,0.8,11.6
				c1.1,1,0.2,2,0.2,3.6c-0.5,0.3-0.7,0.3-1.3,0.2C153,240.7,151.6,239.7,152.6,239z"/>
		</g>
		<g>
			<rect x="149.3" y="221.8" class="st0" width="5.5" height="19"/>
			<path class="st1" d="M152.6,238.1c-0.1-0.5-0.4,0.2-0.8,0c0.3-0.4,0.4-0.9,0.2-1.5c0.4-0.3,0.7-0.6,1.3-0.3
				c-0.8-2-0.9-4.2-1.5-5.7c-0.6,0.2-0.9,0-1.3-0.5c2.4-1.4-0.4-3.6,1-5.1c-0.3-1-1.7-0.9-2.1-1.8c0.9-3.1,6-0.4,3.9,2.1
				c1,3.5,2.5,8.4,0.8,11.6c1.1,1,0.2,2,0.2,3.6c-0.5,0.3-0.7,0.3-1.3,0.2C153,239.7,151.6,238.7,152.6,238.1z"/>
		</g>
		<g>
			<rect x="149.3" y="220.9" class="st0" width="5.5" height="19"/>
			<path class="st1" d="M152.6,237.1c-0.1-0.5-0.4,0.2-0.8,0c0.3-0.4,0.4-0.9,0.2-1.5c0.4-0.3,0.7-0.6,1.3-0.3
				c-0.8-2-0.9-4.2-1.5-5.7c-0.6,0.2-0.9,0-1.3-0.5c2.4-1.4-0.4-3.6,1-5.1c-0.3-1-1.7-0.9-2.1-1.8c0.9-3.1,6-0.4,3.9,2.1
				c1,3.5,2.5,8.4,0.8,11.6c1.1,1,0.2,2,0.2,3.6c-0.5,0.3-0.7,0.3-1.3,0.2C153,238.8,151.6,237.8,152.6,237.1z"/>
		</g>
		<g>
			<rect x="149.3" y="219.9" class="st0" width="5.5" height="19"/>
			<path class="st1" d="M152.6,236.2c-0.1-0.5-0.4,0.2-0.8,0c0.3-0.4,0.4-0.9,0.2-1.5c0.4-0.3,0.7-0.6,1.3-0.3
				c-0.8-2-0.9-4.2-1.5-5.7c-0.6,0.2-0.9,0-1.3-0.5c2.4-1.4-0.4-3.6,1-5.1c-0.3-1-1.7-0.9-2.1-1.8c0.9-3.1,6-0.4,3.9,2.1
				c1,3.5,2.5,8.4,0.8,11.6c1.1,1,0.2,2,0.2,3.6c-0.5,0.3-0.7,0.3-1.3,0.2C153,237.8,151.6,236.8,152.6,236.2z"/>
		</g>
		<g>
			<rect x="149.3" y="219" class="st0" width="5.5" height="19"/>
			<path class="st1" d="M152.6,235.2c-0.1-0.5-0.4,0.2-0.8,0c0.3-0.4,0.4-0.9,0.2-1.5c0.4-0.3,0.7-0.6,1.3-0.3
				c-0.8-2-0.9-4.2-1.5-5.7c-0.6,0.2-0.9,0-1.3-0.5c2.4-1.4-0.4-3.6,1-5.1c-0.3-1-1.7-0.9-2.1-1.8c0.9-3.1,6-0.4,3.9,2.1
				c1,3.5,2.5,8.4,0.8,11.6c1.1,1,0.2,2,0.2,3.6c-0.5,0.3-0.7,0.3-1.3,0.2C153,236.9,151.6,235.9,152.6,235.2z"/>
		</g>
		<g>
			<rect x="149.3" y="218" class="st0" width="5.5" height="19"/>
			<path class="st1" d="M152.6,234.3c-0.1-0.5-0.4,0.2-0.8,0c0.3-0.4,0.4-0.9,0.2-1.5c0.4-0.3,0.7-0.6,1.3-0.3
				c-0.8-2-0.9-4.2-1.5-5.7c-0.6,0.2-0.9,0-1.3-0.5c2.4-1.4-0.4-3.6,1-5.1c-0.3-1-1.7-0.9-2.1-1.8c0.9-3.1,6-0.4,3.9,2.1
				c1,3.5,2.5,8.4,0.8,11.6c1.1,1,0.2,2,0.2,3.6c-0.5,0.3-0.7,0.3-1.3,0.2C153,235.9,151.6,235,152.6,234.3z"/>
		</g>
		<g>
			<rect x="149.3" y="217.1" class="st0" width="5.5" height="19"/>
			<path class="st1" d="M152.6,233.3c-0.1-0.5-0.4,0.2-0.8,0c0.3-0.4,0.4-0.9,0.2-1.5c0.4-0.3,0.7-0.6,1.3-0.3
				c-0.8-2-0.9-4.2-1.5-5.7c-0.6,0.2-0.9,0-1.3-0.5c2.4-1.4-0.4-3.6,1-5.1c-0.3-1-1.7-0.9-2.1-1.8c0.9-3.1,6-0.4,3.9,2.1
				c1,3.5,2.5,8.4,0.8,11.6c1.1,1,0.2,2,0.2,3.6c-0.5,0.3-0.7,0.3-1.3,0.2C153,235,151.6,234,152.6,233.3z"/>
		</g>
		<g>
			<rect x="149.3" y="216.1" class="st0" width="5.5" height="19"/>
			<path class="st1" d="M152.6,232.4c-0.1-0.5-0.4,0.2-0.8,0c0.3-0.4,0.4-0.9,0.2-1.5c0.4-0.3,0.7-0.6,1.3-0.3
				c-0.8-2-0.9-4.2-1.5-5.7c-0.6,0.2-0.9,0-1.3-0.5c2.4-1.4-0.4-3.6,1-5.1c-0.3-1-1.7-0.9-2.1-1.8c0.9-3.1,6-0.4,3.9,2.1
				c1,3.5,2.5,8.4,0.8,11.6c1.1,1,0.2,2,0.2,3.6c-0.5,0.3-0.7,0.3-1.3,0.2C153,234,151.6,233.1,152.6,232.4z"/>
		</g>
		<g>
			<rect x="149.3" y="215.2" class="st0" width="5.5" height="19"/>
			<path class="st1" d="M152.6,231.4c-0.1-0.5-0.4,0.2-0.8,0c0.3-0.4,0.4-0.9,0.2-1.5c0.4-0.3,0.7-0.6,1.3-0.3
				c-0.8-2-0.9-4.2-1.5-5.7c-0.6,0.2-0.9,0-1.3-0.5c2.4-1.4-0.4-3.6,1-5.1c-0.3-1-1.7-0.9-2.1-1.8c0.9-3.1,6-0.4,3.9,2.1
				c1,3.5,2.5,8.4,0.8,11.6c1.1,1,0.2,2,0.2,3.6c-0.5,0.3-0.7,0.3-1.3,0.2C153,233.1,151.6,232.1,152.6,231.4z"/>
		</g>
		<g>
			<rect x="149.3" y="214.2" class="st0" width="5.5" height="19"/>
			<path class="st1" d="M152.6,230.5c-0.1-0.5-0.4,0.2-0.8,0c0.3-0.4,0.4-0.9,0.2-1.5c0.4-0.3,0.7-0.6,1.3-0.3
				c-0.8-2-0.9-4.2-1.5-5.7c-0.6,0.2-0.9,0-1.3-0.5c2.4-1.4-0.4-3.6,1-5.1c-0.3-1-1.7-0.9-2.1-1.8c0.9-3.1,6-0.4,3.9,2.1
				c1,3.5,2.5,8.4,0.8,11.6c1.1,1,0.2,2,0.2,3.6c-0.5,0.3-0.7,0.3-1.3,0.2C153,232.2,151.6,231.2,152.6,230.5z"/>
		</g>
		<g>
			<rect x="149.3" y="213.3" class="st0" width="5.5" height="19"/>
			<path class="st1" d="M152.6,229.5c-0.1-0.5-0.4,0.2-0.8,0c0.3-0.4,0.4-0.9,0.2-1.5c0.4-0.3,0.7-0.6,1.3-0.3
				c-0.8-2-0.9-4.2-1.5-5.7c-0.6,0.2-0.9,0-1.3-0.5c2.4-1.4-0.4-3.6,1-5.1c-0.3-1-1.7-0.9-2.1-1.8c0.9-3.1,6-0.4,3.9,2.1
				c1,3.5,2.5,8.4,0.8,11.6c1.1,1,0.2,2,0.2,3.6c-0.5,0.3-0.7,0.3-1.3,0.2C153,231.2,151.6,230.2,152.6,229.5z"/>
		</g>
		<g>
			<rect x="149.3" y="212.3" class="st0" width="5.5" height="19"/>
			<path class="st1" d="M152.6,228.6c-0.1-0.5-0.4,0.2-0.8,0c0.3-0.4,0.4-0.9,0.2-1.5c0.4-0.3,0.7-0.6,1.3-0.3
				c-0.8-2-0.9-4.2-1.5-5.7c-0.6,0.2-0.9,0-1.3-0.5c2.4-1.4-0.4-3.6,1-5.1c-0.3-1-1.7-0.9-2.1-1.8c0.9-3.1,6-0.4,3.9,2.1
				c1,3.5,2.5,8.4,0.8,11.6c1.1,1,0.2,2,0.2,3.6c-0.5,0.3-0.7,0.3-1.3,0.2C153,230.3,151.6,229.3,152.6,228.6z"/>
		</g>
		<g>
			<rect x="149.3" y="211.4" class="st0" width="5.5" height="19"/>
			<path class="st1" d="M152.6,227.6c-0.1-0.5-0.4,0.2-0.8,0c0.3-0.4,0.4-0.9,0.2-1.5c0.4-0.3,0.7-0.6,1.3-0.3
				c-0.8-2-0.9-4.2-1.5-5.7c-0.6,0.2-0.9,0-1.3-0.5c2.4-1.4-0.4-3.6,1-5.1c-0.3-1-1.7-0.9-2.1-1.8c0.9-3.1,6-0.4,3.9,2.1
				c1,3.5,2.5,8.4,0.8,11.6c1.1,1,0.2,2,0.2,3.6c-0.5,0.3-0.7,0.3-1.3,0.2C153,229.3,151.6,228.3,152.6,227.6z"/>
		</g>
		<g>
			<rect x="149.3" y="210.4" class="st0" width="5.5" height="19"/>
			<path class="st1" d="M152.6,226.7c-0.1-0.5-0.4,0.2-0.8,0c0.3-0.4,0.4-0.9,0.2-1.5c0.4-0.3,0.7-0.6,1.3-0.3
				c-0.8-2-0.9-4.2-1.5-5.7c-0.6,0.2-0.9,0-1.3-0.5c2.4-1.4-0.4-3.6,1-5.1c-0.3-1-1.7-0.9-2.1-1.8c0.9-3.1,6-0.4,3.9,2.1
				c1,3.5,2.5,8.4,0.8,11.6c1.1,1,0.2,2,0.2,3.6c-0.5,0.3-0.7,0.3-1.3,0.2C153,228.4,151.6,227.4,152.6,226.7z"/>
		</g>
		<g>
			<rect x="149.3" y="209.5" class="st0" width="5.5" height="19"/>
			<path class="st1" d="M152.6,225.7c-0.1-0.5-0.4,0.2-0.8,0c0.3-0.4,0.4-0.9,0.2-1.5c0.4-0.3,0.7-0.6,1.3-0.3
				c-0.8-2-0.9-4.2-1.5-5.7c-0.6,0.2-0.9,0-1.3-0.5c2.4-1.4-0.4-3.6,1-5.1c-0.3-1-1.7-0.9-2.1-1.8c0.9-3.1,6-0.4,3.9,2.1
				c1,3.5,2.5,8.4,0.8,11.6c1.1,1,0.2,2,0.2,3.6c-0.5,0.3-0.7,0.3-1.3,0.2C153,227.4,151.6,226.4,152.6,225.7z"/>
		</g>
		<g>
			<rect x="149.3" y="208.5" class="st0" width="5.5" height="19"/>
			<path class="st1" d="M152.6,224.8c-0.1-0.5-0.4,0.2-0.8,0c0.3-0.4,0.4-0.9,0.2-1.5c0.4-0.3,0.7-0.6,1.3-0.3
				c-0.8-2-0.9-4.2-1.5-5.7c-0.6,0.2-0.9,0-1.3-0.5c2.4-1.4-0.4-3.6,1-5.1c-0.3-1-1.7-0.9-2.1-1.8c0.9-3.1,6-0.4,3.9,2.1
				c1,3.5,2.5,8.4,0.8,11.6c1.1,1,0.2,2,0.2,3.6c-0.5,0.3-0.7,0.3-1.3,0.2C153,226.5,151.6,225.5,152.6,224.8z"/>
		</g>
		<g>
			<rect x="149.3" y="207.6" class="st0" width="5.5" height="19"/>
			<path class="st1" d="M152.6,223.8c-0.1-0.5-0.4,0.2-0.8,0c0.3-0.4,0.4-0.9,0.2-1.5c0.4-0.3,0.7-0.6,1.3-0.3
				c-0.8-2-0.9-4.2-1.5-5.7c-0.6,0.2-0.9,0-1.3-0.5c2.4-1.4-0.4-3.6,1-5.1c-0.3-1-1.7-0.9-2.1-1.8c0.9-3.1,6-0.4,3.9,2.1
				c1,3.5,2.5,8.4,0.8,11.6c1.1,1,0.2,2,0.2,3.6c-0.5,0.3-0.7,0.3-1.3,0.2C153,225.5,151.6,224.5,152.6,223.8z"/>
		</g>
		<g>
			<rect x="149.3" y="206.6" class="st0" width="5.5" height="19"/>
			<path class="st1" d="M152.6,222.9c-0.1-0.5-0.4,0.2-0.8,0c0.3-0.4,0.4-0.9,0.2-1.5c0.4-0.3,0.7-0.6,1.3-0.3
				c-0.8-2-0.9-4.2-1.5-5.7c-0.6,0.2-0.9,0-1.3-0.5c2.4-1.4-0.4-3.6,1-5.1c-0.3-1-1.7-0.9-2.1-1.8c0.9-3.1,6-0.4,3.9,2.1
				c1,3.5,2.5,8.4,0.8,11.6c1.1,1,0.2,2,0.2,3.6c-0.5,0.3-0.7,0.3-1.3,0.2C153,224.6,151.6,223.6,152.6,222.9z"/>
		</g>
		<g>
			<rect x="149.3" y="205.7" class="st0" width="5.5" height="19"/>
			<path class="st1" d="M152.6,222c-0.1-0.5-0.4,0.2-0.8,0c0.3-0.4,0.4-0.9,0.2-1.5c0.4-0.3,0.7-0.6,1.3-0.3c-0.8-2-0.9-4.2-1.5-5.7
				c-0.6,0.2-0.9,0-1.3-0.5c2.4-1.4-0.4-3.6,1-5.1c-0.3-1-1.7-0.9-2.1-1.8c0.9-3.1,6-0.4,3.9,2.1c1,3.5,2.5,8.4,0.8,11.6
				c1.1,1,0.2,2,0.2,3.6c-0.5,0.3-0.7,0.3-1.3,0.2C153,223.6,151.6,222.6,152.6,222z"/>
		</g>
		<g>
			<rect x="149.3" y="204.7" class="st0" width="5.5" height="19"/>
			<path class="st1" d="M152.6,221c-0.1-0.5-0.4,0.2-0.8,0c0.3-0.4,0.4-0.9,0.2-1.5c0.4-0.3,0.7-0.6,1.3-0.3c-0.8-2-0.9-4.2-1.5-5.7
				c-0.6,0.2-0.9,0-1.3-0.5c2.4-1.4-0.4-3.6,1-5.1c-0.3-1-1.7-0.9-2.1-1.8c0.9-3.1,6-0.4,3.9,2.1c1,3.5,2.5,8.4,0.8,11.6
				c1.1,1,0.2,2,0.2,3.6c-0.5,0.3-0.7,0.3-1.3,0.2C153,222.7,151.6,221.7,152.6,221z"/>
		</g>
		<g>
			<rect x="149.3" y="203.8" class="st0" width="5.5" height="19"/>
			<path class="st1" d="M152.6,220.1c-0.1-0.5-0.4,0.2-0.8,0c0.3-0.4,0.4-0.9,0.2-1.5c0.4-0.3,0.7-0.6,1.3-0.3
				c-0.8-2-0.9-4.2-1.5-5.7c-0.6,0.2-0.9,0-1.3-0.5c2.4-1.4-0.4-3.6,1-5.1c-0.3-1-1.7-0.9-2.1-1.8c0.9-3.1,6-0.4,3.9,2.1
				c1,3.5,2.5,8.4,0.8,11.6c1.1,1,0.2,2,0.2,3.6c-0.5,0.3-0.7,0.3-1.3,0.2C153,221.7,151.6,220.7,152.6,220.1z"/>
		</g>
		<g>
			<rect x="149.3" y="202.8" class="st0" width="5.5" height="19"/>
			<path class="st1" d="M152.6,219.1c-0.1-0.5-0.4,0.2-0.8,0c0.3-0.4,0.4-0.9,0.2-1.5c0.4-0.3,0.7-0.6,1.3-0.3
				c-0.8-2-0.9-4.2-1.5-5.7c-0.6,0.2-0.9,0-1.3-0.5c2.4-1.4-0.4-3.6,1-5.1c-0.3-1-1.7-0.9-2.1-1.8c0.9-3.1,6-0.4,3.9,2.1
				c1,3.5,2.5,8.4,0.8,11.6c1.1,1,0.2,2,0.2,3.6c-0.5,0.3-0.7,0.3-1.3,0.2C153,220.8,151.6,219.8,152.6,219.1z"/>
		</g>
		<g>
			<rect x="149.3" y="201.9" class="st0" width="5.5" height="19"/>
			<path class="st1" d="M152.6,218.2c-0.1-0.5-0.4,0.2-0.8,0c0.3-0.4,0.4-0.9,0.2-1.5c0.4-0.3,0.7-0.6,1.3-0.3
				c-0.8-2-0.9-4.2-1.5-5.7c-0.6,0.2-0.9,0-1.3-0.5c2.4-1.4-0.4-3.6,1-5.1c-0.3-1-1.7-0.9-2.1-1.8c0.9-3.1,6-0.4,3.9,2.1
				c1,3.5,2.5,8.4,0.8,11.6c1.1,1,0.2,2,0.2,3.6c-0.5,0.3-0.7,0.3-1.3,0.2C153,219.8,151.6,218.8,152.6,218.2z"/>
		</g>
		<g>
			<rect x="149.3" y="200.9" class="st0" width="5.5" height="19"/>
			<path class="st1" d="M152.6,217.2c-0.1-0.5-0.4,0.2-0.8,0c0.3-0.4,0.4-0.9,0.2-1.5c0.4-0.3,0.7-0.6,1.3-0.3
				c-0.8-2-0.9-4.2-1.5-5.7c-0.6,0.2-0.9,0-1.3-0.5c2.4-1.4-0.4-3.6,1-5.1c-0.3-1-1.7-0.9-2.1-1.8c0.9-3.1,6-0.4,3.9,2.1
				c1,3.5,2.5,8.4,0.8,11.6c1.1,1,0.2,2,0.2,3.6c-0.5,0.3-0.7,0.3-1.3,0.2C153,218.9,151.6,217.9,152.6,217.2z"/>
		</g>
		<g>
			<rect x="149.3" y="200" class="st0" width="5.5" height="19"/>
			<path class="st1" d="M152.6,216.3c-0.1-0.5-0.4,0.2-0.8,0c0.3-0.4,0.4-0.9,0.2-1.5c0.4-0.3,0.7-0.6,1.3-0.3
				c-0.8-2-0.9-4.2-1.5-5.7c-0.6,0.2-0.9,0-1.3-0.5c2.4-1.4-0.4-3.6,1-5.1c-0.3-1-1.7-0.9-2.1-1.8c0.9-3.1,6-0.4,3.9,2.1
				c1,3.5,2.5,8.4,0.8,11.6c1.1,1,0.2,2,0.2,3.6c-0.5,0.3-0.7,0.3-1.3,0.2C153,217.9,151.6,216.9,152.6,216.3z"/>
		</g>
		<g>
			<rect x="149.3" y="199" class="st0" width="5.5" height="19"/>
			<path class="st1" d="M152.6,215.3c-0.1-0.5-0.4,0.2-0.8,0c0.3-0.4,0.4-0.9,0.2-1.5c0.4-0.3,0.7-0.6,1.3-0.3
				c-0.8-2-0.9-4.2-1.5-5.7c-0.6,0.2-0.9,0-1.3-0.5c2.4-1.4-0.4-3.6,1-5.1c-0.3-1-1.7-0.9-2.1-1.8c0.9-3.1,6-0.4,3.9,2.1
				c1,3.5,2.5,8.4,0.8,11.6c1.1,1,0.2,2,0.2,3.6c-0.5,0.3-0.7,0.3-1.3,0.2C153,217,151.6,216,152.6,215.3z"/>
		</g>
		<g>
			<rect x="149.3" y="198.1" class="st0" width="5.5" height="19"/>
			<path class="st1" d="M152.6,214.4c-0.1-0.5-0.4,0.2-0.8,0c0.3-0.4,0.4-0.9,0.2-1.5c0.4-0.3,0.7-0.6,1.3-0.3
				c-0.8-2-0.9-4.2-1.5-5.7c-0.6,0.2-0.9,0-1.3-0.5c2.4-1.4-0.4-3.6,1-5.1c-0.3-1-1.7-0.9-2.1-1.8c0.9-3.1,6-0.4,3.9,2.1
				c1,3.5,2.5,8.4,0.8,11.6c1.1,1,0.2,2,0.2,3.6c-0.5,0.3-0.7,0.3-1.3,0.2C153,216,151.6,215,152.6,214.4z"/>
		</g>
		<g>
			<rect x="149.3" y="197.1" class="st0" width="5.5" height="19"/>
			<path class="st1" d="M152.6,213.4c-0.1-0.5-0.4,0.2-0.8,0c0.3-0.4,0.4-0.9,0.2-1.5c0.4-0.3,0.7-0.6,1.3-0.3
				c-0.8-2-0.9-4.2-1.5-5.7c-0.6,0.2-0.9,0-1.3-0.5c2.4-1.4-0.4-3.6,1-5.1c-0.3-1-1.7-0.9-2.1-1.8c0.9-3.1,6-0.4,3.9,2.1
				c1,3.5,2.5,8.4,0.8,11.6c1.1,1,0.2,2,0.2,3.6c-0.5,0.3-0.7,0.3-1.3,0.2C153,215.1,151.6,214.1,152.6,213.4z"/>
		</g>
		<g>
			<rect x="149.3" y="196.2" class="st0" width="5.5" height="19"/>
			<path class="st1" d="M152.6,212.5c-0.1-0.5-0.4,0.2-0.8,0c0.3-0.4,0.4-0.9,0.2-1.5c0.4-0.3,0.7-0.6,1.3-0.3
				c-0.8-2-0.9-4.2-1.5-5.7c-0.6,0.2-0.9,0-1.3-0.5c2.4-1.4-0.4-3.6,1-5.1c-0.3-1-1.7-0.9-2.1-1.8c0.9-3.1,6-0.4,3.9,2.1
				c1,3.5,2.5,8.4,0.8,11.6c1.1,1,0.2,2,0.2,3.6c-0.5,0.3-0.7,0.3-1.3,0.2C153,214.1,151.6,213.1,152.6,212.5z"/>
		</g>
		<g>
			<rect x="149.3" y="195.2" class="st0" width="5.5" height="19"/>
			<path class="st1" d="M152.6,211.5c-0.1-0.5-0.4,0.2-0.8,0c0.3-0.4,0.4-0.9,0.2-1.5c0.4-0.3,0.7-0.6,1.3-0.3
				c-0.8-2-0.9-4.2-1.5-5.7c-0.6,0.2-0.9,0-1.3-0.5c2.4-1.4-0.4-3.6,1-5.1c-0.3-1-1.7-0.9-2.1-1.8c0.9-3.1,6-0.4,3.9,2.1
				c1,3.5,2.5,8.4,0.8,11.6c1.1,1,0.2,2,0.2,3.6c-0.5,0.3-0.7,0.3-1.3,0.2C153,213.2,151.6,212.2,152.6,211.5z"/>
		</g>
		<g>
			<rect x="149.3" y="194.3" class="st0" width="5.5" height="19"/>
			<path class="st1" d="M152.6,210.6c-0.1-0.5-0.4,0.2-0.8,0c0.3-0.4,0.4-0.9,0.2-1.5c0.4-0.3,0.7-0.6,1.3-0.3
				c-0.8-2-0.9-4.2-1.5-5.7c-0.6,0.2-0.9,0-1.3-0.5c2.4-1.4-0.4-3.6,1-5.1c-0.3-1-1.7-0.9-2.1-1.8c0.9-3.1,6-0.4,3.9,2.1
				c1,3.5,2.5,8.4,0.8,11.6c1.1,1,0.2,2,0.2,3.6c-0.5,0.3-0.7,0.3-1.3,0.2C153,212.2,151.6,211.2,152.6,210.6z"/>
		</g>
		<g>
			<rect x="149.3" y="193.3" class="st0" width="5.5" height="19"/>
			<path class="st1" d="M152.6,209.6c-0.1-0.5-0.4,0.2-0.8,0c0.3-0.4,0.4-0.9,0.2-1.5c0.4-0.3,0.7-0.6,1.3-0.3
				c-0.8-2-0.9-4.2-1.5-5.7c-0.6,0.2-0.9,0-1.3-0.5c2.4-1.4-0.4-3.6,1-5.1c-0.3-1-1.7-0.9-2.1-1.8c0.9-3.1,6-0.4,3.9,2.1
				c1,3.5,2.5,8.4,0.8,11.6c1.1,1,0.2,2,0.2,3.6c-0.5,0.3-0.7,0.3-1.3,0.2C153,211.3,151.6,210.3,152.6,209.6z"/>
		</g>
		<g>
			<rect x="149.3" y="192.4" class="st0" width="5.5" height="19"/>
			<path class="st1" d="M152.6,208.7c-0.1-0.5-0.4,0.2-0.8,0c0.3-0.4,0.4-0.9,0.2-1.5c0.4-0.3,0.7-0.6,1.3-0.3
				c-0.8-2-0.9-4.2-1.5-5.7c-0.6,0.2-0.9,0-1.3-0.5c2.4-1.4-0.4-3.6,1-5.1c-0.3-1-1.7-0.9-2.1-1.8c0.9-3.1,6-0.4,3.9,2.1
				c1,3.5,2.5,8.4,0.8,11.6c1.1,1,0.2,2,0.2,3.6c-0.5,0.3-0.7,0.3-1.3,0.2C153,210.3,151.6,209.3,152.6,208.7z"/>
		</g>
		<g>
			<rect x="149.3" y="191.4" class="st0" width="5.5" height="19"/>
			<path class="st1" d="M152.6,207.7c-0.1-0.5-0.4,0.2-0.8,0c0.3-0.4,0.4-0.9,0.2-1.5c0.4-0.3,0.7-0.6,1.3-0.3
				c-0.8-2-0.9-4.2-1.5-5.7c-0.6,0.2-0.9,0-1.3-0.5c2.4-1.4-0.4-3.6,1-5.1c-0.3-1-1.7-0.9-2.1-1.8c0.9-3.1,6-0.4,3.9,2.1
				c1,3.5,2.5,8.4,0.8,11.6c1.1,1,0.2,2,0.2,3.6c-0.5,0.3-0.7,0.3-1.3,0.2C153,209.4,151.6,208.4,152.6,207.7z"/>
		</g>
		<g>
			<rect x="149.3" y="190.5" class="st0" width="5.5" height="19"/>
			<path class="st1" d="M152.6,206.8c-0.1-0.5-0.4,0.2-0.8,0c0.3-0.4,0.4-0.9,0.2-1.5c0.4-0.3,0.7-0.6,1.3-0.3
				c-0.8-2-0.9-4.2-1.5-5.7c-0.6,0.2-0.9,0-1.3-0.5c2.4-1.4-0.4-3.6,1-5.1c-0.3-1-1.7-0.9-2.1-1.8c0.9-3.1,6-0.4,3.9,2.1
				c1,3.5,2.5,8.4,0.8,11.6c1.1,1,0.2,2,0.2,3.6c-0.5,0.3-0.7,0.3-1.3,0.2C153,208.4,151.6,207.4,152.6,206.8z"/>
		</g>
		<g>
			<rect x="149.3" y="189.5" class="st0" width="5.5" height="19"/>
			<path class="st1" d="M152.6,205.8c-0.1-0.5-0.4,0.2-0.8,0c0.3-0.4,0.4-0.9,0.2-1.5c0.4-0.3,0.7-0.6,1.3-0.3
				c-0.8-2-0.9-4.2-1.5-5.7c-0.6,0.2-0.9,0-1.3-0.5c2.4-1.4-0.4-3.6,1-5.1c-0.3-1-1.7-0.9-2.1-1.8c0.9-3.1,6-0.4,3.9,2.1
				c1,3.5,2.5,8.4,0.8,11.6c1.1,1,0.2,2,0.2,3.6c-0.5,0.3-0.7,0.3-1.3,0.2C153,207.5,151.6,206.5,152.6,205.8z"/>
		</g>
		<g>
			<rect x="149.3" y="188.6" class="st0" width="5.5" height="19"/>
			<path class="st1" d="M152.6,204.9c-0.1-0.5-0.4,0.2-0.8,0c0.3-0.4,0.4-0.9,0.2-1.5c0.4-0.3,0.7-0.6,1.3-0.3
				c-0.8-2-0.9-4.2-1.5-5.7c-0.6,0.2-0.9,0-1.3-0.5c2.4-1.4-0.4-3.6,1-5.1c-0.3-1-1.7-0.9-2.1-1.8c0.9-3.1,6-0.4,3.9,2.1
				c1,3.5,2.5,8.4,0.8,11.6c1.1,1,0.2,2,0.2,3.6c-0.5,0.3-0.7,0.3-1.3,0.2C153,206.5,151.6,205.5,152.6,204.9z"/>
		</g>
		<g>
			<rect x="149.3" y="187.6" class="st0" width="5.5" height="19"/>
			<path class="st1" d="M152.6,203.9c-0.1-0.5-0.4,0.2-0.8,0c0.3-0.4,0.4-0.9,0.2-1.5c0.4-0.3,0.7-0.6,1.3-0.3
				c-0.8-2-0.9-4.2-1.5-5.7c-0.6,0.2-0.9,0-1.3-0.5c2.4-1.4-0.4-3.6,1-5.1c-0.3-1-1.7-0.9-2.1-1.8c0.9-3.1,6-0.4,3.9,2.1
				c1,3.5,2.5,8.4,0.8,11.6c1.1,1,0.2,2,0.2,3.6c-0.5,0.3-0.7,0.3-1.3,0.2C153,205.6,151.6,204.6,152.6,203.9z"/>
		</g>
		<g>
			<rect x="149.3" y="186.7" class="st0" width="5.5" height="19"/>
			<path class="st1" d="M152.6,203c-0.1-0.5-0.4,0.2-0.8,0c0.3-0.4,0.4-0.9,0.2-1.5c0.4-0.3,0.7-0.6,1.3-0.3c-0.8-2-0.9-4.2-1.5-5.7
				c-0.6,0.2-0.9,0-1.3-0.5c2.4-1.4-0.4-3.6,1-5.1c-0.3-1-1.7-0.9-2.1-1.8c0.9-3.1,6-0.4,3.9,2.1c1,3.5,2.5,8.4,0.8,11.6
				c1.1,1,0.2,2,0.2,3.6c-0.5,0.3-0.7,0.3-1.3,0.2C153,204.6,151.6,203.6,152.6,203z"/>
		</g>
		<g>
			<rect x="149.3" y="185.7" class="st0" width="5.5" height="19"/>
			<path class="st1" d="M152.6,202c-0.1-0.5-0.4,0.2-0.8,0c0.3-0.4,0.4-0.9,0.2-1.5c0.4-0.3,0.7-0.6,1.3-0.3c-0.8-2-0.9-4.2-1.5-5.7
				c-0.6,0.2-0.9,0-1.3-0.5c2.4-1.4-0.4-3.6,1-5.1c-0.3-1-1.7-0.9-2.1-1.8c0.9-3.1,6-0.4,3.9,2.1c1,3.5,2.5,8.4,0.8,11.6
				c1.1,1,0.2,2,0.2,3.6c-0.5,0.3-0.7,0.3-1.3,0.2C153,203.7,151.6,202.7,152.6,202z"/>
		</g>
		<g>
			<rect x="149.3" y="184.8" class="st0" width="5.5" height="19"/>
			<path class="st1" d="M152.6,201.1c-0.1-0.5-0.4,0.2-0.8,0c0.3-0.4,0.4-0.9,0.2-1.5c0.4-0.3,0.7-0.6,1.3-0.3
				c-0.8-2-0.9-4.2-1.5-5.7c-0.6,0.2-0.9,0-1.3-0.5c2.4-1.4-0.4-3.6,1-5.1c-0.3-1-1.7-0.9-2.1-1.8c0.9-3.1,6-0.4,3.9,2.1
				c1,3.5,2.5,8.4,0.8,11.6c1.1,1,0.2,2,0.2,3.6c-0.5,0.3-0.7,0.3-1.3,0.2C153,202.7,151.6,201.7,152.6,201.1z"/>
		</g>
		<g>
			<rect x="149.3" y="183.8" class="st0" width="5.5" height="19"/>
			<path class="st1" d="M152.6,200.1c-0.1-0.5-0.4,0.2-0.8,0c0.3-0.4,0.4-0.9,0.2-1.5c0.4-0.3,0.7-0.6,1.3-0.3
				c-0.8-2-0.9-4.2-1.5-5.7c-0.6,0.2-0.9,0-1.3-0.5c2.4-1.4-0.4-3.6,1-5.1c-0.3-1-1.7-0.9-2.1-1.8c0.9-3.1,6-0.4,3.9,2.1
				c1,3.5,2.5,8.4,0.8,11.6c1.1,1,0.2,2,0.2,3.6c-0.5,0.3-0.7,0.3-1.3,0.2C153,201.8,151.6,200.8,152.6,200.1z"/>
		</g>
		<g>
			<rect x="149.3" y="182.9" class="st0" width="5.5" height="19"/>
			<path class="st1" d="M152.6,199.2c-0.1-0.5-0.4,0.2-0.8,0c0.3-0.4,0.4-0.9,0.2-1.5c0.4-0.3,0.7-0.6,1.3-0.3
				c-0.8-2-0.9-4.2-1.5-5.7c-0.6,0.2-0.9,0-1.3-0.5c2.4-1.4-0.4-3.6,1-5.1c-0.3-1-1.7-0.9-2.1-1.8c0.9-3.1,6-0.4,3.9,2.1
				c1,3.5,2.5,8.4,0.8,11.6c1.1,1,0.2,2,0.2,3.6c-0.5,0.3-0.7,0.3-1.3,0.2C153,200.8,151.6,199.8,152.6,199.2z"/>
		</g>
		<g>
			<rect x="149.3" y="181.9" class="st0" width="5.5" height="19"/>
			<path class="st1" d="M152.6,198.2c-0.1-0.5-0.4,0.2-0.8,0c0.3-0.4,0.4-0.9,0.2-1.5c0.4-0.3,0.7-0.6,1.3-0.3
				c-0.8-2-0.9-4.2-1.5-5.7c-0.6,0.2-0.9,0-1.3-0.5c2.4-1.4-0.4-3.6,1-5.1c-0.3-1-1.7-0.9-2.1-1.8c0.9-3.1,6-0.4,3.9,2.1
				c1,3.5,2.5,8.4,0.8,11.6c1.1,1,0.2,2,0.2,3.6c-0.5,0.3-0.7,0.3-1.3,0.2C153,199.9,151.6,198.9,152.6,198.2z"/>
		</g>
		<g>
			<rect x="149.3" y="181" class="st0" width="5.5" height="19"/>
			<path class="st1" d="M152.6,197.3c-0.1-0.5-0.4,0.2-0.8,0c0.3-0.4,0.4-0.9,0.2-1.5c0.4-0.3,0.7-0.6,1.3-0.3
				c-0.8-2-0.9-4.2-1.5-5.7c-0.6,0.2-0.9,0-1.3-0.5c2.4-1.4-0.4-3.6,1-5.1c-0.3-1-1.7-0.9-2.1-1.8c0.9-3.1,6-0.4,3.9,2.1
				c1,3.5,2.5,8.4,0.8,11.6c1.1,1,0.2,2,0.2,3.6c-0.5,0.3-0.7,0.3-1.3,0.2C153,198.9,151.6,197.9,152.6,197.3z"/>
		</g>
		<g>
			<rect x="149.3" y="180" class="st0" width="5.5" height="19"/>
			<path class="st1" d="M152.6,196.3c-0.1-0.5-0.4,0.2-0.8,0c0.3-0.4,0.4-0.9,0.2-1.5c0.4-0.3,0.7-0.6,1.3-0.3
				c-0.8-2-0.9-4.2-1.5-5.7c-0.6,0.2-0.9,0-1.3-0.5c2.4-1.4-0.4-3.6,1-5.1c-0.3-1-1.7-0.9-2.1-1.8c0.9-3.1,6-0.4,3.9,2.1
				c1,3.5,2.5,8.4,0.8,11.6c1.1,1,0.2,2,0.2,3.6c-0.5,0.3-0.7,0.3-1.3,0.2C153,198,151.6,197,152.6,196.3z"/>
		</g>
		<g>
			<rect x="149.3" y="179.1" class="st0" width="5.5" height="19"/>
			<path class="st1" d="M152.6,195.4c-0.1-0.5-0.4,0.2-0.8,0c0.3-0.4,0.4-0.9,0.2-1.5c0.4-0.3,0.7-0.6,1.3-0.3
				c-0.8-2-0.9-4.2-1.5-5.7c-0.6,0.2-0.9,0-1.3-0.5c2.4-1.4-0.4-3.6,1-5.1c-0.3-1-1.7-0.9-2.1-1.8c0.9-3.1,6-0.4,3.9,2.1
				c1,3.5,2.5,8.4,0.8,11.6c1.1,1,0.2,2,0.2,3.6c-0.5,0.3-0.7,0.3-1.3,0.2C153,197,151.6,196,152.6,195.4z"/>
		</g>
		<g>
			<rect x="149.3" y="178.2" class="st0" width="5.5" height="19"/>
			<path class="st1" d="M152.6,194.4c-0.1-0.5-0.4,0.2-0.8,0c0.3-0.4,0.4-0.9,0.2-1.5c0.4-0.3,0.7-0.6,1.3-0.3
				c-0.8-2-0.9-4.2-1.5-5.7c-0.6,0.2-0.9,0-1.3-0.5c2.4-1.4-0.4-3.6,1-5.1c-0.3-1-1.7-0.9-2.1-1.8c0.9-3.1,6-0.4,3.9,2.1
				c1,3.5,2.5,8.4,0.8,11.6c1.1,1,0.2,2,0.2,3.6c-0.5,0.3-0.7,0.3-1.3,0.2C153,196.1,151.6,195.1,152.6,194.4z"/>
		</g>
		<g>
			<rect x="149.3" y="177.2" class="st0" width="5.5" height="19"/>
			<path class="st1" d="M152.6,193.5c-0.1-0.5-0.4,0.2-0.8,0c0.3-0.4,0.4-0.9,0.2-1.5c0.4-0.3,0.7-0.6,1.3-0.3
				c-0.8-2-0.9-4.2-1.5-5.7c-0.6,0.2-0.9,0-1.3-0.5c2.4-1.4-0.4-3.6,1-5.1c-0.3-1-1.7-0.9-2.1-1.8c0.9-3.1,6-0.4,3.9,2.1
				c1,3.5,2.5,8.4,0.8,11.6c1.1,1,0.2,2,0.2,3.6c-0.5,0.3-0.7,0.3-1.3,0.2C153,195.1,151.6,194.1,152.6,193.5z"/>
		</g>
		<g>
			<rect x="149.3" y="176.3" class="st0" width="5.5" height="19"/>
			<path class="st1" d="M152.6,192.5c-0.1-0.5-0.4,0.2-0.8,0c0.3-0.4,0.4-0.9,0.2-1.5c0.4-0.3,0.7-0.6,1.3-0.3
				c-0.8-2-0.9-4.2-1.5-5.7c-0.6,0.2-0.9,0-1.3-0.5c2.4-1.4-0.4-3.6,1-5.1c-0.3-1-1.7-0.9-2.1-1.8c0.9-3.1,6-0.4,3.9,2.1
				c1,3.5,2.5,8.4,0.8,11.6c1.1,1,0.2,2,0.2,3.6c-0.5,0.3-0.7,0.3-1.3,0.2C153,194.2,151.6,193.2,152.6,192.5z"/>
		</g>
		<g>
			<rect x="149.3" y="175.3" class="st0" width="5.5" height="19"/>
			<path class="st1" d="M152.6,191.6c-0.1-0.5-0.4,0.2-0.8,0c0.3-0.4,0.4-0.9,0.2-1.5c0.4-0.3,0.7-0.6,1.3-0.3
				c-0.8-2-0.9-4.2-1.5-5.7c-0.6,0.2-0.9,0-1.3-0.5c2.4-1.4-0.4-3.6,1-5.1c-0.3-1-1.7-0.9-2.1-1.8c0.9-3.1,6-0.4,3.9,2.1
				c1,3.5,2.5,8.4,0.8,11.6c1.1,1,0.2,2,0.2,3.6c-0.5,0.3-0.7,0.3-1.3,0.2C153,193.2,151.6,192.2,152.6,191.6z"/>
		</g>
		<g>
			<rect x="149.3" y="174.4" class="st0" width="5.5" height="19"/>
			<path class="st1" d="M152.6,190.6c-0.1-0.5-0.4,0.2-0.8,0c0.3-0.4,0.4-0.9,0.2-1.5c0.4-0.3,0.7-0.6,1.3-0.3
				c-0.8-2-0.9-4.2-1.5-5.7c-0.6,0.2-0.9,0-1.3-0.5c2.4-1.4-0.4-3.6,1-5.1c-0.3-1-1.7-0.9-2.1-1.8c0.9-3.1,6-0.4,3.9,2.1
				c1,3.5,2.5,8.4,0.8,11.6c1.1,1,0.2,2,0.2,3.6c-0.5,0.3-0.7,0.3-1.3,0.2C153,192.3,151.6,191.3,152.6,190.6z"/>
		</g>
		<g>
			<rect x="149.3" y="173.4" class="st0" width="5.5" height="19"/>
			<path class="st1" d="M152.6,189.7c-0.1-0.5-0.4,0.2-0.8,0c0.3-0.4,0.4-0.9,0.2-1.5c0.4-0.3,0.7-0.6,1.3-0.3
				c-0.8-2-0.9-4.2-1.5-5.7c-0.6,0.2-0.9,0-1.3-0.5c2.4-1.4-0.4-3.6,1-5.1c-0.3-1-1.7-0.9-2.1-1.8c0.9-3.1,6-0.4,3.9,2.1
				c1,3.5,2.5,8.4,0.8,11.6c1.1,1,0.2,2,0.2,3.6c-0.5,0.3-0.7,0.3-1.3,0.2C153,191.3,151.6,190.3,152.6,189.7z"/>
		</g>
		<g>
			<rect x="149.3" y="172.5" class="st0" width="5.5" height="19"/>
			<path class="st1" d="M152.6,188.7c-0.1-0.5-0.4,0.2-0.8,0c0.3-0.4,0.4-0.9,0.2-1.5c0.4-0.3,0.7-0.6,1.3-0.3
				c-0.8-2-0.9-4.2-1.5-5.7c-0.6,0.2-0.9,0-1.3-0.5c2.4-1.4-0.4-3.6,1-5.1c-0.3-1-1.7-0.9-2.1-1.8c0.9-3.1,6-0.4,3.9,2.1
				c1,3.5,2.5,8.4,0.8,11.6c1.1,1,0.2,2,0.2,3.6c-0.5,0.3-0.7,0.3-1.3,0.2C153,190.4,151.6,189.4,152.6,188.7z"/>
		</g>
		<g>
			<rect x="149.3" y="171.5" class="st0" width="5.5" height="19"/>
			<path class="st1" d="M152.6,187.8c-0.1-0.5-0.4,0.2-0.8,0c0.3-0.4,0.4-0.9,0.2-1.5c0.4-0.3,0.7-0.6,1.3-0.3
				c-0.8-2-0.9-4.2-1.5-5.7c-0.6,0.2-0.9,0-1.3-0.5c2.4-1.4-0.4-3.6,1-5.1c-0.3-1-1.7-0.9-2.1-1.8c0.9-3.1,6-0.4,3.9,2.1
				c1,3.5,2.5,8.4,0.8,11.6c1.1,1,0.2,2,0.2,3.6c-0.5,0.3-0.7,0.3-1.3,0.2C153,189.4,151.6,188.4,152.6,187.8z"/>
		</g>
		<g>
			<rect x="149.3" y="170.6" class="st0" width="5.5" height="19"/>
			<path class="st1" d="M152.6,186.8c-0.1-0.5-0.4,0.2-0.8,0c0.3-0.4,0.4-0.9,0.2-1.5c0.4-0.3,0.7-0.6,1.3-0.3
				c-0.8-2-0.9-4.2-1.5-5.7c-0.6,0.2-0.9,0-1.3-0.5c2.4-1.4-0.4-3.6,1-5.1c-0.3-1-1.7-0.9-2.1-1.8c0.9-3.1,6-0.4,3.9,2.1
				c1,3.5,2.5,8.4,0.8,11.6c1.1,1,0.2,2,0.2,3.6c-0.5,0.3-0.7,0.3-1.3,0.2C153,188.5,151.6,187.5,152.6,186.8z"/>
		</g>
		<g>
			<rect x="149.3" y="169.6" class="st0" width="5.5" height="19"/>
			<path class="st1" d="M152.6,185.9c-0.1-0.5-0.4,0.2-0.8,0c0.3-0.4,0.4-0.9,0.2-1.5c0.4-0.3,0.7-0.6,1.3-0.3
				c-0.8-2-0.9-4.2-1.5-5.7c-0.6,0.2-0.9,0-1.3-0.5c2.4-1.4-0.4-3.6,1-5.1c-0.3-1-1.7-0.9-2.1-1.8c0.9-3.1,6-0.4,3.9,2.1
				c1,3.5,2.5,8.4,0.8,11.6c1.1,1,0.2,2,0.2,3.6c-0.5,0.3-0.7,0.3-1.3,0.2C153,187.5,151.6,186.5,152.6,185.9z"/>
		</g>
		<g>
			<rect x="149.3" y="168.7" class="st0" width="5.5" height="19"/>
			<path class="st1" d="M152.6,184.9c-0.1-0.5-0.4,0.2-0.8,0c0.3-0.4,0.4-0.9,0.2-1.5c0.4-0.3,0.7-0.6,1.3-0.3
				c-0.8-2-0.9-4.2-1.5-5.7c-0.6,0.2-0.9,0-1.3-0.5c2.4-1.4-0.4-3.6,1-5.1c-0.3-1-1.7-0.9-2.1-1.8c0.9-3.1,6-0.4,3.9,2.1
				c1,3.5,2.5,8.4,0.8,11.6c1.1,1,0.2,2,0.2,3.6c-0.5,0.3-0.7,0.3-1.3,0.2C153,186.6,151.6,185.6,152.6,184.9z"/>
		</g>
		<g>
			<rect x="149.3" y="167.7" class="st0" width="5.5" height="19"/>
			<path class="st1" d="M152.6,184c-0.1-0.5-0.4,0.2-0.8,0c0.3-0.4,0.4-0.9,0.2-1.5c0.4-0.3,0.7-0.6,1.3-0.3c-0.8-2-0.9-4.2-1.5-5.7
				c-0.6,0.2-0.9,0-1.3-0.5c2.4-1.4-0.4-3.6,1-5.1c-0.3-1-1.7-0.9-2.1-1.8c0.9-3.1,6-0.4,3.9,2.1c1,3.5,2.5,8.4,0.8,11.6
				c1.1,1,0.2,2,0.2,3.6c-0.5,0.3-0.7,0.3-1.3,0.2C153,185.6,151.6,184.6,152.6,184z"/>
		</g>
		<g>
			<rect x="149.3" y="166.8" class="st0" width="5.5" height="19"/>
			<path class="st1" d="M152.6,183c-0.1-0.5-0.4,0.2-0.8,0c0.3-0.4,0.4-0.9,0.2-1.5c0.4-0.3,0.7-0.6,1.3-0.3c-0.8-2-0.9-4.2-1.5-5.7
				c-0.6,0.2-0.9,0-1.3-0.5c2.4-1.4-0.4-3.6,1-5.1c-0.3-1-1.7-0.9-2.1-1.8c0.9-3.1,6-0.4,3.9,2.1c1,3.5,2.5,8.4,0.8,11.6
				c1.1,1,0.2,2,0.2,3.6c-0.5,0.3-0.7,0.3-1.3,0.2C153,184.7,151.6,183.7,152.6,183z"/>
		</g>
		<g>
			<rect x="149.3" y="165.8" class="st0" width="5.5" height="19"/>
			<path class="st1" d="M152.6,182.1c-0.1-0.5-0.4,0.2-0.8,0c0.3-0.4,0.4-0.9,0.2-1.5c0.4-0.3,0.7-0.6,1.3-0.3
				c-0.8-2-0.9-4.2-1.5-5.7c-0.6,0.2-0.9,0-1.3-0.5c2.4-1.4-0.4-3.6,1-5.1c-0.3-1-1.7-0.9-2.1-1.8c0.9-3.1,6-0.4,3.9,2.1
				c1,3.5,2.5,8.4,0.8,11.6c1.1,1,0.2,2,0.2,3.6c-0.5,0.3-0.7,0.3-1.3,0.2C153,183.7,151.6,182.7,152.6,182.1z"/>
		</g>
		<g>
			<rect x="149.3" y="164.9" class="st0" width="5.5" height="19"/>
			<path class="st1" d="M152.6,181.1c-0.1-0.5-0.4,0.2-0.8,0c0.3-0.4,0.4-0.9,0.2-1.5c0.4-0.3,0.7-0.6,1.3-0.3
				c-0.8-2-0.9-4.2-1.5-5.7c-0.6,0.2-0.9,0-1.3-0.5c2.4-1.4-0.4-3.6,1-5.1c-0.3-1-1.7-0.9-2.1-1.8c0.9-3.1,6-0.4,3.9,2.1
				c1,3.5,2.5,8.4,0.8,11.6c1.1,1,0.2,2,0.2,3.6c-0.5,0.3-0.7,0.3-1.3,0.2C153,182.8,151.6,181.8,152.6,181.1z"/>
		</g>
		<g>
			<rect x="149.3" y="163.9" class="st0" width="5.5" height="19"/>
			<path class="st1" d="M152.6,180.2c-0.1-0.5-0.4,0.2-0.8,0c0.3-0.4,0.4-0.9,0.2-1.5c0.4-0.3,0.7-0.6,1.3-0.3
				c-0.8-2-0.9-4.2-1.5-5.7c-0.6,0.2-0.9,0-1.3-0.5c2.4-1.4-0.4-3.6,1-5.1c-0.3-1-1.7-0.9-2.1-1.8c0.9-3.1,6-0.4,3.9,2.1
				c1,3.5,2.5,8.4,0.8,11.6c1.1,1,0.2,2,0.2,3.6c-0.5,0.3-0.7,0.3-1.3,0.2C153,181.8,151.6,180.8,152.6,180.2z"/>
		</g>
		<g>
			<rect x="149.3" y="163" class="st0" width="5.5" height="19"/>
			<path class="st1" d="M152.6,179.2c-0.1-0.5-0.4,0.2-0.8,0c0.3-0.4,0.4-0.9,0.2-1.5c0.4-0.3,0.7-0.6,1.3-0.3
				c-0.8-2-0.9-4.2-1.5-5.7c-0.6,0.2-0.9,0-1.3-0.5c2.4-1.4-0.4-3.6,1-5.1c-0.3-1-1.7-0.9-2.1-1.8c0.9-3.1,6-0.4,3.9,2.1
				c1,3.5,2.5,8.4,0.8,11.6c1.1,1,0.2,2,0.2,3.6c-0.5,0.3-0.7,0.3-1.3,0.2C153,180.9,151.6,179.9,152.6,179.2z"/>
		</g>
		<g>
			<rect x="149.3" y="162" class="st0" width="5.5" height="19"/>
			<path class="st1" d="M152.6,178.3c-0.1-0.5-0.4,0.2-0.8,0c0.3-0.4,0.4-0.9,0.2-1.5c0.4-0.3,0.7-0.6,1.3-0.3
				c-0.8-2-0.9-4.2-1.5-5.7c-0.6,0.2-0.9,0-1.3-0.5c2.4-1.4-0.4-3.6,1-5.1c-0.3-1-1.7-0.9-2.1-1.8c0.9-3.1,6-0.4,3.9,2.1
				c1,3.5,2.5,8.4,0.8,11.6c1.1,1,0.2,2,0.2,3.6c-0.5,0.3-0.7,0.3-1.3,0.2C153,179.9,151.6,178.9,152.6,178.3z"/>
		</g>
		<g>
			<rect x="149.3" y="161.1" class="st0" width="5.5" height="19"/>
			<path class="st1" d="M152.6,177.3c-0.1-0.5-0.4,0.2-0.8,0c0.3-0.4,0.4-0.9,0.2-1.5c0.4-0.3,0.7-0.6,1.3-0.3
				c-0.8-2-0.9-4.2-1.5-5.7c-0.6,0.2-0.9,0-1.3-0.5c2.4-1.4-0.4-3.6,1-5.1c-0.3-1-1.7-0.9-2.1-1.8c0.9-3.1,6-0.4,3.9,2.1
				c1,3.5,2.5,8.4,0.8,11.6c1.1,1,0.2,2,0.2,3.6c-0.5,0.3-0.7,0.3-1.3,0.2C153,179,151.6,178,152.6,177.3z"/>
		</g>
		<g>
			<rect x="149.3" y="160.1" class="st0" width="5.5" height="19"/>
			<path class="st1" d="M152.6,176.4c-0.1-0.5-0.4,0.2-0.8,0c0.3-0.4,0.4-0.9,0.2-1.5c0.4-0.3,0.7-0.6,1.3-0.3
				c-0.8-2-0.9-4.2-1.5-5.7c-0.6,0.2-0.9,0-1.3-0.5c2.4-1.4-0.4-3.6,1-5.1c-0.3-1-1.7-0.9-2.1-1.8c0.9-3.1,6-0.4,3.9,2.1
				c1,3.5,2.5,8.4,0.8,11.6c1.1,1,0.2,2,0.2,3.6c-0.5,0.3-0.7,0.3-1.3,0.2C153,178,151.6,177,152.6,176.4z"/>
		</g>
		<g>
			<rect x="149.3" y="159.2" class="st0" width="5.5" height="19"/>
			<path class="st1" d="M152.6,175.4c-0.1-0.5-0.4,0.2-0.8,0c0.3-0.4,0.4-0.9,0.2-1.5c0.4-0.3,0.7-0.6,1.3-0.3
				c-0.8-2-0.9-4.2-1.5-5.7c-0.6,0.2-0.9,0-1.3-0.5c2.4-1.4-0.4-3.6,1-5.1c-0.3-1-1.7-0.9-2.1-1.8c0.9-3.1,6-0.4,3.9,2.1
				c1,3.5,2.5,8.4,0.8,11.6c1.1,1,0.2,2,0.2,3.6c-0.5,0.3-0.7,0.3-1.3,0.2C153,177.1,151.6,176.1,152.6,175.4z"/>
		</g>
		<g>
			<rect x="149.3" y="158.2" class="st0" width="5.5" height="19"/>
			<path class="st1" d="M152.6,174.5c-0.1-0.5-0.4,0.2-0.8,0c0.3-0.4,0.4-0.9,0.2-1.5c0.4-0.3,0.7-0.6,1.3-0.3
				c-0.8-2-0.9-4.2-1.5-5.7c-0.6,0.2-0.9,0-1.3-0.5c2.4-1.4-0.4-3.6,1-5.1c-0.3-1-1.7-0.9-2.1-1.8c0.9-3.1,6-0.4,3.9,2.1
				c1,3.5,2.5,8.4,0.8,11.6c1.1,1,0.2,2,0.2,3.6c-0.5,0.3-0.7,0.3-1.3,0.2C153,176.1,151.6,175.1,152.6,174.5z"/>
		</g>
		<g>
			<rect x="149.3" y="157.3" class="st0" width="5.5" height="19"/>
			<path class="st1" d="M152.6,173.5c-0.1-0.5-0.4,0.2-0.8,0c0.3-0.4,0.4-0.9,0.2-1.5c0.4-0.3,0.7-0.6,1.3-0.3
				c-0.8-2-0.9-4.2-1.5-5.7c-0.6,0.2-0.9,0-1.3-0.5c2.4-1.4-0.4-3.6,1-5.1c-0.3-1-1.7-0.9-2.1-1.8c0.9-3.1,6-0.4,3.9,2.1
				c1,3.5,2.5,8.4,0.8,11.6c1.1,1,0.2,2,0.2,3.6c-0.5,0.3-0.7,0.3-1.3,0.2C153,175.2,151.6,174.2,152.6,173.5z"/>
		</g>
		<g>
			<rect x="149.3" y="156.3" class="st0" width="5.5" height="19"/>
			<path class="st1" d="M152.6,172.6c-0.1-0.5-0.4,0.2-0.8,0c0.3-0.4,0.4-0.9,0.2-1.5c0.4-0.3,0.7-0.6,1.3-0.3
				c-0.8-2-0.9-4.2-1.5-5.7c-0.6,0.2-0.9,0-1.3-0.5c2.4-1.4-0.4-3.6,1-5.1c-0.3-1-1.7-0.9-2.1-1.8c0.9-3.1,6-0.4,3.9,2.1
				c1,3.5,2.5,8.4,0.8,11.6c1.1,1,0.2,2,0.2,3.6c-0.5,0.3-0.7,0.3-1.3,0.2C153,174.2,151.6,173.3,152.6,172.6z"/>
		</g>
		<g>
			<rect x="149.3" y="155.4" class="st0" width="5.5" height="19"/>
			<path class="st1" d="M152.6,171.6c-0.1-0.5-0.4,0.2-0.8,0c0.3-0.4,0.4-0.9,0.2-1.5c0.4-0.3,0.7-0.6,1.3-0.3
				c-0.8-2-0.9-4.2-1.5-5.7c-0.6,0.2-0.9,0-1.3-0.5c2.4-1.4-0.4-3.6,1-5.1c-0.3-1-1.7-0.9-2.1-1.8c0.9-3.1,6-0.4,3.9,2.1
				c1,3.5,2.5,8.4,0.8,11.6c1.1,1,0.2,2,0.2,3.6c-0.5,0.3-0.7,0.3-1.3,0.2C153,173.3,151.6,172.3,152.6,171.6z"/>
		</g>
		<g>
			<rect x="149.3" y="154.4" class="st0" width="5.5" height="19"/>
			<path class="st1" d="M152.6,170.7c-0.1-0.5-0.4,0.2-0.8,0c0.3-0.4,0.4-0.9,0.2-1.5c0.4-0.3,0.7-0.6,1.3-0.3
				c-0.8-2-0.9-4.2-1.5-5.7c-0.6,0.2-0.9,0-1.3-0.5c2.4-1.4-0.4-3.6,1-5.1c-0.3-1-1.7-0.9-2.1-1.8c0.9-3.1,6-0.4,3.9,2.1
				c1,3.5,2.5,8.4,0.8,11.6c1.1,1,0.2,2,0.2,3.6c-0.5,0.3-0.7,0.3-1.3,0.2C153,172.3,151.6,171.4,152.6,170.7z"/>
		</g>
		<g>
			<rect x="149.3" y="153.5" class="st0" width="5.5" height="19"/>
			<path class="st1" d="M152.6,169.7c-0.1-0.5-0.4,0.2-0.8,0c0.3-0.4,0.4-0.9,0.2-1.5c0.4-0.3,0.7-0.6,1.3-0.3
				c-0.8-2-0.9-4.2-1.5-5.7c-0.6,0.2-0.9,0-1.3-0.5c2.4-1.4-0.4-3.6,1-5.1c-0.3-1-1.7-0.9-2.1-1.8c0.9-3.1,6-0.4,3.9,2.1
				c1,3.5,2.5,8.4,0.8,11.6c1.1,1,0.2,2,0.2,3.6c-0.5,0.3-0.7,0.3-1.3,0.2C153,171.4,151.6,170.4,152.6,169.7z"/>
		</g>
		<g>
			<rect x="149.3" y="152.5" class="st0" width="5.5" height="19"/>
			<path class="st1" d="M152.6,168.8c-0.1-0.5-0.4,0.2-0.8,0c0.3-0.4,0.4-0.9,0.2-1.5c0.4-0.3,0.7-0.6,1.3-0.3
				c-0.8-2-0.9-4.2-1.5-5.7c-0.6,0.2-0.9,0-1.3-0.5c2.4-1.4-0.4-3.6,1-5.1c-0.3-1-1.7-0.9-2.1-1.8c0.9-3.1,6-0.4,3.9,2.1
				c1,3.5,2.5,8.4,0.8,11.6c1.1,1,0.2,2,0.2,3.6c-0.5,0.3-0.7,0.3-1.3,0.2C153,170.5,151.6,169.5,152.6,168.8z"/>
		</g>
		<g>
			<rect x="149.3" y="151.6" class="st0" width="5.5" height="19"/>
			<path class="st1" d="M152.6,167.8c-0.1-0.5-0.4,0.2-0.8,0c0.3-0.4,0.4-0.9,0.2-1.5c0.4-0.3,0.7-0.6,1.3-0.3
				c-0.8-2-0.9-4.2-1.5-5.7c-0.6,0.2-0.9,0-1.3-0.5c2.4-1.4-0.4-3.6,1-5.1c-0.3-1-1.7-0.9-2.1-1.8c0.9-3.1,6-0.4,3.9,2.1
				c1,3.5,2.5,8.4,0.8,11.6c1.1,1,0.2,2,0.2,3.6c-0.5,0.3-0.7,0.3-1.3,0.2C153,169.5,151.6,168.5,152.6,167.8z"/>
		</g>
		<g>
			<rect x="149.3" y="150.6" class="st0" width="5.5" height="19"/>
			<path class="st1" d="M152.6,166.9c-0.1-0.5-0.4,0.2-0.8,0c0.3-0.4,0.4-0.9,0.2-1.5c0.4-0.3,0.7-0.6,1.3-0.3
				c-0.8-2-0.9-4.2-1.5-5.7c-0.6,0.2-0.9,0-1.3-0.5c2.4-1.4-0.4-3.6,1-5.1c-0.3-1-1.7-0.9-2.1-1.8c0.9-3.1,6-0.4,3.9,2.1
				c1,3.5,2.5,8.4,0.8,11.6c1.1,1,0.2,2,0.2,3.6c-0.5,0.3-0.7,0.3-1.3,0.2C153,168.6,151.6,167.6,152.6,166.9z"/>
		</g>
		<g>
			<rect x="149.3" y="149.7" class="st0" width="5.5" height="19"/>
			<path class="st1" d="M152.6,165.9c-0.1-0.5-0.4,0.2-0.8,0c0.3-0.4,0.4-0.9,0.2-1.5c0.4-0.3,0.7-0.6,1.3-0.3
				c-0.8-2-0.9-4.2-1.5-5.7c-0.6,0.2-0.9,0-1.3-0.5c2.4-1.4-0.4-3.6,1-5.1c-0.3-1-1.7-0.9-2.1-1.8c0.9-3.1,6-0.4,3.9,2.1
				c1,3.5,2.5,8.4,0.8,11.6c1.1,1,0.2,2,0.2,3.6c-0.5,0.3-0.7,0.3-1.3,0.2C153,167.6,151.6,166.6,152.6,165.9z"/>
		</g>
		<g>
			<rect x="149.3" y="148.7" class="st0" width="5.5" height="19"/>
			<path class="st1" d="M152.6,165c-0.1-0.5-0.4,0.2-0.8,0c0.3-0.4,0.4-0.9,0.2-1.5c0.4-0.3,0.7-0.6,1.3-0.3c-0.8-2-0.9-4.2-1.5-5.7
				c-0.6,0.2-0.9,0-1.3-0.5c2.4-1.4-0.4-3.6,1-5.1c-0.3-1-1.7-0.9-2.1-1.8c0.9-3.1,6-0.4,3.9,2.1c1,3.5,2.5,8.4,0.8,11.6
				c1.1,1,0.2,2,0.2,3.6c-0.5,0.3-0.7,0.3-1.3,0.2C153,166.7,151.6,165.7,152.6,165z"/>
		</g>
		<g>
			<rect x="149.3" y="147.8" class="st0" width="5.5" height="19"/>
			<path class="st1" d="M152.6,164c-0.1-0.5-0.4,0.2-0.8,0c0.3-0.4,0.4-0.9,0.2-1.5c0.4-0.3,0.7-0.6,1.3-0.3c-0.8-2-0.9-4.2-1.5-5.7
				c-0.6,0.2-0.9,0-1.3-0.5c2.4-1.4-0.4-3.6,1-5.1c-0.3-1-1.7-0.9-2.1-1.8c0.9-3.1,6-0.4,3.9,2.1c1,3.5,2.5,8.4,0.8,11.6
				c1.1,1,0.2,2,0.2,3.6c-0.5,0.3-0.7,0.3-1.3,0.2C153,165.7,151.6,164.7,152.6,164z"/>
		</g>
		<g>
			<rect x="149.3" y="146.8" class="st0" width="5.5" height="19"/>
			<path class="st1" d="M152.6,163.1c-0.1-0.5-0.4,0.2-0.8,0c0.3-0.4,0.4-0.9,0.2-1.5c0.4-0.3,0.7-0.6,1.3-0.3
				c-0.8-2-0.9-4.2-1.5-5.7c-0.6,0.2-0.9,0-1.3-0.5c2.4-1.4-0.4-3.6,1-5.1c-0.3-1-1.7-0.9-2.1-1.8c0.9-3.1,6-0.4,3.9,2.1
				c1,3.5,2.5,8.4,0.8,11.6c1.1,1,0.2,2,0.2,3.6c-0.5,0.3-0.7,0.3-1.3,0.2C153,164.8,151.6,163.8,152.6,163.1z"/>
		</g>
		<g>
			<rect x="149.3" y="145.9" class="st0" width="5.5" height="19"/>
			<path class="st1" d="M152.6,162.1c-0.1-0.5-0.4,0.2-0.8,0c0.3-0.4,0.4-0.9,0.2-1.5c0.4-0.3,0.7-0.6,1.3-0.3
				c-0.8-2-0.9-4.2-1.5-5.7c-0.6,0.2-0.9,0-1.3-0.5c2.4-1.4-0.4-3.6,1-5.1c-0.3-1-1.7-0.9-2.1-1.8c0.9-3.1,6-0.4,3.9,2.1
				c1,3.5,2.5,8.4,0.8,11.6c1.1,1,0.2,2,0.2,3.6c-0.5,0.3-0.7,0.3-1.3,0.2C153,163.8,151.6,162.8,152.6,162.1z"/>
		</g>
		<g>
			<rect x="149.3" y="144.9" class="st0" width="5.5" height="19"/>
			<path class="st1" d="M152.6,161.2c-0.1-0.5-0.4,0.2-0.8,0c0.3-0.4,0.4-0.9,0.2-1.5c0.4-0.3,0.7-0.6,1.3-0.3
				c-0.8-2-0.9-4.2-1.5-5.7c-0.6,0.2-0.9,0-1.3-0.5c2.4-1.4-0.4-3.6,1-5.1c-0.3-1-1.7-0.9-2.1-1.8c0.9-3.1,6-0.4,3.9,2.1
				c1,3.5,2.5,8.4,0.8,11.6c1.1,1,0.2,2,0.2,3.6c-0.5,0.3-0.7,0.3-1.3,0.2C153,162.9,151.6,161.9,152.6,161.2z"/>
		</g>
		<g>
			<rect x="149.3" y="144" class="st0" width="5.5" height="19"/>
			<path class="st1" d="M152.6,160.2c-0.1-0.5-0.4,0.2-0.8,0c0.3-0.4,0.4-0.9,0.2-1.5c0.4-0.3,0.7-0.6,1.3-0.3
				c-0.8-2-0.9-4.2-1.5-5.7c-0.6,0.2-0.9,0-1.3-0.5c2.4-1.4-0.4-3.6,1-5.1c-0.3-1-1.7-0.9-2.1-1.8c0.9-3.1,6-0.4,3.9,2.1
				c1,3.5,2.5,8.4,0.8,11.6c1.1,1,0.2,2,0.2,3.6c-0.5,0.3-0.7,0.3-1.3,0.2C153,161.9,151.6,160.9,152.6,160.2z"/>
		</g>
		<g>
			<rect x="149.3" y="143" class="st0" width="5.5" height="19"/>
			<path class="st1" d="M152.6,159.3c-0.1-0.5-0.4,0.2-0.8,0c0.3-0.4,0.4-0.9,0.2-1.5c0.4-0.3,0.7-0.6,1.3-0.3
				c-0.8-2-0.9-4.2-1.5-5.7c-0.6,0.2-0.9,0-1.3-0.5c2.4-1.4-0.4-3.6,1-5.1c-0.3-1-1.7-0.9-2.1-1.8c0.9-3.1,6-0.4,3.9,2.1
				c1,3.5,2.5,8.4,0.8,11.6c1.1,1,0.2,2,0.2,3.6c-0.5,0.3-0.7,0.3-1.3,0.2C153,161,151.6,160,152.6,159.3z"/>
		</g>
		<g>
			<rect x="149.3" y="142.1" class="st0" width="5.5" height="19"/>
			<path class="st1" d="M152.6,158.4c-0.1-0.5-0.4,0.2-0.8,0c0.3-0.4,0.4-0.9,0.2-1.5c0.4-0.3,0.7-0.6,1.3-0.3
				c-0.8-2-0.9-4.2-1.5-5.7c-0.6,0.2-0.9,0-1.3-0.5c2.4-1.4-0.4-3.6,1-5.1c-0.3-1-1.7-0.9-2.1-1.8c0.9-3.1,6-0.4,3.9,2.1
				c1,3.5,2.5,8.4,0.8,11.6c1.1,1,0.2,2,0.2,3.6c-0.5,0.3-0.7,0.3-1.3,0.2C153,160,151.6,159,152.6,158.4z"/>
		</g>
		<g>
			<rect x="149.3" y="141.1" class="st0" width="5.5" height="19"/>
			<path class="st1" d="M152.6,157.4c-0.1-0.5-0.4,0.2-0.8,0c0.3-0.4,0.4-0.9,0.2-1.5c0.4-0.3,0.7-0.6,1.3-0.3
				c-0.8-2-0.9-4.2-1.5-5.7c-0.6,0.2-0.9,0-1.3-0.5c2.4-1.4-0.4-3.6,1-5.1c-0.3-1-1.7-0.9-2.1-1.8c0.9-3.1,6-0.4,3.9,2.1
				c1,3.5,2.5,8.4,0.8,11.6c1.1,1,0.2,2,0.2,3.6c-0.5,0.3-0.7,0.3-1.3,0.2C153,159.1,151.6,158.1,152.6,157.4z"/>
		</g>
		<g>
			<rect x="149.3" y="140.2" class="st0" width="5.5" height="19"/>
			<path class="st1" d="M152.6,156.5c-0.1-0.5-0.4,0.2-0.8,0c0.3-0.4,0.4-0.9,0.2-1.5c0.4-0.3,0.7-0.6,1.3-0.3
				c-0.8-2-0.9-4.2-1.5-5.7c-0.6,0.2-0.9,0-1.3-0.5c2.4-1.4-0.4-3.6,1-5.1c-0.3-1-1.7-0.9-2.1-1.8c0.9-3.1,6-0.4,3.9,2.1
				c1,3.5,2.5,8.4,0.8,11.6c1.1,1,0.2,2,0.2,3.6c-0.5,0.3-0.7,0.3-1.3,0.2C153,158.1,151.6,157.1,152.6,156.5z"/>
		</g>
		<g>
			<rect x="149.3" y="139.2" class="st0" width="5.5" height="19"/>
			<path class="st1" d="M152.6,155.5c-0.1-0.5-0.4,0.2-0.8,0c0.3-0.4,0.4-0.9,0.2-1.5c0.4-0.3,0.7-0.6,1.3-0.3
				c-0.8-2-0.9-4.2-1.5-5.7c-0.6,0.2-0.9,0-1.3-0.5c2.4-1.4-0.4-3.6,1-5.1c-0.3-1-1.7-0.9-2.1-1.8c0.9-3.1,6-0.4,3.9,2.1
				c1,3.5,2.5,8.4,0.8,11.6c1.1,1,0.2,2,0.2,3.6c-0.5,0.3-0.7,0.3-1.3,0.2C153,157.2,151.6,156.2,152.6,155.5z"/>
		</g>
		<g>
			<rect x="149.3" y="138.3" class="st0" width="5.5" height="19"/>
			<path class="st1" d="M152.6,154.6c-0.1-0.5-0.4,0.2-0.8,0c0.3-0.4,0.4-0.9,0.2-1.5c0.4-0.3,0.7-0.6,1.3-0.3
				c-0.8-2-0.9-4.2-1.5-5.7c-0.6,0.2-0.9,0-1.3-0.5c2.4-1.4-0.4-3.6,1-5.1c-0.3-1-1.7-0.9-2.1-1.8c0.9-3.1,6-0.4,3.9,2.1
				c1,3.5,2.5,8.4,0.8,11.6c1.1,1,0.2,2,0.2,3.6c-0.5,0.3-0.7,0.3-1.3,0.2C153,156.2,151.6,155.2,152.6,154.6z"/>
		</g>
		<g>
			<rect x="149.3" y="137.3" class="st0" width="5.5" height="19"/>
			<path class="st1" d="M152.6,153.6c-0.1-0.5-0.4,0.2-0.8,0c0.3-0.4,0.4-0.9,0.2-1.5c0.4-0.3,0.7-0.6,1.3-0.3
				c-0.8-2-0.9-4.2-1.5-5.7c-0.6,0.2-0.9,0-1.3-0.5c2.4-1.4-0.4-3.6,1-5.1c-0.3-1-1.7-0.9-2.1-1.8c0.9-3.1,6-0.4,3.9,2.1
				c1,3.5,2.5,8.4,0.8,11.6c1.1,1,0.2,2,0.2,3.6c-0.5,0.3-0.7,0.3-1.3,0.2C153,155.3,151.6,154.3,152.6,153.6z"/>
		</g>
		<g>
			<rect x="149.3" y="136.4" class="st0" width="5.5" height="19"/>
			<path class="st1" d="M152.6,152.7c-0.1-0.5-0.4,0.2-0.8,0c0.3-0.4,0.4-0.9,0.2-1.5c0.4-0.3,0.7-0.6,1.3-0.3
				c-0.8-2-0.9-4.2-1.5-5.7c-0.6,0.2-0.9,0-1.3-0.5c2.4-1.4-0.4-3.6,1-5.1c-0.3-1-1.7-0.9-2.1-1.8c0.9-3.1,6-0.4,3.9,2.1
				c1,3.5,2.5,8.4,0.8,11.6c1.1,1,0.2,2,0.2,3.6c-0.5,0.3-0.7,0.3-1.3,0.2C153,154.3,151.6,153.3,152.6,152.7z"/>
		</g>
		<g>
			<rect x="149.3" y="135.4" class="st0" width="5.5" height="19"/>
			<path class="st1" d="M152.6,151.7c-0.1-0.5-0.4,0.2-0.8,0c0.3-0.4,0.4-0.9,0.2-1.5c0.4-0.3,0.7-0.6,1.3-0.3
				c-0.8-2-0.9-4.2-1.5-5.7c-0.6,0.2-0.9,0-1.3-0.5c2.4-1.4-0.4-3.6,1-5.1c-0.3-1-1.7-0.9-2.1-1.8c0.9-3.1,6-0.4,3.9,2.1
				c1,3.5,2.5,8.4,0.8,11.6c1.1,1,0.2,2,0.2,3.6c-0.5,0.3-0.7,0.3-1.3,0.2C153,153.4,151.6,152.4,152.6,151.7z"/>
		</g>
		<g>
			<rect x="149.3" y="134.5" class="st0" width="5.5" height="19"/>
			<path class="st1" d="M152.6,150.8c-0.1-0.5-0.4,0.2-0.8,0c0.3-0.4,0.4-0.9,0.2-1.5c0.4-0.3,0.7-0.6,1.3-0.3
				c-0.8-2-0.9-4.2-1.5-5.7c-0.6,0.2-0.9,0-1.3-0.5c2.4-1.4-0.4-3.6,1-5.1c-0.3-1-1.7-0.9-2.1-1.8c0.9-3.1,6-0.4,3.9,2.1
				c1,3.5,2.5,8.4,0.8,11.6c1.1,1,0.2,2,0.2,3.6c-0.5,0.3-0.7,0.3-1.3,0.2C153,152.4,151.6,151.4,152.6,150.8z"/>
		</g>
		<g>
			<rect x="149.3" y="133.5" class="st0" width="5.5" height="19"/>
			<path class="st1" d="M152.6,149.8c-0.1-0.5-0.4,0.2-0.8,0c0.3-0.4,0.4-0.9,0.2-1.5c0.4-0.3,0.7-0.6,1.3-0.3
				c-0.8-2-0.9-4.2-1.5-5.7c-0.6,0.2-0.9,0-1.3-0.5c2.4-1.4-0.4-3.6,1-5.1c-0.3-1-1.7-0.9-2.1-1.8c0.9-3.1,6-0.4,3.9,2.1
				c1,3.5,2.5,8.4,0.8,11.6c1.1,1,0.2,2,0.2,3.6c-0.5,0.3-0.7,0.3-1.3,0.2C153,151.5,151.6,150.5,152.6,149.8z"/>
		</g>
		<g>
			<rect x="149.3" y="132.6" class="st0" width="5.5" height="19"/>
			<path class="st1" d="M152.6,148.9c-0.1-0.5-0.4,0.2-0.8,0c0.3-0.4,0.4-0.9,0.2-1.5c0.4-0.3,0.7-0.6,1.3-0.3
				c-0.8-2-0.9-4.2-1.5-5.7c-0.6,0.2-0.9,0-1.3-0.5c2.4-1.4-0.4-3.6,1-5.1c-0.3-1-1.7-0.9-2.1-1.8c0.9-3.1,6-0.4,3.9,2.1
				c1,3.5,2.5,8.4,0.8,11.6c1.1,1,0.2,2,0.2,3.6c-0.5,0.3-0.7,0.3-1.3,0.2C153,150.5,151.6,149.5,152.6,148.9z"/>
		</g>
		<g>
			<rect x="149.3" y="131.6" class="st0" width="5.5" height="19"/>
			<path class="st1" d="M152.6,147.9c-0.1-0.5-0.4,0.2-0.8,0c0.3-0.4,0.4-0.9,0.2-1.5c0.4-0.3,0.7-0.6,1.3-0.3
				c-0.8-2-0.9-4.2-1.5-5.7c-0.6,0.2-0.9,0-1.3-0.5c2.4-1.4-0.4-3.6,1-5.1c-0.3-1-1.7-0.9-2.1-1.8c0.9-3.1,6-0.4,3.9,2.1
				c1,3.5,2.5,8.4,0.8,11.6c1.1,1,0.2,2,0.2,3.6c-0.5,0.3-0.7,0.3-1.3,0.2C153,149.6,151.6,148.6,152.6,147.9z"/>
		</g>
		<g>
			<rect x="149.3" y="130.7" class="st0" width="5.5" height="19"/>
			<path class="st1" d="M152.6,147c-0.1-0.5-0.4,0.2-0.8,0c0.3-0.4,0.4-0.9,0.2-1.5c0.4-0.3,0.7-0.6,1.3-0.3c-0.8-2-0.9-4.2-1.5-5.7
				c-0.6,0.2-0.9,0-1.3-0.5c2.4-1.4-0.4-3.6,1-5.1c-0.3-1-1.7-0.9-2.1-1.8c0.9-3.1,6-0.4,3.9,2.1c1,3.5,2.5,8.4,0.8,11.6
				c1.1,1,0.2,2,0.2,3.6c-0.5,0.3-0.7,0.3-1.3,0.2C153,148.6,151.6,147.6,152.6,147z"/>
		</g>
		<g>
			<rect x="149.3" y="129.7" class="st0" width="5.5" height="19"/>
			<path class="st1" d="M152.6,146c-0.1-0.5-0.4,0.2-0.8,0c0.3-0.4,0.4-0.9,0.2-1.5c0.4-0.3,0.7-0.6,1.3-0.3c-0.8-2-0.9-4.2-1.5-5.7
				c-0.6,0.2-0.9,0-1.3-0.5c2.4-1.4-0.4-3.6,1-5.1c-0.3-1-1.7-0.9-2.1-1.8c0.9-3.1,6-0.4,3.9,2.1c1,3.5,2.5,8.4,0.8,11.6
				c1.1,1,0.2,2,0.2,3.6c-0.5,0.3-0.7,0.3-1.3,0.2C153,147.7,151.6,146.7,152.6,146z"/>
		</g>
		<g>
			<rect x="149.3" y="128.8" class="st0" width="5.5" height="19"/>
			<path class="st1" d="M152.6,145.1c-0.1-0.5-0.4,0.2-0.8,0c0.3-0.4,0.4-0.9,0.2-1.5c0.4-0.3,0.7-0.6,1.3-0.3
				c-0.8-2-0.9-4.2-1.5-5.7c-0.6,0.2-0.9,0-1.3-0.5c2.4-1.4-0.4-3.6,1-5.1c-0.3-1-1.7-0.9-2.1-1.8c0.9-3.1,6-0.4,3.9,2.1
				c1,3.5,2.5,8.4,0.8,11.6c1.1,1,0.2,2,0.2,3.6c-0.5,0.3-0.7,0.3-1.3,0.2C153,146.7,151.6,145.7,152.6,145.1z"/>
		</g>
		<g>
			<rect x="149.3" y="127.8" class="st0" width="5.5" height="19"/>
			<path class="st1" d="M152.6,144.1c-0.1-0.5-0.4,0.2-0.8,0c0.3-0.4,0.4-0.9,0.2-1.5c0.4-0.3,0.7-0.6,1.3-0.3
				c-0.8-2-0.9-4.2-1.5-5.7c-0.6,0.2-0.9,0-1.3-0.5c2.4-1.4-0.4-3.6,1-5.1c-0.3-1-1.7-0.9-2.1-1.8c0.9-3.1,6-0.4,3.9,2.1
				c1,3.5,2.5,8.4,0.8,11.6c1.1,1,0.2,2,0.2,3.6c-0.5,0.3-0.7,0.3-1.3,0.2C153,145.8,151.6,144.8,152.6,144.1z"/>
		</g>
		<g>
			<rect x="149.3" y="126.9" class="st0" width="5.5" height="19"/>
			<path class="st1" d="M152.6,143.2c-0.1-0.5-0.4,0.2-0.8,0c0.3-0.4,0.4-0.9,0.2-1.5c0.4-0.3,0.7-0.6,1.3-0.3
				c-0.8-2-0.9-4.2-1.5-5.7c-0.6,0.2-0.9,0-1.3-0.5c2.4-1.4-0.4-3.6,1-5.1c-0.3-1-1.7-0.9-2.1-1.8c0.9-3.1,6-0.4,3.9,2.1
				c1,3.5,2.5,8.4,0.8,11.6c1.1,1,0.2,2,0.2,3.6c-0.5,0.3-0.7,0.3-1.3,0.2C153,144.8,151.6,143.8,152.6,143.2z"/>
		</g>
		<g>
			<rect x="149.3" y="125.9" class="st0" width="5.5" height="19"/>
			<path class="st1" d="M152.6,142.2c-0.1-0.5-0.4,0.2-0.8,0c0.3-0.4,0.4-0.9,0.2-1.5c0.4-0.3,0.7-0.6,1.3-0.3
				c-0.8-2-0.9-4.2-1.5-5.7c-0.6,0.2-0.9,0-1.3-0.5c2.4-1.4-0.4-3.6,1-5.1c-0.3-1-1.7-0.9-2.1-1.8c0.9-3.1,6-0.4,3.9,2.1
				c1,3.5,2.5,8.4,0.8,11.6c1.1,1,0.2,2,0.2,3.6c-0.5,0.3-0.7,0.3-1.3,0.2C153,143.9,151.6,142.9,152.6,142.2z"/>
		</g>
		<g>
			<rect x="149.3" y="125" class="st0" width="5.5" height="19"/>
			<path class="st1" d="M152.6,141.3c-0.1-0.5-0.4,0.2-0.8,0c0.3-0.4,0.4-0.9,0.2-1.5c0.4-0.3,0.7-0.6,1.3-0.3
				c-0.8-2-0.9-4.2-1.5-5.7c-0.6,0.2-0.9,0-1.3-0.5c2.4-1.4-0.4-3.6,1-5.1c-0.3-1-1.7-0.9-2.1-1.8c0.9-3.1,6-0.4,3.9,2.1
				c1,3.5,2.5,8.4,0.8,11.6c1.1,1,0.2,2,0.2,3.6c-0.5,0.3-0.7,0.3-1.3,0.2C153,142.9,151.6,141.9,152.6,141.3z"/>
		</g>
		<g>
			<rect x="149.3" y="124" class="st0" width="5.5" height="19"/>
			<path class="st1" d="M152.6,140.3c-0.1-0.5-0.4,0.2-0.8,0c0.3-0.4,0.4-0.9,0.2-1.5c0.4-0.3,0.7-0.6,1.3-0.3
				c-0.8-2-0.9-4.2-1.5-5.7c-0.6,0.2-0.9,0-1.3-0.5c2.4-1.4-0.4-3.6,1-5.1c-0.3-1-1.7-0.9-2.1-1.8c0.9-3.1,6-0.4,3.9,2.1
				c1,3.5,2.5,8.4,0.8,11.6c1.1,1,0.2,2,0.2,3.6c-0.5,0.3-0.7,0.3-1.3,0.2C153,142,151.6,141,152.6,140.3z"/>
		</g>
		<g>
			<rect x="149.3" y="123.1" class="st0" width="5.5" height="19"/>
			<path class="st1" d="M152.6,139.4c-0.1-0.5-0.4,0.2-0.8,0c0.3-0.4,0.4-0.9,0.2-1.5c0.4-0.3,0.7-0.6,1.3-0.3
				c-0.8-2-0.9-4.2-1.5-5.7c-0.6,0.2-0.9,0-1.3-0.5c2.4-1.4-0.4-3.6,1-5.1c-0.3-1-1.7-0.9-2.1-1.8c0.9-3.1,6-0.4,3.9,2.1
				c1,3.5,2.5,8.4,0.8,11.6c1.1,1,0.2,2,0.2,3.6c-0.5,0.3-0.7,0.3-1.3,0.2C153,141,151.6,140,152.6,139.4z"/>
		</g>
		<g>
			<rect x="149.3" y="122.1" class="st0" width="5.5" height="19"/>
			<path class="st1" d="M152.6,138.4c-0.1-0.5-0.4,0.2-0.8,0c0.3-0.4,0.4-0.9,0.2-1.5c0.4-0.3,0.7-0.6,1.3-0.3
				c-0.8-2-0.9-4.2-1.5-5.7c-0.6,0.2-0.9,0-1.3-0.5c2.4-1.4-0.4-3.6,1-5.1c-0.3-1-1.7-0.9-2.1-1.8c0.9-3.1,6-0.4,3.9,2.1
				c1,3.5,2.5,8.4,0.8,11.6c1.1,1,0.2,2,0.2,3.6c-0.5,0.3-0.7,0.3-1.3,0.2C153,140.1,151.6,139.1,152.6,138.4z"/>
		</g>
		<g>
			<rect x="149.3" y="121.2" class="st0" width="5.5" height="19"/>
			<path class="st1" d="M152.6,137.5c-0.1-0.5-0.4,0.2-0.8,0c0.3-0.4,0.4-0.9,0.2-1.5c0.4-0.3,0.7-0.6,1.3-0.3
				c-0.8-2-0.9-4.2-1.5-5.7c-0.6,0.2-0.9,0-1.3-0.5c2.4-1.4-0.4-3.6,1-5.1c-0.3-1-1.7-0.9-2.1-1.8c0.9-3.1,6-0.4,3.9,2.1
				c1,3.5,2.5,8.4,0.8,11.6c1.1,1,0.2,2,0.2,3.6c-0.5,0.3-0.7,0.3-1.3,0.2C153,139.1,151.6,138.1,152.6,137.5z"/>
		</g>
		<g>
			<rect x="149.3" y="120.2" class="st0" width="5.5" height="19"/>
			<path class="st1" d="M152.6,136.5c-0.1-0.5-0.4,0.2-0.8,0c0.3-0.4,0.4-0.9,0.2-1.5c0.4-0.3,0.7-0.6,1.3-0.3
				c-0.8-2-0.9-4.2-1.5-5.7c-0.6,0.2-0.9,0-1.3-0.5c2.4-1.4-0.4-3.6,1-5.1c-0.3-1-1.7-0.9-2.1-1.8c0.9-3.1,6-0.4,3.9,2.1
				c1,3.5,2.5,8.4,0.8,11.6c1.1,1,0.2,2,0.2,3.6c-0.5,0.3-0.7,0.3-1.3,0.2C153,138.2,151.6,137.2,152.6,136.5z"/>
		</g>
		<g>
			<rect x="149.3" y="119.3" class="st0" width="5.5" height="19"/>
			<path class="st1" d="M152.6,135.6c-0.1-0.5-0.4,0.2-0.8,0c0.3-0.4,0.4-0.9,0.2-1.5c0.4-0.3,0.7-0.6,1.3-0.3
				c-0.8-2-0.9-4.2-1.5-5.7c-0.6,0.2-0.9,0-1.3-0.5c2.4-1.4-0.4-3.6,1-5.1c-0.3-1-1.7-0.9-2.1-1.8c0.9-3.1,6-0.4,3.9,2.1
				c1,3.5,2.5,8.4,0.8,11.6c1.1,1,0.2,2,0.2,3.6c-0.5,0.3-0.7,0.3-1.3,0.2C153,137.2,151.6,136.2,152.6,135.6z"/>
		</g>
		<g>
			<rect x="149.3" y="118.3" class="st0" width="5.5" height="19"/>
			<path class="st1" d="M152.6,134.6c-0.1-0.5-0.4,0.2-0.8,0c0.3-0.4,0.4-0.9,0.2-1.5c0.4-0.3,0.7-0.6,1.3-0.3
				c-0.8-2-0.9-4.2-1.5-5.7c-0.6,0.2-0.9,0-1.3-0.5c2.4-1.4-0.4-3.6,1-5.1c-0.3-1-1.7-0.9-2.1-1.8c0.9-3.1,6-0.4,3.9,2.1
				c1,3.5,2.5,8.4,0.8,11.6c1.1,1,0.2,2,0.2,3.6c-0.5,0.3-0.7,0.3-1.3,0.2C153,136.3,151.6,135.3,152.6,134.6z"/>
		</g>
		<g>
			<rect x="149.3" y="117.4" class="st0" width="5.5" height="19"/>
			<path class="st1" d="M152.6,133.7c-0.1-0.5-0.4,0.2-0.8,0c0.3-0.4,0.4-0.9,0.2-1.5c0.4-0.3,0.7-0.6,1.3-0.3
				c-0.8-2-0.9-4.2-1.5-5.7c-0.6,0.2-0.9,0-1.3-0.5c2.4-1.4-0.4-3.6,1-5.1c-0.3-1-1.7-0.9-2.1-1.8c0.9-3.1,6-0.4,3.9,2.1
				c1,3.5,2.5,8.4,0.8,11.6c1.1,1,0.2,2,0.2,3.6c-0.5,0.3-0.7,0.3-1.3,0.2C153,135.3,151.6,134.3,152.6,133.7z"/>
		</g>
		<g>
			<rect x="149.3" y="116.5" class="st0" width="5.5" height="19"/>
			<path class="st1" d="M152.6,132.7c-0.1-0.5-0.4,0.2-0.8,0c0.3-0.4,0.4-0.9,0.2-1.5c0.4-0.3,0.7-0.6,1.3-0.3
				c-0.8-2-0.9-4.2-1.5-5.7c-0.6,0.2-0.9,0-1.3-0.5c2.4-1.4-0.4-3.6,1-5.1c-0.3-1-1.7-0.9-2.1-1.8c0.9-3.1,6-0.4,3.9,2.1
				c1,3.5,2.5,8.4,0.8,11.6c1.1,1,0.2,2,0.2,3.6c-0.5,0.3-0.7,0.3-1.3,0.2C153,134.4,151.6,133.4,152.6,132.7z"/>
		</g>
		<g>
			<rect x="149.3" y="115.5" class="st0" width="5.5" height="19"/>
			<path class="st1" d="M152.6,131.8c-0.1-0.5-0.4,0.2-0.8,0c0.3-0.4,0.4-0.9,0.2-1.5c0.4-0.3,0.7-0.6,1.3-0.3
				c-0.8-2-0.9-4.2-1.5-5.7c-0.6,0.2-0.9,0-1.3-0.5c2.4-1.4-0.4-3.6,1-5.1c-0.3-1-1.7-0.9-2.1-1.8c0.9-3.1,6-0.4,3.9,2.1
				c1,3.5,2.5,8.4,0.8,11.6c1.1,1,0.2,2,0.2,3.6c-0.5,0.3-0.7,0.3-1.3,0.2C153,133.4,151.6,132.4,152.6,131.8z"/>
		</g>
		<g>
			<rect x="149.3" y="114.6" class="st0" width="5.5" height="19"/>
			<path class="st1" d="M152.6,130.8c-0.1-0.5-0.4,0.2-0.8,0c0.3-0.4,0.4-0.9,0.2-1.5c0.4-0.3,0.7-0.6,1.3-0.3
				c-0.8-2-0.9-4.2-1.5-5.7c-0.6,0.2-0.9,0-1.3-0.5c2.4-1.4-0.4-3.6,1-5.1c-0.3-1-1.7-0.9-2.1-1.8c0.9-3.1,6-0.4,3.9,2.1
				c1,3.5,2.5,8.4,0.8,11.6c1.1,1,0.2,2,0.2,3.6c-0.5,0.3-0.7,0.3-1.3,0.2C153,132.5,151.6,131.5,152.6,130.8z"/>
		</g>
		<g>
			<rect x="149.3" y="113.6" class="st0" width="5.5" height="19"/>
			<path class="st1" d="M152.6,129.9c-0.1-0.5-0.4,0.2-0.8,0c0.3-0.4,0.4-0.9,0.2-1.5c0.4-0.3,0.7-0.6,1.3-0.3
				c-0.8-2-0.9-4.2-1.5-5.7c-0.6,0.2-0.9,0-1.3-0.5c2.4-1.4-0.4-3.6,1-5.1c-0.3-1-1.7-0.9-2.1-1.8c0.9-3.1,6-0.4,3.9,2.1
				c1,3.5,2.5,8.4,0.8,11.6c1.1,1,0.2,2,0.2,3.6c-0.5,0.3-0.7,0.3-1.3,0.2C153,131.5,151.6,130.5,152.6,129.9z"/>
		</g>
		<g>
			<rect x="149.3" y="112.7" class="st0" width="5.5" height="19"/>
			<path class="st1" d="M152.6,128.9c-0.1-0.5-0.4,0.2-0.8,0c0.3-0.4,0.4-0.9,0.2-1.5c0.4-0.3,0.7-0.6,1.3-0.3
				c-0.8-2-0.9-4.2-1.5-5.7c-0.6,0.2-0.9,0-1.3-0.5c2.4-1.4-0.4-3.6,1-5.1c-0.3-1-1.7-0.9-2.1-1.8c0.9-3.1,6-0.4,3.9,2.1
				c1,3.5,2.5,8.4,0.8,11.6c1.1,1,0.2,2,0.2,3.6c-0.5,0.3-0.7,0.3-1.3,0.2C153,130.6,151.6,129.6,152.6,128.9z"/>
		</g>
		<g>
			<rect x="149.3" y="111.7" class="st0" width="5.5" height="19"/>
			<path class="st1" d="M152.6,128c-0.1-0.5-0.4,0.2-0.8,0c0.3-0.4,0.4-0.9,0.2-1.5c0.4-0.3,0.7-0.6,1.3-0.3c-0.8-2-0.9-4.2-1.5-5.7
				c-0.6,0.2-0.9,0-1.3-0.5c2.4-1.4-0.4-3.6,1-5.1c-0.3-1-1.7-0.9-2.1-1.8c0.9-3.1,6-0.4,3.9,2.1c1,3.5,2.5,8.4,0.8,11.6
				c1.1,1,0.2,2,0.2,3.6c-0.5,0.3-0.7,0.3-1.3,0.2C153,129.6,151.6,128.6,152.6,128z"/>
		</g>
		<g>
			<rect x="149.3" y="110.8" class="st0" width="5.5" height="19"/>
			<path class="st1" d="M152.6,127c-0.1-0.5-0.4,0.2-0.8,0c0.3-0.4,0.4-0.9,0.2-1.5c0.4-0.3,0.7-0.6,1.3-0.3c-0.8-2-0.9-4.2-1.5-5.7
				c-0.6,0.2-0.9,0-1.3-0.5c2.4-1.4-0.4-3.6,1-5.1c-0.3-1-1.7-0.9-2.1-1.8c0.9-3.1,6-0.4,3.9,2.1c1,3.5,2.5,8.4,0.8,11.6
				c1.1,1,0.2,2,0.2,3.6c-0.5,0.3-0.7,0.3-1.3,0.2C153,128.7,151.6,127.7,152.6,127z"/>
		</g>
		<g>
			<rect x="149.3" y="109.8" class="st0" width="5.5" height="19"/>
			<path class="st1" d="M152.6,126.1c-0.1-0.5-0.4,0.2-0.8,0c0.3-0.4,0.4-0.9,0.2-1.5c0.4-0.3,0.7-0.6,1.3-0.3
				c-0.8-2-0.9-4.2-1.5-5.7c-0.6,0.2-0.9,0-1.3-0.5c2.4-1.4-0.4-3.6,1-5.1c-0.3-1-1.7-0.9-2.1-1.8c0.9-3.1,6-0.4,3.9,2.1
				c1,3.5,2.5,8.4,0.8,11.6c1.1,1,0.2,2,0.2,3.6c-0.5,0.3-0.7,0.3-1.3,0.2C153,127.7,151.6,126.7,152.6,126.1z"/>
		</g>
		<g>
			<rect x="149.3" y="108.9" class="st0" width="5.5" height="19"/>
			<path class="st1" d="M152.6,125.1c-0.1-0.5-0.4,0.2-0.8,0c0.3-0.4,0.4-0.9,0.2-1.5c0.4-0.3,0.7-0.6,1.3-0.3
				c-0.8-2-0.9-4.2-1.5-5.7c-0.6,0.2-0.9,0-1.3-0.5c2.4-1.4-0.4-3.6,1-5.1c-0.3-1-1.7-0.9-2.1-1.8c0.9-3.1,6-0.4,3.9,2.1
				c1,3.5,2.5,8.4,0.8,11.6c1.1,1,0.2,2,0.2,3.6c-0.5,0.3-0.7,0.3-1.3,0.2C153,126.8,151.6,125.8,152.6,125.1z"/>
		</g>
		<g>
			<rect x="149.3" y="107.9" class="st0" width="5.5" height="19"/>
			<path class="st1" d="M152.6,124.2c-0.1-0.5-0.4,0.2-0.8,0c0.3-0.4,0.4-0.9,0.2-1.5c0.4-0.3,0.7-0.6,1.3-0.3
				c-0.8-2-0.9-4.2-1.5-5.7c-0.6,0.2-0.9,0-1.3-0.5c2.4-1.4-0.4-3.6,1-5.1c-0.3-1-1.7-0.9-2.1-1.8c0.9-3.1,6-0.4,3.9,2.1
				c1,3.5,2.5,8.4,0.8,11.6c1.1,1,0.2,2,0.2,3.6c-0.5,0.3-0.7,0.3-1.3,0.2C153,125.8,151.6,124.8,152.6,124.2z"/>
		</g>
		<g>
			<rect x="149.3" y="107" class="st0" width="5.5" height="19"/>
			<path class="st1" d="M152.6,123.2c-0.1-0.5-0.4,0.2-0.8,0c0.3-0.4,0.4-0.9,0.2-1.5c0.4-0.3,0.7-0.6,1.3-0.3
				c-0.8-2-0.9-4.2-1.5-5.7c-0.6,0.2-0.9,0-1.3-0.5c2.4-1.4-0.4-3.6,1-5.1c-0.3-1-1.7-0.9-2.1-1.8c0.9-3.1,6-0.4,3.9,2.1
				c1,3.5,2.5,8.4,0.8,11.6c1.1,1,0.2,2,0.2,3.6c-0.5,0.3-0.7,0.3-1.3,0.2C153,124.9,151.6,123.9,152.6,123.2z"/>
		</g>
		<g>
			<rect x="149.3" y="106" class="st0" width="5.5" height="19"/>
			<path class="st1" d="M152.6,122.3c-0.1-0.5-0.4,0.2-0.8,0c0.3-0.4,0.4-0.9,0.2-1.5c0.4-0.3,0.7-0.6,1.3-0.3
				c-0.8-2-0.9-4.2-1.5-5.7c-0.6,0.2-0.9,0-1.3-0.5c2.4-1.4-0.4-3.6,1-5.1c-0.3-1-1.7-0.9-2.1-1.8c0.9-3.1,6-0.4,3.9,2.1
				c1,3.5,2.5,8.4,0.8,11.6c1.1,1,0.2,2,0.2,3.6c-0.5,0.3-0.7,0.3-1.3,0.2C153,123.9,151.6,122.9,152.6,122.3z"/>
		</g>
		<g>
			<rect x="149.3" y="105.1" class="st0" width="5.5" height="19"/>
			<path class="st1" d="M152.6,121.3c-0.1-0.5-0.4,0.2-0.8,0c0.3-0.4,0.4-0.9,0.2-1.5c0.4-0.3,0.7-0.6,1.3-0.3
				c-0.8-2-0.9-4.2-1.5-5.7c-0.6,0.2-0.9,0-1.3-0.5c2.4-1.4-0.4-3.6,1-5.1c-0.3-1-1.7-0.9-2.1-1.8c0.9-3.1,6-0.4,3.9,2.1
				c1,3.5,2.5,8.4,0.8,11.6c1.1,1,0.2,2,0.2,3.6c-0.5,0.3-0.7,0.3-1.3,0.2C153,123,151.6,122,152.6,121.3z"/>
		</g>
		<g>
			<rect x="149.3" y="104.1" class="st0" width="5.5" height="19"/>
			<path class="st1" d="M152.6,120.4c-0.1-0.5-0.4,0.2-0.8,0c0.3-0.4,0.4-0.9,0.2-1.5c0.4-0.3,0.7-0.6,1.3-0.3
				c-0.8-2-0.9-4.2-1.5-5.7c-0.6,0.2-0.9,0-1.3-0.5c2.4-1.4-0.4-3.6,1-5.1c-0.3-1-1.7-0.9-2.1-1.8c0.9-3.1,6-0.4,3.9,2.1
				c1,3.5,2.5,8.4,0.8,11.6c1.1,1,0.2,2,0.2,3.6c-0.5,0.3-0.7,0.3-1.3,0.2C153,122,151.6,121,152.6,120.4z"/>
		</g>
		<g>
			<rect x="149.3" y="103.2" class="st0" width="5.5" height="19"/>
			<path class="st1" d="M152.6,119.4c-0.1-0.5-0.4,0.2-0.8,0c0.3-0.4,0.4-0.9,0.2-1.5c0.4-0.3,0.7-0.6,1.3-0.3
				c-0.8-2-0.9-4.2-1.5-5.7c-0.6,0.2-0.9,0-1.3-0.5c2.4-1.4-0.4-3.6,1-5.1c-0.3-1-1.7-0.9-2.1-1.8c0.9-3.1,6-0.4,3.9,2.1
				c1,3.5,2.5,8.4,0.8,11.6c1.1,1,0.2,2,0.2,3.6c-0.5,0.3-0.7,0.3-1.3,0.2C153,121.1,151.6,120.1,152.6,119.4z"/>
		</g>
		<g>
			<rect x="149.3" y="102.2" class="st0" width="5.5" height="19"/>
			<path class="st1" d="M152.6,118.5c-0.1-0.5-0.4,0.2-0.8,0c0.3-0.4,0.4-0.9,0.2-1.5c0.4-0.3,0.7-0.6,1.3-0.3
				c-0.8-2-0.9-4.2-1.5-5.7c-0.6,0.2-0.9,0-1.3-0.5c2.4-1.4-0.4-3.6,1-5.1c-0.3-1-1.7-0.9-2.1-1.8c0.9-3.1,6-0.4,3.9,2.1
				c1,3.5,2.5,8.4,0.8,11.6c1.1,1,0.2,2,0.2,3.6c-0.5,0.3-0.7,0.3-1.3,0.2C153,120.1,151.6,119.1,152.6,118.5z"/>
		</g>
		<g>
			<rect x="149.3" y="101.3" class="st0" width="5.5" height="19"/>
			<path class="st1" d="M152.6,117.5c-0.1-0.5-0.4,0.2-0.8,0c0.3-0.4,0.4-0.9,0.2-1.5c0.4-0.3,0.7-0.6,1.3-0.3
				c-0.8-2-0.9-4.2-1.5-5.7c-0.6,0.2-0.9,0-1.3-0.5c2.4-1.4-0.4-3.6,1-5.1c-0.3-1-1.7-0.9-2.1-1.8c0.9-3.1,6-0.4,3.9,2.1
				c1,3.5,2.5,8.4,0.8,11.6c1.1,1,0.2,2,0.2,3.6c-0.5,0.3-0.7,0.3-1.3,0.2C153,119.2,151.6,118.2,152.6,117.5z"/>
		</g>
		<g>
			<rect x="149.3" y="100.3" class="st0" width="5.5" height="19"/>
			<path class="st1" d="M152.6,116.6c-0.1-0.5-0.4,0.2-0.8,0c0.3-0.4,0.4-0.9,0.2-1.5c0.4-0.3,0.7-0.6,1.3-0.3
				c-0.8-2-0.9-4.2-1.5-5.7c-0.6,0.2-0.9,0-1.3-0.5c2.4-1.4-0.4-3.6,1-5.1c-0.3-1-1.7-0.9-2.1-1.8c0.9-3.1,6-0.4,3.9,2.1
				c1,3.5,2.5,8.4,0.8,11.6c1.1,1,0.2,2,0.2,3.6c-0.5,0.3-0.7,0.3-1.3,0.2C153,118.2,151.6,117.2,152.6,116.6z"/>
		</g>
		<g>
			<rect x="149.3" y="99.4" class="st0" width="5.5" height="19"/>
			<path class="st1" d="M152.6,115.6c-0.1-0.5-0.4,0.2-0.8,0c0.3-0.4,0.4-0.9,0.2-1.5c0.4-0.3,0.7-0.6,1.3-0.3
				c-0.8-2-0.9-4.2-1.5-5.7c-0.6,0.2-0.9,0-1.3-0.5c2.4-1.4-0.4-3.6,1-5.1c-0.3-1-1.7-0.9-2.1-1.8c0.9-3.1,6-0.4,3.9,2.1
				c1,3.5,2.5,8.4,0.8,11.6c1.1,1,0.2,2,0.2,3.6c-0.5,0.3-0.7,0.3-1.3,0.2C153,117.3,151.6,116.3,152.6,115.6z"/>
		</g>
		<g>
			<rect x="149.3" y="98.4" class="st0" width="5.5" height="19"/>
			<path class="st1" d="M152.6,114.7c-0.1-0.5-0.4,0.2-0.8,0c0.3-0.4,0.4-0.9,0.2-1.5c0.4-0.3,0.7-0.6,1.3-0.3
				c-0.8-2-0.9-4.2-1.5-5.7c-0.6,0.2-0.9,0-1.3-0.5c2.4-1.4-0.4-3.6,1-5.1c-0.3-1-1.7-0.9-2.1-1.8c0.9-3.1,6-0.4,3.9,2.1
				c1,3.5,2.5,8.4,0.8,11.6c1.1,1,0.2,2,0.2,3.6c-0.5,0.3-0.7,0.3-1.3,0.2C153,116.3,151.6,115.3,152.6,114.7z"/>
		</g>
		<g>
			<rect x="149.3" y="97.5" class="st0" width="5.5" height="19"/>
			<path class="st1" d="M152.6,113.7c-0.1-0.5-0.4,0.2-0.8,0c0.3-0.4,0.4-0.9,0.2-1.5c0.4-0.3,0.7-0.6,1.3-0.3
				c-0.8-2-0.9-4.2-1.5-5.7c-0.6,0.2-0.9,0-1.3-0.5c2.4-1.4-0.4-3.6,1-5.1c-0.3-1-1.7-0.9-2.1-1.8c0.9-3.1,6-0.4,3.9,2.1
				c1,3.5,2.5,8.4,0.8,11.6c1.1,1,0.2,2,0.2,3.6c-0.5,0.3-0.7,0.3-1.3,0.2C153,115.4,151.6,114.4,152.6,113.7z"/>
		</g>
		<g>
			<rect x="149.3" y="96.5" class="st0" width="5.5" height="19"/>
			<path class="st1" d="M152.6,112.8c-0.1-0.5-0.4,0.2-0.8,0c0.3-0.4,0.4-0.9,0.2-1.5c0.4-0.3,0.7-0.6,1.3-0.3
				c-0.8-2-0.9-4.2-1.5-5.7c-0.6,0.2-0.9,0-1.3-0.5c2.4-1.4-0.4-3.6,1-5.1c-0.3-1-1.7-0.9-2.1-1.8c0.9-3.1,6-0.4,3.9,2.1
				c1,3.5,2.5,8.4,0.8,11.6c1.1,1,0.2,2,0.2,3.6c-0.5,0.3-0.7,0.3-1.3,0.2C153,114.4,151.6,113.4,152.6,112.8z"/>
		</g>
		<g>
			<rect x="149.3" y="95.6" class="st0" width="5.5" height="19"/>
			<path class="st1" d="M152.6,111.8c-0.1-0.5-0.4,0.2-0.8,0c0.3-0.4,0.4-0.9,0.2-1.5c0.4-0.3,0.7-0.6,1.3-0.3
				c-0.8-2-0.9-4.2-1.5-5.7c-0.6,0.2-0.9,0-1.3-0.5c2.4-1.4-0.4-3.6,1-5.1c-0.3-1-1.7-0.9-2.1-1.8c0.9-3.1,6-0.4,3.9,2.1
				c1,3.5,2.5,8.4,0.8,11.6c1.1,1,0.2,2,0.2,3.6c-0.5,0.3-0.7,0.3-1.3,0.2C153,113.5,151.6,112.5,152.6,111.8z"/>
		</g>
		<g>
			<rect x="149.3" y="94.6" class="st0" width="5.5" height="19"/>
			<path class="st1" d="M152.6,110.9c-0.1-0.5-0.4,0.2-0.8,0c0.3-0.4,0.4-0.9,0.2-1.5c0.4-0.3,0.7-0.6,1.3-0.3
				c-0.8-2-0.9-4.2-1.5-5.7c-0.6,0.2-0.9,0-1.3-0.5c2.4-1.4-0.4-3.6,1-5.1c-0.3-1-1.7-0.9-2.1-1.8c0.9-3.1,6-0.4,3.9,2.1
				c1,3.5,2.5,8.4,0.8,11.6c1.1,1,0.2,2,0.2,3.6c-0.5,0.3-0.7,0.3-1.3,0.2C153,112.5,151.6,111.6,152.6,110.9z"/>
		</g>
		<g>
			<rect x="149.3" y="93.7" class="st0" width="5.5" height="19"/>
			<path class="st1" d="M152.6,109.9c-0.1-0.5-0.4,0.2-0.8,0c0.3-0.4,0.4-0.9,0.2-1.5c0.4-0.3,0.7-0.6,1.3-0.3
				c-0.8-2-0.9-4.2-1.5-5.7c-0.6,0.2-0.9,0-1.3-0.5c2.4-1.4-0.4-3.6,1-5.1c-0.3-1-1.7-0.9-2.1-1.8c0.9-3.1,6-0.4,3.9,2.1
				c1,3.5,2.5,8.4,0.8,11.6c1.1,1,0.2,2,0.2,3.6c-0.5,0.3-0.7,0.3-1.3,0.2C153,111.6,151.6,110.6,152.6,109.9z"/>
		</g>
		<g>
			<rect x="149.3" y="92.7" class="st0" width="5.5" height="19"/>
			<path class="st1" d="M152.6,109c-0.1-0.5-0.4,0.2-0.8,0c0.3-0.4,0.4-0.9,0.2-1.5c0.4-0.3,0.7-0.6,1.3-0.3c-0.8-2-0.9-4.2-1.5-5.7
				c-0.6,0.2-0.9,0-1.3-0.5c2.4-1.4-0.4-3.6,1-5.1c-0.3-1-1.7-0.9-2.1-1.8c0.9-3.1,6-0.4,3.9,2.1c1,3.5,2.5,8.4,0.8,11.6
				c1.1,1,0.2,2,0.2,3.6c-0.5,0.3-0.7,0.3-1.3,0.2C153,110.6,151.6,109.7,152.6,109z"/>
		</g>
		<g>
			<rect x="149.3" y="91.8" class="st0" width="5.5" height="19"/>
			<path class="st1" d="M152.6,108c-0.1-0.5-0.4,0.2-0.8,0c0.3-0.4,0.4-0.9,0.2-1.5c0.4-0.3,0.7-0.6,1.3-0.3c-0.8-2-0.9-4.2-1.5-5.7
				c-0.6,0.2-0.9,0-1.3-0.5c2.4-1.4-0.4-3.6,1-5.1c-0.3-1-1.7-0.9-2.1-1.8c0.9-3.1,6-0.4,3.9,2.1c1,3.5,2.5,8.4,0.8,11.6
				c1.1,1,0.2,2,0.2,3.6c-0.5,0.3-0.7,0.3-1.3,0.2C153,109.7,151.6,108.7,152.6,108z"/>
		</g>
		<g>
			<rect x="149.3" y="90.8" class="st0" width="5.5" height="19"/>
			<path class="st1" d="M152.6,107.1c-0.1-0.5-0.4,0.2-0.8,0c0.3-0.4,0.4-0.9,0.2-1.5c0.4-0.3,0.7-0.6,1.3-0.3
				c-0.8-2-0.9-4.2-1.5-5.7c-0.6,0.2-0.9,0-1.3-0.5c2.4-1.4-0.4-3.6,1-5.1c-0.3-1-1.7-0.9-2.1-1.8c0.9-3.1,6-0.4,3.9,2.1
				c1,3.5,2.5,8.4,0.8,11.6c1.1,1,0.2,2,0.2,3.6c-0.5,0.3-0.7,0.3-1.3,0.2C153,108.7,151.6,107.8,152.6,107.1z"/>
		</g>
		<g>
			<rect x="149.3" y="89.9" class="st0" width="5.5" height="19"/>
			<path class="st1" d="M152.6,106.1c-0.1-0.5-0.4,0.2-0.8,0c0.3-0.4,0.4-0.9,0.2-1.5c0.4-0.3,0.7-0.6,1.3-0.3
				c-0.8-2-0.9-4.2-1.5-5.7c-0.6,0.2-0.9,0-1.3-0.5c2.4-1.4-0.4-3.6,1-5.1c-0.3-1-1.7-0.9-2.1-1.8c0.9-3.1,6-0.4,3.9,2.1
				c1,3.5,2.5,8.4,0.8,11.6c1.1,1,0.2,2,0.2,3.6c-0.5,0.3-0.7,0.3-1.3,0.2C153,107.8,151.6,106.8,152.6,106.1z"/>
		</g>
		<g>
			<rect x="149.3" y="88.9" class="st0" width="5.5" height="19"/>
			<path class="st1" d="M152.6,105.2c-0.1-0.5-0.4,0.2-0.8,0c0.3-0.4,0.4-0.9,0.2-1.5c0.4-0.3,0.7-0.6,1.3-0.3
				c-0.8-2-0.9-4.2-1.5-5.7c-0.6,0.2-0.9,0-1.3-0.5c2.4-1.4-0.4-3.6,1-5.1c-0.3-1-1.7-0.9-2.1-1.8c0.9-3.1,6-0.4,3.9,2.1
				c1,3.5,2.5,8.4,0.8,11.6c1.1,1,0.2,2,0.2,3.6c-0.5,0.3-0.7,0.3-1.3,0.2C153,106.9,151.6,105.9,152.6,105.2z"/>
		</g>
		<g>
			<rect x="149.3" y="88" class="st0" width="5.5" height="19"/>
			<path class="st1" d="M152.6,104.2c-0.1-0.5-0.4,0.2-0.8,0c0.3-0.4,0.4-0.9,0.2-1.5c0.4-0.3,0.7-0.6,1.3-0.3
				c-0.8-2-0.9-4.2-1.5-5.7c-0.6,0.2-0.9,0-1.3-0.5c2.4-1.4-0.4-3.6,1-5.1c-0.3-1-1.7-0.9-2.1-1.8c0.9-3.1,6-0.4,3.9,2.1
				c1,3.5,2.5,8.4,0.8,11.6c1.1,1,0.2,2,0.2,3.6c-0.5,0.3-0.7,0.3-1.3,0.2C153,105.9,151.6,104.9,152.6,104.2z"/>
		</g>
		<g>
			<rect x="149.3" y="87" class="st0" width="5.5" height="19"/>
			<path class="st1" d="M152.6,103.3c-0.1-0.5-0.4,0.2-0.8,0c0.3-0.4,0.4-0.9,0.2-1.5c0.4-0.3,0.7-0.6,1.3-0.3
				c-0.8-2-0.9-4.2-1.5-5.7c-0.6,0.2-0.9,0-1.3-0.5c2.4-1.4-0.4-3.6,1-5.1c-0.3-1-1.7-0.9-2.1-1.8c0.9-3.1,6-0.4,3.9,2.1
				c1,3.5,2.5,8.4,0.8,11.6c1.1,1,0.2,2,0.2,3.6c-0.5,0.3-0.7,0.3-1.3,0.2C153,105,151.6,104,152.6,103.3z"/>
		</g>
		<g>
			<rect x="149.3" y="86.1" class="st0" width="5.5" height="19"/>
			<path class="st1" d="M152.6,102.3c-0.1-0.5-0.4,0.2-0.8,0c0.3-0.4,0.4-0.9,0.2-1.5c0.4-0.3,0.7-0.6,1.3-0.3
				c-0.8-2-0.9-4.2-1.5-5.7c-0.6,0.2-0.9,0-1.3-0.5c2.4-1.4-0.4-3.6,1-5.1c-0.3-1-1.7-0.9-2.1-1.8c0.9-3.1,6-0.4,3.9,2.1
				c1,3.5,2.5,8.4,0.8,11.6c1.1,1,0.2,2,0.2,3.6c-0.5,0.3-0.7,0.3-1.3,0.2C153,104,151.6,103,152.6,102.3z"/>
		</g>
		<g>
			<rect x="149.3" y="85.1" class="st0" width="5.5" height="19"/>
			<path class="st1" d="M152.6,101.4c-0.1-0.5-0.4,0.2-0.8,0c0.3-0.4,0.4-0.9,0.2-1.5c0.4-0.3,0.7-0.6,1.3-0.3
				c-0.8-2-0.9-4.2-1.5-5.7c-0.6,0.2-0.9,0-1.3-0.5c2.4-1.4-0.4-3.6,1-5.1c-0.3-1-1.7-0.9-2.1-1.8c0.9-3.1,6-0.4,3.9,2.1
				c1,3.5,2.5,8.4,0.8,11.6c1.1,1,0.2,2,0.2,3.6c-0.5,0.3-0.7,0.3-1.3,0.2C153,103.1,151.6,102.1,152.6,101.4z"/>
		</g>
		<g>
			<rect x="149.3" y="84.2" class="st0" width="5.5" height="19"/>
			<path class="st1" d="M152.6,100.4c-0.1-0.5-0.4,0.2-0.8,0c0.3-0.4,0.4-0.9,0.2-1.5c0.4-0.3,0.7-0.6,1.3-0.3
				c-0.8-2-0.9-4.2-1.5-5.7c-0.6,0.2-0.9,0-1.3-0.5c2.4-1.4-0.4-3.6,1-5.1c-0.3-1-1.7-0.9-2.1-1.8c0.9-3.1,6-0.4,3.9,2.1
				c1,3.5,2.5,8.4,0.8,11.6c1.1,1,0.2,2,0.2,3.6c-0.5,0.3-0.7,0.3-1.3,0.2C153,102.1,151.6,101.1,152.6,100.4z"/>
		</g>
		<g>
			<rect x="149.3" y="83.2" class="st0" width="5.5" height="19"/>
			<path class="st1" d="M152.6,99.5c-0.1-0.5-0.4,0.2-0.8,0c0.3-0.4,0.4-0.9,0.2-1.5c0.4-0.3,0.7-0.6,1.3-0.3
				c-0.8-2-0.9-4.2-1.5-5.7c-0.6,0.2-0.9,0-1.3-0.5c2.4-1.4-0.4-3.6,1-5.1c-0.3-1-1.7-0.9-2.1-1.8c0.9-3.1,6-0.4,3.9,2.1
				c1,3.5,2.5,8.4,0.8,11.6c1.1,1,0.2,2,0.2,3.6c-0.5,0.3-0.7,0.3-1.3,0.2C153,101.2,151.6,100.2,152.6,99.5z"/>
		</g>
		<g>
			<rect x="149.3" y="82.3" class="st0" width="5.5" height="19"/>
			<path class="st1" d="M152.6,98.5c-0.1-0.5-0.4,0.2-0.8,0c0.3-0.4,0.4-0.9,0.2-1.5c0.4-0.3,0.7-0.6,1.3-0.3
				c-0.8-2-0.9-4.2-1.5-5.7c-0.6,0.2-0.9,0-1.3-0.5c2.4-1.4-0.4-3.6,1-5.1c-0.3-1-1.7-0.9-2.1-1.8c0.9-3.1,6-0.4,3.9,2.1
				c1,3.5,2.5,8.4,0.8,11.6c1.1,1,0.2,2,0.2,3.6c-0.5,0.3-0.7,0.3-1.3,0.2C153,100.2,151.6,99.2,152.6,98.5z"/>
		</g>
		<g>
			<rect x="149.3" y="81.3" class="st0" width="5.5" height="19"/>
			<path class="st1" d="M152.6,97.6c-0.1-0.5-0.4,0.2-0.8,0c0.3-0.4,0.4-0.9,0.2-1.5c0.4-0.3,0.7-0.6,1.3-0.3
				c-0.8-2-0.9-4.2-1.5-5.7c-0.6,0.2-0.9,0-1.3-0.5c2.4-1.4-0.4-3.6,1-5.1c-0.3-1-1.7-0.9-2.1-1.8c0.9-3.1,6-0.4,3.9,2.1
				c1,3.5,2.5,8.4,0.8,11.6c1.1,1,0.2,2,0.2,3.6c-0.5,0.3-0.7,0.3-1.3,0.2C153,99.3,151.6,98.3,152.6,97.6z"/>
		</g>
		<g>
			<rect x="149.3" y="80.4" class="st0" width="5.5" height="19"/>
			<path class="st1" d="M152.6,96.7c-0.1-0.5-0.4,0.2-0.8,0c0.3-0.4,0.4-0.9,0.2-1.5c0.4-0.3,0.7-0.6,1.3-0.3
				c-0.8-2-0.9-4.2-1.5-5.7c-0.6,0.2-0.9,0-1.3-0.5c2.4-1.4-0.4-3.6,1-5.1c-0.3-1-1.7-0.9-2.1-1.8c0.9-3.1,6-0.4,3.9,2.1
				c1,3.5,2.5,8.4,0.8,11.6c1.1,1,0.2,2,0.2,3.6c-0.5,0.3-0.7,0.3-1.3,0.2C153,98.3,151.6,97.3,152.6,96.7z"/>
		</g>
		<g>
			<rect x="149.3" y="79.4" class="st0" width="5.5" height="19"/>
			<path class="st1" d="M152.6,95.7c-0.1-0.5-0.4,0.2-0.8,0c0.3-0.4,0.4-0.9,0.2-1.5c0.4-0.3,0.7-0.6,1.3-0.3
				c-0.8-2-0.9-4.2-1.5-5.7c-0.6,0.2-0.9,0-1.3-0.5c2.4-1.4-0.4-3.6,1-5.1c-0.3-1-1.7-0.9-2.1-1.8c0.9-3.1,6-0.4,3.9,2.1
				c1,3.5,2.5,8.4,0.8,11.6c1.1,1,0.2,2,0.2,3.6c-0.5,0.3-0.7,0.3-1.3,0.2C153,97.4,151.6,96.4,152.6,95.7z"/>
		</g>
		<g>
			<rect x="149.3" y="78.5" class="st0" width="5.5" height="19"/>
			<path class="st1" d="M152.6,94.8c-0.1-0.5-0.4,0.2-0.8,0c0.3-0.4,0.4-0.9,0.2-1.5c0.4-0.3,0.7-0.6,1.3-0.3
				c-0.8-2-0.9-4.2-1.5-5.7c-0.6,0.2-0.9,0-1.3-0.5c2.4-1.4-0.4-3.6,1-5.1c-0.3-1-1.7-0.9-2.1-1.8c0.9-3.1,6-0.4,3.9,2.1
				c1,3.5,2.5,8.4,0.8,11.6c1.1,1,0.2,2,0.2,3.6c-0.5,0.3-0.7,0.3-1.3,0.2C153,96.4,151.6,95.4,152.6,94.8z"/>
		</g>
		<g>
			<rect x="149.3" y="77.5" class="st0" width="5.5" height="19"/>
			<path class="st1" d="M152.6,93.8c-0.1-0.5-0.4,0.2-0.8,0c0.3-0.4,0.4-0.9,0.2-1.5c0.4-0.3,0.7-0.6,1.3-0.3
				c-0.8-2-0.9-4.2-1.5-5.7c-0.6,0.2-0.9,0-1.3-0.5c2.4-1.4-0.4-3.6,1-5.1c-0.3-1-1.7-0.9-2.1-1.8c0.9-3.1,6-0.4,3.9,2.1
				c1,3.5,2.5,8.4,0.8,11.6c1.1,1,0.2,2,0.2,3.6c-0.5,0.3-0.7,0.3-1.3,0.2C153,95.5,151.6,94.5,152.6,93.8z"/>
		</g>
		<g>
			<rect x="149.3" y="76.6" class="st0" width="5.5" height="19"/>
			<path class="st1" d="M152.6,92.9c-0.1-0.5-0.4,0.2-0.8,0c0.3-0.4,0.4-0.9,0.2-1.5c0.4-0.3,0.7-0.6,1.3-0.3
				c-0.8-2-0.9-4.2-1.5-5.7c-0.6,0.2-0.9,0-1.3-0.5c2.4-1.4-0.4-3.6,1-5.1c-0.3-1-1.7-0.9-2.1-1.8c0.9-3.1,6-0.4,3.9,2.1
				c1,3.5,2.5,8.4,0.8,11.6c1.1,1,0.2,2,0.2,3.6c-0.5,0.3-0.7,0.3-1.3,0.2C153,94.5,151.6,93.5,152.6,92.9z"/>
		</g>
		<g>
			<rect x="149.3" y="75.6" class="st0" width="5.5" height="19"/>
			<path class="st1" d="M152.6,91.9c-0.1-0.5-0.4,0.2-0.8,0c0.3-0.4,0.4-0.9,0.2-1.5c0.4-0.3,0.7-0.6,1.3-0.3
				c-0.8-2-0.9-4.2-1.5-5.7c-0.6,0.2-0.9,0-1.3-0.5c2.4-1.4-0.4-3.6,1-5.1c-0.3-1-1.7-0.9-2.1-1.8c0.9-3.1,6-0.4,3.9,2.1
				c1,3.5,2.5,8.4,0.8,11.6c1.1,1,0.2,2,0.2,3.6c-0.5,0.3-0.7,0.3-1.3,0.2C153,93.6,151.6,92.6,152.6,91.9z"/>
		</g>
		<g>
			<rect x="149.3" y="74.7" class="st0" width="5.5" height="19"/>
			<path class="st1" d="M152.6,91c-0.1-0.5-0.4,0.2-0.8,0c0.3-0.4,0.4-0.9,0.2-1.5c0.4-0.3,0.7-0.6,1.3-0.3c-0.8-2-0.9-4.2-1.5-5.7
				c-0.6,0.2-0.9,0-1.3-0.5c2.4-1.4-0.4-3.6,1-5.1c-0.3-1-1.7-0.9-2.1-1.8c0.9-3.1,6-0.4,3.9,2.1c1,3.5,2.5,8.4,0.8,11.6
				c1.1,1,0.2,2,0.2,3.6c-0.5,0.3-0.7,0.3-1.3,0.2C153,92.6,151.6,91.6,152.6,91z"/>
		</g>
		<g>
			<rect x="149.3" y="73.7" class="st0" width="5.5" height="19"/>
			<path class="st1" d="M152.6,90c-0.1-0.5-0.4,0.2-0.8,0c0.3-0.4,0.4-0.9,0.2-1.5c0.4-0.3,0.7-0.6,1.3-0.3c-0.8-2-0.9-4.2-1.5-5.7
				c-0.6,0.2-0.9,0-1.3-0.5c2.4-1.4-0.4-3.6,1-5.1c-0.3-1-1.7-0.9-2.1-1.8c0.9-3.1,6-0.4,3.9,2.1c1,3.5,2.5,8.4,0.8,11.6
				c1.1,1,0.2,2,0.2,3.6c-0.5,0.3-0.7,0.3-1.3,0.2C153,91.7,151.6,90.7,152.6,90z"/>
		</g>
		<g>
			<rect x="149.3" y="72.8" class="st0" width="5.5" height="19"/>
			<path class="st1" d="M152.6,89.1c-0.1-0.5-0.4,0.2-0.8,0c0.3-0.4,0.4-0.9,0.2-1.5c0.4-0.3,0.7-0.6,1.3-0.3
				c-0.8-2-0.9-4.2-1.5-5.7c-0.6,0.2-0.9,0-1.3-0.5c2.4-1.4-0.4-3.6,1-5.1c-0.3-1-1.7-0.9-2.1-1.8c0.9-3.1,6-0.4,3.9,2.1
				c1,3.5,2.5,8.4,0.8,11.6c1.1,1,0.2,2,0.2,3.6c-0.5,0.3-0.7,0.3-1.3,0.2C153,90.7,151.6,89.7,152.6,89.1z"/>
		</g>
		<g>
			<rect x="149.3" y="71.8" class="st0" width="5.5" height="19"/>
			<path class="st1" d="M152.6,88.1c-0.1-0.5-0.4,0.2-0.8,0c0.3-0.4,0.4-0.9,0.2-1.5c0.4-0.3,0.7-0.6,1.3-0.3
				c-0.8-2-0.9-4.2-1.5-5.7c-0.6,0.2-0.9,0-1.3-0.5c2.4-1.4-0.4-3.6,1-5.1c-0.3-1-1.7-0.9-2.1-1.8c0.9-3.1,6-0.4,3.9,2.1
				c1,3.5,2.5,8.4,0.8,11.6c1.1,1,0.2,2,0.2,3.6c-0.5,0.3-0.7,0.3-1.3,0.2C153,89.8,151.6,88.8,152.6,88.1z"/>
		</g>
		<g>
			<rect x="149.3" y="70.9" class="st0" width="5.5" height="19"/>
			<path class="st1" d="M152.6,87.2c-0.1-0.5-0.4,0.2-0.8,0c0.3-0.4,0.4-0.9,0.2-1.5c0.4-0.3,0.7-0.6,1.3-0.3
				c-0.8-2-0.9-4.2-1.5-5.7c-0.6,0.2-0.9,0-1.3-0.5c2.4-1.4-0.4-3.6,1-5.1c-0.3-1-1.7-0.9-2.1-1.8c0.9-3.1,6-0.4,3.9,2.1
				c1,3.5,2.5,8.4,0.8,11.6c1.1,1,0.2,2,0.2,3.6c-0.5,0.3-0.7,0.3-1.3,0.2C153,88.8,151.6,87.8,152.6,87.2z"/>
		</g>
		<g>
			<rect x="149.3" y="69.9" class="st0" width="5.5" height="19"/>
			<path class="st1" d="M152.6,86.2c-0.1-0.5-0.4,0.2-0.8,0c0.3-0.4,0.4-0.9,0.2-1.5c0.4-0.3,0.7-0.6,1.3-0.3
				c-0.8-2-0.9-4.2-1.5-5.7c-0.6,0.2-0.9,0-1.3-0.5c2.4-1.4-0.4-3.6,1-5.1c-0.3-1-1.7-0.9-2.1-1.8c0.9-3.1,6-0.4,3.9,2.1
				c1,3.5,2.5,8.4,0.8,11.6c1.1,1,0.2,2,0.2,3.6c-0.5,0.3-0.7,0.3-1.3,0.2C153,87.9,151.6,86.9,152.6,86.2z"/>
		</g>
		<g>
			<rect x="149.3" y="69" class="st0" width="5.5" height="19"/>
			<path class="st1" d="M152.6,85.3c-0.1-0.5-0.4,0.2-0.8,0c0.3-0.4,0.4-0.9,0.2-1.5c0.4-0.3,0.7-0.6,1.3-0.3
				c-0.8-2-0.9-4.2-1.5-5.7c-0.6,0.2-0.9,0-1.3-0.5c2.4-1.4-0.4-3.6,1-5.1c-0.3-1-1.7-0.9-2.1-1.8c0.9-3.1,6-0.4,3.9,2.1
				c1,3.5,2.5,8.4,0.8,11.6c1.1,1,0.2,2,0.2,3.6c-0.5,0.3-0.7,0.3-1.3,0.2C153,86.9,151.6,85.9,152.6,85.3z"/>
		</g>
		<g>
			<rect x="149.3" y="68" class="st0" width="5.5" height="19"/>
			<path class="st1" d="M152.6,84.3c-0.1-0.5-0.4,0.2-0.8,0c0.3-0.4,0.4-0.9,0.2-1.5c0.4-0.3,0.7-0.6,1.3-0.3
				c-0.8-2-0.9-4.2-1.5-5.7c-0.6,0.2-0.9,0-1.3-0.5c2.4-1.4-0.4-3.6,1-5.1c-0.3-1-1.7-0.9-2.1-1.8c0.9-3.1,6-0.4,3.9,2.1
				c1,3.5,2.5,8.4,0.8,11.6c1.1,1,0.2,2,0.2,3.6c-0.5,0.3-0.7,0.3-1.3,0.2C153,86,151.6,85,152.6,84.3z"/>
		</g>
		<g>
			<rect x="149.3" y="67.1" class="st0" width="5.5" height="19"/>
			<path class="st1" d="M152.6,83.4c-0.1-0.5-0.4,0.2-0.8,0c0.3-0.4,0.4-0.9,0.2-1.5c0.4-0.3,0.7-0.6,1.3-0.3
				c-0.8-2-0.9-4.2-1.5-5.7c-0.6,0.2-0.9,0-1.3-0.5c2.4-1.4-0.4-3.6,1-5.1c-0.3-1-1.7-0.9-2.1-1.8c0.9-3.1,6-0.4,3.9,2.1
				c1,3.5,2.5,8.4,0.8,11.6c1.1,1,0.2,2,0.2,3.6c-0.5,0.3-0.7,0.3-1.3,0.2C153,85,151.6,84,152.6,83.4z"/>
		</g>
		<g>
			<rect x="149.3" y="66.1" class="st0" width="5.5" height="19"/>
			<path class="st1" d="M152.6,82.4c-0.1-0.5-0.4,0.2-0.8,0c0.3-0.4,0.4-0.9,0.2-1.5c0.4-0.3,0.7-0.6,1.3-0.3
				c-0.8-2-0.9-4.2-1.5-5.7c-0.6,0.2-0.9,0-1.3-0.5c2.4-1.4-0.4-3.6,1-5.1c-0.3-1-1.7-0.9-2.1-1.8c0.9-3.1,6-0.4,3.9,2.1
				c1,3.5,2.5,8.4,0.8,11.6c1.1,1,0.2,2,0.2,3.6c-0.5,0.3-0.7,0.3-1.3,0.2C153,84.1,151.6,83.1,152.6,82.4z"/>
		</g>
		<g>
			<rect x="149.3" y="65.2" class="st0" width="5.5" height="19"/>
			<path class="st1" d="M152.6,81.5c-0.1-0.5-0.4,0.2-0.8,0c0.3-0.4,0.4-0.9,0.2-1.5c0.4-0.3,0.7-0.6,1.3-0.3
				c-0.8-2-0.9-4.2-1.5-5.7c-0.6,0.2-0.9,0-1.3-0.5c2.4-1.4-0.4-3.6,1-5.1c-0.3-1-1.7-0.9-2.1-1.8c0.9-3.1,6-0.4,3.9,2.1
				c1,3.5,2.5,8.4,0.8,11.6c1.1,1,0.2,2,0.2,3.6c-0.5,0.3-0.7,0.3-1.3,0.2C153,83.1,151.6,82.1,152.6,81.5z"/>
		</g>
		<g>
			<rect x="149.3" y="64.2" class="st0" width="5.5" height="19"/>
			<path class="st1" d="M152.6,80.5c-0.1-0.5-0.4,0.2-0.8,0c0.3-0.4,0.4-0.9,0.2-1.5c0.4-0.3,0.7-0.6,1.3-0.3
				c-0.8-2-0.9-4.2-1.5-5.7c-0.6,0.2-0.9,0-1.3-0.5c2.4-1.4-0.4-3.6,1-5.1c-0.3-1-1.7-0.9-2.1-1.8c0.9-3.1,6-0.4,3.9,2.1
				c1,3.5,2.5,8.4,0.8,11.6c1.1,1,0.2,2,0.2,3.6c-0.5,0.3-0.7,0.3-1.3,0.2C153,82.2,151.6,81.2,152.6,80.5z"/>
		</g>
		<g>
			<rect x="149.3" y="63.3" class="st0" width="5.5" height="19"/>
			<path class="st1" d="M152.6,79.6c-0.1-0.5-0.4,0.2-0.8,0c0.3-0.4,0.4-0.9,0.2-1.5c0.4-0.3,0.7-0.6,1.3-0.3
				c-0.8-2-0.9-4.2-1.5-5.7c-0.6,0.2-0.9,0-1.3-0.5c2.4-1.4-0.4-3.6,1-5.1c-0.3-1-1.7-0.9-2.1-1.8c0.9-3.1,6-0.4,3.9,2.1
				c1,3.5,2.5,8.4,0.8,11.6c1.1,1,0.2,2,0.2,3.6c-0.5,0.3-0.7,0.3-1.3,0.2C153,81.2,151.6,80.2,152.6,79.6z"/>
		</g>
		<g>
			<rect x="149.3" y="62.3" class="st0" width="5.5" height="19"/>
			<path class="st1" d="M152.6,78.6c-0.1-0.5-0.4,0.2-0.8,0c0.3-0.4,0.4-0.9,0.2-1.5c0.4-0.3,0.7-0.6,1.3-0.3
				c-0.8-2-0.9-4.2-1.5-5.7c-0.6,0.2-0.9,0-1.3-0.5c2.4-1.4-0.4-3.6,1-5.1c-0.3-1-1.7-0.9-2.1-1.8c0.9-3.1,6-0.4,3.9,2.1
				c1,3.5,2.5,8.4,0.8,11.6c1.1,1,0.2,2,0.2,3.6c-0.5,0.3-0.7,0.3-1.3,0.2C153,80.3,151.6,79.3,152.6,78.6z"/>
		</g>
		<g>
			<rect x="149.3" y="61.4" class="st0" width="5.5" height="19"/>
			<path class="st1" d="M152.6,77.7c-0.1-0.5-0.4,0.2-0.8,0c0.3-0.4,0.4-0.9,0.2-1.5c0.4-0.3,0.7-0.6,1.3-0.3
				c-0.8-2-0.9-4.2-1.5-5.7c-0.6,0.2-0.9,0-1.3-0.5c2.4-1.4-0.4-3.6,1-5.1c-0.3-1-1.7-0.9-2.1-1.8c0.9-3.1,6-0.4,3.9,2.1
				c1,3.5,2.5,8.4,0.8,11.6c1.1,1,0.2,2,0.2,3.6c-0.5,0.3-0.7,0.3-1.3,0.2C153,79.3,151.6,78.3,152.6,77.7z"/>
		</g>
		<g>
			<rect x="149.3" y="60.4" class="st0" width="5.5" height="19"/>
			<path class="st1" d="M152.6,76.7c-0.1-0.5-0.4,0.2-0.8,0c0.3-0.4,0.4-0.9,0.2-1.5c0.4-0.3,0.7-0.6,1.3-0.3
				c-0.8-2-0.9-4.2-1.5-5.7c-0.6,0.2-0.9,0-1.3-0.5c2.4-1.4-0.4-3.6,1-5.1c-0.3-1-1.7-0.9-2.1-1.8c0.9-3.1,6-0.4,3.9,2.1
				c1,3.5,2.5,8.4,0.8,11.6c1.1,1,0.2,2,0.2,3.6c-0.5,0.3-0.7,0.3-1.3,0.2C153,78.4,151.6,77.4,152.6,76.7z"/>
		</g>
		<g>
			<rect x="149.3" y="59.5" class="st0" width="5.5" height="19"/>
			<path class="st1" d="M152.6,75.8c-0.1-0.5-0.4,0.2-0.8,0c0.3-0.4,0.4-0.9,0.2-1.5c0.4-0.3,0.7-0.6,1.3-0.3
				c-0.8-2-0.9-4.2-1.5-5.7c-0.6,0.2-0.9,0-1.3-0.5c2.4-1.4-0.4-3.6,1-5.1c-0.3-1-1.7-0.9-2.1-1.8c0.9-3.1,6-0.4,3.9,2.1
				c1,3.5,2.5,8.4,0.8,11.6c1.1,1,0.2,2,0.2,3.6c-0.5,0.3-0.7,0.3-1.3,0.2C153,77.4,151.6,76.4,152.6,75.8z"/>
		</g>
		<g>
			<rect x="149.3" y="58.5" class="st0" width="5.5" height="19"/>
			<path class="st1" d="M152.6,74.8c-0.1-0.5-0.4,0.2-0.8,0c0.3-0.4,0.4-0.9,0.2-1.5c0.4-0.3,0.7-0.6,1.3-0.3
				c-0.8-2-0.9-4.2-1.5-5.7c-0.6,0.2-0.9,0-1.3-0.5c2.4-1.4-0.4-3.6,1-5.1c-0.3-1-1.7-0.9-2.1-1.8c0.9-3.1,6-0.4,3.9,2.1
				c1,3.5,2.5,8.4,0.8,11.6c1.1,1,0.2,2,0.2,3.6c-0.5,0.3-0.7,0.3-1.3,0.2C153,76.5,151.6,75.5,152.6,74.8z"/>
		</g>
		<g>
			<rect x="149.3" y="57.6" class="st0" width="5.5" height="19"/>
			<path class="st1" d="M152.6,73.9c-0.1-0.5-0.4,0.2-0.8,0c0.3-0.4,0.4-0.9,0.2-1.5c0.4-0.3,0.7-0.6,1.3-0.3
				c-0.8-2-0.9-4.2-1.5-5.7c-0.6,0.2-0.9,0-1.3-0.5c2.4-1.4-0.4-3.6,1-5.1c-0.3-1-1.7-0.9-2.1-1.8c0.9-3.1,6-0.4,3.9,2.1
				c1,3.5,2.5,8.4,0.8,11.6c1.1,1,0.2,2,0.2,3.6c-0.5,0.3-0.7,0.3-1.3,0.2C153,75.5,151.6,74.5,152.6,73.9z"/>
		</g>
		<g>
			<rect x="149.3" y="56.6" class="st0" width="5.5" height="19"/>
			<path class="st1" d="M152.6,72.9c-0.1-0.5-0.4,0.2-0.8,0c0.3-0.4,0.4-0.9,0.2-1.5c0.4-0.3,0.7-0.6,1.3-0.3
				c-0.8-2-0.9-4.2-1.5-5.7c-0.6,0.2-0.9,0-1.3-0.5c2.4-1.4-0.4-3.6,1-5.1c-0.3-1-1.7-0.9-2.1-1.8c0.9-3.1,6-0.4,3.9,2.1
				c1,3.5,2.5,8.4,0.8,11.6c1.1,1,0.2,2,0.2,3.6c-0.5,0.3-0.7,0.3-1.3,0.2C153,74.6,151.6,73.6,152.6,72.9z"/>
		</g>
		<g>
			<rect x="149.3" y="55.7" class="st0" width="5.5" height="19"/>
			<path class="st1" d="M152.6,72c-0.1-0.5-0.4,0.2-0.8,0c0.3-0.4,0.4-0.9,0.2-1.5c0.4-0.3,0.7-0.6,1.3-0.3c-0.8-2-0.9-4.2-1.5-5.7
				c-0.6,0.2-0.9,0-1.3-0.5c2.4-1.4-0.4-3.6,1-5.1c-0.3-1-1.7-0.9-2.1-1.8c0.9-3.1,6-0.4,3.9,2.1c1,3.5,2.5,8.4,0.8,11.6
				c1.1,1,0.2,2,0.2,3.6c-0.5,0.3-0.7,0.3-1.3,0.2C153,73.6,151.6,72.6,152.6,72z"/>
		</g>
		<g>
			<rect x="149.3" y="54.8" class="st0" width="5.5" height="19"/>
			<path class="st1" d="M152.6,71c-0.1-0.5-0.4,0.2-0.8,0c0.3-0.4,0.4-0.9,0.2-1.5c0.4-0.3,0.7-0.6,1.3-0.3c-0.8-2-0.9-4.2-1.5-5.7
				c-0.6,0.2-0.9,0-1.3-0.5c2.4-1.4-0.4-3.6,1-5.1c-0.3-1-1.7-0.9-2.1-1.8c0.9-3.1,6-0.4,3.9,2.1c1,3.5,2.5,8.4,0.8,11.6
				c1.1,1,0.2,2,0.2,3.6c-0.5,0.3-0.7,0.3-1.3,0.2C153,72.7,151.6,71.7,152.6,71z"/>
		</g>
		<g>
			<rect x="149.3" y="53.8" class="st0" width="5.5" height="19"/>
			<path class="st1" d="M152.6,70.1c-0.1-0.5-0.4,0.2-0.8,0c0.3-0.4,0.4-0.9,0.2-1.5c0.4-0.3,0.7-0.6,1.3-0.3
				c-0.8-2-0.9-4.2-1.5-5.7c-0.6,0.2-0.9,0-1.3-0.5c2.4-1.4-0.4-3.6,1-5.1c-0.3-1-1.7-0.9-2.1-1.8c0.9-3.1,6-0.4,3.9,2.1
				c1,3.5,2.5,8.4,0.8,11.6c1.1,1,0.2,2,0.2,3.6c-0.5,0.3-0.7,0.3-1.3,0.2C153,71.7,151.6,70.7,152.6,70.1z"/>
		</g>
		<g>
			<rect x="149.3" y="52.9" class="st0" width="5.5" height="19"/>
			<path class="st1" d="M152.6,69.1c-0.1-0.5-0.4,0.2-0.8,0c0.3-0.4,0.4-0.9,0.2-1.5c0.4-0.3,0.7-0.6,1.3-0.3
				c-0.8-2-0.9-4.2-1.5-5.7c-0.6,0.2-0.9,0-1.3-0.5c2.4-1.4-0.4-3.6,1-5.1c-0.3-1-1.7-0.9-2.1-1.8c0.9-3.1,6-0.4,3.9,2.1
				c1,3.5,2.5,8.4,0.8,11.6c1.1,1,0.2,2,0.2,3.6c-0.5,0.3-0.7,0.3-1.3,0.2C153,70.8,151.6,69.8,152.6,69.1z"/>
		</g>
		<g>
			<rect x="149.3" y="51.9" class="st0" width="5.5" height="19"/>
			<path class="st1" d="M152.6,68.2c-0.1-0.5-0.4,0.2-0.8,0c0.3-0.4,0.4-0.9,0.2-1.5c0.4-0.3,0.7-0.6,1.3-0.3
				c-0.8-2-0.9-4.2-1.5-5.7c-0.6,0.2-0.9,0-1.3-0.5c2.4-1.4-0.4-3.6,1-5.1c-0.3-1-1.7-0.9-2.1-1.8c0.9-3.1,6-0.4,3.9,2.1
				c1,3.5,2.5,8.4,0.8,11.6c1.1,1,0.2,2,0.2,3.6c-0.5,0.3-0.7,0.3-1.3,0.2C153,69.8,151.6,68.8,152.6,68.2z"/>
		</g>
		<g>
			<rect x="149.3" y="51" class="st0" width="5.5" height="19"/>
			<path class="st1" d="M152.6,67.2c-0.1-0.5-0.4,0.2-0.8,0c0.3-0.4,0.4-0.9,0.2-1.5c0.4-0.3,0.7-0.6,1.3-0.3
				c-0.8-2-0.9-4.2-1.5-5.7c-0.6,0.2-0.9,0-1.3-0.5c2.4-1.4-0.4-3.6,1-5.1c-0.3-1-1.7-0.9-2.1-1.8c0.9-3.1,6-0.4,3.9,2.1
				c1,3.5,2.5,8.4,0.8,11.6c1.1,1,0.2,2,0.2,3.6c-0.5,0.3-0.7,0.3-1.3,0.2C153,68.9,151.6,67.9,152.6,67.2z"/>
		</g>
		<g>
			<rect x="149.3" y="50" class="st0" width="5.5" height="19"/>
			<path class="st1" d="M152.6,66.3c-0.1-0.5-0.4,0.2-0.8,0c0.3-0.4,0.4-0.9,0.2-1.5c0.4-0.3,0.7-0.6,1.3-0.3
				c-0.8-2-0.9-4.2-1.5-5.7c-0.6,0.2-0.9,0-1.3-0.5c2.4-1.4-0.4-3.6,1-5.1c-0.3-1-1.7-0.9-2.1-1.8c0.9-3.1,6-0.4,3.9,2.1
				c1,3.5,2.5,8.4,0.8,11.6c1.1,1,0.2,2,0.2,3.6c-0.5,0.3-0.7,0.3-1.3,0.2C153,67.9,151.6,66.9,152.6,66.3z"/>
		</g>
	</g>
</g>
<g>
	<g>
		<g>
			<g>
				<g class="st2">
					<g>
						<path class="st3" d="M199.2,98.7c-0.4,0.5-0.8,0.9-1.2,1.4c0.2-0.2,0.5-0.4,0.8-0.5C199.2,99.4,199.1,99.1,199.2,98.7z"/>
						<path class="st3" d="M196.9,101.4c-0.1,0.1-0.1,0.2-0.2,0.2c0,0.1-0.1,0.2-0.1,0.3C196.7,101.7,196.8,101.5,196.9,101.4z"/>
						<path class="st3" d="M195.2,104c0.4-0.4,0.7-0.8,1-1.3C195.8,103,195.5,103.4,195.2,104z"/>
						<path class="st3" d="M196.9,102.2c-0.2,0.1-0.4,0-0.3-0.3c0,0,0,0,0,0c-0.2,0.3-0.3,0.5-0.5,0.8
							C196.4,102.5,196.6,102.3,196.9,102.2z"/>
						<path class="st3" d="M196.9,102.2c0.2-0.1,0.5-0.2,0.6-0.2C197.3,102,197.1,102.1,196.9,102.2z"/>
						<path class="st3" d="M199.1,104.9c-0.1,0.3-0.8-0.3-1,0.3c-0.7,1.3-1.2,2.6-2,3.6c-0.2,0.6-1.7,0.7-1.9,1.3
							c-0.7,1.3-2,5-0.7,3.3c2-2.7,3.1-4.5,4.8-7c1.2-2.1,2.3-4.2,3.6-6.4c0.4-0.6,0.9-1,1.3-1.5c-0.6,0.6-1.3,1.2-2,1.8
							C200.1,101.2,200.1,103.2,199.1,104.9z"/>
						<path class="st3" d="M207.9,88.8c-0.1,0.3-0.3,0.9-0.3,0.9c-1.4,0.7-2.1,2-2.8,3.3c0.3-0.1,0.5-0.1,0.8-0.2
							c0.5-0.7,0.3-0.9-0.3-0.5c1.5-1,2.6-2.2,3.6-3.5C208.5,88.7,208.3,88.5,207.9,88.8z"/>
						<path class="st3" d="M209.3,88c-0.2,0.3-0.4,0.5-0.5,0.8c0,0,0.1,0,0.1,0C209,88.5,209.2,88.3,209.3,88
							C209.4,88,209.3,88,209.3,88z"/>
						<path class="st3" d="M191.7,109.7c-2.6,3.3-5.1,6.3-7.5,9.2c0,0.3,0,0.6-0.3,0.9c-0.3,0.1-0.6,0.3-0.8,0.5
							c-0.4,0.4-0.7,0.8-1.1,1.3c-0.1,0.2-0.2,0.3-0.3,0.5c0,0,0,0,0,0c-0.1,0.3,0.1,0.3,0.3,0.3c0.2-0.1,0.4-0.2,0.6-0.2
							c-0.1,0-0.4,0.2-0.6,0.2c-0.3,0.1-0.5,0.3-0.8,0.5c-0.3,0.4-0.6,0.9-1,1.3c0.3-0.5,0.6-1,1-1.3c0.2-0.3,0.3-0.5,0.5-0.8
							c0-0.1,0.1-0.2,0.1-0.3c-0.8,1-1.7,1.9-2.5,2.9c-0.2,0.2-0.3,0.5-0.4,0.7c-0.5,0.8-0.9,1.6-1.7,1.7c-0.1,0.2-0.3,0.3-0.4,0.5
							c0,0,0.1,0,0.1,0c-0.1,0.1-0.2,0.1-0.2,0.1c-0.6,0.7-1.3,1.4-1.9,2.2c-0.2,0.6-0.5,1.2-0.8,1.8c0,0-0.5,0.1-0.8,0.2
							c0,0.4-0.1,0.7-0.3,1.1c0.5-0.2,1.1-0.4,1.5-0.6c0.8-0.2,0.2-1.7,1.3-1.8c-1.2,0-0.6,1.6-1.3,1.8c-0.4,0.2-1,0.4-1.5,0.6
							c-0.4,0.8-1.3,1.6-2.3,2.1c0.4-1.2,1.3-1.7,2.3-2.1c0.2-0.4,0.3-0.8,0.3-1.1c0.3-0.1,0.8-0.2,0.8-0.2c0.3-0.6,0.5-1.2,0.8-1.8
							c-1.2,1.4-2.5,2.8-3.8,4.3c-8.3,9.4-15.4,18.4-23.9,28.2c-4.6,5.3-9.2,10.3-13.7,15.1c-9.1,9.6-15.7,19.8-25.9,28.6
							c-3.9,3.5-9.5,11.1-12.5,15c-2.9,6.1,2.5,6.1,2.8,6c5.3-1,5.8-4.7,12.5-9.8c-4.4,3.7,0.8-4.7,6.1-7.3
							c7.7-3.7,12.3-14.1,19-20.9c1.7-1.7,3.1-3.8,5-5.9c10.2-10.7,17.6-22.3,27.5-34.2c2.6-3.2,4.1-6.6,5.9-9.6
							c1.5-2.1,3.5-3.9,4.8-5.5c2-2.5,3.5-4.9,4.8-7.2c-1.7,2.4-2.9,4.3-4.8,7c-1.3,1.8,0-2,0.7-3.3c0.2-0.6,1.7-0.7,1.9-1.3
							c0.9-1.1,1.3-2.3,2-3.6c0.2-0.6,0.9,0,1-0.3c1.1-1.7,1.1-3.7,2.1-4.5c0.7-0.7,1.4-1.3,2-1.8c0.4-0.4,0.7-0.8,1.1-1.2
							c0.2-0.3,0.3-0.7,0.5-1c-0.4,0-0.8-0.1-1.1-0.3c0.4-0.4,1-0.8,1.4-1.2c-0.4,0.4-1,0.8-1.4,1.2c0.3,0.2,0.7,0.3,1.1,0.3
							c1.2-2.4,2.7-5.1,4.1-7.5c0,0-0.1,0-0.1,0c-1,1.3-2,2.5-3.6,3.5c0.6-0.4,0.8-0.2,0.3,0.5c-0.3,0.1-0.5,0.1-0.8,0.2
							c0.7-1.3,1.4-2.6,2.8-3.3c0,0,0.2-0.6,0.3-0.9c0.4-0.3,0.6-0.1,0.9,0c0.2-0.3,0.4-0.5,0.5-0.8
							C193.5,108.4,191.7,109.7,191.7,109.7z"/>
						<path class="st3" d="M181.1,122.8c0.1-0.2,0.3-0.4,0.4-0.7c-0.7,0.8-1.4,1.6-2.1,2.4C180.1,124.4,180.6,123.6,181.1,122.8z"/>
					</g>
				</g>
			</g>
		</g>
	</g>
</g>
<g>
	<g>
		<g>
			<g>
				<g class="st4">
					<path class="st3" d="M104.6,78.4c1.2,5.3,10.4,19.9,13.9,26.7c1.4,2.5,2.5,4.5,3.2,6c0.6,1.3-1-1.6-3.2-6
						c-1.1-1.9-2.4-4.2-3.9-6.8c1.4,3.6,2.8,7.1,3.7,9.7c1,1.6,2,3.3,3,5c4.5,7.5,9,14.6,13.3,22.1c1.5,2.7,5.2,8.5,6.5,11.2
						L120.9,114c0.2,0.3,0.3,0.6,0.4,0.9l10.2,17.2c0.6,1,1.2,1.9,1.8,3l-1.8-3c-1.6-2.5-3.3-4.8-5.1-7.5c-1-1.7-2-3.8-3.1-5.5
						c-0.8-1.4-1.4-2.8-2-4.3l-1.5-2.6c-0.2-0.2-0.4-0.5-0.6-0.7c0,0,0,0,0,0c0,2.9,11.9,25.2,14.4,28.5c2,2.7,4.7,4.5,6.8,7.6
						c0.7,1,1,2.1,1.8,2.7c0.2,0,0.6,0.3,1,0.6c1.4,2,2.1,4.5,3.7,5.8c0.9,1,0.3,5.8,0.9,5.7c2.3-0.3,0.6-0.1,2.2,2.7
						c0.2,0.3,1.6,0.9,1.9,1.6c0.9,2.4,2,2.7,3.8,5c2.9,3.3,2.3,4.8,5.6,7.4c0.4,0.3,4.4,4.9,4.4,4.9c2.4,4.1,4.9,6,5.7,9.9
						c3.4,2.9,5.2,8.5,7.9,12.2c2.7,3.7,2.8,5.9,4.2,9.7c0.5,1,1,1.7,1.2,2.4c0.1,0.7,1.7,1.6,2.2,2.7c-0.2,0-0.4,0.1-0.6,0.1
						c0.2,0.3,0.5,1,0.7,1.4c0.2,0.3,0,0.4-0.3,0.4c-0.4,0.1-0.9,0.1-0.7,0.8c0.6,1.5,1.3,3,2,4.5c1.1,1.2,2.3,2.4,3.5,3.5
						c0.3-0.1,0.6-0.1,0.9,0c0.4,0.3,0.8,0.6,1.1,1c0.6-0.1,1.1-0.5,1.5-0.5c1.4-0.9,3.8-0.1,4.8-1.3c0.3-0.4-1.1-2.8-1.1-4.2
						c0-0.4,0.9-0.1,1.5-0.2c-0.9-1.4-0.4-1.8,0.4-1.5c-0.2-0.3-0.3-0.7-0.3-0.7c0.2,0,0.9-0.1,0.9-0.1c-1.6-3.8-2.9-8.4-5.7-11.4
						c-0.5-0.7-1.7-1.6-2.4-2.3c-0.4-0.3-0.7-1.4-0.8-1.7c-0.8-0.3-1.3,0.2-1.9,0.2c-1.1-2.8-3.7-8.7-5.3-7.4
						c-1.2-2-2.3-1.9-3.7-3.9c-1.9-2.7-4.3-6.1-6.5-9.5c-1.3-1.8-2.5-3.6-3.6-5.4c-0.4-0.7-0.9-1.3-1.3-2c-9-13.5-14.1-24.4-24-36.9
						c-20-25.1-35-57.2-38.9-64L104.6,78.4z"/>
				</g>
			</g>
		</g>
	</g>
</g>
<radialGradient id="SVGID_1_" cx="154.9352" cy="151.8818" r="52.717" gradientTransform="matrix(0.9043 0 0 1 13.1238 0)" gradientUnits="userSpaceOnUse">
	<stop  offset="0" style="stop-color:#FFF9AE"/>
	<stop  offset="1" style="stop-color:#FFF9AE;stop-opacity:0"/>
</radialGradient>
<radialGradient id="SVGID_2_" cx="154.9352" cy="151.8818" r="52.9243" gradientTransform="matrix(0.9043 0 0 1 13.1238 0)" gradientUnits="userSpaceOnUse">
	<stop  offset="0" style="stop-color:#FFF9AE"/>
	<stop  offset="1" style="stop-color:#FFF9AE;stop-opacity:0"/>
</radialGradient>
<ellipse class="st5" cx="153.2" cy="151.9" rx="44" ry="56.4"/>
</svg>
