<?xml version="1.0" encoding="utf-8"?>
<!-- Generator: Adobe Illustrator 21.0.0, SVG Export Plug-In . SVG Version: 6.00 Build 0)  -->
<svg version="1.1" id="Layer_1" xmlns="http://www.w3.org/2000/svg" xmlns:xlink="http://www.w3.org/1999/xlink" x="0px" y="0px"
	 viewBox="0 0 288 288" style="enable-background:new 0 0 288 288;" xml:space="preserve">
<style type="text/css">
	.st0{fill:none;}
	.st1{fill-rule:evenodd;clip-rule:evenodd;fill:#FFFFFF;}
	.st2{opacity:0.85;}
	.st3{fill:#FFFFFF;}
	.st4{opacity:0.8;}
	.st5{opacity:0.78;fill:url(#SVGID_1_);stroke:url(#SVGID_2_);stroke-width:0.3363;stroke-miterlimit:10;}
</style>
<g>
	<g>
		<g>
			<rect x="154.5" y="83.1" class="st0" width="3.1" height="10.8"/>
			<path class="st1" d="M156.4,92.3c-0.1-0.3-0.2,0.1-0.5,0c0.2-0.2,0.2-0.5,0.1-0.8c0.2-0.2,0.4-0.4,0.7-0.2
				c-0.5-1.1-0.5-2.4-0.8-3.3c-0.3,0.1-0.5,0-0.7-0.3c1.3-0.8-0.2-2,0.6-2.9c-0.2-0.6-1-0.5-1.2-1c0.5-1.8,3.4-0.2,2.2,1.2
				c0.5,2,1.4,4.8,0.5,6.6c0.6,0.6,0.1,1.2,0.1,2c-0.3,0.2-0.4,0.2-0.7,0.1C156.6,93.3,155.8,92.7,156.4,92.3z"/>
		</g>
		<g>
			<rect x="154.5" y="83.6" class="st0" width="3.1" height="10.8"/>
			<path class="st1" d="M156.4,92.9c-0.1-0.3-0.2,0.1-0.5,0c0.2-0.2,0.2-0.5,0.1-0.8c0.2-0.2,0.4-0.4,0.7-0.2
				c-0.5-1.1-0.5-2.4-0.8-3.3c-0.3,0.1-0.5,0-0.7-0.3c1.3-0.8-0.2-2,0.6-2.9c-0.2-0.6-1-0.5-1.2-1c0.5-1.8,3.4-0.2,2.2,1.2
				c0.5,2,1.4,4.8,0.5,6.6c0.6,0.6,0.1,1.2,0.1,2c-0.3,0.2-0.4,0.2-0.7,0.1C156.6,93.8,155.8,93.3,156.4,92.9z"/>
		</g>
		<g>
			<rect x="154.5" y="84.2" class="st0" width="3.1" height="10.8"/>
			<path class="st1" d="M156.4,93.4c-0.1-0.3-0.2,0.1-0.5,0c0.2-0.2,0.2-0.5,0.1-0.8c0.2-0.2,0.4-0.4,0.7-0.2
				c-0.5-1.1-0.5-2.4-0.8-3.3c-0.3,0.1-0.5,0-0.7-0.3c1.3-0.8-0.2-2,0.6-2.9c-0.2-0.6-1-0.5-1.2-1c0.5-1.8,3.4-0.2,2.2,1.2
				c0.5,2,1.4,4.8,0.5,6.6c0.6,0.6,0.1,1.2,0.1,2c-0.3,0.2-0.4,0.2-0.7,0.1C156.6,94.4,155.8,93.8,156.4,93.4z"/>
		</g>
		<g>
			<rect x="154.5" y="84.7" class="st0" width="3.1" height="10.8"/>
			<path class="st1" d="M156.4,94c-0.1-0.3-0.2,0.1-0.5,0c0.2-0.2,0.2-0.5,0.1-0.8c0.2-0.2,0.4-0.4,0.7-0.2
				c-0.5-1.1-0.5-2.4-0.8-3.3c-0.3,0.1-0.5,0-0.7-0.3c1.3-0.8-0.2-2,0.6-2.9c-0.2-0.6-1-0.5-1.2-1c0.5-1.8,3.4-0.2,2.2,1.2
				c0.5,2,1.4,4.8,0.5,6.6c0.6,0.6,0.1,1.2,0.1,2c-0.3,0.2-0.4,0.2-0.7,0.1C156.6,94.9,155.8,94.3,156.4,94z"/>
		</g>
		<g>
			<rect x="154.5" y="85.2" class="st0" width="3.1" height="10.8"/>
			<path class="st1" d="M156.4,94.5c-0.1-0.3-0.2,0.1-0.5,0c0.2-0.2,0.2-0.5,0.1-0.8c0.2-0.2,0.4-0.4,0.7-0.2
				c-0.5-1.1-0.5-2.4-0.8-3.3c-0.3,0.1-0.5,0-0.7-0.3c1.3-0.8-0.2-2,0.6-2.9c-0.2-0.6-1-0.5-1.2-1c0.5-1.8,3.4-0.2,2.2,1.2
				c0.5,2,1.4,4.8,0.5,6.6c0.6,0.6,0.1,1.2,0.1,2c-0.3,0.2-0.4,0.2-0.7,0.1C156.6,95.4,155.8,94.9,156.4,94.5z"/>
		</g>
		<g>
			<rect x="154.5" y="85.8" class="st0" width="3.1" height="10.8"/>
			<path class="st1" d="M156.4,95c-0.1-0.3-0.2,0.1-0.5,0c0.2-0.2,0.2-0.5,0.1-0.8c0.2-0.2,0.4-0.4,0.7-0.2
				c-0.5-1.1-0.5-2.4-0.8-3.3c-0.3,0.1-0.5,0-0.7-0.3c1.3-0.8-0.2-2,0.6-2.9c-0.2-0.6-1-0.5-1.2-1c0.5-1.8,3.4-0.2,2.2,1.2
				c0.5,2,1.4,4.8,0.5,6.6c0.6,0.6,0.1,1.2,0.1,2c-0.3,0.2-0.4,0.2-0.7,0.1C156.6,96,155.8,95.4,156.4,95z"/>
		</g>
		<g>
			<rect x="154.5" y="86.3" class="st0" width="3.1" height="10.8"/>
			<path class="st1" d="M156.4,95.6c-0.1-0.3-0.2,0.1-0.5,0c0.2-0.2,0.2-0.5,0.1-0.8c0.2-0.2,0.4-0.4,0.7-0.2
				c-0.5-1.1-0.5-2.4-0.8-3.3c-0.3,0.1-0.5,0-0.7-0.3c1.3-0.8-0.2-2,0.6-2.9c-0.2-0.6-1-0.5-1.2-1c0.5-1.8,3.4-0.2,2.2,1.2
				c0.5,2,1.4,4.8,0.5,6.6c0.6,0.6,0.1,1.2,0.1,2c-0.3,0.2-0.4,0.2-0.7,0.1C156.6,96.5,155.8,96,156.4,95.6z"/>
		</g>
		<g>
			<rect x="154.5" y="86.9" class="st0" width="3.1" height="10.8"/>
			<path class="st1" d="M156.4,96.1c-0.1-0.3-0.2,0.1-0.5,0c0.2-0.2,0.2-0.5,0.1-0.8c0.2-0.2,0.4-0.4,0.7-0.2
				c-0.5-1.1-0.5-2.4-0.8-3.3c-0.3,0.1-0.5,0-0.7-0.3c1.3-0.8-0.2-2,0.6-2.9c-0.2-0.6-1-0.5-1.2-1c0.5-1.8,3.4-0.2,2.2,1.2
				c0.5,2,1.4,4.8,0.5,6.6c0.6,0.6,0.1,1.2,0.1,2c-0.3,0.2-0.4,0.2-0.7,0.1C156.6,97.1,155.8,96.5,156.4,96.1z"/>
		</g>
		<g>
			<rect x="154.5" y="87.4" class="st0" width="3.1" height="10.8"/>
			<path class="st1" d="M156.4,96.7c-0.1-0.3-0.2,0.1-0.5,0c0.2-0.2,0.2-0.5,0.1-0.8c0.2-0.2,0.4-0.4,0.7-0.2
				c-0.5-1.1-0.5-2.4-0.8-3.3c-0.3,0.1-0.5,0-0.7-0.3c1.3-0.8-0.2-2,0.6-2.9c-0.2-0.6-1-0.5-1.2-1c0.5-1.8,3.4-0.2,2.2,1.2
				c0.5,2,1.4,4.8,0.5,6.6c0.6,0.6,0.1,1.2,0.1,2c-0.3,0.2-0.4,0.2-0.7,0.1C156.6,97.6,155.8,97,156.4,96.7z"/>
		</g>
		<g>
			<rect x="154.5" y="87.9" class="st0" width="3.1" height="10.8"/>
			<path class="st1" d="M156.4,97.2c-0.1-0.3-0.2,0.1-0.5,0c0.2-0.2,0.2-0.5,0.1-0.8c0.2-0.2,0.4-0.4,0.7-0.2
				c-0.5-1.1-0.5-2.4-0.8-3.3c-0.3,0.1-0.5,0-0.7-0.3c1.3-0.8-0.2-2,0.6-2.9c-0.2-0.6-1-0.5-1.2-1c0.5-1.8,3.4-0.2,2.2,1.2
				c0.5,2,1.4,4.8,0.5,6.6c0.6,0.6,0.1,1.2,0.1,2c-0.3,0.2-0.4,0.2-0.7,0.1C156.6,98.1,155.8,97.6,156.4,97.2z"/>
		</g>
		<g>
			<rect x="154.5" y="88.5" class="st0" width="3.1" height="10.8"/>
			<path class="st1" d="M156.4,97.7c-0.1-0.3-0.2,0.1-0.5,0c0.2-0.2,0.2-0.5,0.1-0.8c0.2-0.2,0.4-0.4,0.7-0.2
				c-0.5-1.1-0.5-2.4-0.8-3.3c-0.3,0.1-0.5,0-0.7-0.3c1.3-0.8-0.2-2,0.6-2.9c-0.2-0.6-1-0.5-1.2-1c0.5-1.8,3.4-0.2,2.2,1.2
				c0.5,2,1.4,4.8,0.5,6.6c0.6,0.6,0.1,1.2,0.1,2c-0.3,0.2-0.4,0.2-0.7,0.1C156.6,98.7,155.8,98.1,156.4,97.7z"/>
		</g>
		<g>
			<rect x="154.5" y="89" class="st0" width="3.1" height="10.8"/>
			<path class="st1" d="M156.4,98.3c-0.1-0.3-0.2,0.1-0.5,0c0.2-0.2,0.2-0.5,0.1-0.8c0.2-0.2,0.4-0.4,0.7-0.2
				c-0.5-1.1-0.5-2.4-0.8-3.3c-0.3,0.1-0.5,0-0.7-0.3c1.3-0.8-0.2-2,0.6-2.9c-0.2-0.6-1-0.5-1.2-1c0.5-1.8,3.4-0.2,2.2,1.2
				c0.5,2,1.4,4.8,0.5,6.6c0.6,0.6,0.1,1.2,0.1,2c-0.3,0.2-0.4,0.2-0.7,0.1C156.6,99.2,155.8,98.7,156.4,98.3z"/>
		</g>
		<g>
			<rect x="154.5" y="89.6" class="st0" width="3.1" height="10.8"/>
			<path class="st1" d="M156.4,98.8c-0.1-0.3-0.2,0.1-0.5,0c0.2-0.2,0.2-0.5,0.1-0.8c0.2-0.2,0.4-0.4,0.7-0.2
				c-0.5-1.1-0.5-2.4-0.8-3.3c-0.3,0.1-0.5,0-0.7-0.3c1.3-0.8-0.2-2,0.6-2.9c-0.2-0.6-1-0.5-1.2-1c0.5-1.8,3.4-0.2,2.2,1.2
				c0.5,2,1.4,4.8,0.5,6.6c0.6,0.6,0.1,1.2,0.1,2c-0.3,0.2-0.4,0.2-0.7,0.1C156.6,99.8,155.8,99.2,156.4,98.8z"/>
		</g>
		<g>
			<rect x="154.5" y="90.1" class="st0" width="3.1" height="10.8"/>
			<path class="st1" d="M156.4,99.4c-0.1-0.3-0.2,0.1-0.5,0c0.2-0.2,0.2-0.5,0.1-0.8c0.2-0.2,0.4-0.4,0.7-0.2
				c-0.5-1.1-0.5-2.4-0.8-3.3c-0.3,0.1-0.5,0-0.7-0.3c1.3-0.8-0.2-2,0.6-2.9c-0.2-0.6-1-0.5-1.2-1c0.5-1.8,3.4-0.2,2.2,1.2
				c0.5,2,1.4,4.8,0.5,6.6c0.6,0.6,0.1,1.2,0.1,2c-0.3,0.2-0.4,0.2-0.7,0.1C156.6,100.3,155.8,99.7,156.4,99.4z"/>
		</g>
		<g>
			<rect x="154.5" y="90.6" class="st0" width="3.1" height="10.8"/>
			<path class="st1" d="M156.4,99.9c-0.1-0.3-0.2,0.1-0.5,0c0.2-0.2,0.2-0.5,0.1-0.8c0.2-0.2,0.4-0.4,0.7-0.2
				c-0.5-1.1-0.5-2.4-0.8-3.3c-0.3,0.1-0.5,0-0.7-0.3c1.3-0.8-0.2-2,0.6-2.9c-0.2-0.6-1-0.5-1.2-1c0.5-1.8,3.4-0.2,2.2,1.2
				c0.5,2,1.4,4.8,0.5,6.6c0.6,0.6,0.1,1.2,0.1,2c-0.3,0.2-0.4,0.2-0.7,0.1C156.6,100.8,155.8,100.3,156.4,99.9z"/>
		</g>
		<g>
			<rect x="154.5" y="91.2" class="st0" width="3.1" height="10.8"/>
			<path class="st1" d="M156.4,100.4c-0.1-0.3-0.2,0.1-0.5,0c0.2-0.2,0.2-0.5,0.1-0.8c0.2-0.2,0.4-0.4,0.7-0.2
				c-0.5-1.1-0.5-2.4-0.8-3.3c-0.3,0.1-0.5,0-0.7-0.3c1.3-0.8-0.2-2,0.6-2.9c-0.2-0.6-1-0.5-1.2-1c0.5-1.8,3.4-0.2,2.2,1.2
				c0.5,2,1.4,4.8,0.5,6.6c0.6,0.6,0.1,1.2,0.1,2c-0.3,0.2-0.4,0.2-0.7,0.1C156.6,101.4,155.8,100.8,156.4,100.4z"/>
		</g>
		<g>
			<rect x="154.5" y="91.7" class="st0" width="3.1" height="10.8"/>
			<path class="st1" d="M156.4,101c-0.1-0.3-0.2,0.1-0.5,0c0.2-0.2,0.2-0.5,0.1-0.8c0.2-0.2,0.4-0.4,0.7-0.2
				c-0.5-1.1-0.5-2.4-0.8-3.3c-0.3,0.1-0.5,0-0.7-0.3c1.3-0.8-0.2-2,0.6-2.9c-0.2-0.6-1-0.5-1.2-1c0.5-1.8,3.4-0.2,2.2,1.2
				c0.5,2,1.4,4.8,0.5,6.6c0.6,0.6,0.1,1.2,0.1,2c-0.3,0.2-0.4,0.2-0.7,0.1C156.6,101.9,155.8,101.3,156.4,101z"/>
		</g>
		<g>
			<rect x="154.5" y="92.3" class="st0" width="3.1" height="10.8"/>
			<path class="st1" d="M156.4,101.5c-0.1-0.3-0.2,0.1-0.5,0c0.2-0.2,0.2-0.5,0.1-0.8c0.2-0.2,0.4-0.4,0.7-0.2
				c-0.5-1.1-0.5-2.4-0.8-3.3c-0.3,0.1-0.5,0-0.7-0.3c1.3-0.8-0.2-2,0.6-2.9c-0.2-0.6-1-0.5-1.2-1c0.5-1.8,3.4-0.2,2.2,1.2
				c0.5,2,1.4,4.8,0.5,6.6c0.6,0.6,0.1,1.2,0.1,2c-0.3,0.2-0.4,0.2-0.7,0.1C156.6,102.5,155.8,101.9,156.4,101.5z"/>
		</g>
		<g>
			<rect x="154.5" y="92.8" class="st0" width="3.1" height="10.8"/>
			<path class="st1" d="M156.4,102.1c-0.1-0.3-0.2,0.1-0.5,0c0.2-0.2,0.2-0.5,0.1-0.8c0.2-0.2,0.4-0.4,0.7-0.2
				c-0.5-1.1-0.5-2.4-0.8-3.3c-0.3,0.1-0.5,0-0.7-0.3c1.3-0.8-0.2-2,0.6-2.9c-0.2-0.6-1-0.5-1.2-1c0.5-1.8,3.4-0.2,2.2,1.2
				c0.5,2,1.4,4.8,0.5,6.6c0.6,0.6,0.1,1.2,0.1,2c-0.3,0.2-0.4,0.2-0.7,0.1C156.6,103,155.8,102.4,156.4,102.1z"/>
		</g>
		<g>
			<rect x="154.5" y="93.3" class="st0" width="3.1" height="10.8"/>
			<path class="st1" d="M156.4,102.6c-0.1-0.3-0.2,0.1-0.5,0c0.2-0.2,0.2-0.5,0.1-0.8c0.2-0.2,0.4-0.4,0.7-0.2
				c-0.5-1.1-0.5-2.4-0.8-3.3c-0.3,0.1-0.5,0-0.7-0.3c1.3-0.8-0.2-2,0.6-2.9c-0.2-0.6-1-0.5-1.2-1c0.5-1.8,3.4-0.2,2.2,1.2
				c0.5,2,1.4,4.8,0.5,6.6c0.6,0.6,0.1,1.2,0.1,2c-0.3,0.2-0.4,0.2-0.7,0.1C156.6,103.5,155.8,103,156.4,102.6z"/>
		</g>
		<g>
			<rect x="154.5" y="93.9" class="st0" width="3.1" height="10.8"/>
			<path class="st1" d="M156.4,103.1c-0.1-0.3-0.2,0.1-0.5,0c0.2-0.2,0.2-0.5,0.1-0.8c0.2-0.2,0.4-0.4,0.7-0.2
				c-0.5-1.1-0.5-2.4-0.8-3.3c-0.3,0.1-0.5,0-0.7-0.3c1.3-0.8-0.2-2,0.6-2.9c-0.2-0.6-1-0.5-1.2-1c0.5-1.8,3.4-0.2,2.2,1.2
				c0.5,2,1.4,4.8,0.5,6.6c0.6,0.6,0.1,1.2,0.1,2c-0.3,0.2-0.4,0.2-0.7,0.1C156.6,104.1,155.8,103.5,156.4,103.1z"/>
		</g>
		<g>
			<rect x="154.5" y="94.4" class="st0" width="3.1" height="10.8"/>
			<path class="st1" d="M156.4,103.7c-0.1-0.3-0.2,0.1-0.5,0c0.2-0.2,0.2-0.5,0.1-0.8c0.2-0.2,0.4-0.4,0.7-0.2
				c-0.5-1.1-0.5-2.4-0.8-3.3c-0.3,0.1-0.5,0-0.7-0.3c1.3-0.8-0.2-2,0.6-2.9c-0.2-0.6-1-0.5-1.2-1c0.5-1.8,3.4-0.2,2.2,1.2
				c0.5,2,1.4,4.8,0.5,6.6c0.6,0.6,0.1,1.2,0.1,2c-0.3,0.2-0.4,0.2-0.7,0.1C156.6,104.6,155.8,104,156.4,103.7z"/>
		</g>
		<g>
			<rect x="154.5" y="95" class="st0" width="3.1" height="10.8"/>
			<path class="st1" d="M156.4,104.2c-0.1-0.3-0.2,0.1-0.5,0c0.2-0.2,0.2-0.5,0.1-0.8c0.2-0.2,0.4-0.4,0.7-0.2
				c-0.5-1.1-0.5-2.4-0.8-3.3c-0.3,0.1-0.5,0-0.7-0.3c1.3-0.8-0.2-2,0.6-2.9c-0.2-0.6-1-0.5-1.2-1c0.5-1.8,3.4-0.2,2.2,1.2
				c0.5,2,1.4,4.8,0.5,6.6c0.6,0.6,0.1,1.2,0.1,2c-0.3,0.2-0.4,0.2-0.7,0.1C156.6,105.2,155.8,104.6,156.4,104.2z"/>
		</g>
		<g>
			<rect x="154.5" y="95.5" class="st0" width="3.1" height="10.8"/>
			<path class="st1" d="M156.4,104.7c-0.1-0.3-0.2,0.1-0.5,0c0.2-0.2,0.2-0.5,0.1-0.8c0.2-0.2,0.4-0.4,0.7-0.2
				c-0.5-1.1-0.5-2.4-0.8-3.3c-0.3,0.1-0.5,0-0.7-0.3c1.3-0.8-0.2-2,0.6-2.9c-0.2-0.6-1-0.5-1.2-1c0.5-1.8,3.4-0.2,2.2,1.2
				c0.5,2,1.4,4.8,0.5,6.6c0.6,0.6,0.1,1.2,0.1,2c-0.3,0.2-0.4,0.2-0.7,0.1C156.6,105.7,155.8,105.1,156.4,104.7z"/>
		</g>
		<g>
			<rect x="154.5" y="96" class="st0" width="3.1" height="10.8"/>
			<path class="st1" d="M156.4,105.3c-0.1-0.3-0.2,0.1-0.5,0c0.2-0.2,0.2-0.5,0.1-0.8c0.2-0.2,0.4-0.4,0.7-0.2
				c-0.5-1.1-0.5-2.4-0.8-3.3c-0.3,0.1-0.5,0-0.7-0.3c1.3-0.8-0.2-2,0.6-2.9c-0.2-0.6-1-0.5-1.2-1c0.5-1.8,3.4-0.2,2.2,1.2
				c0.5,2,1.4,4.8,0.5,6.6c0.6,0.6,0.1,1.2,0.1,2c-0.3,0.2-0.4,0.2-0.7,0.1C156.6,106.2,155.8,105.7,156.4,105.3z"/>
		</g>
		<g>
			<rect x="154.5" y="96.6" class="st0" width="3.1" height="10.8"/>
			<path class="st1" d="M156.4,105.8c-0.1-0.3-0.2,0.1-0.5,0c0.2-0.2,0.2-0.5,0.1-0.8c0.2-0.2,0.4-0.4,0.7-0.2
				c-0.5-1.1-0.5-2.4-0.8-3.3c-0.3,0.1-0.5,0-0.7-0.3c1.3-0.8-0.2-2,0.6-2.9c-0.2-0.6-1-0.5-1.2-1c0.5-1.8,3.4-0.2,2.2,1.2
				c0.5,2,1.4,4.8,0.5,6.6c0.6,0.6,0.1,1.2,0.1,2c-0.3,0.2-0.4,0.2-0.7,0.1C156.6,106.8,155.8,106.2,156.4,105.8z"/>
		</g>
		<g>
			<rect x="154.5" y="97.1" class="st0" width="3.1" height="10.8"/>
			<path class="st1" d="M156.4,106.4c-0.1-0.3-0.2,0.1-0.5,0c0.2-0.2,0.2-0.5,0.1-0.8c0.2-0.2,0.4-0.4,0.7-0.2
				c-0.5-1.1-0.5-2.4-0.8-3.3c-0.3,0.1-0.5,0-0.7-0.3c1.3-0.8-0.2-2,0.6-2.9c-0.2-0.6-1-0.5-1.2-1c0.5-1.8,3.4-0.2,2.2,1.2
				c0.5,2,1.4,4.8,0.5,6.6c0.6,0.6,0.1,1.2,0.1,2c-0.3,0.2-0.4,0.2-0.7,0.1C156.6,107.3,155.8,106.7,156.4,106.4z"/>
		</g>
		<g>
			<rect x="154.5" y="97.7" class="st0" width="3.1" height="10.8"/>
			<path class="st1" d="M156.4,106.9c-0.1-0.3-0.2,0.1-0.5,0c0.2-0.2,0.2-0.5,0.1-0.8c0.2-0.2,0.4-0.4,0.7-0.2
				c-0.5-1.1-0.5-2.4-0.8-3.3c-0.3,0.1-0.5,0-0.7-0.3c1.3-0.8-0.2-2,0.6-2.9c-0.2-0.6-1-0.5-1.2-1c0.5-1.8,3.4-0.2,2.2,1.2
				c0.5,2,1.4,4.8,0.5,6.6c0.6,0.6,0.1,1.2,0.1,2c-0.3,0.2-0.4,0.2-0.7,0.1C156.6,107.9,155.8,107.3,156.4,106.9z"/>
		</g>
		<g>
			<rect x="154.5" y="98.2" class="st0" width="3.1" height="10.8"/>
			<path class="st1" d="M156.4,107.4c-0.1-0.3-0.2,0.1-0.5,0c0.2-0.2,0.2-0.5,0.1-0.8c0.2-0.2,0.4-0.4,0.7-0.2
				c-0.5-1.1-0.5-2.4-0.8-3.3c-0.3,0.1-0.5,0-0.7-0.3c1.3-0.8-0.2-2,0.6-2.9c-0.2-0.6-1-0.5-1.2-1c0.5-1.8,3.4-0.2,2.2,1.2
				c0.5,2,1.4,4.8,0.5,6.6c0.6,0.6,0.1,1.2,0.1,2c-0.3,0.2-0.4,0.2-0.7,0.1C156.6,108.4,155.8,107.8,156.4,107.4z"/>
		</g>
		<g>
			<rect x="154.5" y="98.7" class="st0" width="3.1" height="10.8"/>
			<path class="st1" d="M156.4,108c-0.1-0.3-0.2,0.1-0.5,0c0.2-0.2,0.2-0.5,0.1-0.8c0.2-0.2,0.4-0.4,0.7-0.2
				c-0.5-1.1-0.5-2.4-0.8-3.3c-0.3,0.1-0.5,0-0.7-0.3c1.3-0.8-0.2-2,0.6-2.9c-0.2-0.6-1-0.5-1.2-1c0.5-1.8,3.4-0.2,2.2,1.2
				c0.5,2,1.4,4.8,0.5,6.6c0.6,0.6,0.1,1.2,0.1,2c-0.3,0.2-0.4,0.2-0.7,0.1C156.6,108.9,155.8,108.4,156.4,108z"/>
		</g>
		<g>
			<rect x="154.5" y="99.3" class="st0" width="3.1" height="10.8"/>
			<path class="st1" d="M156.4,108.5c-0.1-0.3-0.2,0.1-0.5,0c0.2-0.2,0.2-0.5,0.1-0.8c0.2-0.2,0.4-0.4,0.7-0.2
				c-0.5-1.1-0.5-2.4-0.8-3.3c-0.3,0.1-0.5,0-0.7-0.3c1.3-0.8-0.2-2,0.6-2.9c-0.2-0.6-1-0.5-1.2-1c0.5-1.8,3.4-0.2,2.2,1.2
				c0.5,2,1.4,4.8,0.5,6.6c0.6,0.6,0.1,1.2,0.1,2c-0.3,0.2-0.4,0.2-0.7,0.1C156.6,109.5,155.8,108.9,156.4,108.5z"/>
		</g>
		<g>
			<rect x="154.5" y="99.8" class="st0" width="3.1" height="10.8"/>
			<path class="st1" d="M156.4,109.1c-0.1-0.3-0.2,0.1-0.5,0c0.2-0.2,0.2-0.5,0.1-0.8c0.2-0.2,0.4-0.4,0.7-0.2
				c-0.5-1.1-0.5-2.4-0.8-3.3c-0.3,0.1-0.5,0-0.7-0.3c1.3-0.8-0.2-2,0.6-2.9c-0.2-0.6-1-0.5-1.2-1c0.5-1.8,3.4-0.2,2.2,1.2
				c0.5,2,1.4,4.8,0.5,6.6c0.6,0.6,0.1,1.2,0.1,2c-0.3,0.2-0.4,0.2-0.7,0.1C156.6,110,155.8,109.4,156.4,109.1z"/>
		</g>
		<g>
			<rect x="154.5" y="100.4" class="st0" width="3.1" height="10.8"/>
			<path class="st1" d="M156.4,109.6c-0.1-0.3-0.2,0.1-0.5,0c0.2-0.2,0.2-0.5,0.1-0.8c0.2-0.2,0.4-0.4,0.7-0.2
				c-0.5-1.1-0.5-2.4-0.8-3.3c-0.3,0.1-0.5,0-0.7-0.3c1.3-0.8-0.2-2,0.6-2.9c-0.2-0.6-1-0.5-1.2-1c0.5-1.8,3.4-0.2,2.2,1.2
				c0.5,2,1.4,4.8,0.5,6.6c0.6,0.6,0.1,1.2,0.1,2c-0.3,0.2-0.4,0.2-0.7,0.1C156.6,110.5,155.8,110,156.4,109.6z"/>
		</g>
		<g>
			<rect x="154.5" y="100.9" class="st0" width="3.1" height="10.8"/>
			<path class="st1" d="M156.4,110.1c-0.1-0.3-0.2,0.1-0.5,0c0.2-0.2,0.2-0.5,0.1-0.8c0.2-0.2,0.4-0.4,0.7-0.2
				c-0.5-1.1-0.5-2.4-0.8-3.3c-0.3,0.1-0.5,0-0.7-0.3c1.3-0.8-0.2-2,0.6-2.9c-0.2-0.6-1-0.5-1.2-1c0.5-1.8,3.4-0.2,2.2,1.2
				c0.5,2,1.4,4.8,0.5,6.6c0.6,0.6,0.1,1.2,0.1,2c-0.3,0.2-0.4,0.2-0.7,0.1C156.6,111.1,155.8,110.5,156.4,110.1z"/>
		</g>
		<g>
			<rect x="154.5" y="101.4" class="st0" width="3.1" height="10.8"/>
			<path class="st1" d="M156.4,110.7c-0.1-0.3-0.2,0.1-0.5,0c0.2-0.2,0.2-0.5,0.1-0.8c0.2-0.2,0.4-0.4,0.7-0.2
				c-0.5-1.1-0.5-2.4-0.8-3.3c-0.3,0.1-0.5,0-0.7-0.3c1.3-0.8-0.2-2,0.6-2.9c-0.2-0.6-1-0.5-1.2-1c0.5-1.8,3.4-0.2,2.2,1.2
				c0.5,2,1.4,4.8,0.5,6.6c0.6,0.6,0.1,1.2,0.1,2c-0.3,0.2-0.4,0.2-0.7,0.1C156.6,111.6,155.8,111.1,156.4,110.7z"/>
		</g>
		<g>
			<rect x="154.5" y="102" class="st0" width="3.1" height="10.8"/>
			<path class="st1" d="M156.4,111.2c-0.1-0.3-0.2,0.1-0.5,0c0.2-0.2,0.2-0.5,0.1-0.8c0.2-0.2,0.4-0.4,0.7-0.2
				c-0.5-1.1-0.5-2.4-0.8-3.3c-0.3,0.1-0.5,0-0.7-0.3c1.3-0.8-0.2-2,0.6-2.9c-0.2-0.6-1-0.5-1.2-1c0.5-1.8,3.4-0.2,2.2,1.2
				c0.5,2,1.4,4.8,0.5,6.6c0.6,0.6,0.1,1.2,0.1,2c-0.3,0.2-0.4,0.2-0.7,0.1C156.6,112.2,155.8,111.6,156.4,111.2z"/>
		</g>
		<g>
			<rect x="154.5" y="102.5" class="st0" width="3.1" height="10.8"/>
			<path class="st1" d="M156.4,111.8c-0.1-0.3-0.2,0.1-0.5,0c0.2-0.2,0.2-0.5,0.1-0.8c0.2-0.2,0.4-0.4,0.7-0.2
				c-0.5-1.1-0.5-2.4-0.8-3.3c-0.3,0.1-0.5,0-0.7-0.3c1.3-0.8-0.2-2,0.6-2.9c-0.2-0.6-1-0.5-1.2-1c0.5-1.8,3.4-0.2,2.2,1.2
				c0.5,2,1.4,4.8,0.5,6.6c0.6,0.6,0.1,1.2,0.1,2c-0.3,0.2-0.4,0.2-0.7,0.1C156.6,112.7,155.8,112.1,156.4,111.8z"/>
		</g>
		<g>
			<rect x="154.5" y="103.1" class="st0" width="3.1" height="10.8"/>
			<path class="st1" d="M156.4,112.3c-0.1-0.3-0.2,0.1-0.5,0c0.2-0.2,0.2-0.5,0.1-0.8c0.2-0.2,0.4-0.4,0.7-0.2
				c-0.5-1.1-0.5-2.4-0.8-3.3c-0.3,0.1-0.5,0-0.7-0.3c1.3-0.8-0.2-2,0.6-2.9c-0.2-0.6-1-0.5-1.2-1c0.5-1.8,3.4-0.2,2.2,1.2
				c0.5,2,1.4,4.8,0.5,6.6c0.6,0.6,0.1,1.2,0.1,2c-0.3,0.2-0.4,0.2-0.7,0.1C156.6,113.2,155.8,112.7,156.4,112.3z"/>
		</g>
		<g>
			<rect x="154.5" y="103.6" class="st0" width="3.1" height="10.8"/>
			<path class="st1" d="M156.4,112.8c-0.1-0.3-0.2,0.1-0.5,0c0.2-0.2,0.2-0.5,0.1-0.8c0.2-0.2,0.4-0.4,0.7-0.2
				c-0.5-1.1-0.5-2.4-0.8-3.3c-0.3,0.1-0.5,0-0.7-0.3c1.3-0.8-0.2-2,0.6-2.9c-0.2-0.6-1-0.5-1.2-1c0.5-1.8,3.4-0.2,2.2,1.2
				c0.5,2,1.4,4.8,0.5,6.6c0.6,0.6,0.1,1.2,0.1,2c-0.3,0.2-0.4,0.2-0.7,0.1C156.6,113.8,155.8,113.2,156.4,112.8z"/>
		</g>
		<g>
			<rect x="154.5" y="104.1" class="st0" width="3.1" height="10.8"/>
			<path class="st1" d="M156.4,113.4c-0.1-0.3-0.2,0.1-0.5,0c0.2-0.2,0.2-0.5,0.1-0.8c0.2-0.2,0.4-0.4,0.7-0.2
				c-0.5-1.1-0.5-2.4-0.8-3.3c-0.3,0.1-0.5,0-0.7-0.3c1.3-0.8-0.2-2,0.6-2.9c-0.2-0.6-1-0.5-1.2-1c0.5-1.8,3.4-0.2,2.2,1.2
				c0.5,2,1.4,4.8,0.5,6.6c0.6,0.6,0.1,1.2,0.1,2c-0.3,0.2-0.4,0.2-0.7,0.1C156.6,114.3,155.8,113.8,156.4,113.4z"/>
		</g>
		<g>
			<rect x="154.5" y="104.7" class="st0" width="3.1" height="10.8"/>
			<path class="st1" d="M156.4,113.9c-0.1-0.3-0.2,0.1-0.5,0c0.2-0.2,0.2-0.5,0.1-0.8c0.2-0.2,0.4-0.4,0.7-0.2
				c-0.5-1.1-0.5-2.4-0.8-3.3c-0.3,0.1-0.5,0-0.7-0.3c1.3-0.8-0.2-2,0.6-2.9c-0.2-0.6-1-0.5-1.2-1c0.5-1.8,3.4-0.2,2.2,1.2
				c0.5,2,1.4,4.8,0.5,6.6c0.6,0.6,0.1,1.2,0.1,2c-0.3,0.2-0.4,0.2-0.7,0.1C156.6,114.9,155.8,114.3,156.4,113.9z"/>
		</g>
		<g>
			<rect x="154.5" y="105.2" class="st0" width="3.1" height="10.8"/>
			<path class="st1" d="M156.4,114.5c-0.1-0.3-0.2,0.1-0.5,0c0.2-0.2,0.2-0.5,0.1-0.8c0.2-0.2,0.4-0.4,0.7-0.2
				c-0.5-1.1-0.5-2.4-0.8-3.3c-0.3,0.1-0.5,0-0.7-0.3c1.3-0.8-0.2-2,0.6-2.9c-0.2-0.6-1-0.5-1.2-1c0.5-1.8,3.4-0.2,2.2,1.2
				c0.5,2,1.4,4.8,0.5,6.6c0.6,0.6,0.1,1.2,0.1,2c-0.3,0.2-0.4,0.2-0.7,0.1C156.6,115.4,155.8,114.8,156.4,114.5z"/>
		</g>
		<g>
			<rect x="154.5" y="105.8" class="st0" width="3.1" height="10.8"/>
			<path class="st1" d="M156.4,115c-0.1-0.3-0.2,0.1-0.5,0c0.2-0.2,0.2-0.5,0.1-0.8c0.2-0.2,0.4-0.4,0.7-0.2
				c-0.5-1.1-0.5-2.4-0.8-3.3c-0.3,0.1-0.5,0-0.7-0.3c1.3-0.8-0.2-2,0.6-2.9c-0.2-0.6-1-0.5-1.2-1c0.5-1.8,3.4-0.2,2.2,1.2
				c0.5,2,1.4,4.8,0.5,6.6c0.6,0.6,0.1,1.2,0.1,2c-0.3,0.2-0.4,0.2-0.7,0.1C156.6,115.9,155.8,115.4,156.4,115z"/>
		</g>
		<g>
			<rect x="154.5" y="106.3" class="st0" width="3.1" height="10.8"/>
			<path class="st1" d="M156.4,115.5c-0.1-0.3-0.2,0.1-0.5,0c0.2-0.2,0.2-0.5,0.1-0.8c0.2-0.2,0.4-0.4,0.7-0.2
				c-0.5-1.1-0.5-2.4-0.8-3.3c-0.3,0.1-0.5,0-0.7-0.3c1.3-0.8-0.2-2,0.6-2.9c-0.2-0.6-1-0.5-1.2-1c0.5-1.8,3.4-0.2,2.2,1.2
				c0.5,2,1.4,4.8,0.5,6.6c0.6,0.6,0.1,1.2,0.1,2c-0.3,0.2-0.4,0.2-0.7,0.1C156.6,116.5,155.8,115.9,156.4,115.5z"/>
		</g>
		<g>
			<rect x="154.5" y="106.8" class="st0" width="3.1" height="10.8"/>
			<path class="st1" d="M156.4,116.1c-0.1-0.3-0.2,0.1-0.5,0c0.2-0.2,0.2-0.5,0.1-0.8c0.2-0.2,0.4-0.4,0.7-0.2
				c-0.5-1.1-0.5-2.4-0.8-3.3c-0.3,0.1-0.5,0-0.7-0.3c1.3-0.8-0.2-2,0.6-2.9c-0.2-0.6-1-0.5-1.2-1c0.5-1.8,3.4-0.2,2.2,1.2
				c0.5,2,1.4,4.8,0.5,6.6c0.6,0.6,0.1,1.2,0.1,2c-0.3,0.2-0.4,0.2-0.7,0.1C156.6,117,155.8,116.5,156.4,116.1z"/>
		</g>
		<g>
			<rect x="154.5" y="107.4" class="st0" width="3.1" height="10.8"/>
			<path class="st1" d="M156.4,116.6c-0.1-0.3-0.2,0.1-0.5,0c0.2-0.2,0.2-0.5,0.1-0.8c0.2-0.2,0.4-0.4,0.7-0.2
				c-0.5-1.1-0.5-2.4-0.8-3.3c-0.3,0.1-0.5,0-0.7-0.3c1.3-0.8-0.2-2,0.6-2.9c-0.2-0.6-1-0.5-1.2-1c0.5-1.8,3.4-0.2,2.2,1.2
				c0.5,2,1.4,4.8,0.5,6.6c0.6,0.6,0.1,1.2,0.1,2c-0.3,0.2-0.4,0.2-0.7,0.1C156.6,117.6,155.8,117,156.4,116.6z"/>
		</g>
		<g>
			<rect x="154.5" y="107.9" class="st0" width="3.1" height="10.8"/>
			<path class="st1" d="M156.4,117.2c-0.1-0.3-0.2,0.1-0.5,0c0.2-0.2,0.2-0.5,0.1-0.8c0.2-0.2,0.4-0.4,0.7-0.2
				c-0.5-1.1-0.5-2.4-0.8-3.3c-0.3,0.1-0.5,0-0.7-0.3c1.3-0.8-0.2-2,0.6-2.9c-0.2-0.6-1-0.5-1.2-1c0.5-1.8,3.4-0.2,2.2,1.2
				c0.5,2,1.4,4.8,0.5,6.6c0.6,0.6,0.1,1.2,0.1,2c-0.3,0.2-0.4,0.2-0.7,0.1C156.6,118.1,155.8,117.5,156.4,117.2z"/>
		</g>
		<g>
			<rect x="154.5" y="108.5" class="st0" width="3.1" height="10.8"/>
			<path class="st1" d="M156.4,117.7c-0.1-0.3-0.2,0.1-0.5,0c0.2-0.2,0.2-0.5,0.1-0.8c0.2-0.2,0.4-0.4,0.7-0.2
				c-0.5-1.1-0.5-2.4-0.8-3.3c-0.3,0.1-0.5,0-0.7-0.3c1.3-0.8-0.2-2,0.6-2.9c-0.2-0.6-1-0.5-1.2-1c0.5-1.8,3.4-0.2,2.2,1.2
				c0.5,2,1.4,4.8,0.5,6.6c0.6,0.6,0.1,1.2,0.1,2c-0.3,0.2-0.4,0.2-0.7,0.1C156.6,118.6,155.8,118.1,156.4,117.7z"/>
		</g>
		<g>
			<rect x="154.5" y="109" class="st0" width="3.1" height="10.8"/>
			<path class="st1" d="M156.4,118.2c-0.1-0.3-0.2,0.1-0.5,0c0.2-0.2,0.2-0.5,0.1-0.8c0.2-0.2,0.4-0.4,0.7-0.2
				c-0.5-1.1-0.5-2.4-0.8-3.3c-0.3,0.1-0.5,0-0.7-0.3c1.3-0.8-0.2-2,0.6-2.9c-0.2-0.6-1-0.5-1.2-1c0.5-1.8,3.4-0.2,2.2,1.2
				c0.5,2,1.4,4.8,0.5,6.6c0.6,0.6,0.1,1.2,0.1,2c-0.3,0.2-0.4,0.2-0.7,0.1C156.6,119.2,155.8,118.6,156.4,118.2z"/>
		</g>
		<g>
			<rect x="154.5" y="109.5" class="st0" width="3.1" height="10.8"/>
			<path class="st1" d="M156.4,118.8c-0.1-0.3-0.2,0.1-0.5,0c0.2-0.2,0.2-0.5,0.1-0.8c0.2-0.2,0.4-0.4,0.7-0.2
				c-0.5-1.1-0.5-2.4-0.8-3.3c-0.3,0.1-0.5,0-0.7-0.3c1.3-0.8-0.2-2,0.6-2.9c-0.2-0.6-1-0.5-1.2-1c0.5-1.8,3.4-0.2,2.2,1.2
				c0.5,2,1.4,4.8,0.5,6.6c0.6,0.6,0.1,1.2,0.1,2c-0.3,0.2-0.4,0.2-0.7,0.1C156.6,119.7,155.8,119.2,156.4,118.8z"/>
		</g>
		<g>
			<rect x="154.5" y="110.1" class="st0" width="3.1" height="10.8"/>
			<path class="st1" d="M156.4,119.3c-0.1-0.3-0.2,0.1-0.5,0c0.2-0.2,0.2-0.5,0.1-0.8c0.2-0.2,0.4-0.4,0.7-0.2
				c-0.5-1.1-0.5-2.4-0.8-3.3c-0.3,0.1-0.5,0-0.7-0.3c1.3-0.8-0.2-2,0.6-2.9c-0.2-0.6-1-0.5-1.2-1c0.5-1.8,3.4-0.2,2.2,1.2
				c0.5,2,1.4,4.8,0.5,6.6c0.6,0.6,0.1,1.2,0.1,2c-0.3,0.2-0.4,0.2-0.7,0.1C156.6,120.3,155.8,119.7,156.4,119.3z"/>
		</g>
		<g>
			<rect x="154.5" y="110.6" class="st0" width="3.1" height="10.8"/>
			<path class="st1" d="M156.4,119.9c-0.1-0.3-0.2,0.1-0.5,0c0.2-0.2,0.2-0.5,0.1-0.8c0.2-0.2,0.4-0.4,0.7-0.2
				c-0.5-1.1-0.5-2.4-0.8-3.3c-0.3,0.1-0.5,0-0.7-0.3c1.3-0.8-0.2-2,0.6-2.9c-0.2-0.6-1-0.5-1.2-1c0.5-1.8,3.4-0.2,2.2,1.2
				c0.5,2,1.4,4.8,0.5,6.6c0.6,0.6,0.1,1.2,0.1,2c-0.3,0.2-0.4,0.2-0.7,0.1C156.6,120.8,155.8,120.2,156.4,119.9z"/>
		</g>
		<g>
			<rect x="154.5" y="111.1" class="st0" width="3.1" height="10.8"/>
			<path class="st1" d="M156.4,120.4c-0.1-0.3-0.2,0.1-0.5,0c0.2-0.2,0.2-0.5,0.1-0.8c0.2-0.2,0.4-0.4,0.7-0.2
				c-0.5-1.1-0.5-2.4-0.8-3.3c-0.3,0.1-0.5,0-0.7-0.3c1.3-0.8-0.2-2,0.6-2.9c-0.2-0.6-1-0.5-1.2-1c0.5-1.8,3.4-0.2,2.2,1.2
				c0.5,2,1.4,4.8,0.5,6.6c0.6,0.6,0.1,1.2,0.1,2c-0.3,0.2-0.4,0.2-0.7,0.1C156.6,121.3,155.8,120.8,156.4,120.4z"/>
		</g>
		<g>
			<rect x="154.5" y="111.7" class="st0" width="3.1" height="10.8"/>
			<path class="st1" d="M156.4,120.9c-0.1-0.3-0.2,0.1-0.5,0c0.2-0.2,0.2-0.5,0.1-0.8c0.2-0.2,0.4-0.4,0.7-0.2
				c-0.5-1.1-0.5-2.4-0.8-3.3c-0.3,0.1-0.5,0-0.7-0.3c1.3-0.8-0.2-2,0.6-2.9c-0.2-0.6-1-0.5-1.2-1c0.5-1.8,3.4-0.2,2.2,1.2
				c0.5,2,1.4,4.8,0.5,6.6c0.6,0.6,0.1,1.2,0.1,2c-0.3,0.2-0.4,0.2-0.7,0.1C156.6,121.9,155.8,121.3,156.4,120.9z"/>
		</g>
		<g>
			<rect x="154.5" y="112.2" class="st0" width="3.1" height="10.8"/>
			<path class="st1" d="M156.4,121.5c-0.1-0.3-0.2,0.1-0.5,0c0.2-0.2,0.2-0.5,0.1-0.8c0.2-0.2,0.4-0.4,0.7-0.2
				c-0.5-1.1-0.5-2.4-0.8-3.3c-0.3,0.1-0.5,0-0.7-0.3c1.3-0.8-0.2-2,0.6-2.9c-0.2-0.6-1-0.5-1.2-1c0.5-1.8,3.4-0.2,2.2,1.2
				c0.5,2,1.4,4.8,0.5,6.6c0.6,0.6,0.1,1.2,0.1,2c-0.3,0.2-0.4,0.2-0.7,0.1C156.6,122.4,155.8,121.9,156.4,121.5z"/>
		</g>
		<g>
			<rect x="154.5" y="112.8" class="st0" width="3.1" height="10.8"/>
			<path class="st1" d="M156.4,122c-0.1-0.3-0.2,0.1-0.5,0c0.2-0.2,0.2-0.5,0.1-0.8c0.2-0.2,0.4-0.4,0.7-0.2
				c-0.5-1.1-0.5-2.4-0.8-3.3c-0.3,0.1-0.5,0-0.7-0.3c1.3-0.8-0.2-2,0.6-2.9c-0.2-0.6-1-0.5-1.2-1c0.5-1.8,3.4-0.2,2.2,1.2
				c0.5,2,1.4,4.8,0.5,6.6c0.6,0.6,0.1,1.2,0.1,2c-0.3,0.2-0.4,0.2-0.7,0.1C156.6,123,155.8,122.4,156.4,122z"/>
		</g>
		<g>
			<rect x="154.5" y="113.3" class="st0" width="3.1" height="10.8"/>
			<path class="st1" d="M156.4,122.6c-0.1-0.3-0.2,0.1-0.5,0c0.2-0.2,0.2-0.5,0.1-0.8c0.2-0.2,0.4-0.4,0.7-0.2
				c-0.5-1.1-0.5-2.4-0.8-3.3c-0.3,0.1-0.5,0-0.7-0.3c1.3-0.8-0.2-2,0.6-2.9c-0.2-0.6-1-0.5-1.2-1c0.5-1.8,3.4-0.2,2.2,1.2
				c0.5,2,1.4,4.8,0.5,6.6c0.6,0.6,0.1,1.2,0.1,2c-0.3,0.2-0.4,0.2-0.7,0.1C156.6,123.5,155.8,122.9,156.4,122.6z"/>
		</g>
		<g>
			<rect x="154.5" y="113.8" class="st0" width="3.1" height="10.8"/>
			<path class="st1" d="M156.4,123.1c-0.1-0.3-0.2,0.1-0.5,0c0.2-0.2,0.2-0.5,0.1-0.8c0.2-0.2,0.4-0.4,0.7-0.2
				c-0.5-1.1-0.5-2.4-0.8-3.3c-0.3,0.1-0.5,0-0.7-0.3c1.3-0.8-0.2-2,0.6-2.9c-0.2-0.6-1-0.5-1.2-1c0.5-1.8,3.4-0.2,2.2,1.2
				c0.5,2,1.4,4.8,0.5,6.6c0.6,0.6,0.1,1.2,0.1,2c-0.3,0.2-0.4,0.2-0.7,0.1C156.6,124,155.8,123.5,156.4,123.1z"/>
		</g>
		<g>
			<rect x="154.5" y="114.4" class="st0" width="3.1" height="10.8"/>
			<path class="st1" d="M156.4,123.6c-0.1-0.3-0.2,0.1-0.5,0c0.2-0.2,0.2-0.5,0.1-0.8c0.2-0.2,0.4-0.4,0.7-0.2
				c-0.5-1.1-0.5-2.4-0.8-3.3c-0.3,0.1-0.5,0-0.7-0.3c1.3-0.8-0.2-2,0.6-2.9c-0.2-0.6-1-0.5-1.2-1c0.5-1.8,3.4-0.2,2.2,1.2
				c0.5,2,1.4,4.8,0.5,6.6c0.6,0.6,0.1,1.2,0.1,2c-0.3,0.2-0.4,0.2-0.7,0.1C156.6,124.6,155.8,124,156.4,123.6z"/>
		</g>
		<g>
			<rect x="154.5" y="114.9" class="st0" width="3.1" height="10.8"/>
			<path class="st1" d="M156.4,124.2c-0.1-0.3-0.2,0.1-0.5,0c0.2-0.2,0.2-0.5,0.1-0.8c0.2-0.2,0.4-0.4,0.7-0.2
				c-0.5-1.1-0.5-2.4-0.8-3.3c-0.3,0.1-0.5,0-0.7-0.3c1.3-0.8-0.2-2,0.6-2.9c-0.2-0.6-1-0.5-1.2-1c0.5-1.8,3.4-0.2,2.2,1.2
				c0.5,2,1.4,4.8,0.5,6.6c0.6,0.6,0.1,1.2,0.1,2c-0.3,0.2-0.4,0.2-0.7,0.1C156.6,125.1,155.8,124.6,156.4,124.2z"/>
		</g>
		<g>
			<rect x="154.5" y="115.5" class="st0" width="3.1" height="10.8"/>
			<path class="st1" d="M156.4,124.7c-0.1-0.3-0.2,0.1-0.5,0c0.2-0.2,0.2-0.5,0.1-0.8c0.2-0.2,0.4-0.4,0.7-0.2
				c-0.5-1.1-0.5-2.4-0.8-3.3c-0.3,0.1-0.5,0-0.7-0.3c1.3-0.8-0.2-2,0.6-2.9c-0.2-0.6-1-0.5-1.2-1c0.5-1.8,3.4-0.2,2.2,1.2
				c0.5,2,1.4,4.8,0.5,6.6c0.6,0.6,0.1,1.2,0.1,2c-0.3,0.2-0.4,0.2-0.7,0.1C156.6,125.7,155.8,125.1,156.4,124.7z"/>
		</g>
		<g>
			<rect x="154.5" y="116" class="st0" width="3.1" height="10.8"/>
			<path class="st1" d="M156.4,125.3c-0.1-0.3-0.2,0.1-0.5,0c0.2-0.2,0.2-0.5,0.1-0.8c0.2-0.2,0.4-0.4,0.7-0.2
				c-0.5-1.1-0.5-2.4-0.8-3.3c-0.3,0.1-0.5,0-0.7-0.3c1.3-0.8-0.2-2,0.6-2.9c-0.2-0.6-1-0.5-1.2-1c0.5-1.8,3.4-0.2,2.2,1.2
				c0.5,2,1.4,4.8,0.5,6.6c0.6,0.6,0.1,1.2,0.1,2c-0.3,0.2-0.4,0.2-0.7,0.1C156.6,126.2,155.8,125.6,156.4,125.3z"/>
		</g>
		<g>
			<rect x="154.5" y="116.5" class="st0" width="3.1" height="10.8"/>
			<path class="st1" d="M156.4,125.8c-0.1-0.3-0.2,0.1-0.5,0c0.2-0.2,0.2-0.5,0.1-0.8c0.2-0.2,0.4-0.4,0.7-0.2
				c-0.5-1.1-0.5-2.4-0.8-3.3c-0.3,0.1-0.5,0-0.7-0.3c1.3-0.8-0.2-2,0.6-2.9c-0.2-0.6-1-0.5-1.2-1c0.5-1.8,3.4-0.2,2.2,1.2
				c0.5,2,1.4,4.8,0.5,6.6c0.6,0.6,0.1,1.2,0.1,2c-0.3,0.2-0.4,0.2-0.7,0.1C156.6,126.7,155.8,126.2,156.4,125.8z"/>
		</g>
		<g>
			<rect x="154.5" y="117.1" class="st0" width="3.1" height="10.8"/>
			<path class="st1" d="M156.4,126.3c-0.1-0.3-0.2,0.1-0.5,0c0.2-0.2,0.2-0.5,0.1-0.8c0.2-0.2,0.4-0.4,0.7-0.2
				c-0.5-1.1-0.5-2.4-0.8-3.3c-0.3,0.1-0.5,0-0.7-0.3c1.3-0.8-0.2-2,0.6-2.9c-0.2-0.6-1-0.5-1.2-1c0.5-1.8,3.4-0.2,2.2,1.2
				c0.5,2,1.4,4.8,0.5,6.6c0.6,0.6,0.1,1.2,0.1,2c-0.3,0.2-0.4,0.2-0.7,0.1C156.6,127.3,155.8,126.7,156.4,126.3z"/>
		</g>
		<g>
			<rect x="154.5" y="117.6" class="st0" width="3.1" height="10.8"/>
			<path class="st1" d="M156.4,126.9c-0.1-0.3-0.2,0.1-0.5,0c0.2-0.2,0.2-0.5,0.1-0.8c0.2-0.2,0.4-0.4,0.7-0.2
				c-0.5-1.1-0.5-2.4-0.8-3.3c-0.3,0.1-0.5,0-0.7-0.3c1.3-0.8-0.2-2,0.6-2.9c-0.2-0.6-1-0.5-1.2-1c0.5-1.8,3.4-0.2,2.2,1.2
				c0.5,2,1.4,4.8,0.5,6.6c0.6,0.6,0.1,1.2,0.1,2c-0.3,0.2-0.4,0.2-0.7,0.1C156.6,127.8,155.8,127.2,156.4,126.9z"/>
		</g>
		<g>
			<rect x="154.5" y="118.2" class="st0" width="3.1" height="10.8"/>
			<path class="st1" d="M156.4,127.4c-0.1-0.3-0.2,0.1-0.5,0c0.2-0.2,0.2-0.5,0.1-0.8c0.2-0.2,0.4-0.4,0.7-0.2
				c-0.5-1.1-0.5-2.4-0.8-3.3c-0.3,0.1-0.5,0-0.7-0.3c1.3-0.8-0.2-2,0.6-2.9c-0.2-0.6-1-0.5-1.2-1c0.5-1.8,3.4-0.2,2.2,1.2
				c0.5,2,1.4,4.8,0.5,6.6c0.6,0.6,0.1,1.2,0.1,2c-0.3,0.2-0.4,0.2-0.7,0.1C156.6,128.4,155.8,127.8,156.4,127.4z"/>
		</g>
		<g>
			<rect x="154.5" y="118.7" class="st0" width="3.1" height="10.8"/>
			<path class="st1" d="M156.4,128c-0.1-0.3-0.2,0.1-0.5,0c0.2-0.2,0.2-0.5,0.1-0.8c0.2-0.2,0.4-0.4,0.7-0.2
				c-0.5-1.1-0.5-2.4-0.8-3.3c-0.3,0.1-0.5,0-0.7-0.3c1.3-0.8-0.2-2,0.6-2.9c-0.2-0.6-1-0.5-1.2-1c0.5-1.8,3.4-0.2,2.2,1.2
				c0.5,2,1.4,4.8,0.5,6.6c0.6,0.6,0.1,1.2,0.1,2c-0.3,0.2-0.4,0.2-0.7,0.1C156.6,128.9,155.8,128.3,156.4,128z"/>
		</g>
		<g>
			<rect x="154.5" y="119.2" class="st0" width="3.1" height="10.8"/>
			<path class="st1" d="M156.4,128.5c-0.1-0.3-0.2,0.1-0.5,0c0.2-0.2,0.2-0.5,0.1-0.8c0.2-0.2,0.4-0.4,0.7-0.2
				c-0.5-1.1-0.5-2.4-0.8-3.3c-0.3,0.1-0.5,0-0.7-0.3c1.3-0.8-0.2-2,0.6-2.9c-0.2-0.6-1-0.5-1.2-1c0.5-1.8,3.4-0.2,2.2,1.2
				c0.5,2,1.4,4.8,0.5,6.6c0.6,0.6,0.1,1.2,0.1,2c-0.3,0.2-0.4,0.2-0.7,0.1C156.6,129.4,155.8,128.9,156.4,128.5z"/>
		</g>
		<g>
			<rect x="154.5" y="119.8" class="st0" width="3.1" height="10.8"/>
			<path class="st1" d="M156.4,129c-0.1-0.3-0.2,0.1-0.5,0c0.2-0.2,0.2-0.5,0.1-0.8c0.2-0.2,0.4-0.4,0.7-0.2
				c-0.5-1.1-0.5-2.4-0.8-3.3c-0.3,0.1-0.5,0-0.7-0.3c1.3-0.8-0.2-2,0.6-2.9c-0.2-0.6-1-0.5-1.2-1c0.5-1.8,3.4-0.2,2.2,1.2
				c0.5,2,1.4,4.8,0.5,6.6c0.6,0.6,0.1,1.2,0.1,2c-0.3,0.2-0.4,0.2-0.7,0.1C156.6,130,155.8,129.4,156.4,129z"/>
		</g>
		<g>
			<rect x="154.5" y="120.3" class="st0" width="3.1" height="10.8"/>
			<path class="st1" d="M156.4,129.6c-0.1-0.3-0.2,0.1-0.5,0c0.2-0.2,0.2-0.5,0.1-0.8c0.2-0.2,0.4-0.4,0.7-0.2
				c-0.5-1.1-0.5-2.4-0.8-3.3c-0.3,0.1-0.5,0-0.7-0.3c1.3-0.8-0.2-2,0.6-2.9c-0.2-0.6-1-0.5-1.2-1c0.5-1.8,3.4-0.2,2.2,1.2
				c0.5,2,1.4,4.8,0.5,6.6c0.6,0.6,0.1,1.2,0.1,2c-0.3,0.2-0.4,0.2-0.7,0.1C156.6,130.5,155.8,129.9,156.4,129.6z"/>
		</g>
		<g>
			<rect x="154.5" y="120.9" class="st0" width="3.1" height="10.8"/>
			<path class="st1" d="M156.4,130.1c-0.1-0.3-0.2,0.1-0.5,0c0.2-0.2,0.2-0.5,0.1-0.8c0.2-0.2,0.4-0.4,0.7-0.2
				c-0.5-1.1-0.5-2.4-0.8-3.3c-0.3,0.1-0.5,0-0.7-0.3c1.3-0.8-0.2-2,0.6-2.9c-0.2-0.6-1-0.5-1.2-1c0.5-1.8,3.4-0.2,2.2,1.2
				c0.5,2,1.4,4.8,0.5,6.6c0.6,0.6,0.1,1.2,0.1,2c-0.3,0.2-0.4,0.2-0.7,0.1C156.6,131.1,155.8,130.5,156.4,130.1z"/>
		</g>
		<g>
			<rect x="154.5" y="121.4" class="st0" width="3.1" height="10.8"/>
			<path class="st1" d="M156.4,130.7c-0.1-0.3-0.2,0.1-0.5,0c0.2-0.2,0.2-0.5,0.1-0.8c0.2-0.2,0.4-0.4,0.7-0.2
				c-0.5-1.1-0.5-2.4-0.8-3.3c-0.3,0.1-0.5,0-0.7-0.3c1.3-0.8-0.2-2,0.6-2.9c-0.2-0.6-1-0.5-1.2-1c0.5-1.8,3.4-0.2,2.2,1.2
				c0.5,2,1.4,4.8,0.5,6.6c0.6,0.6,0.1,1.2,0.1,2c-0.3,0.2-0.4,0.2-0.7,0.1C156.6,131.6,155.8,131,156.4,130.7z"/>
		</g>
		<g>
			<rect x="154.5" y="121.9" class="st0" width="3.1" height="10.8"/>
			<path class="st1" d="M156.4,131.2c-0.1-0.3-0.2,0.1-0.5,0c0.2-0.2,0.2-0.5,0.1-0.8c0.2-0.2,0.4-0.4,0.7-0.2
				c-0.5-1.1-0.5-2.4-0.8-3.3c-0.3,0.1-0.5,0-0.7-0.3c1.3-0.8-0.2-2,0.6-2.9c-0.2-0.6-1-0.5-1.2-1c0.5-1.8,3.4-0.2,2.2,1.2
				c0.5,2,1.4,4.8,0.5,6.6c0.6,0.6,0.1,1.2,0.1,2c-0.3,0.2-0.4,0.2-0.7,0.1C156.6,132.1,155.8,131.6,156.4,131.2z"/>
		</g>
		<g>
			<rect x="154.5" y="122.5" class="st0" width="3.1" height="10.8"/>
			<path class="st1" d="M156.4,131.7c-0.1-0.3-0.2,0.1-0.5,0c0.2-0.2,0.2-0.5,0.1-0.8c0.2-0.2,0.4-0.4,0.7-0.2
				c-0.5-1.1-0.5-2.4-0.8-3.3c-0.3,0.1-0.5,0-0.7-0.3c1.3-0.8-0.2-2,0.6-2.9c-0.2-0.6-1-0.5-1.2-1c0.5-1.8,3.4-0.2,2.2,1.2
				c0.5,2,1.4,4.8,0.5,6.6c0.6,0.6,0.1,1.2,0.1,2c-0.3,0.2-0.4,0.2-0.7,0.1C156.6,132.7,155.8,132.1,156.4,131.7z"/>
		</g>
		<g>
			<rect x="154.5" y="123" class="st0" width="3.1" height="10.8"/>
			<path class="st1" d="M156.4,132.3c-0.1-0.3-0.2,0.1-0.5,0c0.2-0.2,0.2-0.5,0.1-0.8c0.2-0.2,0.4-0.4,0.7-0.2
				c-0.5-1.1-0.5-2.4-0.8-3.3c-0.3,0.1-0.5,0-0.7-0.3c1.3-0.8-0.2-2,0.6-2.9c-0.2-0.6-1-0.5-1.2-1c0.5-1.8,3.4-0.2,2.2,1.2
				c0.5,2,1.4,4.8,0.5,6.6c0.6,0.6,0.1,1.2,0.1,2c-0.3,0.2-0.4,0.2-0.7,0.1C156.6,133.2,155.8,132.6,156.4,132.3z"/>
		</g>
		<g>
			<rect x="154.5" y="123.6" class="st0" width="3.1" height="10.8"/>
			<path class="st1" d="M156.4,132.8c-0.1-0.3-0.2,0.1-0.5,0c0.2-0.2,0.2-0.5,0.1-0.8c0.2-0.2,0.4-0.4,0.7-0.2
				c-0.5-1.1-0.5-2.4-0.8-3.3c-0.3,0.1-0.5,0-0.7-0.3c1.3-0.8-0.2-2,0.6-2.9c-0.2-0.6-1-0.5-1.2-1c0.5-1.8,3.4-0.2,2.2,1.2
				c0.5,2,1.4,4.8,0.5,6.6c0.6,0.6,0.1,1.2,0.1,2c-0.3,0.2-0.4,0.2-0.7,0.1C156.6,133.8,155.8,133.2,156.4,132.8z"/>
		</g>
		<g>
			<rect x="154.5" y="124.1" class="st0" width="3.1" height="10.8"/>
			<path class="st1" d="M156.4,133.3c-0.1-0.3-0.2,0.1-0.5,0c0.2-0.2,0.2-0.5,0.1-0.8c0.2-0.2,0.4-0.4,0.7-0.2
				c-0.5-1.1-0.5-2.4-0.8-3.3c-0.3,0.1-0.5,0-0.7-0.3c1.3-0.8-0.2-2,0.6-2.9c-0.2-0.6-1-0.5-1.2-1c0.5-1.8,3.4-0.2,2.2,1.2
				c0.5,2,1.4,4.8,0.5,6.6c0.6,0.6,0.1,1.2,0.1,2c-0.3,0.2-0.4,0.2-0.7,0.1C156.6,134.3,155.8,133.7,156.4,133.3z"/>
		</g>
		<g>
			<rect x="154.5" y="124.6" class="st0" width="3.1" height="10.8"/>
			<path class="st1" d="M156.4,133.9c-0.1-0.3-0.2,0.1-0.5,0c0.2-0.2,0.2-0.5,0.1-0.8c0.2-0.2,0.4-0.4,0.7-0.2
				c-0.5-1.1-0.5-2.4-0.8-3.3c-0.3,0.1-0.5,0-0.7-0.3c1.3-0.8-0.2-2,0.6-2.9c-0.2-0.6-1-0.5-1.2-1c0.5-1.8,3.4-0.2,2.2,1.2
				c0.5,2,1.4,4.8,0.5,6.6c0.6,0.6,0.1,1.2,0.1,2c-0.3,0.2-0.4,0.2-0.7,0.1C156.6,134.8,155.8,134.3,156.4,133.9z"/>
		</g>
		<g>
			<rect x="154.5" y="125.2" class="st0" width="3.1" height="10.8"/>
			<path class="st1" d="M156.4,134.4c-0.1-0.3-0.2,0.1-0.5,0c0.2-0.2,0.2-0.5,0.1-0.8c0.2-0.2,0.4-0.4,0.7-0.2
				c-0.5-1.1-0.5-2.4-0.8-3.3c-0.3,0.1-0.5,0-0.7-0.3c1.3-0.8-0.2-2,0.6-2.9c-0.2-0.6-1-0.5-1.2-1c0.5-1.8,3.4-0.2,2.2,1.2
				c0.5,2,1.4,4.8,0.5,6.6c0.6,0.6,0.1,1.2,0.1,2c-0.3,0.2-0.4,0.2-0.7,0.1C156.6,135.4,155.8,134.8,156.4,134.4z"/>
		</g>
		<g>
			<rect x="154.5" y="125.7" class="st0" width="3.1" height="10.8"/>
			<path class="st1" d="M156.4,135c-0.1-0.3-0.2,0.1-0.5,0c0.2-0.2,0.2-0.5,0.1-0.8c0.2-0.2,0.4-0.4,0.7-0.2
				c-0.5-1.1-0.5-2.4-0.8-3.3c-0.3,0.1-0.5,0-0.7-0.3c1.3-0.8-0.2-2,0.6-2.9c-0.2-0.6-1-0.5-1.2-1c0.5-1.8,3.4-0.2,2.2,1.2
				c0.5,2,1.4,4.8,0.5,6.6c0.6,0.6,0.1,1.2,0.1,2c-0.3,0.2-0.4,0.2-0.7,0.1C156.6,135.9,155.8,135.3,156.4,135z"/>
		</g>
		<g>
			<rect x="154.5" y="126.3" class="st0" width="3.1" height="10.8"/>
			<path class="st1" d="M156.4,135.5c-0.1-0.3-0.2,0.1-0.5,0c0.2-0.2,0.2-0.5,0.1-0.8c0.2-0.2,0.4-0.4,0.7-0.2
				c-0.5-1.1-0.5-2.4-0.8-3.3c-0.3,0.1-0.5,0-0.7-0.3c1.3-0.8-0.2-2,0.6-2.9c-0.2-0.6-1-0.5-1.2-1c0.5-1.8,3.4-0.2,2.2,1.2
				c0.5,2,1.4,4.8,0.5,6.6c0.6,0.6,0.1,1.2,0.1,2c-0.3,0.2-0.4,0.2-0.7,0.1C156.6,136.5,155.8,135.9,156.4,135.5z"/>
		</g>
		<g>
			<rect x="154.5" y="126.8" class="st0" width="3.1" height="10.8"/>
			<path class="st1" d="M156.4,136c-0.1-0.3-0.2,0.1-0.5,0c0.2-0.2,0.2-0.5,0.1-0.8c0.2-0.2,0.4-0.4,0.7-0.2
				c-0.5-1.1-0.5-2.4-0.8-3.3c-0.3,0.1-0.5,0-0.7-0.3c1.3-0.8-0.2-2,0.6-2.9c-0.2-0.6-1-0.5-1.2-1c0.5-1.8,3.4-0.2,2.2,1.2
				c0.5,2,1.4,4.8,0.5,6.6c0.6,0.6,0.1,1.2,0.1,2c-0.3,0.2-0.4,0.2-0.7,0.1C156.6,137,155.8,136.4,156.4,136z"/>
		</g>
		<g>
			<rect x="154.5" y="127.3" class="st0" width="3.1" height="10.8"/>
			<path class="st1" d="M156.4,136.6c-0.1-0.3-0.2,0.1-0.5,0c0.2-0.2,0.2-0.5,0.1-0.8c0.2-0.2,0.4-0.4,0.7-0.2
				c-0.5-1.1-0.5-2.4-0.8-3.3c-0.3,0.1-0.5,0-0.7-0.3c1.3-0.8-0.2-2,0.6-2.9c-0.2-0.6-1-0.5-1.2-1c0.5-1.8,3.4-0.2,2.2,1.2
				c0.5,2,1.4,4.8,0.5,6.6c0.6,0.6,0.1,1.2,0.1,2c-0.3,0.2-0.4,0.2-0.7,0.1C156.6,137.5,155.8,137,156.4,136.6z"/>
		</g>
		<g>
			<rect x="154.5" y="127.9" class="st0" width="3.1" height="10.8"/>
			<path class="st1" d="M156.4,137.1c-0.1-0.3-0.2,0.1-0.5,0c0.2-0.2,0.2-0.5,0.1-0.8c0.2-0.2,0.4-0.4,0.7-0.2
				c-0.5-1.1-0.5-2.4-0.8-3.3c-0.3,0.1-0.5,0-0.7-0.3c1.3-0.8-0.2-2,0.6-2.9c-0.2-0.6-1-0.5-1.2-1c0.5-1.8,3.4-0.2,2.2,1.2
				c0.5,2,1.4,4.8,0.5,6.6c0.6,0.6,0.1,1.2,0.1,2c-0.3,0.2-0.4,0.2-0.7,0.1C156.6,138.1,155.8,137.5,156.4,137.1z"/>
		</g>
		<g>
			<rect x="154.5" y="128.4" class="st0" width="3.1" height="10.8"/>
			<path class="st1" d="M156.4,137.7c-0.1-0.3-0.2,0.1-0.5,0c0.2-0.2,0.2-0.5,0.1-0.8c0.2-0.2,0.4-0.4,0.7-0.2
				c-0.5-1.1-0.5-2.4-0.8-3.3c-0.3,0.1-0.5,0-0.7-0.3c1.3-0.8-0.2-2,0.6-2.9c-0.2-0.6-1-0.5-1.2-1c0.5-1.8,3.4-0.2,2.2,1.2
				c0.5,2,1.4,4.8,0.5,6.6c0.6,0.6,0.1,1.2,0.1,2c-0.3,0.2-0.4,0.2-0.7,0.1C156.6,138.6,155.8,138,156.4,137.7z"/>
		</g>
		<g>
			<rect x="154.5" y="129" class="st0" width="3.1" height="10.8"/>
			<path class="st1" d="M156.4,138.2c-0.1-0.3-0.2,0.1-0.5,0c0.2-0.2,0.2-0.5,0.1-0.8c0.2-0.2,0.4-0.4,0.7-0.2
				c-0.5-1.1-0.5-2.4-0.8-3.3c-0.3,0.1-0.5,0-0.7-0.3c1.3-0.8-0.2-2,0.6-2.9c-0.2-0.6-1-0.5-1.2-1c0.5-1.8,3.4-0.2,2.2,1.2
				c0.5,2,1.4,4.8,0.5,6.6c0.6,0.6,0.1,1.2,0.1,2c-0.3,0.2-0.4,0.2-0.7,0.1C156.6,139.1,155.8,138.6,156.4,138.2z"/>
		</g>
		<g>
			<rect x="154.5" y="129.5" class="st0" width="3.1" height="10.8"/>
			<path class="st1" d="M156.4,138.7c-0.1-0.3-0.2,0.1-0.5,0c0.2-0.2,0.2-0.5,0.1-0.8c0.2-0.2,0.4-0.4,0.7-0.2
				c-0.5-1.1-0.5-2.4-0.8-3.3c-0.3,0.1-0.5,0-0.7-0.3c1.3-0.8-0.2-2,0.6-2.9c-0.2-0.6-1-0.5-1.2-1c0.5-1.8,3.4-0.2,2.2,1.2
				c0.5,2,1.4,4.8,0.5,6.6c0.6,0.6,0.1,1.2,0.1,2c-0.3,0.2-0.4,0.2-0.7,0.1C156.6,139.7,155.8,139.1,156.4,138.7z"/>
		</g>
		<g>
			<rect x="154.5" y="130" class="st0" width="3.1" height="10.8"/>
			<path class="st1" d="M156.4,139.3c-0.1-0.3-0.2,0.1-0.5,0c0.2-0.2,0.2-0.5,0.1-0.8c0.2-0.2,0.4-0.4,0.7-0.2
				c-0.5-1.1-0.5-2.4-0.8-3.3c-0.3,0.1-0.5,0-0.7-0.3c1.3-0.8-0.2-2,0.6-2.9c-0.2-0.6-1-0.5-1.2-1c0.5-1.8,3.4-0.2,2.2,1.2
				c0.5,2,1.4,4.8,0.5,6.6c0.6,0.6,0.1,1.2,0.1,2c-0.3,0.2-0.4,0.2-0.7,0.1C156.6,140.2,155.8,139.7,156.4,139.3z"/>
		</g>
		<g>
			<rect x="154.5" y="130.6" class="st0" width="3.1" height="10.8"/>
			<path class="st1" d="M156.4,139.8c-0.1-0.3-0.2,0.1-0.5,0c0.2-0.2,0.2-0.5,0.1-0.8c0.2-0.2,0.4-0.4,0.7-0.2
				c-0.5-1.1-0.5-2.4-0.8-3.3c-0.3,0.1-0.5,0-0.7-0.3c1.3-0.8-0.2-2,0.6-2.9c-0.2-0.6-1-0.5-1.2-1c0.5-1.8,3.4-0.2,2.2,1.2
				c0.5,2,1.4,4.8,0.5,6.6c0.6,0.6,0.1,1.2,0.1,2c-0.3,0.2-0.4,0.2-0.7,0.1C156.6,140.8,155.8,140.2,156.4,139.8z"/>
		</g>
		<g>
			<rect x="154.5" y="131.1" class="st0" width="3.1" height="10.8"/>
			<path class="st1" d="M156.4,140.4c-0.1-0.3-0.2,0.1-0.5,0c0.2-0.2,0.2-0.5,0.1-0.8c0.2-0.2,0.4-0.4,0.7-0.2
				c-0.5-1.1-0.5-2.4-0.8-3.3c-0.3,0.1-0.5,0-0.7-0.3c1.3-0.8-0.2-2,0.6-2.9c-0.2-0.6-1-0.5-1.2-1c0.5-1.8,3.4-0.2,2.2,1.2
				c0.5,2,1.4,4.8,0.5,6.6c0.6,0.6,0.1,1.2,0.1,2c-0.3,0.2-0.4,0.2-0.7,0.1C156.6,141.3,155.8,140.7,156.4,140.4z"/>
		</g>
		<g>
			<rect x="154.5" y="131.7" class="st0" width="3.1" height="10.8"/>
			<path class="st1" d="M156.4,140.9c-0.1-0.3-0.2,0.1-0.5,0c0.2-0.2,0.2-0.5,0.1-0.8c0.2-0.2,0.4-0.4,0.7-0.2
				c-0.5-1.1-0.5-2.4-0.8-3.3c-0.3,0.1-0.5,0-0.7-0.3c1.3-0.8-0.2-2,0.6-2.9c-0.2-0.6-1-0.5-1.2-1c0.5-1.8,3.4-0.2,2.2,1.2
				c0.5,2,1.4,4.8,0.5,6.6c0.6,0.6,0.1,1.2,0.1,2c-0.3,0.2-0.4,0.2-0.7,0.1C156.6,141.8,155.8,141.3,156.4,140.9z"/>
		</g>
		<g>
			<rect x="154.5" y="132.2" class="st0" width="3.1" height="10.8"/>
			<path class="st1" d="M156.4,141.4c-0.1-0.3-0.2,0.1-0.5,0c0.2-0.2,0.2-0.5,0.1-0.8c0.2-0.2,0.4-0.4,0.7-0.2
				c-0.5-1.1-0.5-2.4-0.8-3.3c-0.3,0.1-0.5,0-0.7-0.3c1.3-0.8-0.2-2,0.6-2.9c-0.2-0.6-1-0.5-1.2-1c0.5-1.8,3.4-0.2,2.2,1.2
				c0.5,2,1.4,4.8,0.5,6.6c0.6,0.6,0.1,1.2,0.1,2c-0.3,0.2-0.4,0.2-0.7,0.1C156.6,142.4,155.8,141.8,156.4,141.4z"/>
		</g>
		<g>
			<rect x="154.5" y="132.7" class="st0" width="3.1" height="10.8"/>
			<path class="st1" d="M156.4,142c-0.1-0.3-0.2,0.1-0.5,0c0.2-0.2,0.2-0.5,0.1-0.8c0.2-0.2,0.4-0.4,0.7-0.2
				c-0.5-1.1-0.5-2.4-0.8-3.3c-0.3,0.1-0.5,0-0.7-0.3c1.3-0.8-0.2-2,0.6-2.9c-0.2-0.6-1-0.5-1.2-1c0.5-1.8,3.4-0.2,2.2,1.2
				c0.5,2,1.4,4.8,0.5,6.6c0.6,0.6,0.1,1.2,0.1,2c-0.3,0.2-0.4,0.2-0.7,0.1C156.6,142.9,155.8,142.4,156.4,142z"/>
		</g>
		<g>
			<rect x="154.5" y="133.3" class="st0" width="3.1" height="10.8"/>
			<path class="st1" d="M156.4,142.5c-0.1-0.3-0.2,0.1-0.5,0c0.2-0.2,0.2-0.5,0.1-0.8c0.2-0.2,0.4-0.4,0.7-0.2
				c-0.5-1.1-0.5-2.4-0.8-3.3c-0.3,0.1-0.5,0-0.7-0.3c1.3-0.8-0.2-2,0.6-2.9c-0.2-0.6-1-0.5-1.2-1c0.5-1.8,3.4-0.2,2.2,1.2
				c0.5,2,1.4,4.8,0.5,6.6c0.6,0.6,0.1,1.2,0.1,2c-0.3,0.2-0.4,0.2-0.7,0.1C156.6,143.5,155.8,142.9,156.4,142.5z"/>
		</g>
		<g>
			<rect x="154.5" y="133.8" class="st0" width="3.1" height="10.8"/>
			<path class="st1" d="M156.4,143.1c-0.1-0.3-0.2,0.1-0.5,0c0.2-0.2,0.2-0.5,0.1-0.8c0.2-0.2,0.4-0.4,0.7-0.2
				c-0.5-1.1-0.5-2.4-0.8-3.3c-0.3,0.1-0.5,0-0.7-0.3c1.3-0.8-0.2-2,0.6-2.9c-0.2-0.6-1-0.5-1.2-1c0.5-1.8,3.4-0.2,2.2,1.2
				c0.5,2,1.4,4.8,0.5,6.6c0.6,0.6,0.1,1.2,0.1,2c-0.3,0.2-0.4,0.2-0.7,0.1C156.6,144,155.8,143.4,156.4,143.1z"/>
		</g>
		<g>
			<rect x="154.5" y="134.4" class="st0" width="3.1" height="10.8"/>
			<path class="st1" d="M156.4,143.6c-0.1-0.3-0.2,0.1-0.5,0c0.2-0.2,0.2-0.5,0.1-0.8c0.2-0.2,0.4-0.4,0.7-0.2
				c-0.5-1.1-0.5-2.4-0.8-3.3c-0.3,0.1-0.5,0-0.7-0.3c1.3-0.8-0.2-2,0.6-2.9c-0.2-0.6-1-0.5-1.2-1c0.5-1.8,3.4-0.2,2.2,1.2
				c0.5,2,1.4,4.8,0.5,6.6c0.6,0.6,0.1,1.2,0.1,2c-0.3,0.2-0.4,0.2-0.7,0.1C156.6,144.5,155.8,144,156.4,143.6z"/>
		</g>
		<g>
			<rect x="154.5" y="134.9" class="st0" width="3.1" height="10.8"/>
			<path class="st1" d="M156.4,144.1c-0.1-0.3-0.2,0.1-0.5,0c0.2-0.2,0.2-0.5,0.1-0.8c0.2-0.2,0.4-0.4,0.7-0.2
				c-0.5-1.1-0.5-2.4-0.8-3.3c-0.3,0.1-0.5,0-0.7-0.3c1.3-0.8-0.2-2,0.6-2.9c-0.2-0.6-1-0.5-1.2-1c0.5-1.8,3.4-0.2,2.2,1.2
				c0.5,2,1.4,4.8,0.5,6.6c0.6,0.6,0.1,1.2,0.1,2c-0.3,0.2-0.4,0.2-0.7,0.1C156.6,145.1,155.8,144.5,156.4,144.1z"/>
		</g>
		<g>
			<rect x="154.5" y="135.4" class="st0" width="3.1" height="10.8"/>
			<path class="st1" d="M156.4,144.7c-0.1-0.3-0.2,0.1-0.5,0c0.2-0.2,0.2-0.5,0.1-0.8c0.2-0.2,0.4-0.4,0.7-0.2
				c-0.5-1.1-0.5-2.4-0.8-3.3c-0.3,0.1-0.5,0-0.7-0.3c1.3-0.8-0.2-2,0.6-2.9c-0.2-0.6-1-0.5-1.2-1c0.5-1.8,3.4-0.2,2.2,1.2
				c0.5,2,1.4,4.8,0.5,6.6c0.6,0.6,0.1,1.2,0.1,2c-0.3,0.2-0.4,0.2-0.7,0.1C156.6,145.6,155.8,145.1,156.4,144.7z"/>
		</g>
		<g>
			<rect x="154.5" y="136" class="st0" width="3.1" height="10.8"/>
			<path class="st1" d="M156.4,145.2c-0.1-0.3-0.2,0.1-0.5,0c0.2-0.2,0.2-0.5,0.1-0.8c0.2-0.2,0.4-0.4,0.7-0.2
				c-0.5-1.1-0.5-2.4-0.8-3.3c-0.3,0.1-0.5,0-0.7-0.3c1.3-0.8-0.2-2,0.6-2.9c-0.2-0.6-1-0.5-1.2-1c0.5-1.8,3.4-0.2,2.2,1.2
				c0.5,2,1.4,4.8,0.5,6.6c0.6,0.6,0.1,1.2,0.1,2c-0.3,0.2-0.4,0.2-0.7,0.1C156.6,146.2,155.8,145.6,156.4,145.2z"/>
		</g>
		<g>
			<rect x="154.5" y="136.5" class="st0" width="3.1" height="10.8"/>
			<path class="st1" d="M156.4,145.8c-0.1-0.3-0.2,0.1-0.5,0c0.2-0.2,0.2-0.5,0.1-0.8c0.2-0.2,0.4-0.4,0.7-0.2
				c-0.5-1.1-0.5-2.4-0.8-3.3c-0.3,0.1-0.5,0-0.7-0.3c1.3-0.8-0.2-2,0.6-2.9c-0.2-0.6-1-0.5-1.2-1c0.5-1.8,3.4-0.2,2.2,1.2
				c0.5,2,1.4,4.8,0.5,6.6c0.6,0.6,0.1,1.2,0.1,2c-0.3,0.2-0.4,0.2-0.7,0.1C156.6,146.7,155.8,146.1,156.4,145.8z"/>
		</g>
		<g>
			<rect x="154.5" y="137.1" class="st0" width="3.1" height="10.8"/>
			<path class="st1" d="M156.4,146.3c-0.1-0.3-0.2,0.1-0.5,0c0.2-0.2,0.2-0.5,0.1-0.8c0.2-0.2,0.4-0.4,0.7-0.2
				c-0.5-1.1-0.5-2.4-0.8-3.3c-0.3,0.1-0.5,0-0.7-0.3c1.3-0.8-0.2-2,0.6-2.9c-0.2-0.6-1-0.5-1.2-1c0.5-1.8,3.4-0.2,2.2,1.2
				c0.5,2,1.4,4.8,0.5,6.6c0.6,0.6,0.1,1.2,0.1,2c-0.3,0.2-0.4,0.2-0.7,0.1C156.6,147.2,155.8,146.7,156.4,146.3z"/>
		</g>
		<g>
			<rect x="154.5" y="137.6" class="st0" width="3.1" height="10.8"/>
			<path class="st1" d="M156.4,146.8c-0.1-0.3-0.2,0.1-0.5,0c0.2-0.2,0.2-0.5,0.1-0.8c0.2-0.2,0.4-0.4,0.7-0.2
				c-0.5-1.1-0.5-2.4-0.8-3.3c-0.3,0.1-0.5,0-0.7-0.3c1.3-0.8-0.2-2,0.6-2.9c-0.2-0.6-1-0.5-1.2-1c0.5-1.8,3.4-0.2,2.2,1.2
				c0.5,2,1.4,4.8,0.5,6.6c0.6,0.6,0.1,1.2,0.1,2c-0.3,0.2-0.4,0.2-0.7,0.1C156.6,147.8,155.8,147.2,156.4,146.8z"/>
		</g>
		<g>
			<rect x="154.5" y="138.1" class="st0" width="3.1" height="10.8"/>
			<path class="st1" d="M156.4,147.4c-0.1-0.3-0.2,0.1-0.5,0c0.2-0.2,0.2-0.5,0.1-0.8c0.2-0.2,0.4-0.4,0.7-0.2
				c-0.5-1.1-0.5-2.4-0.8-3.3c-0.3,0.1-0.5,0-0.7-0.3c1.3-0.8-0.2-2,0.6-2.9c-0.2-0.6-1-0.5-1.2-1c0.5-1.8,3.4-0.2,2.2,1.2
				c0.5,2,1.4,4.8,0.5,6.6c0.6,0.6,0.1,1.2,0.1,2c-0.3,0.2-0.4,0.2-0.7,0.1C156.6,148.3,155.8,147.8,156.4,147.4z"/>
		</g>
		<g>
			<rect x="154.5" y="138.7" class="st0" width="3.1" height="10.8"/>
			<path class="st1" d="M156.4,147.9c-0.1-0.3-0.2,0.1-0.5,0c0.2-0.2,0.2-0.5,0.1-0.8c0.2-0.2,0.4-0.4,0.7-0.2
				c-0.5-1.1-0.5-2.4-0.8-3.3c-0.3,0.1-0.5,0-0.7-0.3c1.3-0.8-0.2-2,0.6-2.9c-0.2-0.6-1-0.5-1.2-1c0.5-1.8,3.4-0.2,2.2,1.2
				c0.5,2,1.4,4.8,0.5,6.6c0.6,0.6,0.1,1.2,0.1,2c-0.3,0.2-0.4,0.2-0.7,0.1C156.6,148.9,155.8,148.3,156.4,147.9z"/>
		</g>
		<g>
			<rect x="154.5" y="139.2" class="st0" width="3.1" height="10.8"/>
			<path class="st1" d="M156.4,148.5c-0.1-0.3-0.2,0.1-0.5,0c0.2-0.2,0.2-0.5,0.1-0.8c0.2-0.2,0.4-0.4,0.7-0.2
				c-0.5-1.1-0.5-2.4-0.8-3.3c-0.3,0.1-0.5,0-0.7-0.3c1.3-0.8-0.2-2,0.6-2.9c-0.2-0.6-1-0.5-1.2-1c0.5-1.8,3.4-0.2,2.2,1.2
				c0.5,2,1.4,4.8,0.5,6.6c0.6,0.6,0.1,1.2,0.1,2c-0.3,0.2-0.4,0.2-0.7,0.1C156.6,149.4,155.8,148.8,156.4,148.5z"/>
		</g>
		<g>
			<rect x="154.5" y="139.7" class="st0" width="3.1" height="10.8"/>
			<path class="st1" d="M156.4,149c-0.1-0.3-0.2,0.1-0.5,0c0.2-0.2,0.2-0.5,0.1-0.8c0.2-0.2,0.4-0.4,0.7-0.2
				c-0.5-1.1-0.5-2.4-0.8-3.3c-0.3,0.1-0.5,0-0.7-0.3c1.3-0.8-0.2-2,0.6-2.9c-0.2-0.6-1-0.5-1.2-1c0.5-1.8,3.4-0.2,2.2,1.2
				c0.5,2,1.4,4.8,0.5,6.6c0.6,0.6,0.1,1.2,0.1,2c-0.3,0.2-0.4,0.2-0.7,0.1C156.6,149.9,155.8,149.4,156.4,149z"/>
		</g>
		<g>
			<rect x="154.5" y="140.3" class="st0" width="3.1" height="10.8"/>
			<path class="st1" d="M156.4,149.5c-0.1-0.3-0.2,0.1-0.5,0c0.2-0.2,0.2-0.5,0.1-0.8c0.2-0.2,0.4-0.4,0.7-0.2
				c-0.5-1.1-0.5-2.4-0.8-3.3c-0.3,0.1-0.5,0-0.7-0.3c1.3-0.8-0.2-2,0.6-2.9c-0.2-0.6-1-0.5-1.2-1c0.5-1.8,3.4-0.2,2.2,1.2
				c0.5,2,1.4,4.8,0.5,6.6c0.6,0.6,0.1,1.2,0.1,2c-0.3,0.2-0.4,0.2-0.7,0.1C156.6,150.5,155.8,149.9,156.4,149.5z"/>
		</g>
		<g>
			<rect x="154.5" y="140.8" class="st0" width="3.1" height="10.8"/>
			<path class="st1" d="M156.4,150.1c-0.1-0.3-0.2,0.1-0.5,0c0.2-0.2,0.2-0.5,0.1-0.8c0.2-0.2,0.4-0.4,0.7-0.2
				c-0.5-1.1-0.5-2.4-0.8-3.3c-0.3,0.1-0.5,0-0.7-0.3c1.3-0.8-0.2-2,0.6-2.9c-0.2-0.6-1-0.5-1.2-1c0.5-1.8,3.4-0.2,2.2,1.2
				c0.5,2,1.4,4.8,0.5,6.6c0.6,0.6,0.1,1.2,0.1,2c-0.3,0.2-0.4,0.2-0.7,0.1C156.6,151,155.8,150.5,156.4,150.1z"/>
		</g>
		<g>
			<rect x="154.5" y="141.4" class="st0" width="3.1" height="10.8"/>
			<path class="st1" d="M156.4,150.6c-0.1-0.3-0.2,0.1-0.5,0c0.2-0.2,0.2-0.5,0.1-0.8c0.2-0.2,0.4-0.4,0.7-0.2
				c-0.5-1.1-0.5-2.4-0.8-3.3c-0.3,0.1-0.5,0-0.7-0.3c1.3-0.8-0.2-2,0.6-2.9c-0.2-0.6-1-0.5-1.2-1c0.5-1.8,3.4-0.2,2.2,1.2
				c0.5,2,1.4,4.8,0.5,6.6c0.6,0.6,0.1,1.2,0.1,2c-0.3,0.2-0.4,0.2-0.7,0.1C156.6,151.6,155.8,151,156.4,150.6z"/>
		</g>
		<g>
			<rect x="154.5" y="141.9" class="st0" width="3.1" height="10.8"/>
			<path class="st1" d="M156.4,151.2c-0.1-0.3-0.2,0.1-0.5,0c0.2-0.2,0.2-0.5,0.1-0.8c0.2-0.2,0.4-0.4,0.7-0.2
				c-0.5-1.1-0.5-2.4-0.8-3.3c-0.3,0.1-0.5,0-0.7-0.3c1.3-0.8-0.2-2,0.6-2.9c-0.2-0.6-1-0.5-1.2-1c0.5-1.8,3.4-0.2,2.2,1.2
				c0.5,2,1.4,4.8,0.5,6.6c0.6,0.6,0.1,1.2,0.1,2c-0.3,0.2-0.4,0.2-0.7,0.1C156.6,152.1,155.8,151.5,156.4,151.2z"/>
		</g>
		<g>
			<rect x="154.5" y="142.4" class="st0" width="3.1" height="10.8"/>
			<path class="st1" d="M156.4,151.7c-0.1-0.3-0.2,0.1-0.5,0c0.2-0.2,0.2-0.5,0.1-0.8c0.2-0.2,0.4-0.4,0.7-0.2
				c-0.5-1.1-0.5-2.4-0.8-3.3c-0.3,0.1-0.5,0-0.7-0.3c1.3-0.8-0.2-2,0.6-2.9c-0.2-0.6-1-0.5-1.2-1c0.5-1.8,3.4-0.2,2.2,1.2
				c0.5,2,1.4,4.8,0.5,6.6c0.6,0.6,0.1,1.2,0.1,2c-0.3,0.2-0.4,0.2-0.7,0.1C156.6,152.6,155.8,152.1,156.4,151.7z"/>
		</g>
		<g>
			<rect x="154.5" y="143" class="st0" width="3.1" height="10.8"/>
			<path class="st1" d="M156.4,152.2c-0.1-0.3-0.2,0.1-0.5,0c0.2-0.2,0.2-0.5,0.1-0.8c0.2-0.2,0.4-0.4,0.7-0.2
				c-0.5-1.1-0.5-2.4-0.8-3.3c-0.3,0.1-0.5,0-0.7-0.3c1.3-0.8-0.2-2,0.6-2.9c-0.2-0.6-1-0.5-1.2-1c0.5-1.8,3.4-0.2,2.2,1.2
				c0.5,2,1.4,4.8,0.5,6.6c0.6,0.6,0.1,1.2,0.1,2c-0.3,0.2-0.4,0.2-0.7,0.1C156.6,153.2,155.8,152.6,156.4,152.2z"/>
		</g>
		<g>
			<rect x="154.5" y="143.5" class="st0" width="3.1" height="10.8"/>
			<path class="st1" d="M156.4,152.8c-0.1-0.3-0.2,0.1-0.5,0c0.2-0.2,0.2-0.5,0.1-0.8c0.2-0.2,0.4-0.4,0.7-0.2
				c-0.5-1.1-0.5-2.4-0.8-3.3c-0.3,0.1-0.5,0-0.7-0.3c1.3-0.8-0.2-2,0.6-2.9c-0.2-0.6-1-0.5-1.2-1c0.5-1.8,3.4-0.2,2.2,1.2
				c0.5,2,1.4,4.8,0.5,6.6c0.6,0.6,0.1,1.2,0.1,2c-0.3,0.2-0.4,0.2-0.7,0.1C156.6,153.7,155.8,153.2,156.4,152.8z"/>
		</g>
		<g>
			<rect x="154.5" y="144.1" class="st0" width="3.1" height="10.8"/>
			<path class="st1" d="M156.4,153.3c-0.1-0.3-0.2,0.1-0.5,0c0.2-0.2,0.2-0.5,0.1-0.8c0.2-0.2,0.4-0.4,0.7-0.2
				c-0.5-1.1-0.5-2.4-0.8-3.3c-0.3,0.1-0.5,0-0.7-0.3c1.3-0.8-0.2-2,0.6-2.9c-0.2-0.6-1-0.5-1.2-1c0.5-1.8,3.4-0.2,2.2,1.2
				c0.5,2,1.4,4.8,0.5,6.6c0.6,0.6,0.1,1.2,0.1,2c-0.3,0.2-0.4,0.2-0.7,0.1C156.6,154.3,155.8,153.7,156.4,153.3z"/>
		</g>
		<g>
			<rect x="154.5" y="144.6" class="st0" width="3.1" height="10.8"/>
			<path class="st1" d="M156.4,153.9c-0.1-0.3-0.2,0.1-0.5,0c0.2-0.2,0.2-0.5,0.1-0.8c0.2-0.2,0.4-0.4,0.7-0.2
				c-0.5-1.1-0.5-2.4-0.8-3.3c-0.3,0.1-0.5,0-0.7-0.3c1.3-0.8-0.2-2,0.6-2.9c-0.2-0.6-1-0.5-1.2-1c0.5-1.8,3.4-0.2,2.2,1.2
				c0.5,2,1.4,4.8,0.5,6.6c0.6,0.6,0.1,1.2,0.1,2c-0.3,0.2-0.4,0.2-0.7,0.1C156.6,154.8,155.8,154.2,156.4,153.9z"/>
		</g>
		<g>
			<rect x="154.5" y="145.1" class="st0" width="3.1" height="10.8"/>
			<path class="st1" d="M156.4,154.4c-0.1-0.3-0.2,0.1-0.5,0c0.2-0.2,0.2-0.5,0.1-0.8c0.2-0.2,0.4-0.4,0.7-0.2
				c-0.5-1.1-0.5-2.4-0.8-3.3c-0.3,0.1-0.5,0-0.7-0.3c1.3-0.8-0.2-2,0.6-2.9c-0.2-0.6-1-0.5-1.2-1c0.5-1.8,3.4-0.2,2.2,1.2
				c0.5,2,1.4,4.8,0.5,6.6c0.6,0.6,0.1,1.2,0.1,2c-0.3,0.2-0.4,0.2-0.7,0.1C156.6,155.3,155.8,154.8,156.4,154.4z"/>
		</g>
		<g>
			<rect x="154.5" y="145.7" class="st0" width="3.1" height="10.8"/>
			<path class="st1" d="M156.4,154.9c-0.1-0.3-0.2,0.1-0.5,0c0.2-0.2,0.2-0.5,0.1-0.8c0.2-0.2,0.4-0.4,0.7-0.2
				c-0.5-1.1-0.5-2.4-0.8-3.3c-0.3,0.1-0.5,0-0.7-0.3c1.3-0.8-0.2-2,0.6-2.9c-0.2-0.6-1-0.5-1.2-1c0.5-1.8,3.4-0.2,2.2,1.2
				c0.5,2,1.4,4.8,0.5,6.6c0.6,0.6,0.1,1.2,0.1,2c-0.3,0.2-0.4,0.2-0.7,0.1C156.6,155.9,155.8,155.3,156.4,154.9z"/>
		</g>
		<g>
			<rect x="154.5" y="146.2" class="st0" width="3.1" height="10.8"/>
			<path class="st1" d="M156.4,155.5c-0.1-0.3-0.2,0.1-0.5,0c0.2-0.2,0.2-0.5,0.1-0.8c0.2-0.2,0.4-0.4,0.7-0.2
				c-0.5-1.1-0.5-2.4-0.8-3.3c-0.3,0.1-0.5,0-0.7-0.3c1.3-0.8-0.2-2,0.6-2.9c-0.2-0.6-1-0.5-1.2-1c0.5-1.8,3.4-0.2,2.2,1.2
				c0.5,2,1.4,4.8,0.5,6.6c0.6,0.6,0.1,1.2,0.1,2c-0.3,0.2-0.4,0.2-0.7,0.1C156.6,156.4,155.8,155.8,156.4,155.5z"/>
		</g>
		<g>
			<rect x="154.5" y="146.8" class="st0" width="3.1" height="10.8"/>
			<path class="st1" d="M156.4,156c-0.1-0.3-0.2,0.1-0.5,0c0.2-0.2,0.2-0.5,0.1-0.8c0.2-0.2,0.4-0.4,0.7-0.2
				c-0.5-1.1-0.5-2.4-0.8-3.3c-0.3,0.1-0.5,0-0.7-0.3c1.3-0.8-0.2-2,0.6-2.9c-0.2-0.6-1-0.5-1.2-1c0.5-1.8,3.4-0.2,2.2,1.2
				c0.5,2,1.4,4.8,0.5,6.6c0.6,0.6,0.1,1.2,0.1,2c-0.3,0.2-0.4,0.2-0.7,0.1C156.6,157,155.8,156.4,156.4,156z"/>
		</g>
		<g>
			<rect x="154.5" y="147.3" class="st0" width="3.1" height="10.8"/>
			<path class="st1" d="M156.4,156.6c-0.1-0.3-0.2,0.1-0.5,0c0.2-0.2,0.2-0.5,0.1-0.8c0.2-0.2,0.4-0.4,0.7-0.2
				c-0.5-1.1-0.5-2.4-0.8-3.3c-0.3,0.1-0.5,0-0.7-0.3c1.3-0.8-0.2-2,0.6-2.9c-0.2-0.6-1-0.5-1.2-1c0.5-1.8,3.4-0.2,2.2,1.2
				c0.5,2,1.4,4.8,0.5,6.6c0.6,0.6,0.1,1.2,0.1,2c-0.3,0.2-0.4,0.2-0.7,0.1C156.6,157.5,155.8,156.9,156.4,156.6z"/>
		</g>
		<g>
			<rect x="154.5" y="147.8" class="st0" width="3.1" height="10.8"/>
			<path class="st1" d="M156.4,157.1c-0.1-0.3-0.2,0.1-0.5,0c0.2-0.2,0.2-0.5,0.1-0.8c0.2-0.2,0.4-0.4,0.7-0.2
				c-0.5-1.1-0.5-2.4-0.8-3.3c-0.3,0.1-0.5,0-0.7-0.3c1.3-0.8-0.2-2,0.6-2.9c-0.2-0.6-1-0.5-1.2-1c0.5-1.8,3.4-0.2,2.2,1.2
				c0.5,2,1.4,4.8,0.5,6.6c0.6,0.6,0.1,1.2,0.1,2c-0.3,0.2-0.4,0.2-0.7,0.1C156.6,158,155.8,157.5,156.4,157.1z"/>
		</g>
		<g>
			<rect x="154.5" y="148.4" class="st0" width="3.1" height="10.8"/>
			<path class="st1" d="M156.4,157.6c-0.1-0.3-0.2,0.1-0.5,0c0.2-0.2,0.2-0.5,0.1-0.8c0.2-0.2,0.4-0.4,0.7-0.2
				c-0.5-1.1-0.5-2.4-0.8-3.3c-0.3,0.1-0.5,0-0.7-0.3c1.3-0.8-0.2-2,0.6-2.9c-0.2-0.6-1-0.5-1.2-1c0.5-1.8,3.4-0.2,2.2,1.2
				c0.5,2,1.4,4.8,0.5,6.6c0.6,0.6,0.1,1.2,0.1,2c-0.3,0.2-0.4,0.2-0.7,0.1C156.6,158.6,155.8,158,156.4,157.6z"/>
		</g>
		<g>
			<rect x="154.5" y="148.9" class="st0" width="3.1" height="10.8"/>
			<path class="st1" d="M156.4,158.2c-0.1-0.3-0.2,0.1-0.5,0c0.2-0.2,0.2-0.5,0.1-0.8c0.2-0.2,0.4-0.4,0.7-0.2
				c-0.5-1.1-0.5-2.4-0.8-3.3c-0.3,0.1-0.5,0-0.7-0.3c1.3-0.8-0.2-2,0.6-2.9c-0.2-0.6-1-0.5-1.2-1c0.5-1.8,3.4-0.2,2.2,1.2
				c0.5,2,1.4,4.8,0.5,6.6c0.6,0.6,0.1,1.2,0.1,2c-0.3,0.2-0.4,0.2-0.7,0.1C156.6,159.1,155.8,158.5,156.4,158.2z"/>
		</g>
		<g>
			<rect x="154.5" y="149.5" class="st0" width="3.1" height="10.8"/>
			<path class="st1" d="M156.4,158.7c-0.1-0.3-0.2,0.1-0.5,0c0.2-0.2,0.2-0.5,0.1-0.8c0.2-0.2,0.4-0.4,0.7-0.2
				c-0.5-1.1-0.5-2.4-0.8-3.3c-0.3,0.1-0.5,0-0.7-0.3c1.3-0.8-0.2-2,0.6-2.9c-0.2-0.6-1-0.5-1.2-1c0.5-1.8,3.4-0.2,2.2,1.2
				c0.5,2,1.4,4.8,0.5,6.6c0.6,0.6,0.1,1.2,0.1,2c-0.3,0.2-0.4,0.2-0.7,0.1C156.6,159.7,155.8,159.1,156.4,158.7z"/>
		</g>
		<g>
			<rect x="154.5" y="150" class="st0" width="3.1" height="10.8"/>
			<path class="st1" d="M156.4,159.3c-0.1-0.3-0.2,0.1-0.5,0c0.2-0.2,0.2-0.5,0.1-0.8c0.2-0.2,0.4-0.4,0.7-0.2
				c-0.5-1.1-0.5-2.4-0.8-3.3c-0.3,0.1-0.5,0-0.7-0.3c1.3-0.8-0.2-2,0.6-2.9c-0.2-0.6-1-0.5-1.2-1c0.5-1.8,3.4-0.2,2.2,1.2
				c0.5,2,1.4,4.8,0.5,6.6c0.6,0.6,0.1,1.2,0.1,2c-0.3,0.2-0.4,0.2-0.7,0.1C156.6,160.2,155.8,159.6,156.4,159.3z"/>
		</g>
		<g>
			<rect x="154.5" y="150.5" class="st0" width="3.1" height="10.8"/>
			<path class="st1" d="M156.4,159.8c-0.1-0.3-0.2,0.1-0.5,0c0.2-0.2,0.2-0.5,0.1-0.8c0.2-0.2,0.4-0.4,0.7-0.2
				c-0.5-1.1-0.5-2.4-0.8-3.3c-0.3,0.1-0.5,0-0.7-0.3c1.3-0.8-0.2-2,0.6-2.9c-0.2-0.6-1-0.5-1.2-1c0.5-1.8,3.4-0.2,2.2,1.2
				c0.5,2,1.4,4.8,0.5,6.6c0.6,0.6,0.1,1.2,0.1,2c-0.3,0.2-0.4,0.2-0.7,0.1C156.6,160.7,155.8,160.2,156.4,159.8z"/>
		</g>
		<g>
			<rect x="154.5" y="151.1" class="st0" width="3.1" height="10.8"/>
			<path class="st1" d="M156.4,160.3c-0.1-0.3-0.2,0.1-0.5,0c0.2-0.2,0.2-0.5,0.1-0.8c0.2-0.2,0.4-0.4,0.7-0.2
				c-0.5-1.1-0.5-2.4-0.8-3.3c-0.3,0.1-0.5,0-0.7-0.3c1.3-0.8-0.2-2,0.6-2.9c-0.2-0.6-1-0.5-1.2-1c0.5-1.8,3.4-0.2,2.2,1.2
				c0.5,2,1.4,4.8,0.5,6.6c0.6,0.6,0.1,1.2,0.1,2c-0.3,0.2-0.4,0.2-0.7,0.1C156.6,161.3,155.8,160.7,156.4,160.3z"/>
		</g>
		<g>
			<rect x="154.5" y="151.6" class="st0" width="3.1" height="10.8"/>
			<path class="st1" d="M156.4,160.9c-0.1-0.3-0.2,0.1-0.5,0c0.2-0.2,0.2-0.5,0.1-0.8c0.2-0.2,0.4-0.4,0.7-0.2
				c-0.5-1.1-0.5-2.4-0.8-3.3c-0.3,0.1-0.5,0-0.7-0.3c1.3-0.8-0.2-2,0.6-2.9c-0.2-0.6-1-0.5-1.2-1c0.5-1.8,3.4-0.2,2.2,1.2
				c0.5,2,1.4,4.8,0.5,6.6c0.6,0.6,0.1,1.2,0.1,2c-0.3,0.2-0.4,0.2-0.7,0.1C156.6,161.8,155.8,161.2,156.4,160.9z"/>
		</g>
		<g>
			<rect x="154.5" y="152.2" class="st0" width="3.1" height="10.8"/>
			<path class="st1" d="M156.4,161.4c-0.1-0.3-0.2,0.1-0.5,0c0.2-0.2,0.2-0.5,0.1-0.8c0.2-0.2,0.4-0.4,0.7-0.2
				c-0.5-1.1-0.5-2.4-0.8-3.3c-0.3,0.1-0.5,0-0.7-0.3c1.3-0.8-0.2-2,0.6-2.9c-0.2-0.6-1-0.5-1.2-1c0.5-1.8,3.4-0.2,2.2,1.2
				c0.5,2,1.4,4.8,0.5,6.6c0.6,0.6,0.1,1.2,0.1,2c-0.3,0.2-0.4,0.2-0.7,0.1C156.6,162.4,155.8,161.8,156.4,161.4z"/>
		</g>
		<g>
			<rect x="154.5" y="152.7" class="st0" width="3.1" height="10.8"/>
			<path class="st1" d="M156.4,161.9c-0.1-0.3-0.2,0.1-0.5,0c0.2-0.2,0.2-0.5,0.1-0.8c0.2-0.2,0.4-0.4,0.7-0.2
				c-0.5-1.1-0.5-2.4-0.8-3.3c-0.3,0.1-0.5,0-0.7-0.3c1.3-0.8-0.2-2,0.6-2.9c-0.2-0.6-1-0.5-1.2-1c0.5-1.8,3.4-0.2,2.2,1.2
				c0.5,2,1.4,4.8,0.5,6.6c0.6,0.6,0.1,1.2,0.1,2c-0.3,0.2-0.4,0.2-0.7,0.1C156.6,162.9,155.8,162.3,156.4,161.9z"/>
		</g>
		<g>
			<rect x="154.5" y="153.2" class="st0" width="3.1" height="10.8"/>
			<path class="st1" d="M156.4,162.5c-0.1-0.3-0.2,0.1-0.5,0c0.2-0.2,0.2-0.5,0.1-0.8c0.2-0.2,0.4-0.4,0.7-0.2
				c-0.5-1.1-0.5-2.4-0.8-3.3c-0.3,0.1-0.5,0-0.7-0.3c1.3-0.8-0.2-2,0.6-2.9c-0.2-0.6-1-0.5-1.2-1c0.5-1.8,3.4-0.2,2.2,1.2
				c0.5,2,1.4,4.8,0.5,6.6c0.6,0.6,0.1,1.2,0.1,2c-0.3,0.2-0.4,0.2-0.7,0.1C156.6,163.4,155.8,162.9,156.4,162.5z"/>
		</g>
		<g>
			<rect x="154.5" y="153.8" class="st0" width="3.1" height="10.8"/>
			<path class="st1" d="M156.4,163c-0.1-0.3-0.2,0.1-0.5,0c0.2-0.2,0.2-0.5,0.1-0.8c0.2-0.2,0.4-0.4,0.7-0.2
				c-0.5-1.1-0.5-2.4-0.8-3.3c-0.3,0.1-0.5,0-0.7-0.3c1.3-0.8-0.2-2,0.6-2.9c-0.2-0.6-1-0.5-1.2-1c0.5-1.8,3.4-0.2,2.2,1.2
				c0.5,2,1.4,4.8,0.5,6.6c0.6,0.6,0.1,1.2,0.1,2c-0.3,0.2-0.4,0.2-0.7,0.1C156.6,164,155.8,163.4,156.4,163z"/>
		</g>
		<g>
			<rect x="154.5" y="154.3" class="st0" width="3.1" height="10.8"/>
			<path class="st1" d="M156.4,163.6c-0.1-0.3-0.2,0.1-0.5,0c0.2-0.2,0.2-0.5,0.1-0.8c0.2-0.2,0.4-0.4,0.7-0.2
				c-0.5-1.1-0.5-2.4-0.8-3.3c-0.3,0.1-0.5,0-0.7-0.3c1.3-0.8-0.2-2,0.6-2.9c-0.2-0.6-1-0.5-1.2-1c0.5-1.8,3.4-0.2,2.2,1.2
				c0.5,2,1.4,4.8,0.5,6.6c0.6,0.6,0.1,1.2,0.1,2c-0.3,0.2-0.4,0.2-0.7,0.1C156.6,164.5,155.8,163.9,156.4,163.6z"/>
		</g>
		<g>
			<rect x="154.5" y="154.9" class="st0" width="3.1" height="10.8"/>
			<path class="st1" d="M156.4,164.1c-0.1-0.3-0.2,0.1-0.5,0c0.2-0.2,0.2-0.5,0.1-0.8c0.2-0.2,0.4-0.4,0.7-0.2
				c-0.5-1.1-0.5-2.4-0.8-3.3c-0.3,0.1-0.5,0-0.7-0.3c1.3-0.8-0.2-2,0.6-2.9c-0.2-0.6-1-0.5-1.2-1c0.5-1.8,3.4-0.2,2.2,1.2
				c0.5,2,1.4,4.8,0.5,6.6c0.6,0.6,0.1,1.2,0.1,2c-0.3,0.2-0.4,0.2-0.7,0.1C156.6,165,155.8,164.5,156.4,164.1z"/>
		</g>
		<g>
			<rect x="154.5" y="155.4" class="st0" width="3.1" height="10.8"/>
			<path class="st1" d="M156.4,164.6c-0.1-0.3-0.2,0.1-0.5,0c0.2-0.2,0.2-0.5,0.1-0.8c0.2-0.2,0.4-0.4,0.7-0.2
				c-0.5-1.1-0.5-2.4-0.8-3.3c-0.3,0.1-0.5,0-0.7-0.3c1.3-0.8-0.2-2,0.6-2.9c-0.2-0.6-1-0.5-1.2-1c0.5-1.8,3.4-0.2,2.2,1.2
				c0.5,2,1.4,4.8,0.5,6.6c0.6,0.6,0.1,1.2,0.1,2c-0.3,0.2-0.4,0.2-0.7,0.1C156.6,165.6,155.8,165,156.4,164.6z"/>
		</g>
		<g>
			<rect x="154.5" y="155.9" class="st0" width="3.1" height="10.8"/>
			<path class="st1" d="M156.4,165.2c-0.1-0.3-0.2,0.1-0.5,0c0.2-0.2,0.2-0.5,0.1-0.8c0.2-0.2,0.4-0.4,0.7-0.2
				c-0.5-1.1-0.5-2.4-0.8-3.3c-0.3,0.1-0.5,0-0.7-0.3c1.3-0.8-0.2-2,0.6-2.9c-0.2-0.6-1-0.5-1.2-1c0.5-1.8,3.4-0.2,2.2,1.2
				c0.5,2,1.4,4.8,0.5,6.6c0.6,0.6,0.1,1.2,0.1,2c-0.3,0.2-0.4,0.2-0.7,0.1C156.6,166.1,155.8,165.6,156.4,165.2z"/>
		</g>
		<g>
			<rect x="154.5" y="156.5" class="st0" width="3.1" height="10.8"/>
			<path class="st1" d="M156.4,165.7c-0.1-0.3-0.2,0.1-0.5,0c0.2-0.2,0.2-0.5,0.1-0.8c0.2-0.2,0.4-0.4,0.7-0.2
				c-0.5-1.1-0.5-2.4-0.8-3.3c-0.3,0.1-0.5,0-0.7-0.3c1.3-0.8-0.2-2,0.6-2.9c-0.2-0.6-1-0.5-1.2-1c0.5-1.8,3.4-0.2,2.2,1.2
				c0.5,2,1.4,4.8,0.5,6.6c0.6,0.6,0.1,1.2,0.1,2c-0.3,0.2-0.4,0.2-0.7,0.1C156.6,166.7,155.8,166.1,156.4,165.7z"/>
		</g>
		<g>
			<rect x="154.5" y="157" class="st0" width="3.1" height="10.8"/>
			<path class="st1" d="M156.4,166.3c-0.1-0.3-0.2,0.1-0.5,0c0.2-0.2,0.2-0.5,0.1-0.8c0.2-0.2,0.4-0.4,0.7-0.2
				c-0.5-1.1-0.5-2.4-0.8-3.3c-0.3,0.1-0.5,0-0.7-0.3c1.3-0.8-0.2-2,0.6-2.9c-0.2-0.6-1-0.5-1.2-1c0.5-1.8,3.4-0.2,2.2,1.2
				c0.5,2,1.4,4.8,0.5,6.6c0.6,0.6,0.1,1.2,0.1,2c-0.3,0.2-0.4,0.2-0.7,0.1C156.6,167.2,155.8,166.6,156.4,166.3z"/>
		</g>
		<g>
			<rect x="154.5" y="157.6" class="st0" width="3.1" height="10.8"/>
			<path class="st1" d="M156.4,166.8c-0.1-0.3-0.2,0.1-0.5,0c0.2-0.2,0.2-0.5,0.1-0.8c0.2-0.2,0.4-0.4,0.7-0.2
				c-0.5-1.1-0.5-2.4-0.8-3.3c-0.3,0.1-0.5,0-0.7-0.3c1.3-0.8-0.2-2,0.6-2.9c-0.2-0.6-1-0.5-1.2-1c0.5-1.8,3.4-0.2,2.2,1.2
				c0.5,2,1.4,4.8,0.5,6.6c0.6,0.6,0.1,1.2,0.1,2c-0.3,0.2-0.4,0.2-0.7,0.1C156.6,167.7,155.8,167.2,156.4,166.8z"/>
		</g>
		<g>
			<rect x="154.5" y="158.1" class="st0" width="3.1" height="10.8"/>
			<path class="st1" d="M156.4,167.3c-0.1-0.3-0.2,0.1-0.5,0c0.2-0.2,0.2-0.5,0.1-0.8c0.2-0.2,0.4-0.4,0.7-0.2
				c-0.5-1.1-0.5-2.4-0.8-3.3c-0.3,0.1-0.5,0-0.7-0.3c1.3-0.8-0.2-2,0.6-2.9c-0.2-0.6-1-0.5-1.2-1c0.5-1.8,3.4-0.2,2.2,1.2
				c0.5,2,1.4,4.8,0.5,6.6c0.6,0.6,0.1,1.2,0.1,2c-0.3,0.2-0.4,0.2-0.7,0.1C156.6,168.3,155.8,167.7,156.4,167.3z"/>
		</g>
		<g>
			<rect x="154.5" y="158.6" class="st0" width="3.1" height="10.8"/>
			<path class="st1" d="M156.4,167.9c-0.1-0.3-0.2,0.1-0.5,0c0.2-0.2,0.2-0.5,0.1-0.8c0.2-0.2,0.4-0.4,0.7-0.2
				c-0.5-1.1-0.5-2.4-0.8-3.3c-0.3,0.1-0.5,0-0.7-0.3c1.3-0.8-0.2-2,0.6-2.9c-0.2-0.6-1-0.5-1.2-1c0.5-1.8,3.4-0.2,2.2,1.2
				c0.5,2,1.4,4.8,0.5,6.6c0.6,0.6,0.1,1.2,0.1,2c-0.3,0.2-0.4,0.2-0.7,0.1C156.6,168.8,155.8,168.3,156.4,167.9z"/>
		</g>
		<g>
			<rect x="154.5" y="159.2" class="st0" width="3.1" height="10.8"/>
			<path class="st1" d="M156.4,168.4c-0.1-0.3-0.2,0.1-0.5,0c0.2-0.2,0.2-0.5,0.1-0.8c0.2-0.2,0.4-0.4,0.7-0.2
				c-0.5-1.1-0.5-2.4-0.8-3.3c-0.3,0.1-0.5,0-0.7-0.3c1.3-0.8-0.2-2,0.6-2.9c-0.2-0.6-1-0.5-1.2-1c0.5-1.8,3.4-0.2,2.2,1.2
				c0.5,2,1.4,4.8,0.5,6.6c0.6,0.6,0.1,1.2,0.1,2c-0.3,0.2-0.4,0.2-0.7,0.1C156.6,169.4,155.8,168.8,156.4,168.4z"/>
		</g>
		<g>
			<rect x="154.5" y="159.7" class="st0" width="3.1" height="10.8"/>
			<path class="st1" d="M156.4,169c-0.1-0.3-0.2,0.1-0.5,0c0.2-0.2,0.2-0.5,0.1-0.8c0.2-0.2,0.4-0.4,0.7-0.2
				c-0.5-1.1-0.5-2.4-0.8-3.3c-0.3,0.1-0.5,0-0.7-0.3c1.3-0.8-0.2-2,0.6-2.9c-0.2-0.6-1-0.5-1.2-1c0.5-1.8,3.4-0.2,2.2,1.2
				c0.5,2,1.4,4.8,0.5,6.6c0.6,0.6,0.1,1.2,0.1,2c-0.3,0.2-0.4,0.2-0.7,0.1C156.6,169.9,155.8,169.3,156.4,169z"/>
		</g>
		<g>
			<rect x="154.5" y="160.3" class="st0" width="3.1" height="10.8"/>
			<path class="st1" d="M156.4,169.5c-0.1-0.3-0.2,0.1-0.5,0c0.2-0.2,0.2-0.5,0.1-0.8c0.2-0.2,0.4-0.4,0.7-0.2
				c-0.5-1.1-0.5-2.4-0.8-3.3c-0.3,0.1-0.5,0-0.7-0.3c1.3-0.8-0.2-2,0.6-2.9c-0.2-0.6-1-0.5-1.2-1c0.5-1.8,3.4-0.2,2.2,1.2
				c0.5,2,1.4,4.8,0.5,6.6c0.6,0.6,0.1,1.2,0.1,2c-0.3,0.2-0.4,0.2-0.7,0.1C156.6,170.4,155.8,169.9,156.4,169.5z"/>
		</g>
		<g>
			<rect x="154.5" y="160.8" class="st0" width="3.1" height="10.8"/>
			<path class="st1" d="M156.4,170c-0.1-0.3-0.2,0.1-0.5,0c0.2-0.2,0.2-0.5,0.1-0.8c0.2-0.2,0.4-0.4,0.7-0.2
				c-0.5-1.1-0.5-2.4-0.8-3.3c-0.3,0.1-0.5,0-0.7-0.3c1.3-0.8-0.2-2,0.6-2.9c-0.2-0.6-1-0.5-1.2-1c0.5-1.8,3.4-0.2,2.2,1.2
				c0.5,2,1.4,4.8,0.5,6.6c0.6,0.6,0.1,1.2,0.1,2c-0.3,0.2-0.4,0.2-0.7,0.1C156.6,171,155.8,170.4,156.4,170z"/>
		</g>
		<g>
			<rect x="154.5" y="161.3" class="st0" width="3.1" height="10.8"/>
			<path class="st1" d="M156.4,170.6c-0.1-0.3-0.2,0.1-0.5,0c0.2-0.2,0.2-0.5,0.1-0.8c0.2-0.2,0.4-0.4,0.7-0.2
				c-0.5-1.1-0.5-2.4-0.8-3.3c-0.3,0.1-0.5,0-0.7-0.3c1.3-0.8-0.2-2,0.6-2.9c-0.2-0.6-1-0.5-1.2-1c0.5-1.8,3.4-0.2,2.2,1.2
				c0.5,2,1.4,4.8,0.5,6.6c0.6,0.6,0.1,1.2,0.1,2c-0.3,0.2-0.4,0.2-0.7,0.1C156.6,171.5,155.8,171,156.4,170.6z"/>
		</g>
		<g>
			<rect x="154.5" y="161.9" class="st0" width="3.1" height="10.8"/>
			<path class="st1" d="M156.4,171.1c-0.1-0.3-0.2,0.1-0.5,0c0.2-0.2,0.2-0.5,0.1-0.8c0.2-0.2,0.4-0.4,0.7-0.2
				c-0.5-1.1-0.5-2.4-0.8-3.3c-0.3,0.1-0.5,0-0.7-0.3c1.3-0.8-0.2-2,0.6-2.9c-0.2-0.6-1-0.5-1.2-1c0.5-1.8,3.4-0.2,2.2,1.2
				c0.5,2,1.4,4.8,0.5,6.6c0.6,0.6,0.1,1.2,0.1,2c-0.3,0.2-0.4,0.2-0.7,0.1C156.6,172.1,155.8,171.5,156.4,171.1z"/>
		</g>
		<g>
			<rect x="154.5" y="162.4" class="st0" width="3.1" height="10.8"/>
			<path class="st1" d="M156.4,171.7c-0.1-0.3-0.2,0.1-0.5,0c0.2-0.2,0.2-0.5,0.1-0.8c0.2-0.2,0.4-0.4,0.7-0.2
				c-0.5-1.1-0.5-2.4-0.8-3.3c-0.3,0.1-0.5,0-0.7-0.3c1.3-0.8-0.2-2,0.6-2.9c-0.2-0.6-1-0.5-1.2-1c0.5-1.8,3.4-0.2,2.2,1.2
				c0.5,2,1.4,4.8,0.5,6.6c0.6,0.6,0.1,1.2,0.1,2c-0.3,0.2-0.4,0.2-0.7,0.1C156.6,172.6,155.8,172,156.4,171.7z"/>
		</g>
		<g>
			<rect x="154.5" y="163" class="st0" width="3.1" height="10.8"/>
			<path class="st1" d="M156.4,172.2c-0.1-0.3-0.2,0.1-0.5,0c0.2-0.2,0.2-0.5,0.1-0.8c0.2-0.2,0.4-0.4,0.7-0.2
				c-0.5-1.1-0.5-2.4-0.8-3.3c-0.3,0.1-0.5,0-0.7-0.3c1.3-0.8-0.2-2,0.6-2.9c-0.2-0.6-1-0.5-1.2-1c0.5-1.8,3.4-0.2,2.2,1.2
				c0.5,2,1.4,4.8,0.5,6.6c0.6,0.6,0.1,1.2,0.1,2c-0.3,0.2-0.4,0.2-0.7,0.1C156.6,173.1,155.8,172.6,156.4,172.2z"/>
		</g>
		<g>
			<rect x="154.5" y="163.5" class="st0" width="3.1" height="10.8"/>
			<path class="st1" d="M156.4,172.7c-0.1-0.3-0.2,0.1-0.5,0c0.2-0.2,0.2-0.5,0.1-0.8c0.2-0.2,0.4-0.4,0.7-0.2
				c-0.5-1.1-0.5-2.4-0.8-3.3c-0.3,0.1-0.5,0-0.7-0.3c1.3-0.8-0.2-2,0.6-2.9c-0.2-0.6-1-0.5-1.2-1c0.5-1.8,3.4-0.2,2.2,1.2
				c0.5,2,1.4,4.8,0.5,6.6c0.6,0.6,0.1,1.2,0.1,2c-0.3,0.2-0.4,0.2-0.7,0.1C156.6,173.7,155.8,173.1,156.4,172.7z"/>
		</g>
		<g>
			<rect x="154.5" y="164" class="st0" width="3.1" height="10.8"/>
			<path class="st1" d="M156.4,173.3c-0.1-0.3-0.2,0.1-0.5,0c0.2-0.2,0.2-0.5,0.1-0.8c0.2-0.2,0.4-0.4,0.7-0.2
				c-0.5-1.1-0.5-2.4-0.8-3.3c-0.3,0.1-0.5,0-0.7-0.3c1.3-0.8-0.2-2,0.6-2.9c-0.2-0.6-1-0.5-1.2-1c0.5-1.8,3.4-0.2,2.2,1.2
				c0.5,2,1.4,4.8,0.5,6.6c0.6,0.6,0.1,1.2,0.1,2c-0.3,0.2-0.4,0.2-0.7,0.1C156.6,174.2,155.8,173.7,156.4,173.3z"/>
		</g>
		<g>
			<rect x="154.5" y="164.6" class="st0" width="3.1" height="10.8"/>
			<path class="st1" d="M156.4,173.8c-0.1-0.3-0.2,0.1-0.5,0c0.2-0.2,0.2-0.5,0.1-0.8c0.2-0.2,0.4-0.4,0.7-0.2
				c-0.5-1.1-0.5-2.4-0.8-3.3c-0.3,0.1-0.5,0-0.7-0.3c1.3-0.8-0.2-2,0.6-2.9c-0.2-0.6-1-0.5-1.2-1c0.5-1.8,3.4-0.2,2.2,1.2
				c0.5,2,1.4,4.8,0.5,6.6c0.6,0.6,0.1,1.2,0.1,2c-0.3,0.2-0.4,0.2-0.7,0.1C156.6,174.8,155.8,174.2,156.4,173.8z"/>
		</g>
		<g>
			<rect x="154.5" y="165.1" class="st0" width="3.1" height="10.8"/>
			<path class="st1" d="M156.4,174.4c-0.1-0.3-0.2,0.1-0.5,0c0.2-0.2,0.2-0.5,0.1-0.8c0.2-0.2,0.4-0.4,0.7-0.2
				c-0.5-1.1-0.5-2.4-0.8-3.3c-0.3,0.1-0.5,0-0.7-0.3c1.3-0.8-0.2-2,0.6-2.9c-0.2-0.6-1-0.5-1.2-1c0.5-1.8,3.4-0.2,2.2,1.2
				c0.5,2,1.4,4.8,0.5,6.6c0.6,0.6,0.1,1.2,0.1,2c-0.3,0.2-0.4,0.2-0.7,0.1C156.6,175.3,155.8,174.7,156.4,174.4z"/>
		</g>
		<g>
			<rect x="154.5" y="165.7" class="st0" width="3.1" height="10.8"/>
			<path class="st1" d="M156.4,174.9c-0.1-0.3-0.2,0.1-0.5,0c0.2-0.2,0.2-0.5,0.1-0.8c0.2-0.2,0.4-0.4,0.7-0.2
				c-0.5-1.1-0.5-2.4-0.8-3.3c-0.3,0.1-0.5,0-0.7-0.3c1.3-0.8-0.2-2,0.6-2.9c-0.2-0.6-1-0.5-1.2-1c0.5-1.8,3.4-0.2,2.2,1.2
				c0.5,2,1.4,4.8,0.5,6.6c0.6,0.6,0.1,1.2,0.1,2c-0.3,0.2-0.4,0.2-0.7,0.1C156.6,175.8,155.8,175.3,156.4,174.9z"/>
		</g>
		<g>
			<rect x="154.5" y="166.2" class="st0" width="3.1" height="10.8"/>
			<path class="st1" d="M156.4,175.4c-0.1-0.3-0.2,0.1-0.5,0c0.2-0.2,0.2-0.5,0.1-0.8c0.2-0.2,0.4-0.4,0.7-0.2
				c-0.5-1.1-0.5-2.4-0.8-3.3c-0.3,0.1-0.5,0-0.7-0.3c1.3-0.8-0.2-2,0.6-2.9c-0.2-0.6-1-0.5-1.2-1c0.5-1.8,3.4-0.2,2.2,1.2
				c0.5,2,1.4,4.8,0.5,6.6c0.6,0.6,0.1,1.2,0.1,2c-0.3,0.2-0.4,0.2-0.7,0.1C156.6,176.4,155.8,175.8,156.4,175.4z"/>
		</g>
		<g>
			<rect x="154.5" y="166.7" class="st0" width="3.1" height="10.8"/>
			<path class="st1" d="M156.4,176c-0.1-0.3-0.2,0.1-0.5,0c0.2-0.2,0.2-0.5,0.1-0.8c0.2-0.2,0.4-0.4,0.7-0.2
				c-0.5-1.1-0.5-2.4-0.8-3.3c-0.3,0.1-0.5,0-0.7-0.3c1.3-0.8-0.2-2,0.6-2.9c-0.2-0.6-1-0.5-1.2-1c0.5-1.8,3.4-0.2,2.2,1.2
				c0.5,2,1.4,4.8,0.5,6.6c0.6,0.6,0.1,1.2,0.1,2c-0.3,0.2-0.4,0.2-0.7,0.1C156.6,176.9,155.8,176.4,156.4,176z"/>
		</g>
		<g>
			<rect x="154.5" y="167.3" class="st0" width="3.1" height="10.8"/>
			<path class="st1" d="M156.4,176.5c-0.1-0.3-0.2,0.1-0.5,0c0.2-0.2,0.2-0.5,0.1-0.8c0.2-0.2,0.4-0.4,0.7-0.2
				c-0.5-1.1-0.5-2.4-0.8-3.3c-0.3,0.1-0.5,0-0.7-0.3c1.3-0.8-0.2-2,0.6-2.9c-0.2-0.6-1-0.5-1.2-1c0.5-1.8,3.4-0.2,2.2,1.2
				c0.5,2,1.4,4.8,0.5,6.6c0.6,0.6,0.1,1.2,0.1,2c-0.3,0.2-0.4,0.2-0.7,0.1C156.6,177.5,155.8,176.9,156.4,176.5z"/>
		</g>
		<g>
			<rect x="154.5" y="167.8" class="st0" width="3.1" height="10.8"/>
			<path class="st1" d="M156.4,177.1c-0.1-0.3-0.2,0.1-0.5,0c0.2-0.2,0.2-0.5,0.1-0.8c0.2-0.2,0.4-0.4,0.7-0.2
				c-0.5-1.1-0.5-2.4-0.8-3.3c-0.3,0.1-0.5,0-0.7-0.3c1.3-0.8-0.2-2,0.6-2.9c-0.2-0.6-1-0.5-1.2-1c0.5-1.8,3.4-0.2,2.2,1.2
				c0.5,2,1.4,4.8,0.5,6.6c0.6,0.6,0.1,1.2,0.1,2c-0.3,0.2-0.4,0.2-0.7,0.1C156.6,178,155.8,177.4,156.4,177.1z"/>
		</g>
		<g>
			<rect x="154.5" y="168.3" class="st0" width="3.1" height="10.8"/>
			<path class="st1" d="M156.4,177.6c-0.1-0.3-0.2,0.1-0.5,0c0.2-0.2,0.2-0.5,0.1-0.8c0.2-0.2,0.4-0.4,0.7-0.2
				c-0.5-1.1-0.5-2.4-0.8-3.3c-0.3,0.1-0.5,0-0.7-0.3c1.3-0.8-0.2-2,0.6-2.9c-0.2-0.6-1-0.5-1.2-1c0.5-1.8,3.4-0.2,2.2,1.2
				c0.5,2,1.4,4.8,0.5,6.6c0.6,0.6,0.1,1.2,0.1,2c-0.3,0.2-0.4,0.2-0.7,0.1C156.6,178.5,155.8,178,156.4,177.6z"/>
		</g>
		<g>
			<rect x="154.5" y="168.9" class="st0" width="3.1" height="10.8"/>
			<path class="st1" d="M156.4,178.1c-0.1-0.3-0.2,0.1-0.5,0c0.2-0.2,0.2-0.5,0.1-0.8c0.2-0.2,0.4-0.4,0.7-0.2
				c-0.5-1.1-0.5-2.4-0.8-3.3c-0.3,0.1-0.5,0-0.7-0.3c1.3-0.8-0.2-2,0.6-2.9c-0.2-0.6-1-0.5-1.2-1c0.5-1.8,3.4-0.2,2.2,1.2
				c0.5,2,1.4,4.8,0.5,6.6c0.6,0.6,0.1,1.2,0.1,2c-0.3,0.2-0.4,0.2-0.7,0.1C156.6,179.1,155.8,178.5,156.4,178.1z"/>
		</g>
		<g>
			<rect x="154.5" y="169.4" class="st0" width="3.1" height="10.8"/>
			<path class="st1" d="M156.4,178.7c-0.1-0.3-0.2,0.1-0.5,0c0.2-0.2,0.2-0.5,0.1-0.8c0.2-0.2,0.4-0.4,0.7-0.2
				c-0.5-1.1-0.5-2.4-0.8-3.3c-0.3,0.1-0.5,0-0.7-0.3c1.3-0.8-0.2-2,0.6-2.9c-0.2-0.6-1-0.5-1.2-1c0.5-1.8,3.4-0.2,2.2,1.2
				c0.5,2,1.4,4.8,0.5,6.6c0.6,0.6,0.1,1.2,0.1,2c-0.3,0.2-0.4,0.2-0.7,0.1C156.6,179.6,155.8,179.1,156.4,178.7z"/>
		</g>
		<g>
			<rect x="154.5" y="170" class="st0" width="3.1" height="10.8"/>
			<path class="st1" d="M156.4,179.2c-0.1-0.3-0.2,0.1-0.5,0c0.2-0.2,0.2-0.5,0.1-0.8c0.2-0.2,0.4-0.4,0.7-0.2
				c-0.5-1.1-0.5-2.4-0.8-3.3c-0.3,0.1-0.5,0-0.7-0.3c1.3-0.8-0.2-2,0.6-2.9c-0.2-0.6-1-0.5-1.2-1c0.5-1.8,3.4-0.2,2.2,1.2
				c0.5,2,1.4,4.8,0.5,6.6c0.6,0.6,0.1,1.2,0.1,2c-0.3,0.2-0.4,0.2-0.7,0.1C156.6,180.2,155.8,179.6,156.4,179.2z"/>
		</g>
		<g>
			<rect x="154.5" y="170.5" class="st0" width="3.1" height="10.8"/>
			<path class="st1" d="M156.4,179.8c-0.1-0.3-0.2,0.1-0.5,0c0.2-0.2,0.2-0.5,0.1-0.8c0.2-0.2,0.4-0.4,0.7-0.2
				c-0.5-1.1-0.5-2.4-0.8-3.3c-0.3,0.1-0.5,0-0.7-0.3c1.3-0.8-0.2-2,0.6-2.9c-0.2-0.6-1-0.5-1.2-1c0.5-1.8,3.4-0.2,2.2,1.2
				c0.5,2,1.4,4.8,0.5,6.6c0.6,0.6,0.1,1.2,0.1,2c-0.3,0.2-0.4,0.2-0.7,0.1C156.6,180.7,155.8,180.1,156.4,179.8z"/>
		</g>
		<g>
			<rect x="154.5" y="171" class="st0" width="3.1" height="10.8"/>
			<path class="st1" d="M156.4,180.3c-0.1-0.3-0.2,0.1-0.5,0c0.2-0.2,0.2-0.5,0.1-0.8c0.2-0.2,0.4-0.4,0.7-0.2
				c-0.5-1.1-0.5-2.4-0.8-3.3c-0.3,0.1-0.5,0-0.7-0.3c1.3-0.8-0.2-2,0.6-2.9c-0.2-0.6-1-0.5-1.2-1c0.5-1.8,3.4-0.2,2.2,1.2
				c0.5,2,1.4,4.8,0.5,6.6c0.6,0.6,0.1,1.2,0.1,2c-0.3,0.2-0.4,0.2-0.7,0.1C156.6,181.2,155.8,180.7,156.4,180.3z"/>
		</g>
		<g>
			<rect x="154.5" y="171.6" class="st0" width="3.1" height="10.8"/>
			<path class="st1" d="M156.4,180.8c-0.1-0.3-0.2,0.1-0.5,0c0.2-0.2,0.2-0.5,0.1-0.8c0.2-0.2,0.4-0.4,0.7-0.2
				c-0.5-1.1-0.5-2.4-0.8-3.3c-0.3,0.1-0.5,0-0.7-0.3c1.3-0.8-0.2-2,0.6-2.9c-0.2-0.6-1-0.5-1.2-1c0.5-1.8,3.4-0.2,2.2,1.2
				c0.5,2,1.4,4.8,0.5,6.6c0.6,0.6,0.1,1.2,0.1,2c-0.3,0.2-0.4,0.2-0.7,0.1C156.6,181.8,155.8,181.2,156.4,180.8z"/>
		</g>
		<g>
			<rect x="154.5" y="172.1" class="st0" width="3.1" height="10.8"/>
			<path class="st1" d="M156.4,181.4c-0.1-0.3-0.2,0.1-0.5,0c0.2-0.2,0.2-0.5,0.1-0.8c0.2-0.2,0.4-0.4,0.7-0.2
				c-0.5-1.1-0.5-2.4-0.8-3.3c-0.3,0.1-0.5,0-0.7-0.3c1.3-0.8-0.2-2,0.6-2.9c-0.2-0.6-1-0.5-1.2-1c0.5-1.8,3.4-0.2,2.2,1.2
				c0.5,2,1.4,4.8,0.5,6.6c0.6,0.6,0.1,1.2,0.1,2c-0.3,0.2-0.4,0.2-0.7,0.1C156.6,182.3,155.8,181.8,156.4,181.4z"/>
		</g>
		<g>
			<rect x="154.5" y="172.7" class="st0" width="3.1" height="10.8"/>
			<path class="st1" d="M156.4,181.9c-0.1-0.3-0.2,0.1-0.5,0c0.2-0.2,0.2-0.5,0.1-0.8c0.2-0.2,0.4-0.4,0.7-0.2
				c-0.5-1.1-0.5-2.4-0.8-3.3c-0.3,0.1-0.5,0-0.7-0.3c1.3-0.8-0.2-2,0.6-2.9c-0.2-0.6-1-0.5-1.2-1c0.5-1.8,3.4-0.2,2.2,1.2
				c0.5,2,1.4,4.8,0.5,6.6c0.6,0.6,0.1,1.2,0.1,2c-0.3,0.2-0.4,0.2-0.7,0.1C156.6,182.9,155.8,182.3,156.4,181.9z"/>
		</g>
		<g>
			<rect x="154.5" y="173.2" class="st0" width="3.1" height="10.8"/>
			<path class="st1" d="M156.4,182.5c-0.1-0.3-0.2,0.1-0.5,0c0.2-0.2,0.2-0.5,0.1-0.8c0.2-0.2,0.4-0.4,0.7-0.2
				c-0.5-1.1-0.5-2.4-0.8-3.3c-0.3,0.1-0.5,0-0.7-0.3c1.3-0.8-0.2-2,0.6-2.9c-0.2-0.6-1-0.5-1.2-1c0.5-1.8,3.4-0.2,2.2,1.2
				c0.5,2,1.4,4.8,0.5,6.6c0.6,0.6,0.1,1.2,0.1,2c-0.3,0.2-0.4,0.2-0.7,0.1C156.6,183.4,155.8,182.8,156.4,182.5z"/>
		</g>
		<g>
			<rect x="154.5" y="173.7" class="st0" width="3.1" height="10.8"/>
			<path class="st1" d="M156.4,183c-0.1-0.3-0.2,0.1-0.5,0c0.2-0.2,0.2-0.5,0.1-0.8c0.2-0.2,0.4-0.4,0.7-0.2
				c-0.5-1.1-0.5-2.4-0.8-3.3c-0.3,0.1-0.5,0-0.7-0.3c1.3-0.8-0.2-2,0.6-2.9c-0.2-0.6-1-0.5-1.2-1c0.5-1.8,3.4-0.2,2.2,1.2
				c0.5,2,1.4,4.8,0.5,6.6c0.6,0.6,0.1,1.2,0.1,2c-0.3,0.2-0.4,0.2-0.7,0.1C156.6,183.9,155.8,183.4,156.4,183z"/>
		</g>
		<g>
			<rect x="154.5" y="174.3" class="st0" width="3.1" height="10.8"/>
			<path class="st1" d="M156.4,183.5c-0.1-0.3-0.2,0.1-0.5,0c0.2-0.2,0.2-0.5,0.1-0.8c0.2-0.2,0.4-0.4,0.7-0.2
				c-0.5-1.1-0.5-2.4-0.8-3.3c-0.3,0.1-0.5,0-0.7-0.3c1.3-0.8-0.2-2,0.6-2.9c-0.2-0.6-1-0.5-1.2-1c0.5-1.8,3.4-0.2,2.2,1.2
				c0.5,2,1.4,4.8,0.5,6.6c0.6,0.6,0.1,1.2,0.1,2c-0.3,0.2-0.4,0.2-0.7,0.1C156.6,184.5,155.8,183.9,156.4,183.5z"/>
		</g>
		<g>
			<rect x="154.5" y="174.8" class="st0" width="3.1" height="10.8"/>
			<path class="st1" d="M156.4,184.1c-0.1-0.3-0.2,0.1-0.5,0c0.2-0.2,0.2-0.5,0.1-0.8c0.2-0.2,0.4-0.4,0.7-0.2
				c-0.5-1.1-0.5-2.4-0.8-3.3c-0.3,0.1-0.5,0-0.7-0.3c1.3-0.8-0.2-2,0.6-2.9c-0.2-0.6-1-0.5-1.2-1c0.5-1.8,3.4-0.2,2.2,1.2
				c0.5,2,1.4,4.8,0.5,6.6c0.6,0.6,0.1,1.2,0.1,2c-0.3,0.2-0.4,0.2-0.7,0.1C156.6,185,155.8,184.4,156.4,184.1z"/>
		</g>
		<g>
			<rect x="154.5" y="175.4" class="st0" width="3.1" height="10.8"/>
			<path class="st1" d="M156.4,184.6c-0.1-0.3-0.2,0.1-0.5,0c0.2-0.2,0.2-0.5,0.1-0.8c0.2-0.2,0.4-0.4,0.7-0.2
				c-0.5-1.1-0.5-2.4-0.8-3.3c-0.3,0.1-0.5,0-0.7-0.3c1.3-0.8-0.2-2,0.6-2.9c-0.2-0.6-1-0.5-1.2-1c0.5-1.8,3.4-0.2,2.2,1.2
				c0.5,2,1.4,4.8,0.5,6.6c0.6,0.6,0.1,1.2,0.1,2c-0.3,0.2-0.4,0.2-0.7,0.1C156.6,185.6,155.8,185,156.4,184.6z"/>
		</g>
		<g>
			<rect x="154.5" y="175.9" class="st0" width="3.1" height="10.8"/>
			<path class="st1" d="M156.4,185.2c-0.1-0.3-0.2,0.1-0.5,0c0.2-0.2,0.2-0.5,0.1-0.8c0.2-0.2,0.4-0.4,0.7-0.2
				c-0.5-1.1-0.5-2.4-0.8-3.3c-0.3,0.1-0.5,0-0.7-0.3c1.3-0.8-0.2-2,0.6-2.9c-0.2-0.6-1-0.5-1.2-1c0.5-1.8,3.4-0.2,2.2,1.2
				c0.5,2,1.4,4.8,0.5,6.6c0.6,0.6,0.1,1.2,0.1,2c-0.3,0.2-0.4,0.2-0.7,0.1C156.6,186.1,155.8,185.5,156.4,185.2z"/>
		</g>
		<g>
			<rect x="154.5" y="176.4" class="st0" width="3.1" height="10.8"/>
			<path class="st1" d="M156.4,185.7c-0.1-0.3-0.2,0.1-0.5,0c0.2-0.2,0.2-0.5,0.1-0.8c0.2-0.2,0.4-0.4,0.7-0.2
				c-0.5-1.1-0.5-2.4-0.8-3.3c-0.3,0.1-0.5,0-0.7-0.3c1.3-0.8-0.2-2,0.6-2.9c-0.2-0.6-1-0.5-1.2-1c0.5-1.8,3.4-0.2,2.2,1.2
				c0.5,2,1.4,4.8,0.5,6.6c0.6,0.6,0.1,1.2,0.1,2c-0.3,0.2-0.4,0.2-0.7,0.1C156.6,186.6,155.8,186.1,156.4,185.7z"/>
		</g>
		<g>
			<rect x="154.5" y="177" class="st0" width="3.1" height="10.8"/>
			<path class="st1" d="M156.4,186.2c-0.1-0.3-0.2,0.1-0.5,0c0.2-0.2,0.2-0.5,0.1-0.8c0.2-0.2,0.4-0.4,0.7-0.2
				c-0.5-1.1-0.5-2.4-0.8-3.3c-0.3,0.1-0.5,0-0.7-0.3c1.3-0.8-0.2-2,0.6-2.9c-0.2-0.6-1-0.5-1.2-1c0.5-1.8,3.4-0.2,2.2,1.2
				c0.5,2,1.4,4.8,0.5,6.6c0.6,0.6,0.1,1.2,0.1,2c-0.3,0.2-0.4,0.2-0.7,0.1C156.6,187.2,155.8,186.6,156.4,186.2z"/>
		</g>
		<g>
			<rect x="154.5" y="177.5" class="st0" width="3.1" height="10.8"/>
			<path class="st1" d="M156.4,186.8c-0.1-0.3-0.2,0.1-0.5,0c0.2-0.2,0.2-0.5,0.1-0.8c0.2-0.2,0.4-0.4,0.7-0.2
				c-0.5-1.1-0.5-2.4-0.8-3.3c-0.3,0.1-0.5,0-0.7-0.3c1.3-0.8-0.2-2,0.6-2.9c-0.2-0.6-1-0.5-1.2-1c0.5-1.8,3.4-0.2,2.2,1.2
				c0.5,2,1.4,4.8,0.5,6.6c0.6,0.6,0.1,1.2,0.1,2c-0.3,0.2-0.4,0.2-0.7,0.1C156.6,187.7,155.8,187.1,156.4,186.8z"/>
		</g>
		<g>
			<rect x="154.5" y="178.1" class="st0" width="3.1" height="10.8"/>
			<path class="st1" d="M156.4,187.3c-0.1-0.3-0.2,0.1-0.5,0c0.2-0.2,0.2-0.5,0.1-0.8c0.2-0.2,0.4-0.4,0.7-0.2
				c-0.5-1.1-0.5-2.4-0.8-3.3c-0.3,0.1-0.5,0-0.7-0.3c1.3-0.8-0.2-2,0.6-2.9c-0.2-0.6-1-0.5-1.2-1c0.5-1.8,3.4-0.2,2.2,1.2
				c0.5,2,1.4,4.8,0.5,6.6c0.6,0.6,0.1,1.2,0.1,2c-0.3,0.2-0.4,0.2-0.7,0.1C156.6,188.3,155.8,187.7,156.4,187.3z"/>
		</g>
		<g>
			<rect x="154.5" y="178.6" class="st0" width="3.1" height="10.8"/>
			<path class="st1" d="M156.4,187.9c-0.1-0.3-0.2,0.1-0.5,0c0.2-0.2,0.2-0.5,0.1-0.8c0.2-0.2,0.4-0.4,0.7-0.2
				c-0.5-1.1-0.5-2.4-0.8-3.3c-0.3,0.1-0.5,0-0.7-0.3c1.3-0.8-0.2-2,0.6-2.9c-0.2-0.6-1-0.5-1.2-1c0.5-1.8,3.4-0.2,2.2,1.2
				c0.5,2,1.4,4.8,0.5,6.6c0.6,0.6,0.1,1.2,0.1,2c-0.3,0.2-0.4,0.2-0.7,0.1C156.6,188.8,155.8,188.2,156.4,187.9z"/>
		</g>
		<g>
			<rect x="154.5" y="179.1" class="st0" width="3.1" height="10.8"/>
			<path class="st1" d="M156.4,188.4c-0.1-0.3-0.2,0.1-0.5,0c0.2-0.2,0.2-0.5,0.1-0.8c0.2-0.2,0.4-0.4,0.7-0.2
				c-0.5-1.1-0.5-2.4-0.8-3.3c-0.3,0.1-0.5,0-0.7-0.3c1.3-0.8-0.2-2,0.6-2.9c-0.2-0.6-1-0.5-1.2-1c0.5-1.8,3.4-0.2,2.2,1.2
				c0.5,2,1.4,4.8,0.5,6.6c0.6,0.6,0.1,1.2,0.1,2c-0.3,0.2-0.4,0.2-0.7,0.1C156.6,189.3,155.8,188.8,156.4,188.4z"/>
		</g>
		<g>
			<rect x="154.5" y="179.7" class="st0" width="3.1" height="10.8"/>
			<path class="st1" d="M156.4,188.9c-0.1-0.3-0.2,0.1-0.5,0c0.2-0.2,0.2-0.5,0.1-0.8c0.2-0.2,0.4-0.4,0.7-0.2
				c-0.5-1.1-0.5-2.4-0.8-3.3c-0.3,0.1-0.5,0-0.7-0.3c1.3-0.8-0.2-2,0.6-2.9c-0.2-0.6-1-0.5-1.2-1c0.5-1.8,3.4-0.2,2.2,1.2
				c0.5,2,1.4,4.8,0.5,6.6c0.6,0.6,0.1,1.2,0.1,2c-0.3,0.2-0.4,0.2-0.7,0.1C156.6,189.9,155.8,189.3,156.4,188.9z"/>
		</g>
		<g>
			<rect x="154.5" y="180.2" class="st0" width="3.1" height="10.8"/>
			<path class="st1" d="M156.4,189.5c-0.1-0.3-0.2,0.1-0.5,0c0.2-0.2,0.2-0.5,0.1-0.8c0.2-0.2,0.4-0.4,0.7-0.2
				c-0.5-1.1-0.5-2.4-0.8-3.3c-0.3,0.1-0.5,0-0.7-0.3c1.3-0.8-0.2-2,0.6-2.9c-0.2-0.6-1-0.5-1.2-1c0.5-1.8,3.4-0.2,2.2,1.2
				c0.5,2,1.4,4.8,0.5,6.6c0.6,0.6,0.1,1.2,0.1,2c-0.3,0.2-0.4,0.2-0.7,0.1C156.6,190.4,155.8,189.8,156.4,189.5z"/>
		</g>
		<g>
			<rect x="154.5" y="180.8" class="st0" width="3.1" height="10.8"/>
			<path class="st1" d="M156.4,190c-0.1-0.3-0.2,0.1-0.5,0c0.2-0.2,0.2-0.5,0.1-0.8c0.2-0.2,0.4-0.4,0.7-0.2
				c-0.5-1.1-0.5-2.4-0.8-3.3c-0.3,0.1-0.5,0-0.7-0.3c1.3-0.8-0.2-2,0.6-2.9c-0.2-0.6-1-0.5-1.2-1c0.5-1.8,3.4-0.2,2.2,1.2
				c0.5,2,1.4,4.8,0.5,6.6c0.6,0.6,0.1,1.2,0.1,2c-0.3,0.2-0.4,0.2-0.7,0.1C156.6,191,155.8,190.4,156.4,190z"/>
		</g>
		<g>
			<rect x="154.5" y="181.3" class="st0" width="3.1" height="10.8"/>
			<path class="st1" d="M156.4,190.5c-0.1-0.3-0.2,0.1-0.5,0c0.2-0.2,0.2-0.5,0.1-0.8c0.2-0.2,0.4-0.4,0.7-0.2
				c-0.5-1.1-0.5-2.4-0.8-3.3c-0.3,0.1-0.5,0-0.7-0.3c1.3-0.8-0.2-2,0.6-2.9c-0.2-0.6-1-0.5-1.2-1c0.5-1.8,3.4-0.2,2.2,1.2
				c0.5,2,1.4,4.8,0.5,6.6c0.6,0.6,0.1,1.2,0.1,2c-0.3,0.2-0.4,0.2-0.7,0.1C156.6,191.5,155.8,190.9,156.4,190.5z"/>
		</g>
		<g>
			<rect x="154.5" y="181.8" class="st0" width="3.1" height="10.8"/>
			<path class="st1" d="M156.4,191.1c-0.1-0.3-0.2,0.1-0.5,0c0.2-0.2,0.2-0.5,0.1-0.8c0.2-0.2,0.4-0.4,0.7-0.2
				c-0.5-1.1-0.5-2.4-0.8-3.3c-0.3,0.1-0.5,0-0.7-0.3c1.3-0.8-0.2-2,0.6-2.9c-0.2-0.6-1-0.5-1.2-1c0.5-1.8,3.4-0.2,2.2,1.2
				c0.5,2,1.4,4.8,0.5,6.6c0.6,0.6,0.1,1.2,0.1,2c-0.3,0.2-0.4,0.2-0.7,0.1C156.6,192,155.8,191.5,156.4,191.1z"/>
		</g>
		<g>
			<rect x="154.5" y="182.4" class="st0" width="3.1" height="10.8"/>
			<path class="st1" d="M156.4,191.6c-0.1-0.3-0.2,0.1-0.5,0c0.2-0.2,0.2-0.5,0.1-0.8c0.2-0.2,0.4-0.4,0.7-0.2
				c-0.5-1.1-0.5-2.4-0.8-3.3c-0.3,0.1-0.5,0-0.7-0.3c1.3-0.8-0.2-2,0.6-2.9c-0.2-0.6-1-0.5-1.2-1c0.5-1.8,3.4-0.2,2.2,1.2
				c0.5,2,1.4,4.8,0.5,6.6c0.6,0.6,0.1,1.2,0.1,2c-0.3,0.2-0.4,0.2-0.7,0.1C156.6,192.6,155.8,192,156.4,191.6z"/>
		</g>
		<g>
			<rect x="154.5" y="182.9" class="st0" width="3.1" height="10.8"/>
			<path class="st1" d="M156.4,192.2c-0.1-0.3-0.2,0.1-0.5,0c0.2-0.2,0.2-0.5,0.1-0.8c0.2-0.2,0.4-0.4,0.7-0.2
				c-0.5-1.1-0.5-2.4-0.8-3.3c-0.3,0.1-0.5,0-0.7-0.3c1.3-0.8-0.2-2,0.6-2.9c-0.2-0.6-1-0.5-1.2-1c0.5-1.8,3.4-0.2,2.2,1.2
				c0.5,2,1.4,4.8,0.5,6.6c0.6,0.6,0.1,1.2,0.1,2c-0.3,0.2-0.4,0.2-0.7,0.1C156.6,193.1,155.8,192.5,156.4,192.2z"/>
		</g>
		<g>
			<rect x="154.5" y="183.5" class="st0" width="3.1" height="10.8"/>
			<path class="st1" d="M156.4,192.7c-0.1-0.3-0.2,0.1-0.5,0c0.2-0.2,0.2-0.5,0.1-0.8c0.2-0.2,0.4-0.4,0.7-0.2
				c-0.5-1.1-0.5-2.4-0.8-3.3c-0.3,0.1-0.5,0-0.7-0.3c1.3-0.8-0.2-2,0.6-2.9c-0.2-0.6-1-0.5-1.2-1c0.5-1.8,3.4-0.2,2.2,1.2
				c0.5,2,1.4,4.8,0.5,6.6c0.6,0.6,0.1,1.2,0.1,2c-0.3,0.2-0.4,0.2-0.7,0.1C156.6,193.6,155.8,193.1,156.4,192.7z"/>
		</g>
		<g>
			<rect x="154.5" y="184" class="st0" width="3.1" height="10.8"/>
			<path class="st1" d="M156.4,193.2c-0.1-0.3-0.2,0.1-0.5,0c0.2-0.2,0.2-0.5,0.1-0.8c0.2-0.2,0.4-0.4,0.7-0.2
				c-0.5-1.1-0.5-2.4-0.8-3.3c-0.3,0.1-0.5,0-0.7-0.3c1.3-0.8-0.2-2,0.6-2.9c-0.2-0.6-1-0.5-1.2-1c0.5-1.8,3.4-0.2,2.2,1.2
				c0.5,2,1.4,4.8,0.5,6.6c0.6,0.6,0.1,1.2,0.1,2c-0.3,0.2-0.4,0.2-0.7,0.1C156.6,194.2,155.8,193.6,156.4,193.2z"/>
		</g>
		<g>
			<rect x="154.5" y="184.5" class="st0" width="3.1" height="10.8"/>
			<path class="st1" d="M156.4,193.8c-0.1-0.3-0.2,0.1-0.5,0c0.2-0.2,0.2-0.5,0.1-0.8c0.2-0.2,0.4-0.4,0.7-0.2
				c-0.5-1.1-0.5-2.4-0.8-3.3c-0.3,0.1-0.5,0-0.7-0.3c1.3-0.8-0.2-2,0.6-2.9c-0.2-0.6-1-0.5-1.2-1c0.5-1.8,3.4-0.2,2.2,1.2
				c0.5,2,1.4,4.8,0.5,6.6c0.6,0.6,0.1,1.2,0.1,2c-0.3,0.2-0.4,0.2-0.7,0.1C156.6,194.7,155.8,194.2,156.4,193.8z"/>
		</g>
		<g>
			<rect x="154.5" y="185.1" class="st0" width="3.1" height="10.8"/>
			<path class="st1" d="M156.4,194.3c-0.1-0.3-0.2,0.1-0.5,0c0.2-0.2,0.2-0.5,0.1-0.8c0.2-0.2,0.4-0.4,0.7-0.2
				c-0.5-1.1-0.5-2.4-0.8-3.3c-0.3,0.1-0.5,0-0.7-0.3c1.3-0.8-0.2-2,0.6-2.9c-0.2-0.6-1-0.5-1.2-1c0.5-1.8,3.4-0.2,2.2,1.2
				c0.5,2,1.4,4.8,0.5,6.6c0.6,0.6,0.1,1.2,0.1,2c-0.3,0.2-0.4,0.2-0.7,0.1C156.6,195.3,155.8,194.7,156.4,194.3z"/>
		</g>
		<g>
			<rect x="154.5" y="185.6" class="st0" width="3.1" height="10.8"/>
			<path class="st1" d="M156.4,194.9c-0.1-0.3-0.2,0.1-0.5,0c0.2-0.2,0.2-0.5,0.1-0.8c0.2-0.2,0.4-0.4,0.7-0.2
				c-0.5-1.1-0.5-2.4-0.8-3.3c-0.3,0.1-0.5,0-0.7-0.3c1.3-0.8-0.2-2,0.6-2.9c-0.2-0.6-1-0.5-1.2-1c0.5-1.8,3.4-0.2,2.2,1.2
				c0.5,2,1.4,4.8,0.5,6.6c0.6,0.6,0.1,1.2,0.1,2c-0.3,0.2-0.4,0.2-0.7,0.1C156.6,195.8,155.8,195.2,156.4,194.9z"/>
		</g>
		<g>
			<rect x="154.5" y="186.2" class="st0" width="3.1" height="10.8"/>
			<path class="st1" d="M156.4,195.4c-0.1-0.3-0.2,0.1-0.5,0c0.2-0.2,0.2-0.5,0.1-0.8c0.2-0.2,0.4-0.4,0.7-0.2
				c-0.5-1.1-0.5-2.4-0.8-3.3c-0.3,0.1-0.5,0-0.7-0.3c1.3-0.8-0.2-2,0.6-2.9c-0.2-0.6-1-0.5-1.2-1c0.5-1.8,3.4-0.2,2.2,1.2
				c0.5,2,1.4,4.8,0.5,6.6c0.6,0.6,0.1,1.2,0.1,2c-0.3,0.2-0.4,0.2-0.7,0.1C156.6,196.3,155.8,195.8,156.4,195.4z"/>
		</g>
		<g>
			<rect x="154.5" y="186.7" class="st0" width="3.1" height="10.8"/>
			<path class="st1" d="M156.4,195.9c-0.1-0.3-0.2,0.1-0.5,0c0.2-0.2,0.2-0.5,0.1-0.8c0.2-0.2,0.4-0.4,0.7-0.2
				c-0.5-1.1-0.5-2.4-0.8-3.3c-0.3,0.1-0.5,0-0.7-0.3c1.3-0.8-0.2-2,0.6-2.9c-0.2-0.6-1-0.5-1.2-1c0.5-1.8,3.4-0.2,2.2,1.2
				c0.5,2,1.4,4.8,0.5,6.6c0.6,0.6,0.1,1.2,0.1,2c-0.3,0.2-0.4,0.2-0.7,0.1C156.6,196.9,155.8,196.3,156.4,195.9z"/>
		</g>
		<g>
			<rect x="154.5" y="187.2" class="st0" width="3.1" height="10.8"/>
			<path class="st1" d="M156.4,196.5c-0.1-0.3-0.2,0.1-0.5,0c0.2-0.2,0.2-0.5,0.1-0.8c0.2-0.2,0.4-0.4,0.7-0.2
				c-0.5-1.1-0.5-2.4-0.8-3.3c-0.3,0.1-0.5,0-0.7-0.3c1.3-0.8-0.2-2,0.6-2.9c-0.2-0.6-1-0.5-1.2-1c0.5-1.8,3.4-0.2,2.2,1.2
				c0.5,2,1.4,4.8,0.5,6.6c0.6,0.6,0.1,1.2,0.1,2c-0.3,0.2-0.4,0.2-0.7,0.1C156.6,197.4,155.8,196.9,156.4,196.5z"/>
		</g>
		<g>
			<rect x="154.5" y="187.8" class="st0" width="3.1" height="10.8"/>
			<path class="st1" d="M156.4,197c-0.1-0.3-0.2,0.1-0.5,0c0.2-0.2,0.2-0.5,0.1-0.8c0.2-0.2,0.4-0.4,0.7-0.2
				c-0.5-1.1-0.5-2.4-0.8-3.3c-0.3,0.1-0.5,0-0.7-0.3c1.3-0.8-0.2-2,0.6-2.9c-0.2-0.6-1-0.5-1.2-1c0.5-1.8,3.4-0.2,2.2,1.2
				c0.5,2,1.4,4.8,0.5,6.6c0.6,0.6,0.1,1.2,0.1,2c-0.3,0.2-0.4,0.2-0.7,0.1C156.6,198,155.8,197.4,156.4,197z"/>
		</g>
		<g>
			<rect x="154.5" y="188.3" class="st0" width="3.1" height="10.8"/>
			<path class="st1" d="M156.4,197.6c-0.1-0.3-0.2,0.1-0.5,0c0.2-0.2,0.2-0.5,0.1-0.8c0.2-0.2,0.4-0.4,0.7-0.2
				c-0.5-1.1-0.5-2.4-0.8-3.3c-0.3,0.1-0.5,0-0.7-0.3c1.3-0.8-0.2-2,0.6-2.9c-0.2-0.6-1-0.5-1.2-1c0.5-1.8,3.4-0.2,2.2,1.2
				c0.5,2,1.4,4.8,0.5,6.6c0.6,0.6,0.1,1.2,0.1,2c-0.3,0.2-0.4,0.2-0.7,0.1C156.6,198.5,155.8,197.9,156.4,197.6z"/>
		</g>
		<g>
			<rect x="154.5" y="188.9" class="st0" width="3.1" height="10.8"/>
			<path class="st1" d="M156.4,198.1c-0.1-0.3-0.2,0.1-0.5,0c0.2-0.2,0.2-0.5,0.1-0.8c0.2-0.2,0.4-0.4,0.7-0.2
				c-0.5-1.1-0.5-2.4-0.8-3.3c-0.3,0.1-0.5,0-0.7-0.3c1.3-0.8-0.2-2,0.6-2.9c-0.2-0.6-1-0.5-1.2-1c0.5-1.8,3.4-0.2,2.2,1.2
				c0.5,2,1.4,4.8,0.5,6.6c0.6,0.6,0.1,1.2,0.1,2c-0.3,0.2-0.4,0.2-0.7,0.1C156.6,199,155.8,198.5,156.4,198.1z"/>
		</g>
		<g>
			<rect x="154.5" y="189.4" class="st0" width="3.1" height="10.8"/>
			<path class="st1" d="M156.4,198.6c-0.1-0.3-0.2,0.1-0.5,0c0.2-0.2,0.2-0.5,0.1-0.8c0.2-0.2,0.4-0.4,0.7-0.2
				c-0.5-1.1-0.5-2.4-0.8-3.3c-0.3,0.1-0.5,0-0.7-0.3c1.3-0.8-0.2-2,0.6-2.9c-0.2-0.6-1-0.5-1.2-1c0.5-1.8,3.4-0.2,2.2,1.2
				c0.5,2,1.4,4.8,0.5,6.6c0.6,0.6,0.1,1.2,0.1,2c-0.3,0.2-0.4,0.2-0.7,0.1C156.6,199.6,155.8,199,156.4,198.6z"/>
		</g>
		<g>
			<rect x="154.5" y="189.9" class="st0" width="3.1" height="10.8"/>
			<path class="st1" d="M156.4,199.2c-0.1-0.3-0.2,0.1-0.5,0c0.2-0.2,0.2-0.5,0.1-0.8c0.2-0.2,0.4-0.4,0.7-0.2
				c-0.5-1.1-0.5-2.4-0.8-3.3c-0.3,0.1-0.5,0-0.7-0.3c1.3-0.8-0.2-2,0.6-2.9c-0.2-0.6-1-0.5-1.2-1c0.5-1.8,3.4-0.2,2.2,1.2
				c0.5,2,1.4,4.8,0.5,6.6c0.6,0.6,0.1,1.2,0.1,2c-0.3,0.2-0.4,0.2-0.7,0.1C156.6,200.1,155.8,199.6,156.4,199.2z"/>
		</g>
		<g>
			<rect x="154.5" y="190.5" class="st0" width="3.1" height="10.8"/>
			<path class="st1" d="M156.4,199.7c-0.1-0.3-0.2,0.1-0.5,0c0.2-0.2,0.2-0.5,0.1-0.8c0.2-0.2,0.4-0.4,0.7-0.2
				c-0.5-1.1-0.5-2.4-0.8-3.3c-0.3,0.1-0.5,0-0.7-0.3c1.3-0.8-0.2-2,0.6-2.9c-0.2-0.6-1-0.5-1.2-1c0.5-1.8,3.4-0.2,2.2,1.2
				c0.5,2,1.4,4.8,0.5,6.6c0.6,0.6,0.1,1.2,0.1,2c-0.3,0.2-0.4,0.2-0.7,0.1C156.6,200.7,155.8,200.1,156.4,199.7z"/>
		</g>
		<g>
			<rect x="154.5" y="191" class="st0" width="3.1" height="10.8"/>
			<path class="st1" d="M156.4,200.3c-0.1-0.3-0.2,0.1-0.5,0c0.2-0.2,0.2-0.5,0.1-0.8c0.2-0.2,0.4-0.4,0.7-0.2
				c-0.5-1.1-0.5-2.4-0.8-3.3c-0.3,0.1-0.5,0-0.7-0.3c1.3-0.8-0.2-2,0.6-2.9c-0.2-0.6-1-0.5-1.2-1c0.5-1.8,3.4-0.2,2.2,1.2
				c0.5,2,1.4,4.8,0.5,6.6c0.6,0.6,0.1,1.2,0.1,2c-0.3,0.2-0.4,0.2-0.7,0.1C156.6,201.2,155.8,200.6,156.4,200.3z"/>
		</g>
		<g>
			<rect x="154.5" y="191.6" class="st0" width="3.1" height="10.8"/>
			<path class="st1" d="M156.4,200.8c-0.1-0.3-0.2,0.1-0.5,0c0.2-0.2,0.2-0.5,0.1-0.8c0.2-0.2,0.4-0.4,0.7-0.2
				c-0.5-1.1-0.5-2.4-0.8-3.3c-0.3,0.1-0.5,0-0.7-0.3c1.3-0.8-0.2-2,0.6-2.9c-0.2-0.6-1-0.5-1.2-1c0.5-1.8,3.4-0.2,2.2,1.2
				c0.5,2,1.4,4.8,0.5,6.6c0.6,0.6,0.1,1.2,0.1,2c-0.3,0.2-0.4,0.2-0.7,0.1C156.6,201.7,155.8,201.2,156.4,200.8z"/>
		</g>
		<g>
			<rect x="154.5" y="192.1" class="st0" width="3.1" height="10.8"/>
			<path class="st1" d="M156.4,201.3c-0.1-0.3-0.2,0.1-0.5,0c0.2-0.2,0.2-0.5,0.1-0.8c0.2-0.2,0.4-0.4,0.7-0.2
				c-0.5-1.1-0.5-2.4-0.8-3.3c-0.3,0.1-0.5,0-0.7-0.3c1.3-0.8-0.2-2,0.6-2.9c-0.2-0.6-1-0.5-1.2-1c0.5-1.8,3.4-0.2,2.2,1.2
				c0.5,2,1.4,4.8,0.5,6.6c0.6,0.6,0.1,1.2,0.1,2c-0.3,0.2-0.4,0.2-0.7,0.1C156.6,202.3,155.8,201.7,156.4,201.3z"/>
		</g>
		<g>
			<rect x="154.5" y="192.6" class="st0" width="3.1" height="10.8"/>
			<path class="st1" d="M156.4,201.9c-0.1-0.3-0.2,0.1-0.5,0c0.2-0.2,0.2-0.5,0.1-0.8c0.2-0.2,0.4-0.4,0.7-0.2
				c-0.5-1.1-0.5-2.4-0.8-3.3c-0.3,0.1-0.5,0-0.7-0.3c1.3-0.8-0.2-2,0.6-2.9c-0.2-0.6-1-0.5-1.2-1c0.5-1.8,3.4-0.2,2.2,1.2
				c0.5,2,1.4,4.8,0.5,6.6c0.6,0.6,0.1,1.2,0.1,2c-0.3,0.2-0.4,0.2-0.7,0.1C156.6,202.8,155.8,202.3,156.4,201.9z"/>
		</g>
		<g>
			<rect x="154.5" y="193.2" class="st0" width="3.1" height="10.8"/>
			<path class="st1" d="M156.4,202.4c-0.1-0.3-0.2,0.1-0.5,0c0.2-0.2,0.2-0.5,0.1-0.8c0.2-0.2,0.4-0.4,0.7-0.2
				c-0.5-1.1-0.5-2.4-0.8-3.3c-0.3,0.1-0.5,0-0.7-0.3c1.3-0.8-0.2-2,0.6-2.9c-0.2-0.6-1-0.5-1.2-1c0.5-1.8,3.4-0.2,2.2,1.2
				c0.5,2,1.4,4.8,0.5,6.6c0.6,0.6,0.1,1.2,0.1,2c-0.3,0.2-0.4,0.2-0.7,0.1C156.6,203.4,155.8,202.8,156.4,202.4z"/>
		</g>
		<g>
			<rect x="154.5" y="193.7" class="st0" width="3.1" height="10.8"/>
			<path class="st1" d="M156.4,203c-0.1-0.3-0.2,0.1-0.5,0c0.2-0.2,0.2-0.5,0.1-0.8c0.2-0.2,0.4-0.4,0.7-0.2
				c-0.5-1.1-0.5-2.4-0.8-3.3c-0.3,0.1-0.5,0-0.7-0.3c1.3-0.8-0.2-2,0.6-2.9c-0.2-0.6-1-0.5-1.2-1c0.5-1.8,3.4-0.2,2.2,1.2
				c0.5,2,1.4,4.8,0.5,6.6c0.6,0.6,0.1,1.2,0.1,2c-0.3,0.2-0.4,0.2-0.7,0.1C156.6,203.9,155.8,203.3,156.4,203z"/>
		</g>
		<g>
			<rect x="154.5" y="194.3" class="st0" width="3.1" height="10.8"/>
			<path class="st1" d="M156.4,203.5c-0.1-0.3-0.2,0.1-0.5,0c0.2-0.2,0.2-0.5,0.1-0.8c0.2-0.2,0.4-0.4,0.7-0.2
				c-0.5-1.1-0.5-2.4-0.8-3.3c-0.3,0.1-0.5,0-0.7-0.3c1.3-0.8-0.2-2,0.6-2.9c-0.2-0.6-1-0.5-1.2-1c0.5-1.8,3.4-0.2,2.2,1.2
				c0.5,2,1.4,4.8,0.5,6.6c0.6,0.6,0.1,1.2,0.1,2c-0.3,0.2-0.4,0.2-0.7,0.1C156.6,204.4,155.8,203.9,156.4,203.5z"/>
		</g>
		<g>
			<rect x="154.5" y="194.8" class="st0" width="3.1" height="10.8"/>
			<path class="st1" d="M156.4,204c-0.1-0.3-0.2,0.1-0.5,0c0.2-0.2,0.2-0.5,0.1-0.8c0.2-0.2,0.4-0.4,0.7-0.2
				c-0.5-1.1-0.5-2.4-0.8-3.3c-0.3,0.1-0.5,0-0.7-0.3c1.3-0.8-0.2-2,0.6-2.9c-0.2-0.6-1-0.5-1.2-1c0.5-1.8,3.4-0.2,2.2,1.2
				c0.5,2,1.4,4.8,0.5,6.6c0.6,0.6,0.1,1.2,0.1,2c-0.3,0.2-0.4,0.2-0.7,0.1C156.6,205,155.8,204.4,156.4,204z"/>
		</g>
		<g>
			<rect x="154.5" y="195.3" class="st0" width="3.1" height="10.8"/>
			<path class="st1" d="M156.4,204.6c-0.1-0.3-0.2,0.1-0.5,0c0.2-0.2,0.2-0.5,0.1-0.8c0.2-0.2,0.4-0.4,0.7-0.2
				c-0.5-1.1-0.5-2.4-0.8-3.3c-0.3,0.1-0.5,0-0.7-0.3c1.3-0.8-0.2-2,0.6-2.9c-0.2-0.6-1-0.5-1.2-1c0.5-1.8,3.4-0.2,2.2,1.2
				c0.5,2,1.4,4.8,0.5,6.6c0.6,0.6,0.1,1.2,0.1,2c-0.3,0.2-0.4,0.2-0.7,0.1C156.6,205.5,155.8,205,156.4,204.6z"/>
		</g>
		<g>
			<rect x="154.5" y="195.9" class="st0" width="3.1" height="10.8"/>
			<path class="st1" d="M156.4,205.1c-0.1-0.3-0.2,0.1-0.5,0c0.2-0.2,0.2-0.5,0.1-0.8c0.2-0.2,0.4-0.4,0.7-0.2
				c-0.5-1.1-0.5-2.4-0.8-3.3c-0.3,0.1-0.5,0-0.7-0.3c1.3-0.8-0.2-2,0.6-2.9c-0.2-0.6-1-0.5-1.2-1c0.5-1.8,3.4-0.2,2.2,1.2
				c0.5,2,1.4,4.8,0.5,6.6c0.6,0.6,0.1,1.2,0.1,2c-0.3,0.2-0.4,0.2-0.7,0.1C156.6,206.1,155.8,205.5,156.4,205.1z"/>
		</g>
		<g>
			<rect x="154.5" y="196.4" class="st0" width="3.1" height="10.8"/>
			<path class="st1" d="M156.4,205.7c-0.1-0.3-0.2,0.1-0.5,0c0.2-0.2,0.2-0.5,0.1-0.8c0.2-0.2,0.4-0.4,0.7-0.2
				c-0.5-1.1-0.5-2.4-0.8-3.3c-0.3,0.1-0.5,0-0.7-0.3c1.3-0.8-0.2-2,0.6-2.9c-0.2-0.6-1-0.5-1.2-1c0.5-1.8,3.4-0.2,2.2,1.2
				c0.5,2,1.4,4.8,0.5,6.6c0.6,0.6,0.1,1.2,0.1,2c-0.3,0.2-0.4,0.2-0.7,0.1C156.6,206.6,155.8,206,156.4,205.7z"/>
		</g>
		<g>
			<rect x="154.5" y="196.9" class="st0" width="3.1" height="10.8"/>
			<path class="st1" d="M156.4,206.2c-0.1-0.3-0.2,0.1-0.5,0c0.2-0.2,0.2-0.5,0.1-0.8c0.2-0.2,0.4-0.4,0.7-0.2
				c-0.5-1.1-0.5-2.4-0.8-3.3c-0.3,0.1-0.5,0-0.7-0.3c1.3-0.8-0.2-2,0.6-2.9c-0.2-0.6-1-0.5-1.2-1c0.5-1.8,3.4-0.2,2.2,1.2
				c0.5,2,1.4,4.8,0.5,6.6c0.6,0.6,0.1,1.2,0.1,2c-0.3,0.2-0.4,0.2-0.7,0.1C156.6,207.1,155.8,206.6,156.4,206.2z"/>
		</g>
		<g>
			<rect x="154.5" y="197.5" class="st0" width="3.1" height="10.8"/>
			<path class="st1" d="M156.4,206.7c-0.1-0.3-0.2,0.1-0.5,0c0.2-0.2,0.2-0.5,0.1-0.8c0.2-0.2,0.4-0.4,0.7-0.2
				c-0.5-1.1-0.5-2.4-0.8-3.3c-0.3,0.1-0.5,0-0.7-0.3c1.3-0.8-0.2-2,0.6-2.9c-0.2-0.6-1-0.5-1.2-1c0.5-1.8,3.4-0.2,2.2,1.2
				c0.5,2,1.4,4.8,0.5,6.6c0.6,0.6,0.1,1.2,0.1,2c-0.3,0.2-0.4,0.2-0.7,0.1C156.6,207.7,155.8,207.1,156.4,206.7z"/>
		</g>
		<g>
			<rect x="154.5" y="198" class="st0" width="3.1" height="10.8"/>
			<path class="st1" d="M156.4,207.3c-0.1-0.3-0.2,0.1-0.5,0c0.2-0.2,0.2-0.5,0.1-0.8c0.2-0.2,0.4-0.4,0.7-0.2
				c-0.5-1.1-0.5-2.4-0.8-3.3c-0.3,0.1-0.5,0-0.7-0.3c1.3-0.8-0.2-2,0.6-2.9c-0.2-0.6-1-0.5-1.2-1c0.5-1.8,3.4-0.2,2.2,1.2
				c0.5,2,1.4,4.8,0.5,6.6c0.6,0.6,0.1,1.2,0.1,2c-0.3,0.2-0.4,0.2-0.7,0.1C156.6,208.2,155.8,207.7,156.4,207.3z"/>
		</g>
		<g>
			<rect x="154.5" y="198.6" class="st0" width="3.1" height="10.8"/>
			<path class="st1" d="M156.4,207.8c-0.1-0.3-0.2,0.1-0.5,0c0.2-0.2,0.2-0.5,0.1-0.8c0.2-0.2,0.4-0.4,0.7-0.2
				c-0.5-1.1-0.5-2.4-0.8-3.3c-0.3,0.1-0.5,0-0.7-0.3c1.3-0.8-0.2-2,0.6-2.9c-0.2-0.6-1-0.5-1.2-1c0.5-1.8,3.4-0.2,2.2,1.2
				c0.5,2,1.4,4.8,0.5,6.6c0.6,0.6,0.1,1.2,0.1,2c-0.3,0.2-0.4,0.2-0.7,0.1C156.6,208.8,155.8,208.2,156.4,207.8z"/>
		</g>
		<g>
			<rect x="154.5" y="199.1" class="st0" width="3.1" height="10.8"/>
			<path class="st1" d="M156.4,208.4c-0.1-0.3-0.2,0.1-0.5,0c0.2-0.2,0.2-0.5,0.1-0.8c0.2-0.2,0.4-0.4,0.7-0.2
				c-0.5-1.1-0.5-2.4-0.8-3.3c-0.3,0.1-0.5,0-0.7-0.3c1.3-0.8-0.2-2,0.6-2.9c-0.2-0.6-1-0.5-1.2-1c0.5-1.8,3.4-0.2,2.2,1.2
				c0.5,2,1.4,4.8,0.5,6.6c0.6,0.6,0.1,1.2,0.1,2c-0.3,0.2-0.4,0.2-0.7,0.1C156.6,209.3,155.8,208.7,156.4,208.4z"/>
		</g>
		<g>
			<rect x="154.5" y="199.6" class="st0" width="3.1" height="10.8"/>
			<path class="st1" d="M156.4,208.9c-0.1-0.3-0.2,0.1-0.5,0c0.2-0.2,0.2-0.5,0.1-0.8c0.2-0.2,0.4-0.4,0.7-0.2
				c-0.5-1.1-0.5-2.4-0.8-3.3c-0.3,0.1-0.5,0-0.7-0.3c1.3-0.8-0.2-2,0.6-2.9c-0.2-0.6-1-0.5-1.2-1c0.5-1.8,3.4-0.2,2.2,1.2
				c0.5,2,1.4,4.8,0.5,6.6c0.6,0.6,0.1,1.2,0.1,2c-0.3,0.2-0.4,0.2-0.7,0.1C156.6,209.8,155.8,209.3,156.4,208.9z"/>
		</g>
		<g>
			<rect x="154.5" y="200.2" class="st0" width="3.1" height="10.8"/>
			<path class="st1" d="M156.4,209.4c-0.1-0.3-0.2,0.1-0.5,0c0.2-0.2,0.2-0.5,0.1-0.8c0.2-0.2,0.4-0.4,0.7-0.2
				c-0.5-1.1-0.5-2.4-0.8-3.3c-0.3,0.1-0.5,0-0.7-0.3c1.3-0.8-0.2-2,0.6-2.9c-0.2-0.6-1-0.5-1.2-1c0.5-1.8,3.4-0.2,2.2,1.2
				c0.5,2,1.4,4.8,0.5,6.6c0.6,0.6,0.1,1.2,0.1,2c-0.3,0.2-0.4,0.2-0.7,0.1C156.6,210.4,155.8,209.8,156.4,209.4z"/>
		</g>
	</g>
</g>
<g>
	<g>
		<g>
			<g>
				<g class="st2">
					<g>
						<path class="st3" d="M130.8,181.7c0.2-0.3,0.4-0.5,0.6-0.8c-0.1,0.1-0.3,0.2-0.5,0.3C130.8,181.3,130.8,181.5,130.8,181.7z"/>
						<path class="st3" d="M132,180.1c0,0,0.1-0.1,0.1-0.1c0-0.1,0-0.1,0.1-0.2C132.1,179.9,132.1,180,132,180.1z"/>
						<path class="st3" d="M133,178.6c-0.2,0.2-0.4,0.5-0.5,0.7C132.6,179.2,132.8,178.9,133,178.6z"/>
						<path class="st3" d="M132,179.7c0.1,0,0.2,0,0.2,0.2c0,0,0,0,0,0c0.1-0.2,0.2-0.3,0.3-0.5C132.3,179.5,132.2,179.6,132,179.7z
							"/>
						<path class="st3" d="M132,179.7c-0.1,0-0.3,0.1-0.4,0.1C131.8,179.8,131.9,179.7,132,179.7z"/>
						<path class="st3" d="M130.7,178.1c0.1-0.2,0.5,0.2,0.6-0.2c0.4-0.8,0.6-1.5,1.1-2.1c0.1-0.4,0.9-0.4,1.1-0.8
							c0.4-0.8,1.1-2.9,0.4-1.9c-1.1,1.6-1.7,2.6-2.7,4.1c-0.7,1.2-1.3,2.5-2,3.7c-0.2,0.3-0.5,0.6-0.7,0.9c0.4-0.3,0.7-0.7,1.1-1.1
							C130.2,180.2,130.2,179.1,130.7,178.1z"/>
						<path class="st3" d="M125.9,187.5c0.1-0.2,0.2-0.5,0.2-0.5c0.8-0.4,1.2-1.2,1.6-1.9c-0.1,0-0.3,0.1-0.4,0.1
							c-0.3,0.4-0.2,0.5,0.2,0.3c-0.9,0.6-1.4,1.3-2,2.1C125.6,187.6,125.7,187.7,125.9,187.5z"/>
						<path class="st3" d="M125.1,188c0.1-0.2,0.2-0.3,0.3-0.5c0,0,0,0,0,0C125.3,187.7,125.2,187.8,125.1,188
							C125.1,188,125.1,188,125.1,188z"/>
						<path class="st3" d="M134.9,175.3c1.4-1.9,2.8-3.7,4.1-5.4c0-0.2,0-0.4,0.2-0.5c0.2-0.1,0.3-0.2,0.5-0.3
							c0.2-0.3,0.4-0.5,0.6-0.7c0.1-0.1,0.1-0.2,0.2-0.3c0,0,0,0,0,0c0.1-0.2,0-0.2-0.2-0.1c-0.1,0.1-0.2,0.1-0.4,0.1
							c0.1,0,0.2-0.1,0.4-0.1c0.1-0.1,0.3-0.2,0.4-0.3c0.1-0.3,0.3-0.5,0.5-0.7c-0.2,0.3-0.3,0.6-0.5,0.7c-0.1,0.2-0.2,0.3-0.3,0.5
							c0,0.1,0,0.1-0.1,0.2c0.5-0.6,0.9-1.1,1.4-1.7c0.1-0.1,0.2-0.3,0.2-0.4c0.3-0.5,0.5-0.9,0.9-1c0.1-0.1,0.2-0.2,0.2-0.3
							c0,0-0.1,0-0.1,0c0,0,0.1-0.1,0.1-0.1c0.3-0.4,0.7-0.8,1-1.3c0.1-0.3,0.3-0.7,0.4-1.1c0,0,0.3-0.1,0.4-0.1
							c0-0.2,0-0.4,0.2-0.7c-0.3,0.1-0.6,0.2-0.9,0.4c-0.4,0.1-0.1,1-0.7,1c0.7,0,0.3-0.9,0.7-1c0.2-0.1,0.5-0.2,0.9-0.4
							c0.2-0.5,0.7-1,1.3-1.2c-0.2,0.7-0.7,1-1.3,1.2c-0.1,0.2-0.2,0.5-0.2,0.7c-0.1,0-0.4,0.1-0.4,0.1c-0.2,0.3-0.3,0.7-0.4,1.1
							c0.7-0.8,1.4-1.7,2.1-2.5c4.6-5.5,8.5-10.8,13.2-16.6c2.5-3.1,5.1-6.1,7.6-8.9c5.1-5.6,8.6-11.6,14.3-16.9
							c2.2-2,5.2-6.5,6.9-8.8c1.6-3.6-1.5-3.4-1.7-3.3c-3,0.7-3.2,2.8-7,5.9c2.5-2.2-0.4,2.7-3.3,4.3c-4.3,2.3-6.8,8.3-10.5,12.3
							c-0.9,1-1.7,2.2-2.7,3.5c-5.6,6.3-9.7,13.1-15.1,20.1c-1.4,1.9-2.3,3.8-3.2,5.6c-0.8,1.2-1.9,2.3-2.6,3.2
							c-1.1,1.5-1.9,2.9-2.6,4.2c0.9-1.4,1.6-2.5,2.7-4.1c0.7-1,0,1.1-0.4,1.9c-0.1,0.4-0.9,0.4-1.1,0.8c-0.5,0.6-0.7,1.3-1.1,2.1
							c-0.1,0.4-0.5,0-0.6,0.2c-0.6,1-0.6,2.1-1.1,2.6c-0.4,0.4-0.8,0.7-1.1,1.1c-0.2,0.2-0.4,0.5-0.6,0.7c-0.1,0.2-0.2,0.4-0.3,0.6
							c0.2,0,0.4,0,0.6,0.1c-0.2,0.2-0.6,0.5-0.8,0.7c0.2-0.2,0.6-0.5,0.8-0.7c-0.2-0.1-0.4-0.2-0.6-0.1c-0.6,1.4-1.5,2.9-2.2,4.4
							c0,0,0,0,0.1,0c0.5-0.8,1.1-1.5,2-2.1c-0.4,0.3-0.4,0.1-0.2-0.3c0.1,0,0.3-0.1,0.4-0.1c-0.4,0.8-0.8,1.5-1.6,1.9
							c0,0-0.1,0.4-0.2,0.5c-0.2,0.2-0.3,0.1-0.5,0c-0.1,0.2-0.2,0.3-0.3,0.5C133.8,176,134.9,175.3,134.9,175.3z"/>
						<path class="st3" d="M140.7,167.5c-0.1,0.1-0.1,0.2-0.2,0.4c0.4-0.5,0.8-0.9,1.2-1.4C141.2,166.6,141,167.1,140.7,167.5z"/>
					</g>
				</g>
			</g>
		</g>
	</g>
</g>
<g>
	<g>
		<g>
			<g>
				<g class="st4">
					<path class="st3" d="M180.8,192.4c-0.6-3-5.7-11.6-7.6-15.6c-0.8-1.5-1.4-2.6-1.8-3.5c-0.3-0.7,0.5,0.9,1.8,3.5
						c0.6,1.1,1.3,2.4,2.2,4c-0.8-2.1-1.5-4.1-2-5.6c-0.6-1-1.1-1.9-1.7-2.9c-2.5-4.4-5-8.6-7.3-12.9c-0.8-1.6-2.9-5-3.6-6.6
						l11.1,18.9c-0.1-0.2-0.2-0.4-0.2-0.5l-5.6-10.1c-0.3-0.6-0.7-1.1-1-1.7l1,1.7c0.9,1.5,1.8,2.8,2.8,4.4c0.6,1,1.1,2.2,1.7,3.2
						c0.5,0.8,0.7,1.7,1.1,2.5l0.8,1.5c0.1,0.1,0.2,0.3,0.3,0.4c0,0,0,0,0,0c0-1.7-6.4-14.7-7.8-16.7c-1.1-1.6-2.6-2.7-3.8-4.5
						c-0.4-0.6-0.5-1.2-1-1.6c-0.1,0-0.3-0.2-0.5-0.4c-0.8-1.2-1.2-2.6-2-3.4c-0.5-0.6-0.1-3.3-0.5-3.3c-1.3,0.1-0.4,0-1.2-1.6
						c-0.1-0.2-0.9-0.6-1.1-1c-0.5-1.4-1.1-1.6-2.1-3c-1.6-1.9-1.3-2.8-3.1-4.3c-0.2-0.2-2.4-2.9-2.4-2.9c-1.3-2.4-2.7-3.5-3.1-5.8
						c-1.9-1.7-2.9-5-4.3-7.1c-1.5-2.2-1.5-3.4-2.3-5.7c-0.3-0.6-0.6-1-0.6-1.4c-0.1-0.4-0.9-1-1.2-1.6c0.1,0,0.2,0,0.4,0
						c-0.1-0.2-0.3-0.6-0.4-0.8c-0.1-0.2,0-0.2,0.2-0.2c0.2,0,0.5,0,0.4-0.5c-0.3-0.9-0.7-1.8-1.1-2.6c-0.6-0.7-1.3-1.4-1.9-2.1
						c-0.2,0-0.3,0.1-0.5,0c-0.2-0.2-0.4-0.4-0.6-0.6c-0.4,0-0.6,0.3-0.9,0.3c-0.8,0.5-2.2,0-2.8,0.7c-0.2,0.2,0.6,1.6,0.6,2.5
						c0,0.2-0.5,0-0.9,0.1c0.5,0.8,0.2,1-0.3,0.9c0.1,0.2,0.2,0.4,0.2,0.4c-0.1,0-0.5,0-0.5,0c0.9,2.2,1.5,4.9,3.1,6.6
						c0.3,0.4,0.9,1,1.4,1.3c0.2,0.2,0.4,0.8,0.4,1c0.5,0.2,0.7-0.1,1.1-0.1c0.6,1.6,2,5,3,4.3c0.7,1.2,1.3,1.1,2.1,2.3
						c1.1,1.6,2.4,3.6,3.6,5.6c0.7,1.1,1.4,2.1,2,3.2c0.2,0.4,0.5,0.8,0.7,1.1c4.9,7.9,7.7,14.3,13.2,21.6
						c11.1,14.8,19.3,33.5,21.4,37.5L180.8,192.4z"/>
				</g>
			</g>
		</g>
	</g>
</g>
<radialGradient id="SVGID_1_" cx="152.6776" cy="166.8143" r="41.9363" gradientTransform="matrix(-0.8912 0 0 -1.0493 292.1172 321.9535)" gradientUnits="userSpaceOnUse">
	<stop  offset="4.950495e-03" style="stop-color:#FFFFFF"/>
	<stop  offset="1" style="stop-color:#FFF9AE;stop-opacity:0"/>
</radialGradient>
<radialGradient id="SVGID_2_" cx="152.6776" cy="166.8143" r="42.104" gradientTransform="matrix(-0.8912 0 0 -1.0493 292.1172 321.9535)" gradientUnits="userSpaceOnUse">
	<stop  offset="0" style="stop-color:#FFF9AE"/>
	<stop  offset="1" style="stop-color:#FFF9AE;stop-opacity:0"/>
</radialGradient>
<ellipse class="st5" cx="156.1" cy="146.9" rx="34.5" ry="47.1"/>
</svg>
