<?xml version="1.0" encoding="utf-8"?>
<!-- Generator: Adobe Illustrator 21.0.0, SVG Export Plug-In . SVG Version: 6.00 Build 0)  -->
<svg version="1.1" id="Layer_1" xmlns="http://www.w3.org/2000/svg" xmlns:xlink="http://www.w3.org/1999/xlink" x="0px" y="0px"
	 viewBox="0 0 288 288" style="enable-background:new 0 0 288 288;" xml:space="preserve">
<style type="text/css">
	.st0{fill:none;}
	.st1{fill-rule:evenodd;clip-rule:evenodd;fill:#FFFFFF;}
	.st2{opacity:0.85;}
	.st3{fill:#FFFFFF;}
	.st4{opacity:0.8;}
	.st5{opacity:0.78;fill:url(#SVGID_1_);stroke:url(#SVGID_2_);stroke-width:0.5046;stroke-miterlimit:10;}
</style>
<g>
	<g>
		<g>
			<rect x="153.7" y="226.5" class="st0" width="4.7" height="16.2"/>
			<path class="st1" d="M156.5,240.4c-0.1-0.4-0.4,0.2-0.7,0c0.3-0.3,0.4-0.8,0.1-1.3c0.4-0.2,0.6-0.5,1.1-0.3
				c-0.7-1.7-0.8-3.6-1.3-4.9c-0.5,0.2-0.8,0-1.1-0.4c2-1.2-0.4-3,0.8-4.3c-0.2-0.9-1.5-0.7-1.8-1.5c0.7-2.6,5.1-0.3,3.3,1.8
				c0.8,3,2.1,7.2,0.7,9.9c1,0.9,0.1,1.7,0.1,3.1c-0.4,0.3-0.6,0.3-1.1,0.1C156.9,241.8,155.7,240.9,156.5,240.4z"/>
		</g>
		<g>
			<rect x="153.7" y="225.7" class="st0" width="4.7" height="16.2"/>
			<path class="st1" d="M156.5,239.5c-0.1-0.4-0.4,0.2-0.7,0c0.3-0.3,0.4-0.8,0.1-1.3c0.4-0.2,0.6-0.5,1.1-0.3
				c-0.7-1.7-0.8-3.6-1.3-4.9c-0.5,0.2-0.8,0-1.1-0.4c2-1.2-0.4-3,0.8-4.3c-0.2-0.9-1.5-0.7-1.8-1.5c0.7-2.6,5.1-0.3,3.3,1.8
				c0.8,3,2.1,7.2,0.7,9.9c1,0.9,0.1,1.7,0.1,3.1c-0.4,0.3-0.6,0.3-1.1,0.1C156.9,241,155.7,240.1,156.5,239.5z"/>
		</g>
		<g>
			<rect x="153.7" y="224.9" class="st0" width="4.7" height="16.2"/>
			<path class="st1" d="M156.5,238.7c-0.1-0.4-0.4,0.2-0.7,0c0.3-0.3,0.4-0.8,0.1-1.3c0.4-0.2,0.6-0.5,1.1-0.3
				c-0.7-1.7-0.8-3.6-1.3-4.9c-0.5,0.2-0.8,0-1.1-0.4c2-1.2-0.4-3,0.8-4.3c-0.2-0.9-1.5-0.7-1.8-1.5c0.7-2.6,5.1-0.3,3.3,1.8
				c0.8,3,2.1,7.2,0.7,9.9c1,0.9,0.1,1.7,0.1,3.1c-0.4,0.3-0.6,0.3-1.1,0.1C156.9,240.2,155.7,239.3,156.5,238.7z"/>
		</g>
		<g>
			<rect x="153.7" y="224.1" class="st0" width="4.7" height="16.2"/>
			<path class="st1" d="M156.5,237.9c-0.1-0.4-0.4,0.2-0.7,0c0.3-0.3,0.4-0.8,0.1-1.3c0.4-0.2,0.6-0.5,1.1-0.3
				c-0.7-1.7-0.8-3.6-1.3-4.9c-0.5,0.2-0.8,0-1.1-0.4c2-1.2-0.4-3,0.8-4.3c-0.2-0.9-1.5-0.7-1.8-1.5c0.7-2.6,5.1-0.3,3.3,1.8
				c0.8,3,2.1,7.2,0.7,9.9c1,0.9,0.1,1.7,0.1,3.1c-0.4,0.3-0.6,0.3-1.1,0.1C156.9,239.3,155.7,238.5,156.5,237.9z"/>
		</g>
		<g>
			<rect x="153.7" y="223.2" class="st0" width="4.7" height="16.2"/>
			<path class="st1" d="M156.5,237.1c-0.1-0.4-0.4,0.2-0.7,0c0.3-0.3,0.4-0.8,0.1-1.3c0.4-0.2,0.6-0.5,1.1-0.3
				c-0.7-1.7-0.8-3.6-1.3-4.9c-0.5,0.2-0.8,0-1.1-0.4c2-1.2-0.4-3,0.8-4.3c-0.2-0.9-1.5-0.7-1.8-1.5c0.7-2.6,5.1-0.3,3.3,1.8
				c0.8,3,2.1,7.2,0.7,9.9c1,0.9,0.1,1.7,0.1,3.1c-0.4,0.3-0.6,0.3-1.1,0.1C156.9,238.5,155.7,237.7,156.5,237.1z"/>
		</g>
		<g>
			<rect x="153.7" y="222.4" class="st0" width="4.7" height="16.2"/>
			<path class="st1" d="M156.5,236.3c-0.1-0.4-0.4,0.2-0.7,0c0.3-0.3,0.4-0.8,0.1-1.3c0.4-0.2,0.6-0.5,1.1-0.3
				c-0.7-1.7-0.8-3.6-1.3-4.9c-0.5,0.2-0.8,0-1.1-0.4c2-1.2-0.4-3,0.8-4.3c-0.2-0.9-1.5-0.7-1.8-1.5c0.7-2.6,5.1-0.3,3.3,1.8
				c0.8,3,2.1,7.2,0.7,9.9c1,0.9,0.1,1.7,0.1,3.1c-0.4,0.3-0.6,0.3-1.1,0.1C156.9,237.7,155.7,236.9,156.5,236.3z"/>
		</g>
		<g>
			<rect x="153.7" y="221.6" class="st0" width="4.7" height="16.2"/>
			<path class="st1" d="M156.5,235.5c-0.1-0.4-0.4,0.2-0.7,0c0.3-0.3,0.4-0.8,0.1-1.3c0.4-0.2,0.6-0.5,1.1-0.3
				c-0.7-1.7-0.8-3.6-1.3-4.9c-0.5,0.2-0.8,0-1.1-0.4c2-1.2-0.4-3,0.8-4.3c-0.2-0.9-1.5-0.7-1.8-1.5c0.7-2.6,5.1-0.3,3.3,1.8
				c0.8,3,2.1,7.2,0.7,9.9c1,0.9,0.1,1.7,0.1,3.1c-0.4,0.3-0.6,0.3-1.1,0.1C156.9,236.9,155.7,236.1,156.5,235.5z"/>
		</g>
		<g>
			<rect x="153.7" y="220.8" class="st0" width="4.7" height="16.2"/>
			<path class="st1" d="M156.5,234.7c-0.1-0.4-0.4,0.2-0.7,0c0.3-0.3,0.4-0.8,0.1-1.3c0.4-0.2,0.6-0.5,1.1-0.3
				c-0.7-1.7-0.8-3.6-1.3-4.9c-0.5,0.2-0.8,0-1.1-0.4c2-1.2-0.4-3,0.8-4.3c-0.2-0.9-1.5-0.7-1.8-1.5c0.7-2.6,5.1-0.3,3.3,1.8
				c0.8,3,2.1,7.2,0.7,9.9c1,0.9,0.1,1.7,0.1,3.1c-0.4,0.3-0.6,0.3-1.1,0.1C156.9,236.1,155.7,235.3,156.5,234.7z"/>
		</g>
		<g>
			<rect x="153.7" y="220" class="st0" width="4.7" height="16.2"/>
			<path class="st1" d="M156.5,233.9c-0.1-0.4-0.4,0.2-0.7,0c0.3-0.3,0.4-0.8,0.1-1.3c0.4-0.2,0.6-0.5,1.1-0.3
				c-0.7-1.7-0.8-3.6-1.3-4.9c-0.5,0.2-0.8,0-1.1-0.4c2-1.2-0.4-3,0.8-4.3c-0.2-0.9-1.5-0.7-1.8-1.5c0.7-2.6,5.1-0.3,3.3,1.8
				c0.8,3,2.1,7.2,0.7,9.9c1,0.9,0.1,1.7,0.1,3.1c-0.4,0.3-0.6,0.3-1.1,0.1C156.9,235.3,155.7,234.4,156.5,233.9z"/>
		</g>
		<g>
			<rect x="153.7" y="219.2" class="st0" width="4.7" height="16.2"/>
			<path class="st1" d="M156.5,233.1c-0.1-0.4-0.4,0.2-0.7,0c0.3-0.3,0.4-0.8,0.1-1.3c0.4-0.2,0.6-0.5,1.1-0.3
				c-0.7-1.7-0.8-3.6-1.3-4.9c-0.5,0.2-0.8,0-1.1-0.4c2-1.2-0.4-3,0.8-4.3c-0.2-0.9-1.5-0.7-1.8-1.5c0.7-2.6,5.1-0.3,3.3,1.8
				c0.8,3,2.1,7.2,0.7,9.9c1,0.9,0.1,1.7,0.1,3.1c-0.4,0.3-0.6,0.3-1.1,0.1C156.9,234.5,155.7,233.6,156.5,233.1z"/>
		</g>
		<g>
			<rect x="153.7" y="218.4" class="st0" width="4.7" height="16.2"/>
			<path class="st1" d="M156.5,232.3c-0.1-0.4-0.4,0.2-0.7,0c0.3-0.3,0.4-0.8,0.1-1.3c0.4-0.2,0.6-0.5,1.1-0.3
				c-0.7-1.7-0.8-3.6-1.3-4.9c-0.5,0.2-0.8,0-1.1-0.4c2-1.2-0.4-3,0.8-4.3c-0.2-0.9-1.5-0.7-1.8-1.5c0.7-2.6,5.1-0.3,3.3,1.8
				c0.8,3,2.1,7.2,0.7,9.9c1,0.9,0.1,1.7,0.1,3.1c-0.4,0.3-0.6,0.3-1.1,0.1C156.9,233.7,155.7,232.8,156.5,232.3z"/>
		</g>
		<g>
			<rect x="153.7" y="217.6" class="st0" width="4.7" height="16.2"/>
			<path class="st1" d="M156.5,231.5c-0.1-0.4-0.4,0.2-0.7,0c0.3-0.3,0.4-0.8,0.1-1.3c0.4-0.2,0.6-0.5,1.1-0.3
				c-0.7-1.7-0.8-3.6-1.3-4.9c-0.5,0.2-0.8,0-1.1-0.4c2-1.2-0.4-3,0.8-4.3c-0.2-0.9-1.5-0.7-1.8-1.5c0.7-2.6,5.1-0.3,3.3,1.8
				c0.8,3,2.1,7.2,0.7,9.9c1,0.9,0.1,1.7,0.1,3.1c-0.4,0.3-0.6,0.3-1.1,0.1C156.9,232.9,155.7,232,156.5,231.5z"/>
		</g>
		<g>
			<rect x="153.7" y="216.8" class="st0" width="4.7" height="16.2"/>
			<path class="st1" d="M156.5,230.6c-0.1-0.4-0.4,0.2-0.7,0c0.3-0.3,0.4-0.8,0.1-1.3c0.4-0.2,0.6-0.5,1.1-0.3
				c-0.7-1.7-0.8-3.6-1.3-4.9c-0.5,0.2-0.8,0-1.1-0.4c2-1.2-0.4-3,0.8-4.3c-0.2-0.9-1.5-0.7-1.8-1.5c0.7-2.6,5.1-0.3,3.3,1.8
				c0.8,3,2.1,7.2,0.7,9.9c1,0.9,0.1,1.7,0.1,3.1c-0.4,0.3-0.6,0.3-1.1,0.1C156.9,232.1,155.7,231.2,156.5,230.6z"/>
		</g>
		<g>
			<rect x="153.7" y="216" class="st0" width="4.7" height="16.2"/>
			<path class="st1" d="M156.5,229.8c-0.1-0.4-0.4,0.2-0.7,0c0.3-0.3,0.4-0.8,0.1-1.3c0.4-0.2,0.6-0.5,1.1-0.3
				c-0.7-1.7-0.8-3.6-1.3-4.9c-0.5,0.2-0.8,0-1.1-0.4c2-1.2-0.4-3,0.8-4.3c-0.2-0.9-1.5-0.7-1.8-1.5c0.7-2.6,5.1-0.3,3.3,1.8
				c0.8,3,2.1,7.2,0.7,9.9c1,0.9,0.1,1.7,0.1,3.1c-0.4,0.3-0.6,0.3-1.1,0.1C156.9,231.2,155.7,230.4,156.5,229.8z"/>
		</g>
		<g>
			<rect x="153.7" y="215.1" class="st0" width="4.7" height="16.2"/>
			<path class="st1" d="M156.5,229c-0.1-0.4-0.4,0.2-0.7,0c0.3-0.3,0.4-0.8,0.1-1.3c0.4-0.2,0.6-0.5,1.1-0.3
				c-0.7-1.7-0.8-3.6-1.3-4.9c-0.5,0.2-0.8,0-1.1-0.4c2-1.2-0.4-3,0.8-4.3c-0.2-0.9-1.5-0.7-1.8-1.5c0.7-2.6,5.1-0.3,3.3,1.8
				c0.8,3,2.1,7.2,0.7,9.9c1,0.9,0.1,1.7,0.1,3.1c-0.4,0.3-0.6,0.3-1.1,0.1C156.9,230.4,155.7,229.6,156.5,229z"/>
		</g>
		<g>
			<rect x="153.7" y="214.3" class="st0" width="4.7" height="16.2"/>
			<path class="st1" d="M156.5,228.2c-0.1-0.4-0.4,0.2-0.7,0c0.3-0.3,0.4-0.8,0.1-1.3c0.4-0.2,0.6-0.5,1.1-0.3
				c-0.7-1.7-0.8-3.6-1.3-4.9c-0.5,0.2-0.8,0-1.1-0.4c2-1.2-0.4-3,0.8-4.3c-0.2-0.9-1.5-0.7-1.8-1.5c0.7-2.6,5.1-0.3,3.3,1.8
				c0.8,3,2.1,7.2,0.7,9.9c1,0.9,0.1,1.7,0.1,3.1c-0.4,0.3-0.6,0.3-1.1,0.1C156.9,229.6,155.7,228.8,156.5,228.2z"/>
		</g>
		<g>
			<rect x="153.7" y="213.5" class="st0" width="4.7" height="16.2"/>
			<path class="st1" d="M156.5,227.4c-0.1-0.4-0.4,0.2-0.7,0c0.3-0.3,0.4-0.8,0.1-1.3c0.4-0.2,0.6-0.5,1.1-0.3
				c-0.7-1.7-0.8-3.6-1.3-4.9c-0.5,0.2-0.8,0-1.1-0.4c2-1.2-0.4-3,0.8-4.3c-0.2-0.9-1.5-0.7-1.8-1.5c0.7-2.6,5.1-0.3,3.3,1.8
				c0.8,3,2.1,7.2,0.7,9.9c1,0.9,0.1,1.7,0.1,3.1c-0.4,0.3-0.6,0.3-1.1,0.1C156.9,228.8,155.7,228,156.5,227.4z"/>
		</g>
		<g>
			<rect x="153.7" y="212.7" class="st0" width="4.7" height="16.2"/>
			<path class="st1" d="M156.5,226.6c-0.1-0.4-0.4,0.2-0.7,0c0.3-0.3,0.4-0.8,0.1-1.3c0.4-0.2,0.6-0.5,1.1-0.3
				c-0.7-1.7-0.8-3.6-1.3-4.9c-0.5,0.2-0.8,0-1.1-0.4c2-1.2-0.4-3,0.8-4.3c-0.2-0.9-1.5-0.7-1.8-1.5c0.7-2.6,5.1-0.3,3.3,1.8
				c0.8,3,2.1,7.2,0.7,9.9c1,0.9,0.1,1.7,0.1,3.1c-0.4,0.3-0.6,0.3-1.1,0.1C156.9,228,155.7,227.2,156.5,226.6z"/>
		</g>
		<g>
			<rect x="153.7" y="211.9" class="st0" width="4.7" height="16.2"/>
			<path class="st1" d="M156.5,225.8c-0.1-0.4-0.4,0.2-0.7,0c0.3-0.3,0.4-0.8,0.1-1.3c0.4-0.2,0.6-0.5,1.1-0.3
				c-0.7-1.7-0.8-3.6-1.3-4.9c-0.5,0.2-0.8,0-1.1-0.4c2-1.2-0.4-3,0.8-4.3c-0.2-0.9-1.5-0.7-1.8-1.5c0.7-2.6,5.1-0.3,3.3,1.8
				c0.8,3,2.1,7.2,0.7,9.9c1,0.9,0.1,1.7,0.1,3.1c-0.4,0.3-0.6,0.3-1.1,0.1C156.9,227.2,155.7,226.3,156.5,225.8z"/>
		</g>
		<g>
			<rect x="153.7" y="211.1" class="st0" width="4.7" height="16.2"/>
			<path class="st1" d="M156.5,225c-0.1-0.4-0.4,0.2-0.7,0c0.3-0.3,0.4-0.8,0.1-1.3c0.4-0.2,0.6-0.5,1.1-0.3
				c-0.7-1.7-0.8-3.6-1.3-4.9c-0.5,0.2-0.8,0-1.1-0.4c2-1.2-0.4-3,0.8-4.3c-0.2-0.9-1.5-0.7-1.8-1.5c0.7-2.6,5.1-0.3,3.3,1.8
				c0.8,3,2.1,7.2,0.7,9.9c1,0.9,0.1,1.7,0.1,3.1c-0.4,0.3-0.6,0.3-1.1,0.1C156.9,226.4,155.7,225.5,156.5,225z"/>
		</g>
		<g>
			<rect x="153.7" y="210.3" class="st0" width="4.7" height="16.2"/>
			<path class="st1" d="M156.5,224.2c-0.1-0.4-0.4,0.2-0.7,0c0.3-0.3,0.4-0.8,0.1-1.3c0.4-0.2,0.6-0.5,1.1-0.3
				c-0.7-1.7-0.8-3.6-1.3-4.9c-0.5,0.2-0.8,0-1.1-0.4c2-1.2-0.4-3,0.8-4.3c-0.2-0.9-1.5-0.7-1.8-1.5c0.7-2.6,5.1-0.3,3.3,1.8
				c0.8,3,2.1,7.2,0.7,9.9c1,0.9,0.1,1.7,0.1,3.1c-0.4,0.3-0.6,0.3-1.1,0.1C156.9,225.6,155.7,224.7,156.5,224.2z"/>
		</g>
		<g>
			<rect x="153.7" y="209.5" class="st0" width="4.7" height="16.2"/>
			<path class="st1" d="M156.5,223.4c-0.1-0.4-0.4,0.2-0.7,0c0.3-0.3,0.4-0.8,0.1-1.3c0.4-0.2,0.6-0.5,1.1-0.3
				c-0.7-1.7-0.8-3.6-1.3-4.9c-0.5,0.2-0.8,0-1.1-0.4c2-1.2-0.4-3,0.8-4.3c-0.2-0.9-1.5-0.7-1.8-1.5c0.7-2.6,5.1-0.3,3.3,1.8
				c0.8,3,2.1,7.2,0.7,9.9c1,0.9,0.1,1.7,0.1,3.1c-0.4,0.3-0.6,0.3-1.1,0.1C156.9,224.8,155.7,223.9,156.5,223.4z"/>
		</g>
		<g>
			<rect x="153.7" y="208.7" class="st0" width="4.7" height="16.2"/>
			<path class="st1" d="M156.5,222.5c-0.1-0.4-0.4,0.2-0.7,0c0.3-0.3,0.4-0.8,0.1-1.3c0.4-0.2,0.6-0.5,1.1-0.3
				c-0.7-1.7-0.8-3.6-1.3-4.9c-0.5,0.2-0.8,0-1.1-0.4c2-1.2-0.4-3,0.8-4.3c-0.2-0.9-1.5-0.7-1.8-1.5c0.7-2.6,5.1-0.3,3.3,1.8
				c0.8,3,2.1,7.2,0.7,9.9c1,0.9,0.1,1.7,0.1,3.1c-0.4,0.3-0.6,0.3-1.1,0.1C156.9,224,155.7,223.1,156.5,222.5z"/>
		</g>
		<g>
			<rect x="153.7" y="207.9" class="st0" width="4.7" height="16.2"/>
			<path class="st1" d="M156.5,221.7c-0.1-0.4-0.4,0.2-0.7,0c0.3-0.3,0.4-0.8,0.1-1.3c0.4-0.2,0.6-0.5,1.1-0.3
				c-0.7-1.7-0.8-3.6-1.3-4.9c-0.5,0.2-0.8,0-1.1-0.4c2-1.2-0.4-3,0.8-4.3c-0.2-0.9-1.5-0.7-1.8-1.5c0.7-2.6,5.1-0.3,3.3,1.8
				c0.8,3,2.1,7.2,0.7,9.9c1,0.9,0.1,1.7,0.1,3.1c-0.4,0.3-0.6,0.3-1.1,0.1C156.9,223.2,155.7,222.3,156.5,221.7z"/>
		</g>
		<g>
			<rect x="153.7" y="207.1" class="st0" width="4.7" height="16.2"/>
			<path class="st1" d="M156.5,220.9c-0.1-0.4-0.4,0.2-0.7,0c0.3-0.3,0.4-0.8,0.1-1.3c0.4-0.2,0.6-0.5,1.1-0.3
				c-0.7-1.7-0.8-3.6-1.3-4.9c-0.5,0.2-0.8,0-1.1-0.4c2-1.2-0.4-3,0.8-4.3c-0.2-0.9-1.5-0.7-1.8-1.5c0.7-2.6,5.1-0.3,3.3,1.8
				c0.8,3,2.1,7.2,0.7,9.9c1,0.9,0.1,1.7,0.1,3.1c-0.4,0.3-0.6,0.3-1.1,0.1C156.9,222.3,155.7,221.5,156.5,220.9z"/>
		</g>
		<g>
			<rect x="153.7" y="206.2" class="st0" width="4.7" height="16.2"/>
			<path class="st1" d="M156.5,220.1c-0.1-0.4-0.4,0.2-0.7,0c0.3-0.3,0.4-0.8,0.1-1.3c0.4-0.2,0.6-0.5,1.1-0.3
				c-0.7-1.7-0.8-3.6-1.3-4.9c-0.5,0.2-0.8,0-1.1-0.4c2-1.2-0.4-3,0.8-4.3c-0.2-0.9-1.5-0.7-1.8-1.5c0.7-2.6,5.1-0.3,3.3,1.8
				c0.8,3,2.1,7.2,0.7,9.9c1,0.9,0.1,1.7,0.1,3.1c-0.4,0.3-0.6,0.3-1.1,0.1C156.9,221.5,155.7,220.7,156.5,220.1z"/>
		</g>
		<g>
			<rect x="153.7" y="205.4" class="st0" width="4.7" height="16.2"/>
			<path class="st1" d="M156.5,219.3c-0.1-0.4-0.4,0.2-0.7,0c0.3-0.3,0.4-0.8,0.1-1.3c0.4-0.2,0.6-0.5,1.1-0.3
				c-0.7-1.7-0.8-3.6-1.3-4.9c-0.5,0.2-0.8,0-1.1-0.4c2-1.2-0.4-3,0.8-4.3c-0.2-0.9-1.5-0.7-1.8-1.5c0.7-2.6,5.1-0.3,3.3,1.8
				c0.8,3,2.1,7.2,0.7,9.9c1,0.9,0.1,1.7,0.1,3.1c-0.4,0.3-0.6,0.3-1.1,0.1C156.9,220.7,155.7,219.9,156.5,219.3z"/>
		</g>
		<g>
			<rect x="153.7" y="204.6" class="st0" width="4.7" height="16.2"/>
			<path class="st1" d="M156.5,218.5c-0.1-0.4-0.4,0.2-0.7,0c0.3-0.3,0.4-0.8,0.1-1.3c0.4-0.2,0.6-0.5,1.1-0.3
				c-0.7-1.7-0.8-3.6-1.3-4.9c-0.5,0.2-0.8,0-1.1-0.4c2-1.2-0.4-3,0.8-4.3c-0.2-0.9-1.5-0.7-1.8-1.5c0.7-2.6,5.1-0.3,3.3,1.8
				c0.8,3,2.1,7.2,0.7,9.9c1,0.9,0.1,1.7,0.1,3.1c-0.4,0.3-0.6,0.3-1.1,0.1C156.9,219.9,155.7,219.1,156.5,218.5z"/>
		</g>
		<g>
			<rect x="153.7" y="203.8" class="st0" width="4.7" height="16.2"/>
			<path class="st1" d="M156.5,217.7c-0.1-0.4-0.4,0.2-0.7,0c0.3-0.3,0.4-0.8,0.1-1.3c0.4-0.2,0.6-0.5,1.1-0.3
				c-0.7-1.7-0.8-3.6-1.3-4.9c-0.5,0.2-0.8,0-1.1-0.4c2-1.2-0.4-3,0.8-4.3c-0.2-0.9-1.5-0.7-1.8-1.5c0.7-2.6,5.1-0.3,3.3,1.8
				c0.8,3,2.1,7.2,0.7,9.9c1,0.9,0.1,1.7,0.1,3.1c-0.4,0.3-0.6,0.3-1.1,0.1C156.9,219.1,155.7,218.3,156.5,217.7z"/>
		</g>
		<g>
			<rect x="153.7" y="203" class="st0" width="4.7" height="16.2"/>
			<path class="st1" d="M156.5,216.9c-0.1-0.4-0.4,0.2-0.7,0c0.3-0.3,0.4-0.8,0.1-1.3c0.4-0.2,0.6-0.5,1.1-0.3
				c-0.7-1.7-0.8-3.6-1.3-4.9c-0.5,0.2-0.8,0-1.1-0.4c2-1.2-0.4-3,0.8-4.3c-0.2-0.9-1.5-0.7-1.8-1.5c0.7-2.6,5.1-0.3,3.3,1.8
				c0.8,3,2.1,7.2,0.7,9.9c1,0.9,0.1,1.7,0.1,3.1c-0.4,0.3-0.6,0.3-1.1,0.1C156.9,218.3,155.7,217.4,156.5,216.9z"/>
		</g>
		<g>
			<rect x="153.7" y="202.2" class="st0" width="4.7" height="16.2"/>
			<path class="st1" d="M156.5,216.1c-0.1-0.4-0.4,0.2-0.7,0c0.3-0.3,0.4-0.8,0.1-1.3c0.4-0.2,0.6-0.5,1.1-0.3
				c-0.7-1.7-0.8-3.6-1.3-4.9c-0.5,0.2-0.8,0-1.1-0.4c2-1.2-0.4-3,0.8-4.3c-0.2-0.9-1.5-0.7-1.8-1.5c0.7-2.6,5.1-0.3,3.3,1.8
				c0.8,3,2.1,7.2,0.7,9.9c1,0.9,0.1,1.7,0.1,3.1c-0.4,0.3-0.6,0.3-1.1,0.1C156.9,217.5,155.7,216.6,156.5,216.1z"/>
		</g>
		<g>
			<rect x="153.7" y="201.4" class="st0" width="4.7" height="16.2"/>
			<path class="st1" d="M156.5,215.3c-0.1-0.4-0.4,0.2-0.7,0c0.3-0.3,0.4-0.8,0.1-1.3c0.4-0.2,0.6-0.5,1.1-0.3
				c-0.7-1.7-0.8-3.6-1.3-4.9c-0.5,0.2-0.8,0-1.1-0.4c2-1.2-0.4-3,0.8-4.3c-0.2-0.9-1.5-0.7-1.8-1.5c0.7-2.6,5.1-0.3,3.3,1.8
				c0.8,3,2.1,7.2,0.7,9.9c1,0.9,0.1,1.7,0.1,3.1c-0.4,0.3-0.6,0.3-1.1,0.1C156.9,216.7,155.7,215.8,156.5,215.3z"/>
		</g>
		<g>
			<rect x="153.7" y="200.6" class="st0" width="4.7" height="16.2"/>
			<path class="st1" d="M156.5,214.5c-0.1-0.4-0.4,0.2-0.7,0c0.3-0.3,0.4-0.8,0.1-1.3c0.4-0.2,0.6-0.5,1.1-0.3
				c-0.7-1.7-0.8-3.6-1.3-4.9c-0.5,0.2-0.8,0-1.1-0.4c2-1.2-0.4-3,0.8-4.3c-0.2-0.9-1.5-0.7-1.8-1.5c0.7-2.6,5.1-0.3,3.3,1.8
				c0.8,3,2.1,7.2,0.7,9.9c1,0.9,0.1,1.7,0.1,3.1c-0.4,0.3-0.6,0.3-1.1,0.1C156.9,215.9,155.7,215,156.5,214.5z"/>
		</g>
		<g>
			<rect x="153.7" y="199.8" class="st0" width="4.7" height="16.2"/>
			<path class="st1" d="M156.5,213.6c-0.1-0.4-0.4,0.2-0.7,0c0.3-0.3,0.4-0.8,0.1-1.3c0.4-0.2,0.6-0.5,1.1-0.3
				c-0.7-1.7-0.8-3.6-1.3-4.9c-0.5,0.2-0.8,0-1.1-0.4c2-1.2-0.4-3,0.8-4.3c-0.2-0.9-1.5-0.7-1.8-1.5c0.7-2.6,5.1-0.3,3.3,1.8
				c0.8,3,2.1,7.2,0.7,9.9c1,0.9,0.1,1.7,0.1,3.1c-0.4,0.3-0.6,0.3-1.1,0.1C156.9,215.1,155.7,214.2,156.5,213.6z"/>
		</g>
		<g>
			<rect x="153.7" y="199" class="st0" width="4.7" height="16.2"/>
			<path class="st1" d="M156.5,212.8c-0.1-0.4-0.4,0.2-0.7,0c0.3-0.3,0.4-0.8,0.1-1.3c0.4-0.2,0.6-0.5,1.1-0.3
				c-0.7-1.7-0.8-3.6-1.3-4.9c-0.5,0.2-0.8,0-1.1-0.4c2-1.2-0.4-3,0.8-4.3c-0.2-0.9-1.5-0.7-1.8-1.5c0.7-2.6,5.1-0.3,3.3,1.8
				c0.8,3,2.1,7.2,0.7,9.9c1,0.9,0.1,1.7,0.1,3.1c-0.4,0.3-0.6,0.3-1.1,0.1C156.9,214.2,155.7,213.4,156.5,212.8z"/>
		</g>
		<g>
			<rect x="153.7" y="198.1" class="st0" width="4.7" height="16.2"/>
			<path class="st1" d="M156.5,212c-0.1-0.4-0.4,0.2-0.7,0c0.3-0.3,0.4-0.8,0.1-1.3c0.4-0.2,0.6-0.5,1.1-0.3
				c-0.7-1.7-0.8-3.6-1.3-4.9c-0.5,0.2-0.8,0-1.1-0.4c2-1.2-0.4-3,0.8-4.3c-0.2-0.9-1.5-0.7-1.8-1.5c0.7-2.6,5.1-0.3,3.3,1.8
				c0.8,3,2.1,7.2,0.7,9.9c1,0.9,0.1,1.7,0.1,3.1c-0.4,0.3-0.6,0.3-1.1,0.1C156.9,213.4,155.7,212.6,156.5,212z"/>
		</g>
		<g>
			<rect x="153.7" y="197.3" class="st0" width="4.7" height="16.2"/>
			<path class="st1" d="M156.5,211.2c-0.1-0.4-0.4,0.2-0.7,0c0.3-0.3,0.4-0.8,0.1-1.3c0.4-0.2,0.6-0.5,1.1-0.3
				c-0.7-1.7-0.8-3.6-1.3-4.9c-0.5,0.2-0.8,0-1.1-0.4c2-1.2-0.4-3,0.8-4.3c-0.2-0.9-1.5-0.7-1.8-1.5c0.7-2.6,5.1-0.3,3.3,1.8
				c0.8,3,2.1,7.2,0.7,9.9c1,0.9,0.1,1.7,0.1,3.1c-0.4,0.3-0.6,0.3-1.1,0.1C156.9,212.6,155.7,211.8,156.5,211.2z"/>
		</g>
		<g>
			<rect x="153.7" y="196.5" class="st0" width="4.7" height="16.2"/>
			<path class="st1" d="M156.5,210.4c-0.1-0.4-0.4,0.2-0.7,0c0.3-0.3,0.4-0.8,0.1-1.3c0.4-0.2,0.6-0.5,1.1-0.3
				c-0.7-1.7-0.8-3.6-1.3-4.9c-0.5,0.2-0.8,0-1.1-0.4c2-1.2-0.4-3,0.8-4.3c-0.2-0.9-1.5-0.7-1.8-1.5c0.7-2.6,5.1-0.3,3.3,1.8
				c0.8,3,2.1,7.2,0.7,9.9c1,0.9,0.1,1.7,0.1,3.1c-0.4,0.3-0.6,0.3-1.1,0.1C156.9,211.8,155.7,211,156.5,210.4z"/>
		</g>
		<g>
			<rect x="153.7" y="195.7" class="st0" width="4.7" height="16.2"/>
			<path class="st1" d="M156.5,209.6c-0.1-0.4-0.4,0.2-0.7,0c0.3-0.3,0.4-0.8,0.1-1.3c0.4-0.2,0.6-0.5,1.1-0.3
				c-0.7-1.7-0.8-3.6-1.3-4.9c-0.5,0.2-0.8,0-1.1-0.4c2-1.2-0.4-3,0.8-4.3c-0.2-0.9-1.5-0.7-1.8-1.5c0.7-2.6,5.1-0.3,3.3,1.8
				c0.8,3,2.1,7.2,0.7,9.9c1,0.9,0.1,1.7,0.1,3.1c-0.4,0.3-0.6,0.3-1.1,0.1C156.9,211,155.7,210.2,156.5,209.6z"/>
		</g>
		<g>
			<rect x="153.7" y="194.9" class="st0" width="4.7" height="16.2"/>
			<path class="st1" d="M156.5,208.8c-0.1-0.4-0.4,0.2-0.7,0c0.3-0.3,0.4-0.8,0.1-1.3c0.4-0.2,0.6-0.5,1.1-0.3
				c-0.7-1.7-0.8-3.6-1.3-4.9c-0.5,0.2-0.8,0-1.1-0.4c2-1.2-0.4-3,0.8-4.3c-0.2-0.9-1.5-0.7-1.8-1.5c0.7-2.6,5.1-0.3,3.3,1.8
				c0.8,3,2.1,7.2,0.7,9.9c1,0.9,0.1,1.7,0.1,3.1c-0.4,0.3-0.6,0.3-1.1,0.1C156.9,210.2,155.7,209.3,156.5,208.8z"/>
		</g>
		<g>
			<rect x="153.7" y="194.1" class="st0" width="4.7" height="16.2"/>
			<path class="st1" d="M156.5,208c-0.1-0.4-0.4,0.2-0.7,0c0.3-0.3,0.4-0.8,0.1-1.3c0.4-0.2,0.6-0.5,1.1-0.3
				c-0.7-1.7-0.8-3.6-1.3-4.9c-0.5,0.2-0.8,0-1.1-0.4c2-1.2-0.4-3,0.8-4.3c-0.2-0.9-1.5-0.7-1.8-1.5c0.7-2.6,5.1-0.3,3.3,1.8
				c0.8,3,2.1,7.2,0.7,9.9c1,0.9,0.1,1.7,0.1,3.1c-0.4,0.3-0.6,0.3-1.1,0.1C156.9,209.4,155.7,208.5,156.5,208z"/>
		</g>
		<g>
			<rect x="153.7" y="193.3" class="st0" width="4.7" height="16.2"/>
			<path class="st1" d="M156.5,207.2c-0.1-0.4-0.4,0.2-0.7,0c0.3-0.3,0.4-0.8,0.1-1.3c0.4-0.2,0.6-0.5,1.1-0.3
				c-0.7-1.7-0.8-3.6-1.3-4.9c-0.5,0.2-0.8,0-1.1-0.4c2-1.2-0.4-3,0.8-4.3c-0.2-0.9-1.5-0.7-1.8-1.5c0.7-2.6,5.1-0.3,3.3,1.8
				c0.8,3,2.1,7.2,0.7,9.9c1,0.9,0.1,1.7,0.1,3.1c-0.4,0.3-0.6,0.3-1.1,0.1C156.9,208.6,155.7,207.7,156.5,207.2z"/>
		</g>
		<g>
			<rect x="153.7" y="192.5" class="st0" width="4.7" height="16.2"/>
			<path class="st1" d="M156.5,206.4c-0.1-0.4-0.4,0.2-0.7,0c0.3-0.3,0.4-0.8,0.1-1.3c0.4-0.2,0.6-0.5,1.1-0.3
				c-0.7-1.7-0.8-3.6-1.3-4.9c-0.5,0.2-0.8,0-1.1-0.4c2-1.2-0.4-3,0.8-4.3c-0.2-0.9-1.5-0.7-1.8-1.5c0.7-2.6,5.1-0.3,3.3,1.8
				c0.8,3,2.1,7.2,0.7,9.9c1,0.9,0.1,1.7,0.1,3.1c-0.4,0.3-0.6,0.3-1.1,0.1C156.9,207.8,155.7,206.9,156.5,206.4z"/>
		</g>
		<g>
			<rect x="153.7" y="191.7" class="st0" width="4.7" height="16.2"/>
			<path class="st1" d="M156.5,205.5c-0.1-0.4-0.4,0.2-0.7,0c0.3-0.3,0.4-0.8,0.1-1.3c0.4-0.2,0.6-0.5,1.1-0.3
				c-0.7-1.7-0.8-3.6-1.3-4.9c-0.5,0.2-0.8,0-1.1-0.4c2-1.2-0.4-3,0.8-4.3c-0.2-0.9-1.5-0.7-1.8-1.5c0.7-2.6,5.1-0.3,3.3,1.8
				c0.8,3,2.1,7.2,0.7,9.9c1,0.9,0.1,1.7,0.1,3.1c-0.4,0.3-0.6,0.3-1.1,0.1C156.9,207,155.7,206.1,156.5,205.5z"/>
		</g>
		<g>
			<rect x="153.7" y="190.9" class="st0" width="4.7" height="16.2"/>
			<path class="st1" d="M156.5,204.7c-0.1-0.4-0.4,0.2-0.7,0c0.3-0.3,0.4-0.8,0.1-1.3c0.4-0.2,0.6-0.5,1.1-0.3
				c-0.7-1.7-0.8-3.6-1.3-4.9c-0.5,0.2-0.8,0-1.1-0.4c2-1.2-0.4-3,0.8-4.3c-0.2-0.9-1.5-0.7-1.8-1.5c0.7-2.6,5.1-0.3,3.3,1.8
				c0.8,3,2.1,7.2,0.7,9.9c1,0.9,0.1,1.7,0.1,3.1c-0.4,0.3-0.6,0.3-1.1,0.1C156.9,206.2,155.7,205.3,156.5,204.7z"/>
		</g>
		<g>
			<rect x="153.7" y="190.1" class="st0" width="4.7" height="16.2"/>
			<path class="st1" d="M156.5,203.9c-0.1-0.4-0.4,0.2-0.7,0c0.3-0.3,0.4-0.8,0.1-1.3c0.4-0.2,0.6-0.5,1.1-0.3
				c-0.7-1.7-0.8-3.6-1.3-4.9c-0.5,0.2-0.8,0-1.1-0.4c2-1.2-0.4-3,0.8-4.3c-0.2-0.9-1.5-0.7-1.8-1.5c0.7-2.6,5.1-0.3,3.3,1.8
				c0.8,3,2.1,7.2,0.7,9.9c1,0.9,0.1,1.7,0.1,3.1c-0.4,0.3-0.6,0.3-1.1,0.1C156.9,205.3,155.7,204.5,156.5,203.9z"/>
		</g>
		<g>
			<rect x="153.7" y="189.2" class="st0" width="4.7" height="16.2"/>
			<path class="st1" d="M156.5,203.1c-0.1-0.4-0.4,0.2-0.7,0c0.3-0.3,0.4-0.8,0.1-1.3c0.4-0.2,0.6-0.5,1.1-0.3
				c-0.7-1.7-0.8-3.6-1.3-4.9c-0.5,0.2-0.8,0-1.1-0.4c2-1.2-0.4-3,0.8-4.3c-0.2-0.9-1.5-0.7-1.8-1.5c0.7-2.6,5.1-0.3,3.3,1.8
				c0.8,3,2.1,7.2,0.7,9.9c1,0.9,0.1,1.7,0.1,3.1c-0.4,0.3-0.6,0.3-1.1,0.1C156.9,204.5,155.7,203.7,156.5,203.1z"/>
		</g>
		<g>
			<rect x="153.7" y="188.4" class="st0" width="4.7" height="16.2"/>
			<path class="st1" d="M156.5,202.3c-0.1-0.4-0.4,0.2-0.7,0c0.3-0.3,0.4-0.8,0.1-1.3c0.4-0.2,0.6-0.5,1.1-0.3
				c-0.7-1.7-0.8-3.6-1.3-4.9c-0.5,0.2-0.8,0-1.1-0.4c2-1.2-0.4-3,0.8-4.3c-0.2-0.9-1.5-0.7-1.8-1.5c0.7-2.6,5.1-0.3,3.3,1.8
				c0.8,3,2.1,7.2,0.7,9.9c1,0.9,0.1,1.7,0.1,3.1c-0.4,0.3-0.6,0.3-1.1,0.1C156.9,203.7,155.7,202.9,156.5,202.3z"/>
		</g>
		<g>
			<rect x="153.7" y="187.6" class="st0" width="4.7" height="16.2"/>
			<path class="st1" d="M156.5,201.5c-0.1-0.4-0.4,0.2-0.7,0c0.3-0.3,0.4-0.8,0.1-1.3c0.4-0.2,0.6-0.5,1.1-0.3
				c-0.7-1.7-0.8-3.6-1.3-4.9c-0.5,0.2-0.8,0-1.1-0.4c2-1.2-0.4-3,0.8-4.3c-0.2-0.9-1.5-0.7-1.8-1.5c0.7-2.6,5.1-0.3,3.3,1.8
				c0.8,3,2.1,7.2,0.7,9.9c1,0.9,0.1,1.7,0.1,3.1c-0.4,0.3-0.6,0.3-1.1,0.1C156.9,202.9,155.7,202.1,156.5,201.5z"/>
		</g>
		<g>
			<rect x="153.7" y="186.8" class="st0" width="4.7" height="16.2"/>
			<path class="st1" d="M156.5,200.7c-0.1-0.4-0.4,0.2-0.7,0c0.3-0.3,0.4-0.8,0.1-1.3c0.4-0.2,0.6-0.5,1.1-0.3
				c-0.7-1.7-0.8-3.6-1.3-4.9c-0.5,0.2-0.8,0-1.1-0.4c2-1.2-0.4-3,0.8-4.3c-0.2-0.9-1.5-0.7-1.8-1.5c0.7-2.6,5.1-0.3,3.3,1.8
				c0.8,3,2.1,7.2,0.7,9.9c1,0.9,0.1,1.7,0.1,3.1c-0.4,0.3-0.6,0.3-1.1,0.1C156.9,202.1,155.7,201.3,156.5,200.7z"/>
		</g>
		<g>
			<rect x="153.7" y="186" class="st0" width="4.7" height="16.2"/>
			<path class="st1" d="M156.5,199.9c-0.1-0.4-0.4,0.2-0.7,0c0.3-0.3,0.4-0.8,0.1-1.3c0.4-0.2,0.6-0.5,1.1-0.3
				c-0.7-1.7-0.8-3.6-1.3-4.9c-0.5,0.2-0.8,0-1.1-0.4c2-1.2-0.4-3,0.8-4.3c-0.2-0.9-1.5-0.7-1.8-1.5c0.7-2.6,5.1-0.3,3.3,1.8
				c0.8,3,2.1,7.2,0.7,9.9c1,0.9,0.1,1.7,0.1,3.1c-0.4,0.3-0.6,0.3-1.1,0.1C156.9,201.3,155.7,200.4,156.5,199.9z"/>
		</g>
		<g>
			<rect x="153.7" y="185.2" class="st0" width="4.7" height="16.2"/>
			<path class="st1" d="M156.5,199.1c-0.1-0.4-0.4,0.2-0.7,0c0.3-0.3,0.4-0.8,0.1-1.3c0.4-0.2,0.6-0.5,1.1-0.3
				c-0.7-1.7-0.8-3.6-1.3-4.9c-0.5,0.2-0.8,0-1.1-0.4c2-1.2-0.4-3,0.8-4.3c-0.2-0.9-1.5-0.7-1.8-1.5c0.7-2.6,5.1-0.3,3.3,1.8
				c0.8,3,2.1,7.2,0.7,9.9c1,0.9,0.1,1.7,0.1,3.1c-0.4,0.3-0.6,0.3-1.1,0.1C156.9,200.5,155.7,199.6,156.5,199.1z"/>
		</g>
		<g>
			<rect x="153.7" y="184.4" class="st0" width="4.7" height="16.2"/>
			<path class="st1" d="M156.5,198.3c-0.1-0.4-0.4,0.2-0.7,0c0.3-0.3,0.4-0.8,0.1-1.3c0.4-0.2,0.6-0.5,1.1-0.3
				c-0.7-1.7-0.8-3.6-1.3-4.9c-0.5,0.2-0.8,0-1.1-0.4c2-1.2-0.4-3,0.8-4.3c-0.2-0.9-1.5-0.7-1.8-1.5c0.7-2.6,5.1-0.3,3.3,1.8
				c0.8,3,2.1,7.2,0.7,9.9c1,0.9,0.1,1.7,0.1,3.1c-0.4,0.3-0.6,0.3-1.1,0.1C156.9,199.7,155.7,198.8,156.5,198.3z"/>
		</g>
		<g>
			<rect x="153.7" y="183.6" class="st0" width="4.7" height="16.2"/>
			<path class="st1" d="M156.5,197.5c-0.1-0.4-0.4,0.2-0.7,0c0.3-0.3,0.4-0.8,0.1-1.3c0.4-0.2,0.6-0.5,1.1-0.3
				c-0.7-1.7-0.8-3.6-1.3-4.9c-0.5,0.2-0.8,0-1.1-0.4c2-1.2-0.4-3,0.8-4.3c-0.2-0.9-1.5-0.7-1.8-1.5c0.7-2.6,5.1-0.3,3.3,1.8
				c0.8,3,2.1,7.2,0.7,9.9c1,0.9,0.1,1.7,0.1,3.1c-0.4,0.3-0.6,0.3-1.1,0.1C156.9,198.9,155.7,198,156.5,197.5z"/>
		</g>
		<g>
			<rect x="153.7" y="182.8" class="st0" width="4.7" height="16.2"/>
			<path class="st1" d="M156.5,196.6c-0.1-0.4-0.4,0.2-0.7,0c0.3-0.3,0.4-0.8,0.1-1.3c0.4-0.2,0.6-0.5,1.1-0.3
				c-0.7-1.7-0.8-3.6-1.3-4.9c-0.5,0.2-0.8,0-1.1-0.4c2-1.2-0.4-3,0.8-4.3c-0.2-0.9-1.5-0.7-1.8-1.5c0.7-2.6,5.1-0.3,3.3,1.8
				c0.8,3,2.1,7.2,0.7,9.9c1,0.9,0.1,1.7,0.1,3.1c-0.4,0.3-0.6,0.3-1.1,0.1C156.9,198.1,155.7,197.2,156.5,196.6z"/>
		</g>
		<g>
			<rect x="153.7" y="182" class="st0" width="4.7" height="16.2"/>
			<path class="st1" d="M156.5,195.8c-0.1-0.4-0.4,0.2-0.7,0c0.3-0.3,0.4-0.8,0.1-1.3c0.4-0.2,0.6-0.5,1.1-0.3
				c-0.7-1.7-0.8-3.6-1.3-4.9c-0.5,0.2-0.8,0-1.1-0.4c2-1.2-0.4-3,0.8-4.3c-0.2-0.9-1.5-0.7-1.8-1.5c0.7-2.6,5.1-0.3,3.3,1.8
				c0.8,3,2.1,7.2,0.7,9.9c1,0.9,0.1,1.7,0.1,3.1c-0.4,0.3-0.6,0.3-1.1,0.1C156.9,197.2,155.7,196.4,156.5,195.8z"/>
		</g>
		<g>
			<rect x="153.7" y="181.1" class="st0" width="4.7" height="16.2"/>
			<path class="st1" d="M156.5,195c-0.1-0.4-0.4,0.2-0.7,0c0.3-0.3,0.4-0.8,0.1-1.3c0.4-0.2,0.6-0.5,1.1-0.3
				c-0.7-1.7-0.8-3.6-1.3-4.9c-0.5,0.2-0.8,0-1.1-0.4c2-1.2-0.4-3,0.8-4.3c-0.2-0.9-1.5-0.7-1.8-1.5c0.7-2.6,5.1-0.3,3.3,1.8
				c0.8,3,2.1,7.2,0.7,9.9c1,0.9,0.1,1.7,0.1,3.1c-0.4,0.3-0.6,0.3-1.1,0.1C156.9,196.4,155.7,195.6,156.5,195z"/>
		</g>
		<g>
			<rect x="153.7" y="180.3" class="st0" width="4.7" height="16.2"/>
			<path class="st1" d="M156.5,194.2c-0.1-0.4-0.4,0.2-0.7,0c0.3-0.3,0.4-0.8,0.1-1.3c0.4-0.2,0.6-0.5,1.1-0.3
				c-0.7-1.7-0.8-3.6-1.3-4.9c-0.5,0.2-0.8,0-1.1-0.4c2-1.2-0.4-3,0.8-4.3c-0.2-0.9-1.5-0.7-1.8-1.5c0.7-2.6,5.1-0.3,3.3,1.8
				c0.8,3,2.1,7.2,0.7,9.9c1,0.9,0.1,1.7,0.1,3.1c-0.4,0.3-0.6,0.3-1.1,0.1C156.9,195.6,155.7,194.8,156.5,194.2z"/>
		</g>
		<g>
			<rect x="153.7" y="179.5" class="st0" width="4.7" height="16.2"/>
			<path class="st1" d="M156.5,193.4c-0.1-0.4-0.4,0.2-0.7,0c0.3-0.3,0.4-0.8,0.1-1.3c0.4-0.2,0.6-0.5,1.1-0.3
				c-0.7-1.7-0.8-3.6-1.3-4.9c-0.5,0.2-0.8,0-1.1-0.4c2-1.2-0.4-3,0.8-4.3c-0.2-0.9-1.5-0.7-1.8-1.5c0.7-2.6,5.1-0.3,3.3,1.8
				c0.8,3,2.1,7.2,0.7,9.9c1,0.9,0.1,1.7,0.1,3.1c-0.4,0.3-0.6,0.3-1.1,0.1C156.9,194.8,155.7,194,156.5,193.4z"/>
		</g>
		<g>
			<rect x="153.7" y="178.7" class="st0" width="4.7" height="16.2"/>
			<path class="st1" d="M156.5,192.6c-0.1-0.4-0.4,0.2-0.7,0c0.3-0.3,0.4-0.8,0.1-1.3c0.4-0.2,0.6-0.5,1.1-0.3
				c-0.7-1.7-0.8-3.6-1.3-4.9c-0.5,0.2-0.8,0-1.1-0.4c2-1.2-0.4-3,0.8-4.3c-0.2-0.9-1.5-0.7-1.8-1.5c0.7-2.6,5.1-0.3,3.3,1.8
				c0.8,3,2.1,7.2,0.7,9.9c1,0.9,0.1,1.7,0.1,3.1c-0.4,0.3-0.6,0.3-1.1,0.1C156.9,194,155.7,193.2,156.5,192.6z"/>
		</g>
		<g>
			<rect x="153.7" y="177.9" class="st0" width="4.7" height="16.2"/>
			<path class="st1" d="M156.5,191.8c-0.1-0.4-0.4,0.2-0.7,0c0.3-0.3,0.4-0.8,0.1-1.3c0.4-0.2,0.6-0.5,1.1-0.3
				c-0.7-1.7-0.8-3.6-1.3-4.9c-0.5,0.2-0.8,0-1.1-0.4c2-1.2-0.4-3,0.8-4.3c-0.2-0.9-1.5-0.7-1.8-1.5c0.7-2.6,5.1-0.3,3.3,1.8
				c0.8,3,2.1,7.2,0.7,9.9c1,0.9,0.1,1.7,0.1,3.1c-0.4,0.3-0.6,0.3-1.1,0.1C156.9,193.2,155.7,192.3,156.5,191.8z"/>
		</g>
		<g>
			<rect x="153.7" y="177.1" class="st0" width="4.7" height="16.2"/>
			<path class="st1" d="M156.5,191c-0.1-0.4-0.4,0.2-0.7,0c0.3-0.3,0.4-0.8,0.1-1.3c0.4-0.2,0.6-0.5,1.1-0.3
				c-0.7-1.7-0.8-3.6-1.3-4.9c-0.5,0.2-0.8,0-1.1-0.4c2-1.2-0.4-3,0.8-4.3c-0.2-0.9-1.5-0.7-1.8-1.5c0.7-2.6,5.1-0.3,3.3,1.8
				c0.8,3,2.1,7.2,0.7,9.9c1,0.9,0.1,1.7,0.1,3.1c-0.4,0.3-0.6,0.3-1.1,0.1C156.9,192.4,155.7,191.5,156.5,191z"/>
		</g>
		<g>
			<rect x="153.7" y="176.3" class="st0" width="4.7" height="16.2"/>
			<path class="st1" d="M156.5,190.2c-0.1-0.4-0.4,0.2-0.7,0c0.3-0.3,0.4-0.8,0.1-1.3c0.4-0.2,0.6-0.5,1.1-0.3
				c-0.7-1.7-0.8-3.6-1.3-4.9c-0.5,0.2-0.8,0-1.1-0.4c2-1.2-0.4-3,0.8-4.3c-0.2-0.9-1.5-0.7-1.8-1.5c0.7-2.6,5.1-0.3,3.3,1.8
				c0.8,3,2.1,7.2,0.7,9.9c1,0.9,0.1,1.7,0.1,3.1c-0.4,0.3-0.6,0.3-1.1,0.1C156.9,191.6,155.7,190.7,156.5,190.2z"/>
		</g>
		<g>
			<rect x="153.7" y="175.5" class="st0" width="4.7" height="16.2"/>
			<path class="st1" d="M156.5,189.4c-0.1-0.4-0.4,0.2-0.7,0c0.3-0.3,0.4-0.8,0.1-1.3c0.4-0.2,0.6-0.5,1.1-0.3
				c-0.7-1.7-0.8-3.6-1.3-4.9c-0.5,0.2-0.8,0-1.1-0.4c2-1.2-0.4-3,0.8-4.3c-0.2-0.9-1.5-0.7-1.8-1.5c0.7-2.6,5.1-0.3,3.3,1.8
				c0.8,3,2.1,7.2,0.7,9.9c1,0.9,0.1,1.7,0.1,3.1c-0.4,0.3-0.6,0.3-1.1,0.1C156.9,190.8,155.7,189.9,156.5,189.4z"/>
		</g>
		<g>
			<rect x="153.7" y="174.7" class="st0" width="4.7" height="16.2"/>
			<path class="st1" d="M156.5,188.5c-0.1-0.4-0.4,0.2-0.7,0c0.3-0.3,0.4-0.8,0.1-1.3c0.4-0.2,0.6-0.5,1.1-0.3
				c-0.7-1.7-0.8-3.6-1.3-4.9c-0.5,0.2-0.8,0-1.1-0.4c2-1.2-0.4-3,0.8-4.3c-0.2-0.9-1.5-0.7-1.8-1.5c0.7-2.6,5.1-0.3,3.3,1.8
				c0.8,3,2.1,7.2,0.7,9.9c1,0.9,0.1,1.7,0.1,3.1c-0.4,0.3-0.6,0.3-1.1,0.1C156.9,190,155.7,189.1,156.5,188.5z"/>
		</g>
		<g>
			<rect x="153.7" y="173.9" class="st0" width="4.7" height="16.2"/>
			<path class="st1" d="M156.5,187.7c-0.1-0.4-0.4,0.2-0.7,0c0.3-0.3,0.4-0.8,0.1-1.3c0.4-0.2,0.6-0.5,1.1-0.3
				c-0.7-1.7-0.8-3.6-1.3-4.9c-0.5,0.2-0.8,0-1.1-0.4c2-1.2-0.4-3,0.8-4.3c-0.2-0.9-1.5-0.7-1.8-1.5c0.7-2.6,5.1-0.3,3.3,1.8
				c0.8,3,2.1,7.2,0.7,9.9c1,0.9,0.1,1.7,0.1,3.1c-0.4,0.3-0.6,0.3-1.1,0.1C156.9,189.2,155.7,188.3,156.5,187.7z"/>
		</g>
		<g>
			<rect x="153.7" y="173.1" class="st0" width="4.7" height="16.2"/>
			<path class="st1" d="M156.5,186.9c-0.1-0.4-0.4,0.2-0.7,0c0.3-0.3,0.4-0.8,0.1-1.3c0.4-0.2,0.6-0.5,1.1-0.3
				c-0.7-1.7-0.8-3.6-1.3-4.9c-0.5,0.2-0.8,0-1.1-0.4c2-1.2-0.4-3,0.8-4.3c-0.2-0.9-1.5-0.7-1.8-1.5c0.7-2.6,5.1-0.3,3.3,1.8
				c0.8,3,2.1,7.2,0.7,9.9c1,0.9,0.1,1.7,0.1,3.1c-0.4,0.3-0.6,0.3-1.1,0.1C156.9,188.3,155.7,187.5,156.5,186.9z"/>
		</g>
		<g>
			<rect x="153.7" y="172.2" class="st0" width="4.7" height="16.2"/>
			<path class="st1" d="M156.5,186.1c-0.1-0.4-0.4,0.2-0.7,0c0.3-0.3,0.4-0.8,0.1-1.3c0.4-0.2,0.6-0.5,1.1-0.3
				c-0.7-1.7-0.8-3.6-1.3-4.9c-0.5,0.2-0.8,0-1.1-0.4c2-1.2-0.4-3,0.8-4.3c-0.2-0.9-1.5-0.7-1.8-1.5c0.7-2.6,5.1-0.3,3.3,1.8
				c0.8,3,2.1,7.2,0.7,9.9c1,0.9,0.1,1.7,0.1,3.1c-0.4,0.3-0.6,0.3-1.1,0.1C156.9,187.5,155.7,186.7,156.5,186.1z"/>
		</g>
		<g>
			<rect x="153.7" y="171.4" class="st0" width="4.7" height="16.2"/>
			<path class="st1" d="M156.5,185.3c-0.1-0.4-0.4,0.2-0.7,0c0.3-0.3,0.4-0.8,0.1-1.3c0.4-0.2,0.6-0.5,1.1-0.3
				c-0.7-1.7-0.8-3.6-1.3-4.9c-0.5,0.2-0.8,0-1.1-0.4c2-1.2-0.4-3,0.8-4.3c-0.2-0.9-1.5-0.7-1.8-1.5c0.7-2.6,5.1-0.3,3.3,1.8
				c0.8,3,2.1,7.2,0.7,9.9c1,0.9,0.1,1.7,0.1,3.1c-0.4,0.3-0.6,0.3-1.1,0.1C156.9,186.7,155.7,185.9,156.5,185.3z"/>
		</g>
		<g>
			<rect x="153.7" y="170.6" class="st0" width="4.7" height="16.2"/>
			<path class="st1" d="M156.5,184.5c-0.1-0.4-0.4,0.2-0.7,0c0.3-0.3,0.4-0.8,0.1-1.3c0.4-0.2,0.6-0.5,1.1-0.3
				c-0.7-1.7-0.8-3.6-1.3-4.9c-0.5,0.2-0.8,0-1.1-0.4c2-1.2-0.4-3,0.8-4.3c-0.2-0.9-1.5-0.7-1.8-1.5c0.7-2.6,5.1-0.3,3.3,1.8
				c0.8,3,2.1,7.2,0.7,9.9c1,0.9,0.1,1.7,0.1,3.1c-0.4,0.3-0.6,0.3-1.1,0.1C156.9,185.9,155.7,185.1,156.5,184.5z"/>
		</g>
		<g>
			<rect x="153.7" y="169.8" class="st0" width="4.7" height="16.2"/>
			<path class="st1" d="M156.5,183.7c-0.1-0.4-0.4,0.2-0.7,0c0.3-0.3,0.4-0.8,0.1-1.3c0.4-0.2,0.6-0.5,1.1-0.3
				c-0.7-1.7-0.8-3.6-1.3-4.9c-0.5,0.2-0.8,0-1.1-0.4c2-1.2-0.4-3,0.8-4.3c-0.2-0.9-1.5-0.7-1.8-1.5c0.7-2.6,5.1-0.3,3.3,1.8
				c0.8,3,2.1,7.2,0.7,9.9c1,0.9,0.1,1.7,0.1,3.1c-0.4,0.3-0.6,0.3-1.1,0.1C156.9,185.1,155.7,184.3,156.5,183.7z"/>
		</g>
		<g>
			<rect x="153.7" y="169" class="st0" width="4.7" height="16.2"/>
			<path class="st1" d="M156.5,182.9c-0.1-0.4-0.4,0.2-0.7,0c0.3-0.3,0.4-0.8,0.1-1.3c0.4-0.2,0.6-0.5,1.1-0.3
				c-0.7-1.7-0.8-3.6-1.3-4.9c-0.5,0.2-0.8,0-1.1-0.4c2-1.2-0.4-3,0.8-4.3c-0.2-0.9-1.5-0.7-1.8-1.5c0.7-2.6,5.1-0.3,3.3,1.8
				c0.8,3,2.1,7.2,0.7,9.9c1,0.9,0.1,1.7,0.1,3.1c-0.4,0.3-0.6,0.3-1.1,0.1C156.9,184.3,155.7,183.4,156.5,182.9z"/>
		</g>
		<g>
			<rect x="153.7" y="168.2" class="st0" width="4.7" height="16.2"/>
			<path class="st1" d="M156.5,182.1c-0.1-0.4-0.4,0.2-0.7,0c0.3-0.3,0.4-0.8,0.1-1.3c0.4-0.2,0.6-0.5,1.1-0.3
				c-0.7-1.7-0.8-3.6-1.3-4.9c-0.5,0.2-0.8,0-1.1-0.4c2-1.2-0.4-3,0.8-4.3c-0.2-0.9-1.5-0.7-1.8-1.5c0.7-2.6,5.1-0.3,3.3,1.8
				c0.8,3,2.1,7.2,0.7,9.9c1,0.9,0.1,1.7,0.1,3.1c-0.4,0.3-0.6,0.3-1.1,0.1C156.9,183.5,155.7,182.6,156.5,182.1z"/>
		</g>
		<g>
			<rect x="153.7" y="167.4" class="st0" width="4.7" height="16.2"/>
			<path class="st1" d="M156.5,181.3c-0.1-0.4-0.4,0.2-0.7,0c0.3-0.3,0.4-0.8,0.1-1.3c0.4-0.2,0.6-0.5,1.1-0.3
				c-0.7-1.7-0.8-3.6-1.3-4.9c-0.5,0.2-0.8,0-1.1-0.4c2-1.2-0.4-3,0.8-4.3c-0.2-0.9-1.5-0.7-1.8-1.5c0.7-2.6,5.1-0.3,3.3,1.8
				c0.8,3,2.1,7.2,0.7,9.9c1,0.9,0.1,1.7,0.1,3.1c-0.4,0.3-0.6,0.3-1.1,0.1C156.9,182.7,155.7,181.8,156.5,181.3z"/>
		</g>
		<g>
			<rect x="153.7" y="166.6" class="st0" width="4.7" height="16.2"/>
			<path class="st1" d="M156.5,180.5c-0.1-0.4-0.4,0.2-0.7,0c0.3-0.3,0.4-0.8,0.1-1.3c0.4-0.2,0.6-0.5,1.1-0.3
				c-0.7-1.7-0.8-3.6-1.3-4.9c-0.5,0.2-0.8,0-1.1-0.4c2-1.2-0.4-3,0.8-4.3c-0.2-0.9-1.5-0.7-1.8-1.5c0.7-2.6,5.1-0.3,3.3,1.8
				c0.8,3,2.1,7.2,0.7,9.9c1,0.9,0.1,1.7,0.1,3.1c-0.4,0.3-0.6,0.3-1.1,0.1C156.9,181.9,155.7,181,156.5,180.5z"/>
		</g>
		<g>
			<rect x="153.7" y="165.8" class="st0" width="4.7" height="16.2"/>
			<path class="st1" d="M156.5,179.6c-0.1-0.4-0.4,0.2-0.7,0c0.3-0.3,0.4-0.8,0.1-1.3c0.4-0.2,0.6-0.5,1.1-0.3
				c-0.7-1.7-0.8-3.6-1.3-4.9c-0.5,0.2-0.8,0-1.1-0.4c2-1.2-0.4-3,0.8-4.3c-0.2-0.9-1.5-0.7-1.8-1.5c0.7-2.6,5.1-0.3,3.3,1.8
				c0.8,3,2.1,7.2,0.7,9.9c1,0.9,0.1,1.7,0.1,3.1c-0.4,0.3-0.6,0.3-1.1,0.1C156.9,181.1,155.7,180.2,156.5,179.6z"/>
		</g>
		<g>
			<rect x="153.7" y="165" class="st0" width="4.7" height="16.2"/>
			<path class="st1" d="M156.5,178.8c-0.1-0.4-0.4,0.2-0.7,0c0.3-0.3,0.4-0.8,0.1-1.3c0.4-0.2,0.6-0.5,1.1-0.3
				c-0.7-1.7-0.8-3.6-1.3-4.9c-0.5,0.2-0.8,0-1.1-0.4c2-1.2-0.4-3,0.8-4.3c-0.2-0.9-1.5-0.7-1.8-1.5c0.7-2.6,5.1-0.3,3.3,1.8
				c0.8,3,2.1,7.2,0.7,9.9c1,0.9,0.1,1.7,0.1,3.1c-0.4,0.3-0.6,0.3-1.1,0.1C156.9,180.2,155.7,179.4,156.5,178.8z"/>
		</g>
		<g>
			<rect x="153.7" y="164.1" class="st0" width="4.7" height="16.2"/>
			<path class="st1" d="M156.5,178c-0.1-0.4-0.4,0.2-0.7,0c0.3-0.3,0.4-0.8,0.1-1.3c0.4-0.2,0.6-0.5,1.1-0.3
				c-0.7-1.7-0.8-3.6-1.3-4.9c-0.5,0.2-0.8,0-1.1-0.4c2-1.2-0.4-3,0.8-4.3c-0.2-0.9-1.5-0.7-1.8-1.5c0.7-2.6,5.1-0.3,3.3,1.8
				c0.8,3,2.1,7.2,0.7,9.9c1,0.9,0.1,1.7,0.1,3.1c-0.4,0.3-0.6,0.3-1.1,0.1C156.9,179.4,155.7,178.6,156.5,178z"/>
		</g>
		<g>
			<rect x="153.7" y="163.3" class="st0" width="4.7" height="16.2"/>
			<path class="st1" d="M156.5,177.2c-0.1-0.4-0.4,0.2-0.7,0c0.3-0.3,0.4-0.8,0.1-1.3c0.4-0.2,0.6-0.5,1.1-0.3
				c-0.7-1.7-0.8-3.6-1.3-4.9c-0.5,0.2-0.8,0-1.1-0.4c2-1.2-0.4-3,0.8-4.3c-0.2-0.9-1.5-0.7-1.8-1.5c0.7-2.6,5.1-0.3,3.3,1.8
				c0.8,3,2.1,7.2,0.7,9.9c1,0.9,0.1,1.7,0.1,3.1c-0.4,0.3-0.6,0.3-1.1,0.1C156.9,178.6,155.7,177.8,156.5,177.2z"/>
		</g>
		<g>
			<rect x="153.7" y="162.5" class="st0" width="4.7" height="16.2"/>
			<path class="st1" d="M156.5,176.4c-0.1-0.4-0.4,0.2-0.7,0c0.3-0.3,0.4-0.8,0.1-1.3c0.4-0.2,0.6-0.5,1.1-0.3
				c-0.7-1.7-0.8-3.6-1.3-4.9c-0.5,0.2-0.8,0-1.1-0.4c2-1.2-0.4-3,0.8-4.3c-0.2-0.9-1.5-0.7-1.8-1.5c0.7-2.6,5.1-0.3,3.3,1.8
				c0.8,3,2.1,7.2,0.7,9.9c1,0.9,0.1,1.7,0.1,3.1c-0.4,0.3-0.6,0.3-1.1,0.1C156.9,177.8,155.7,177,156.5,176.4z"/>
		</g>
		<g>
			<rect x="153.7" y="161.7" class="st0" width="4.7" height="16.2"/>
			<path class="st1" d="M156.5,175.6c-0.1-0.4-0.4,0.2-0.7,0c0.3-0.3,0.4-0.8,0.1-1.3c0.4-0.2,0.6-0.5,1.1-0.3
				c-0.7-1.7-0.8-3.6-1.3-4.9c-0.5,0.2-0.8,0-1.1-0.4c2-1.2-0.4-3,0.8-4.3c-0.2-0.9-1.5-0.7-1.8-1.5c0.7-2.6,5.1-0.3,3.3,1.8
				c0.8,3,2.1,7.2,0.7,9.9c1,0.9,0.1,1.7,0.1,3.1c-0.4,0.3-0.6,0.3-1.1,0.1C156.9,177,155.7,176.2,156.5,175.6z"/>
		</g>
		<g>
			<rect x="153.7" y="160.9" class="st0" width="4.7" height="16.2"/>
			<path class="st1" d="M156.5,174.8c-0.1-0.4-0.4,0.2-0.7,0c0.3-0.3,0.4-0.8,0.1-1.3c0.4-0.2,0.6-0.5,1.1-0.3
				c-0.7-1.7-0.8-3.6-1.3-4.9c-0.5,0.2-0.8,0-1.1-0.4c2-1.2-0.4-3,0.8-4.3c-0.2-0.9-1.5-0.7-1.8-1.5c0.7-2.6,5.1-0.3,3.3,1.8
				c0.8,3,2.1,7.2,0.7,9.9c1,0.9,0.1,1.7,0.1,3.1c-0.4,0.3-0.6,0.3-1.1,0.1C156.9,176.2,155.7,175.3,156.5,174.8z"/>
		</g>
		<g>
			<rect x="153.7" y="160.1" class="st0" width="4.7" height="16.2"/>
			<path class="st1" d="M156.5,174c-0.1-0.4-0.4,0.2-0.7,0c0.3-0.3,0.4-0.8,0.1-1.3c0.4-0.2,0.6-0.5,1.1-0.3
				c-0.7-1.7-0.8-3.6-1.3-4.9c-0.5,0.2-0.8,0-1.1-0.4c2-1.2-0.4-3,0.8-4.3c-0.2-0.9-1.5-0.7-1.8-1.5c0.7-2.6,5.1-0.3,3.3,1.8
				c0.8,3,2.1,7.2,0.7,9.9c1,0.9,0.1,1.7,0.1,3.1c-0.4,0.3-0.6,0.3-1.1,0.1C156.9,175.4,155.7,174.5,156.5,174z"/>
		</g>
		<g>
			<rect x="153.7" y="159.3" class="st0" width="4.7" height="16.2"/>
			<path class="st1" d="M156.5,173.2c-0.1-0.4-0.4,0.2-0.7,0c0.3-0.3,0.4-0.8,0.1-1.3c0.4-0.2,0.6-0.5,1.1-0.3
				c-0.7-1.7-0.8-3.6-1.3-4.9c-0.5,0.2-0.8,0-1.1-0.4c2-1.2-0.4-3,0.8-4.3c-0.2-0.9-1.5-0.7-1.8-1.5c0.7-2.6,5.1-0.3,3.3,1.8
				c0.8,3,2.1,7.2,0.7,9.9c1,0.9,0.1,1.7,0.1,3.1c-0.4,0.3-0.6,0.3-1.1,0.1C156.9,174.6,155.7,173.7,156.5,173.2z"/>
		</g>
		<g>
			<rect x="153.7" y="158.5" class="st0" width="4.7" height="16.2"/>
			<path class="st1" d="M156.5,172.4c-0.1-0.4-0.4,0.2-0.7,0c0.3-0.3,0.4-0.8,0.1-1.3c0.4-0.2,0.6-0.5,1.1-0.3
				c-0.7-1.7-0.8-3.6-1.3-4.9c-0.5,0.2-0.8,0-1.1-0.4c2-1.2-0.4-3,0.8-4.3c-0.2-0.9-1.5-0.7-1.8-1.5c0.7-2.6,5.1-0.3,3.3,1.8
				c0.8,3,2.1,7.2,0.7,9.9c1,0.9,0.1,1.7,0.1,3.1c-0.4,0.3-0.6,0.3-1.1,0.1C156.9,173.8,155.7,172.9,156.5,172.4z"/>
		</g>
		<g>
			<rect x="153.7" y="157.7" class="st0" width="4.7" height="16.2"/>
			<path class="st1" d="M156.5,171.5c-0.1-0.4-0.4,0.2-0.7,0c0.3-0.3,0.4-0.8,0.1-1.3c0.4-0.2,0.6-0.5,1.1-0.3
				c-0.7-1.7-0.8-3.6-1.3-4.9c-0.5,0.2-0.8,0-1.1-0.4c2-1.2-0.4-3,0.8-4.3c-0.2-0.9-1.5-0.7-1.8-1.5c0.7-2.6,5.1-0.3,3.3,1.8
				c0.8,3,2.1,7.2,0.7,9.9c1,0.9,0.1,1.7,0.1,3.1c-0.4,0.3-0.6,0.3-1.1,0.1C156.9,173,155.7,172.1,156.5,171.5z"/>
		</g>
		<g>
			<rect x="153.7" y="156.9" class="st0" width="4.7" height="16.2"/>
			<path class="st1" d="M156.5,170.7c-0.1-0.4-0.4,0.2-0.7,0c0.3-0.3,0.4-0.8,0.1-1.3c0.4-0.2,0.6-0.5,1.1-0.3
				c-0.7-1.7-0.8-3.6-1.3-4.9c-0.5,0.2-0.8,0-1.1-0.4c2-1.2-0.4-3,0.8-4.3c-0.2-0.9-1.5-0.7-1.8-1.5c0.7-2.6,5.1-0.3,3.3,1.8
				c0.8,3,2.1,7.2,0.7,9.9c1,0.9,0.1,1.7,0.1,3.1c-0.4,0.3-0.6,0.3-1.1,0.1C156.9,172.2,155.7,171.3,156.5,170.7z"/>
		</g>
		<g>
			<rect x="153.7" y="156.1" class="st0" width="4.7" height="16.2"/>
			<path class="st1" d="M156.5,169.9c-0.1-0.4-0.4,0.2-0.7,0c0.3-0.3,0.4-0.8,0.1-1.3c0.4-0.2,0.6-0.5,1.1-0.3
				c-0.7-1.7-0.8-3.6-1.3-4.9c-0.5,0.2-0.8,0-1.1-0.4c2-1.2-0.4-3,0.8-4.3c-0.2-0.9-1.5-0.7-1.8-1.5c0.7-2.6,5.1-0.3,3.3,1.8
				c0.8,3,2.1,7.2,0.7,9.9c1,0.9,0.1,1.7,0.1,3.1c-0.4,0.3-0.6,0.3-1.1,0.1C156.9,171.3,155.7,170.5,156.5,169.9z"/>
		</g>
		<g>
			<rect x="153.7" y="155.2" class="st0" width="4.7" height="16.2"/>
			<path class="st1" d="M156.5,169.1c-0.1-0.4-0.4,0.2-0.7,0c0.3-0.3,0.4-0.8,0.1-1.3c0.4-0.2,0.6-0.5,1.1-0.3
				c-0.7-1.7-0.8-3.6-1.3-4.9c-0.5,0.2-0.8,0-1.1-0.4c2-1.2-0.4-3,0.8-4.3c-0.2-0.9-1.5-0.7-1.8-1.5c0.7-2.6,5.1-0.3,3.3,1.8
				c0.8,3,2.1,7.2,0.7,9.9c1,0.9,0.1,1.7,0.1,3.1c-0.4,0.3-0.6,0.3-1.1,0.1C156.9,170.5,155.7,169.7,156.5,169.1z"/>
		</g>
		<g>
			<rect x="153.7" y="154.4" class="st0" width="4.7" height="16.2"/>
			<path class="st1" d="M156.5,168.3c-0.1-0.4-0.4,0.2-0.7,0c0.3-0.3,0.4-0.8,0.1-1.3c0.4-0.2,0.6-0.5,1.1-0.3
				c-0.7-1.7-0.8-3.6-1.3-4.9c-0.5,0.2-0.8,0-1.1-0.4c2-1.2-0.4-3,0.8-4.3c-0.2-0.9-1.5-0.7-1.8-1.5c0.7-2.6,5.1-0.3,3.3,1.8
				c0.8,3,2.1,7.2,0.7,9.9c1,0.9,0.1,1.7,0.1,3.1c-0.4,0.3-0.6,0.3-1.1,0.1C156.9,169.7,155.7,168.9,156.5,168.3z"/>
		</g>
		<g>
			<rect x="153.7" y="153.6" class="st0" width="4.7" height="16.2"/>
			<path class="st1" d="M156.5,167.5c-0.1-0.4-0.4,0.2-0.7,0c0.3-0.3,0.4-0.8,0.1-1.3c0.4-0.2,0.6-0.5,1.1-0.3
				c-0.7-1.7-0.8-3.6-1.3-4.9c-0.5,0.2-0.8,0-1.1-0.4c2-1.2-0.4-3,0.8-4.3c-0.2-0.9-1.5-0.7-1.8-1.5c0.7-2.6,5.1-0.3,3.3,1.8
				c0.8,3,2.1,7.2,0.7,9.9c1,0.9,0.1,1.7,0.1,3.1c-0.4,0.3-0.6,0.3-1.1,0.1C156.9,168.9,155.7,168.1,156.5,167.5z"/>
		</g>
		<g>
			<rect x="153.7" y="152.8" class="st0" width="4.7" height="16.2"/>
			<path class="st1" d="M156.5,166.7c-0.1-0.4-0.4,0.2-0.7,0c0.3-0.3,0.4-0.8,0.1-1.3c0.4-0.2,0.6-0.5,1.1-0.3
				c-0.7-1.7-0.8-3.6-1.3-4.9c-0.5,0.2-0.8,0-1.1-0.4c2-1.2-0.4-3,0.8-4.3c-0.2-0.9-1.5-0.7-1.8-1.5c0.7-2.6,5.1-0.3,3.3,1.8
				c0.8,3,2.1,7.2,0.7,9.9c1,0.9,0.1,1.7,0.1,3.1c-0.4,0.3-0.6,0.3-1.1,0.1C156.9,168.1,155.7,167.3,156.5,166.7z"/>
		</g>
		<g>
			<rect x="153.7" y="152" class="st0" width="4.7" height="16.2"/>
			<path class="st1" d="M156.5,165.9c-0.1-0.4-0.4,0.2-0.7,0c0.3-0.3,0.4-0.8,0.1-1.3c0.4-0.2,0.6-0.5,1.1-0.3
				c-0.7-1.7-0.8-3.6-1.3-4.9c-0.5,0.2-0.8,0-1.1-0.4c2-1.2-0.4-3,0.8-4.3c-0.2-0.9-1.5-0.7-1.8-1.5c0.7-2.6,5.1-0.3,3.3,1.8
				c0.8,3,2.1,7.2,0.7,9.9c1,0.9,0.1,1.7,0.1,3.1c-0.4,0.3-0.6,0.3-1.1,0.1C156.9,167.3,155.7,166.4,156.5,165.9z"/>
		</g>
		<g>
			<rect x="153.7" y="151.2" class="st0" width="4.7" height="16.2"/>
			<path class="st1" d="M156.5,165.1c-0.1-0.4-0.4,0.2-0.7,0c0.3-0.3,0.4-0.8,0.1-1.3c0.4-0.2,0.6-0.5,1.1-0.3
				c-0.7-1.7-0.8-3.6-1.3-4.9c-0.5,0.2-0.8,0-1.1-0.4c2-1.2-0.4-3,0.8-4.3c-0.2-0.9-1.5-0.7-1.8-1.5c0.7-2.6,5.1-0.3,3.3,1.8
				c0.8,3,2.1,7.2,0.7,9.9c1,0.9,0.1,1.7,0.1,3.1c-0.4,0.3-0.6,0.3-1.1,0.1C156.9,166.5,155.7,165.6,156.5,165.1z"/>
		</g>
		<g>
			<rect x="153.7" y="150.4" class="st0" width="4.7" height="16.2"/>
			<path class="st1" d="M156.5,164.3c-0.1-0.4-0.4,0.2-0.7,0c0.3-0.3,0.4-0.8,0.1-1.3c0.4-0.2,0.6-0.5,1.1-0.3
				c-0.7-1.7-0.8-3.6-1.3-4.9c-0.5,0.2-0.8,0-1.1-0.4c2-1.2-0.4-3,0.8-4.3c-0.2-0.9-1.5-0.7-1.8-1.5c0.7-2.6,5.1-0.3,3.3,1.8
				c0.8,3,2.1,7.2,0.7,9.9c1,0.9,0.1,1.7,0.1,3.1c-0.4,0.3-0.6,0.3-1.1,0.1C156.9,165.7,155.7,164.8,156.5,164.3z"/>
		</g>
		<g>
			<rect x="153.7" y="149.6" class="st0" width="4.7" height="16.2"/>
			<path class="st1" d="M156.5,163.5c-0.1-0.4-0.4,0.2-0.7,0c0.3-0.3,0.4-0.8,0.1-1.3c0.4-0.2,0.6-0.5,1.1-0.3
				c-0.7-1.7-0.8-3.6-1.3-4.9c-0.5,0.2-0.8,0-1.1-0.4c2-1.2-0.4-3,0.8-4.3c-0.2-0.9-1.5-0.7-1.8-1.5c0.7-2.6,5.1-0.3,3.3,1.8
				c0.8,3,2.1,7.2,0.7,9.9c1,0.9,0.1,1.7,0.1,3.1c-0.4,0.3-0.6,0.3-1.1,0.1C156.9,164.9,155.7,164,156.5,163.5z"/>
		</g>
		<g>
			<rect x="153.7" y="148.8" class="st0" width="4.7" height="16.2"/>
			<path class="st1" d="M156.5,162.6c-0.1-0.4-0.4,0.2-0.7,0c0.3-0.3,0.4-0.8,0.1-1.3c0.4-0.2,0.6-0.5,1.1-0.3
				c-0.7-1.7-0.8-3.6-1.3-4.9c-0.5,0.2-0.8,0-1.1-0.4c2-1.2-0.4-3,0.8-4.3c-0.2-0.9-1.5-0.7-1.8-1.5c0.7-2.6,5.1-0.3,3.3,1.8
				c0.8,3,2.1,7.2,0.7,9.9c1,0.9,0.1,1.7,0.1,3.1c-0.4,0.3-0.6,0.3-1.1,0.1C156.9,164.1,155.7,163.2,156.5,162.6z"/>
		</g>
		<g>
			<rect x="153.7" y="148" class="st0" width="4.7" height="16.2"/>
			<path class="st1" d="M156.5,161.8c-0.1-0.4-0.4,0.2-0.7,0c0.3-0.3,0.4-0.8,0.1-1.3c0.4-0.2,0.6-0.5,1.1-0.3
				c-0.7-1.7-0.8-3.6-1.3-4.9c-0.5,0.2-0.8,0-1.1-0.4c2-1.2-0.4-3,0.8-4.3c-0.2-0.9-1.5-0.7-1.8-1.5c0.7-2.6,5.1-0.3,3.3,1.8
				c0.8,3,2.1,7.2,0.7,9.9c1,0.9,0.1,1.7,0.1,3.1c-0.4,0.3-0.6,0.3-1.1,0.1C156.9,163.2,155.7,162.4,156.5,161.8z"/>
		</g>
		<g>
			<rect x="153.7" y="147.1" class="st0" width="4.7" height="16.2"/>
			<path class="st1" d="M156.5,161c-0.1-0.4-0.4,0.2-0.7,0c0.3-0.3,0.4-0.8,0.1-1.3c0.4-0.2,0.6-0.5,1.1-0.3
				c-0.7-1.7-0.8-3.6-1.3-4.9c-0.5,0.2-0.8,0-1.1-0.4c2-1.2-0.4-3,0.8-4.3c-0.2-0.9-1.5-0.7-1.8-1.5c0.7-2.6,5.1-0.3,3.3,1.8
				c0.8,3,2.1,7.2,0.7,9.9c1,0.9,0.1,1.7,0.1,3.1c-0.4,0.3-0.6,0.3-1.1,0.1C156.9,162.4,155.7,161.6,156.5,161z"/>
		</g>
		<g>
			<rect x="153.7" y="146.3" class="st0" width="4.7" height="16.2"/>
			<path class="st1" d="M156.5,160.2c-0.1-0.4-0.4,0.2-0.7,0c0.3-0.3,0.4-0.8,0.1-1.3c0.4-0.2,0.6-0.5,1.1-0.3
				c-0.7-1.7-0.8-3.6-1.3-4.9c-0.5,0.2-0.8,0-1.1-0.4c2-1.2-0.4-3,0.8-4.3c-0.2-0.9-1.5-0.7-1.8-1.5c0.7-2.6,5.1-0.3,3.3,1.8
				c0.8,3,2.1,7.2,0.7,9.9c1,0.9,0.1,1.7,0.1,3.1c-0.4,0.3-0.6,0.3-1.1,0.1C156.9,161.6,155.7,160.8,156.5,160.2z"/>
		</g>
		<g>
			<rect x="153.7" y="145.5" class="st0" width="4.7" height="16.2"/>
			<path class="st1" d="M156.5,159.4c-0.1-0.4-0.4,0.2-0.7,0c0.3-0.3,0.4-0.8,0.1-1.3c0.4-0.2,0.6-0.5,1.1-0.3
				c-0.7-1.7-0.8-3.6-1.3-4.9c-0.5,0.2-0.8,0-1.1-0.4c2-1.2-0.4-3,0.8-4.3c-0.2-0.9-1.5-0.7-1.8-1.5c0.7-2.6,5.1-0.3,3.3,1.8
				c0.8,3,2.1,7.2,0.7,9.9c1,0.9,0.1,1.7,0.1,3.1c-0.4,0.3-0.6,0.3-1.1,0.1C156.9,160.8,155.7,160,156.5,159.4z"/>
		</g>
		<g>
			<rect x="153.7" y="144.7" class="st0" width="4.7" height="16.2"/>
			<path class="st1" d="M156.5,158.6c-0.1-0.4-0.4,0.2-0.7,0c0.3-0.3,0.4-0.8,0.1-1.3c0.4-0.2,0.6-0.5,1.1-0.3
				c-0.7-1.7-0.8-3.6-1.3-4.9c-0.5,0.2-0.8,0-1.1-0.4c2-1.2-0.4-3,0.8-4.3c-0.2-0.9-1.5-0.7-1.8-1.5c0.7-2.6,5.1-0.3,3.3,1.8
				c0.8,3,2.1,7.2,0.7,9.9c1,0.9,0.1,1.7,0.1,3.1c-0.4,0.3-0.6,0.3-1.1,0.1C156.9,160,155.7,159.2,156.5,158.6z"/>
		</g>
		<g>
			<rect x="153.7" y="143.9" class="st0" width="4.7" height="16.2"/>
			<path class="st1" d="M156.5,157.8c-0.1-0.4-0.4,0.2-0.7,0c0.3-0.3,0.4-0.8,0.1-1.3c0.4-0.2,0.6-0.5,1.1-0.3
				c-0.7-1.7-0.8-3.6-1.3-4.9c-0.5,0.2-0.8,0-1.1-0.4c2-1.2-0.4-3,0.8-4.3c-0.2-0.9-1.5-0.7-1.8-1.5c0.7-2.6,5.1-0.3,3.3,1.8
				c0.8,3,2.1,7.2,0.7,9.9c1,0.9,0.1,1.7,0.1,3.1c-0.4,0.3-0.6,0.3-1.1,0.1C156.9,159.2,155.7,158.3,156.5,157.8z"/>
		</g>
		<g>
			<rect x="153.7" y="143.1" class="st0" width="4.7" height="16.2"/>
			<path class="st1" d="M156.5,157c-0.1-0.4-0.4,0.2-0.7,0c0.3-0.3,0.4-0.8,0.1-1.3c0.4-0.2,0.6-0.5,1.1-0.3
				c-0.7-1.7-0.8-3.6-1.3-4.9c-0.5,0.2-0.8,0-1.1-0.4c2-1.2-0.4-3,0.8-4.3c-0.2-0.9-1.5-0.7-1.8-1.5c0.7-2.6,5.1-0.3,3.3,1.8
				c0.8,3,2.1,7.2,0.7,9.9c1,0.9,0.1,1.7,0.1,3.1c-0.4,0.3-0.6,0.3-1.1,0.1C156.9,158.4,155.7,157.5,156.5,157z"/>
		</g>
		<g>
			<rect x="153.7" y="142.3" class="st0" width="4.7" height="16.2"/>
			<path class="st1" d="M156.5,156.2c-0.1-0.4-0.4,0.2-0.7,0c0.3-0.3,0.4-0.8,0.1-1.3c0.4-0.2,0.6-0.5,1.1-0.3
				c-0.7-1.7-0.8-3.6-1.3-4.9c-0.5,0.2-0.8,0-1.1-0.4c2-1.2-0.4-3,0.8-4.3c-0.2-0.9-1.5-0.7-1.8-1.5c0.7-2.6,5.1-0.3,3.3,1.8
				c0.8,3,2.1,7.2,0.7,9.9c1,0.9,0.1,1.7,0.1,3.1c-0.4,0.3-0.6,0.3-1.1,0.1C156.9,157.6,155.7,156.7,156.5,156.2z"/>
		</g>
		<g>
			<rect x="153.7" y="141.5" class="st0" width="4.7" height="16.2"/>
			<path class="st1" d="M156.5,155.4c-0.1-0.4-0.4,0.2-0.7,0c0.3-0.3,0.4-0.8,0.1-1.3c0.4-0.2,0.6-0.5,1.1-0.3
				c-0.7-1.7-0.8-3.6-1.3-4.9c-0.5,0.2-0.8,0-1.1-0.4c2-1.2-0.4-3,0.8-4.3c-0.2-0.9-1.5-0.7-1.8-1.5c0.7-2.6,5.1-0.3,3.3,1.8
				c0.8,3,2.1,7.2,0.7,9.9c1,0.9,0.1,1.7,0.1,3.1c-0.4,0.3-0.6,0.3-1.1,0.1C156.9,156.8,155.7,155.9,156.5,155.4z"/>
		</g>
		<g>
			<rect x="153.7" y="140.7" class="st0" width="4.7" height="16.2"/>
			<path class="st1" d="M156.5,154.5c-0.1-0.4-0.4,0.2-0.7,0c0.3-0.3,0.4-0.8,0.1-1.3c0.4-0.2,0.6-0.5,1.1-0.3
				c-0.7-1.7-0.8-3.6-1.3-4.9c-0.5,0.2-0.8,0-1.1-0.4c2-1.2-0.4-3,0.8-4.3c-0.2-0.9-1.5-0.7-1.8-1.5c0.7-2.6,5.1-0.3,3.3,1.8
				c0.8,3,2.1,7.2,0.7,9.9c1,0.9,0.1,1.7,0.1,3.1c-0.4,0.3-0.6,0.3-1.1,0.1C156.9,156,155.7,155.1,156.5,154.5z"/>
		</g>
		<g>
			<rect x="153.7" y="139.9" class="st0" width="4.7" height="16.2"/>
			<path class="st1" d="M156.5,153.7c-0.1-0.4-0.4,0.2-0.7,0c0.3-0.3,0.4-0.8,0.1-1.3c0.4-0.2,0.6-0.5,1.1-0.3
				c-0.7-1.7-0.8-3.6-1.3-4.9c-0.5,0.2-0.8,0-1.1-0.4c2-1.2-0.4-3,0.8-4.3c-0.2-0.9-1.5-0.7-1.8-1.5c0.7-2.6,5.1-0.3,3.3,1.8
				c0.8,3,2.1,7.2,0.7,9.9c1,0.9,0.1,1.7,0.1,3.1c-0.4,0.3-0.6,0.3-1.1,0.1C156.9,155.1,155.7,154.3,156.5,153.7z"/>
		</g>
		<g>
			<rect x="153.7" y="139.1" class="st0" width="4.7" height="16.2"/>
			<path class="st1" d="M156.5,152.9c-0.1-0.4-0.4,0.2-0.7,0c0.3-0.3,0.4-0.8,0.1-1.3c0.4-0.2,0.6-0.5,1.1-0.3
				c-0.7-1.7-0.8-3.6-1.3-4.9c-0.5,0.2-0.8,0-1.1-0.4c2-1.2-0.4-3,0.8-4.3c-0.2-0.9-1.5-0.7-1.8-1.5c0.7-2.6,5.1-0.3,3.3,1.8
				c0.8,3,2.1,7.2,0.7,9.9c1,0.9,0.1,1.7,0.1,3.1c-0.4,0.3-0.6,0.3-1.1,0.1C156.9,154.3,155.7,153.5,156.5,152.9z"/>
		</g>
		<g>
			<rect x="153.7" y="138.2" class="st0" width="4.7" height="16.2"/>
			<path class="st1" d="M156.5,152.1c-0.1-0.4-0.4,0.2-0.7,0c0.3-0.3,0.4-0.8,0.1-1.3c0.4-0.2,0.6-0.5,1.1-0.3
				c-0.7-1.7-0.8-3.6-1.3-4.9c-0.5,0.2-0.8,0-1.1-0.4c2-1.2-0.4-3,0.8-4.3c-0.2-0.9-1.5-0.7-1.8-1.5c0.7-2.6,5.1-0.3,3.3,1.8
				c0.8,3,2.1,7.2,0.7,9.9c1,0.9,0.1,1.7,0.1,3.1c-0.4,0.3-0.6,0.3-1.1,0.1C156.9,153.5,155.7,152.7,156.5,152.1z"/>
		</g>
		<g>
			<rect x="153.7" y="137.4" class="st0" width="4.7" height="16.2"/>
			<path class="st1" d="M156.5,151.3c-0.1-0.4-0.4,0.2-0.7,0c0.3-0.3,0.4-0.8,0.1-1.3c0.4-0.2,0.6-0.5,1.1-0.3
				c-0.7-1.7-0.8-3.6-1.3-4.9c-0.5,0.2-0.8,0-1.1-0.4c2-1.2-0.4-3,0.8-4.3c-0.2-0.9-1.5-0.7-1.8-1.5c0.7-2.6,5.1-0.3,3.3,1.8
				c0.8,3,2.1,7.2,0.7,9.9c1,0.9,0.1,1.7,0.1,3.1c-0.4,0.3-0.6,0.3-1.1,0.1C156.9,152.7,155.7,151.9,156.5,151.3z"/>
		</g>
		<g>
			<rect x="153.7" y="136.6" class="st0" width="4.7" height="16.2"/>
			<path class="st1" d="M156.5,150.5c-0.1-0.4-0.4,0.2-0.7,0c0.3-0.3,0.4-0.8,0.1-1.3c0.4-0.2,0.6-0.5,1.1-0.3
				c-0.7-1.7-0.8-3.6-1.3-4.9c-0.5,0.2-0.8,0-1.1-0.4c2-1.2-0.4-3,0.8-4.3c-0.2-0.9-1.5-0.7-1.8-1.5c0.7-2.6,5.1-0.3,3.3,1.8
				c0.8,3,2.1,7.2,0.7,9.9c1,0.9,0.1,1.7,0.1,3.1c-0.4,0.3-0.6,0.3-1.1,0.1C156.9,151.9,155.7,151.1,156.5,150.5z"/>
		</g>
		<g>
			<rect x="153.7" y="135.8" class="st0" width="4.7" height="16.2"/>
			<path class="st1" d="M156.5,149.7c-0.1-0.4-0.4,0.2-0.7,0c0.3-0.3,0.4-0.8,0.1-1.3c0.4-0.2,0.6-0.5,1.1-0.3
				c-0.7-1.7-0.8-3.6-1.3-4.9c-0.5,0.2-0.8,0-1.1-0.4c2-1.2-0.4-3,0.8-4.3c-0.2-0.9-1.5-0.7-1.8-1.5c0.7-2.6,5.1-0.3,3.3,1.8
				c0.8,3,2.1,7.2,0.7,9.9c1,0.9,0.1,1.7,0.1,3.1c-0.4,0.3-0.6,0.3-1.1,0.1C156.9,151.1,155.7,150.3,156.5,149.7z"/>
		</g>
		<g>
			<rect x="153.7" y="135" class="st0" width="4.7" height="16.2"/>
			<path class="st1" d="M156.5,148.9c-0.1-0.4-0.4,0.2-0.7,0c0.3-0.3,0.4-0.8,0.1-1.3c0.4-0.2,0.6-0.5,1.1-0.3
				c-0.7-1.7-0.8-3.6-1.3-4.9c-0.5,0.2-0.8,0-1.1-0.4c2-1.2-0.4-3,0.8-4.3c-0.2-0.9-1.5-0.7-1.8-1.5c0.7-2.6,5.1-0.3,3.3,1.8
				c0.8,3,2.1,7.2,0.7,9.9c1,0.9,0.1,1.7,0.1,3.1c-0.4,0.3-0.6,0.3-1.1,0.1C156.9,150.3,155.7,149.4,156.5,148.9z"/>
		</g>
		<g>
			<rect x="153.7" y="134.2" class="st0" width="4.7" height="16.2"/>
			<path class="st1" d="M156.5,148.1c-0.1-0.4-0.4,0.2-0.7,0c0.3-0.3,0.4-0.8,0.1-1.3c0.4-0.2,0.6-0.5,1.1-0.3
				c-0.7-1.7-0.8-3.6-1.3-4.9c-0.5,0.2-0.8,0-1.1-0.4c2-1.2-0.4-3,0.8-4.3c-0.2-0.9-1.5-0.7-1.8-1.5c0.7-2.6,5.1-0.3,3.3,1.8
				c0.8,3,2.1,7.2,0.7,9.9c1,0.9,0.1,1.7,0.1,3.1c-0.4,0.3-0.6,0.3-1.1,0.1C156.9,149.5,155.7,148.6,156.5,148.1z"/>
		</g>
		<g>
			<rect x="153.7" y="133.4" class="st0" width="4.7" height="16.2"/>
			<path class="st1" d="M156.5,147.3c-0.1-0.4-0.4,0.2-0.7,0c0.3-0.3,0.4-0.8,0.1-1.3c0.4-0.2,0.6-0.5,1.1-0.3
				c-0.7-1.7-0.8-3.6-1.3-4.9c-0.5,0.2-0.8,0-1.1-0.4c2-1.2-0.4-3,0.8-4.3c-0.2-0.9-1.5-0.7-1.8-1.5c0.7-2.6,5.1-0.3,3.3,1.8
				c0.8,3,2.1,7.2,0.7,9.9c1,0.9,0.1,1.7,0.1,3.1c-0.4,0.3-0.6,0.3-1.1,0.1C156.9,148.7,155.7,147.8,156.5,147.3z"/>
		</g>
		<g>
			<rect x="153.7" y="132.6" class="st0" width="4.7" height="16.2"/>
			<path class="st1" d="M156.5,146.5c-0.1-0.4-0.4,0.2-0.7,0c0.3-0.3,0.4-0.8,0.1-1.3c0.4-0.2,0.6-0.5,1.1-0.3
				c-0.7-1.7-0.8-3.6-1.3-4.9c-0.5,0.2-0.8,0-1.1-0.4c2-1.2-0.4-3,0.8-4.3c-0.2-0.9-1.5-0.7-1.8-1.5c0.7-2.6,5.1-0.3,3.3,1.8
				c0.8,3,2.1,7.2,0.7,9.9c1,0.9,0.1,1.7,0.1,3.1c-0.4,0.3-0.6,0.3-1.1,0.1C156.9,147.9,155.7,147,156.5,146.5z"/>
		</g>
		<g>
			<rect x="153.7" y="131.8" class="st0" width="4.7" height="16.2"/>
			<path class="st1" d="M156.5,145.6c-0.1-0.4-0.4,0.2-0.7,0c0.3-0.3,0.4-0.8,0.1-1.3c0.4-0.2,0.6-0.5,1.1-0.3
				c-0.7-1.7-0.8-3.6-1.3-4.9c-0.5,0.2-0.8,0-1.1-0.4c2-1.2-0.4-3,0.8-4.3c-0.2-0.9-1.5-0.7-1.8-1.5c0.7-2.6,5.1-0.3,3.3,1.8
				c0.8,3,2.1,7.2,0.7,9.9c1,0.9,0.1,1.7,0.1,3.1c-0.4,0.3-0.6,0.3-1.1,0.1C156.9,147.1,155.7,146.2,156.5,145.6z"/>
		</g>
		<g>
			<rect x="153.7" y="131" class="st0" width="4.7" height="16.2"/>
			<path class="st1" d="M156.5,144.8c-0.1-0.4-0.4,0.2-0.7,0c0.3-0.3,0.4-0.8,0.1-1.3c0.4-0.2,0.6-0.5,1.1-0.3
				c-0.7-1.7-0.8-3.6-1.3-4.9c-0.5,0.2-0.8,0-1.1-0.4c2-1.2-0.4-3,0.8-4.3c-0.2-0.9-1.5-0.7-1.8-1.5c0.7-2.6,5.1-0.3,3.3,1.8
				c0.8,3,2.1,7.2,0.7,9.9c1,0.9,0.1,1.7,0.1,3.1c-0.4,0.3-0.6,0.3-1.1,0.1C156.9,146.2,155.7,145.4,156.5,144.8z"/>
		</g>
		<g>
			<rect x="153.7" y="130.1" class="st0" width="4.7" height="16.2"/>
			<path class="st1" d="M156.5,144c-0.1-0.4-0.4,0.2-0.7,0c0.3-0.3,0.4-0.8,0.1-1.3c0.4-0.2,0.6-0.5,1.1-0.3
				c-0.7-1.7-0.8-3.6-1.3-4.9c-0.5,0.2-0.8,0-1.1-0.4c2-1.2-0.4-3,0.8-4.3c-0.2-0.9-1.5-0.7-1.8-1.5c0.7-2.6,5.1-0.3,3.3,1.8
				c0.8,3,2.1,7.2,0.7,9.9c1,0.9,0.1,1.7,0.1,3.1c-0.4,0.3-0.6,0.3-1.1,0.1C156.9,145.4,155.7,144.6,156.5,144z"/>
		</g>
		<g>
			<rect x="153.7" y="129.3" class="st0" width="4.7" height="16.2"/>
			<path class="st1" d="M156.5,143.2c-0.1-0.4-0.4,0.2-0.7,0c0.3-0.3,0.4-0.8,0.1-1.3c0.4-0.2,0.6-0.5,1.1-0.3
				c-0.7-1.7-0.8-3.6-1.3-4.9c-0.5,0.2-0.8,0-1.1-0.4c2-1.2-0.4-3,0.8-4.3c-0.2-0.9-1.5-0.7-1.8-1.5c0.7-2.6,5.1-0.3,3.3,1.8
				c0.8,3,2.1,7.2,0.7,9.9c1,0.9,0.1,1.7,0.1,3.1c-0.4,0.3-0.6,0.3-1.1,0.1C156.9,144.6,155.7,143.8,156.5,143.2z"/>
		</g>
		<g>
			<rect x="153.7" y="128.5" class="st0" width="4.7" height="16.2"/>
			<path class="st1" d="M156.5,142.4c-0.1-0.4-0.4,0.2-0.7,0c0.3-0.3,0.4-0.8,0.1-1.3c0.4-0.2,0.6-0.5,1.1-0.3
				c-0.7-1.7-0.8-3.6-1.3-4.9c-0.5,0.2-0.8,0-1.1-0.4c2-1.2-0.4-3,0.8-4.3c-0.2-0.9-1.5-0.7-1.8-1.5c0.7-2.6,5.1-0.3,3.3,1.8
				c0.8,3,2.1,7.2,0.7,9.9c1,0.9,0.1,1.7,0.1,3.1c-0.4,0.3-0.6,0.3-1.1,0.1C156.9,143.8,155.7,143,156.5,142.4z"/>
		</g>
		<g>
			<rect x="153.7" y="127.7" class="st0" width="4.7" height="16.2"/>
			<path class="st1" d="M156.5,141.6c-0.1-0.4-0.4,0.2-0.7,0c0.3-0.3,0.4-0.8,0.1-1.3c0.4-0.2,0.6-0.5,1.1-0.3
				c-0.7-1.7-0.8-3.6-1.3-4.9c-0.5,0.2-0.8,0-1.1-0.4c2-1.2-0.4-3,0.8-4.3c-0.2-0.9-1.5-0.7-1.8-1.5c0.7-2.6,5.1-0.3,3.3,1.8
				c0.8,3,2.1,7.2,0.7,9.9c1,0.9,0.1,1.7,0.1,3.1c-0.4,0.3-0.6,0.3-1.1,0.1C156.9,143,155.7,142.2,156.5,141.6z"/>
		</g>
		<g>
			<rect x="153.7" y="126.9" class="st0" width="4.7" height="16.2"/>
			<path class="st1" d="M156.5,140.8c-0.1-0.4-0.4,0.2-0.7,0c0.3-0.3,0.4-0.8,0.1-1.3c0.4-0.2,0.6-0.5,1.1-0.3
				c-0.7-1.7-0.8-3.6-1.3-4.9c-0.5,0.2-0.8,0-1.1-0.4c2-1.2-0.4-3,0.8-4.3c-0.2-0.9-1.5-0.7-1.8-1.5c0.7-2.6,5.1-0.3,3.3,1.8
				c0.8,3,2.1,7.2,0.7,9.9c1,0.9,0.1,1.7,0.1,3.1c-0.4,0.3-0.6,0.3-1.1,0.1C156.9,142.2,155.7,141.3,156.5,140.8z"/>
		</g>
		<g>
			<rect x="153.7" y="126.1" class="st0" width="4.7" height="16.2"/>
			<path class="st1" d="M156.5,140c-0.1-0.4-0.4,0.2-0.7,0c0.3-0.3,0.4-0.8,0.1-1.3c0.4-0.2,0.6-0.5,1.1-0.3
				c-0.7-1.7-0.8-3.6-1.3-4.9c-0.5,0.2-0.8,0-1.1-0.4c2-1.2-0.4-3,0.8-4.3c-0.2-0.9-1.5-0.7-1.8-1.5c0.7-2.6,5.1-0.3,3.3,1.8
				c0.8,3,2.1,7.2,0.7,9.9c1,0.9,0.1,1.7,0.1,3.1c-0.4,0.3-0.6,0.3-1.1,0.1C156.9,141.4,155.7,140.5,156.5,140z"/>
		</g>
		<g>
			<rect x="153.7" y="125.3" class="st0" width="4.7" height="16.2"/>
			<path class="st1" d="M156.5,139.2c-0.1-0.4-0.4,0.2-0.7,0c0.3-0.3,0.4-0.8,0.1-1.3c0.4-0.2,0.6-0.5,1.1-0.3
				c-0.7-1.7-0.8-3.6-1.3-4.9c-0.5,0.2-0.8,0-1.1-0.4c2-1.2-0.4-3,0.8-4.3c-0.2-0.9-1.5-0.7-1.8-1.5c0.7-2.6,5.1-0.3,3.3,1.8
				c0.8,3,2.1,7.2,0.7,9.9c1,0.9,0.1,1.7,0.1,3.1c-0.4,0.3-0.6,0.3-1.1,0.1C156.9,140.6,155.7,139.7,156.5,139.2z"/>
		</g>
		<g>
			<rect x="153.7" y="124.5" class="st0" width="4.7" height="16.2"/>
			<path class="st1" d="M156.5,138.4c-0.1-0.4-0.4,0.2-0.7,0c0.3-0.3,0.4-0.8,0.1-1.3c0.4-0.2,0.6-0.5,1.1-0.3
				c-0.7-1.7-0.8-3.6-1.3-4.9c-0.5,0.2-0.8,0-1.1-0.4c2-1.2-0.4-3,0.8-4.3c-0.2-0.9-1.5-0.7-1.8-1.5c0.7-2.6,5.1-0.3,3.3,1.8
				c0.8,3,2.1,7.2,0.7,9.9c1,0.9,0.1,1.7,0.1,3.1c-0.4,0.3-0.6,0.3-1.1,0.1C156.9,139.8,155.7,138.9,156.5,138.4z"/>
		</g>
		<g>
			<rect x="153.7" y="123.7" class="st0" width="4.7" height="16.2"/>
			<path class="st1" d="M156.5,137.5c-0.1-0.4-0.4,0.2-0.7,0c0.3-0.3,0.4-0.8,0.1-1.3c0.4-0.2,0.6-0.5,1.1-0.3
				c-0.7-1.7-0.8-3.6-1.3-4.9c-0.5,0.2-0.8,0-1.1-0.4c2-1.2-0.4-3,0.8-4.3c-0.2-0.9-1.5-0.7-1.8-1.5c0.7-2.6,5.1-0.3,3.3,1.8
				c0.8,3,2.1,7.2,0.7,9.9c1,0.9,0.1,1.7,0.1,3.1c-0.4,0.3-0.6,0.3-1.1,0.1C156.9,139,155.7,138.1,156.5,137.5z"/>
		</g>
		<g>
			<rect x="153.7" y="122.9" class="st0" width="4.7" height="16.2"/>
			<path class="st1" d="M156.5,136.7c-0.1-0.4-0.4,0.2-0.7,0c0.3-0.3,0.4-0.8,0.1-1.3c0.4-0.2,0.6-0.5,1.1-0.3
				c-0.7-1.7-0.8-3.6-1.3-4.9c-0.5,0.2-0.8,0-1.1-0.4c2-1.2-0.4-3,0.8-4.3c-0.2-0.9-1.5-0.7-1.8-1.5c0.7-2.6,5.1-0.3,3.3,1.8
				c0.8,3,2.1,7.2,0.7,9.9c1,0.9,0.1,1.7,0.1,3.1c-0.4,0.3-0.6,0.3-1.1,0.1C156.9,138.1,155.7,137.3,156.5,136.7z"/>
		</g>
		<g>
			<rect x="153.7" y="122" class="st0" width="4.7" height="16.2"/>
			<path class="st1" d="M156.5,135.9c-0.1-0.4-0.4,0.2-0.7,0c0.3-0.3,0.4-0.8,0.1-1.3c0.4-0.2,0.6-0.5,1.1-0.3
				c-0.7-1.7-0.8-3.6-1.3-4.9c-0.5,0.2-0.8,0-1.1-0.4c2-1.2-0.4-3,0.8-4.3c-0.2-0.9-1.5-0.7-1.8-1.5c0.7-2.6,5.1-0.3,3.3,1.8
				c0.8,3,2.1,7.2,0.7,9.9c1,0.9,0.1,1.7,0.1,3.1c-0.4,0.3-0.6,0.3-1.1,0.1C156.9,137.3,155.7,136.5,156.5,135.9z"/>
		</g>
		<g>
			<rect x="153.7" y="121.2" class="st0" width="4.7" height="16.2"/>
			<path class="st1" d="M156.5,135.1c-0.1-0.4-0.4,0.2-0.7,0c0.3-0.3,0.4-0.8,0.1-1.3c0.4-0.2,0.6-0.5,1.1-0.3
				c-0.7-1.7-0.8-3.6-1.3-4.9c-0.5,0.2-0.8,0-1.1-0.4c2-1.2-0.4-3,0.8-4.3c-0.2-0.9-1.5-0.7-1.8-1.5c0.7-2.6,5.1-0.3,3.3,1.8
				c0.8,3,2.1,7.2,0.7,9.9c1,0.9,0.1,1.7,0.1,3.1c-0.4,0.3-0.6,0.3-1.1,0.1C156.9,136.5,155.7,135.7,156.5,135.1z"/>
		</g>
		<g>
			<rect x="153.7" y="120.4" class="st0" width="4.7" height="16.2"/>
			<path class="st1" d="M156.5,134.3c-0.1-0.4-0.4,0.2-0.7,0c0.3-0.3,0.4-0.8,0.1-1.3c0.4-0.2,0.6-0.5,1.1-0.3
				c-0.7-1.7-0.8-3.6-1.3-4.9c-0.5,0.2-0.8,0-1.1-0.4c2-1.2-0.4-3,0.8-4.3c-0.2-0.9-1.5-0.7-1.8-1.5c0.7-2.6,5.1-0.3,3.3,1.8
				c0.8,3,2.1,7.2,0.7,9.9c1,0.9,0.1,1.7,0.1,3.1c-0.4,0.3-0.6,0.3-1.1,0.1C156.9,135.7,155.7,134.9,156.5,134.3z"/>
		</g>
		<g>
			<rect x="153.7" y="119.6" class="st0" width="4.7" height="16.2"/>
			<path class="st1" d="M156.5,133.5c-0.1-0.4-0.4,0.2-0.7,0c0.3-0.3,0.4-0.8,0.1-1.3c0.4-0.2,0.6-0.5,1.1-0.3
				c-0.7-1.7-0.8-3.6-1.3-4.9c-0.5,0.2-0.8,0-1.1-0.4c2-1.2-0.4-3,0.8-4.3c-0.2-0.9-1.5-0.7-1.8-1.5c0.7-2.6,5.1-0.3,3.3,1.8
				c0.8,3,2.1,7.2,0.7,9.9c1,0.9,0.1,1.7,0.1,3.1c-0.4,0.3-0.6,0.3-1.1,0.1C156.9,134.9,155.7,134.1,156.5,133.5z"/>
		</g>
		<g>
			<rect x="153.7" y="118.8" class="st0" width="4.7" height="16.2"/>
			<path class="st1" d="M156.5,132.7c-0.1-0.4-0.4,0.2-0.7,0c0.3-0.3,0.4-0.8,0.1-1.3c0.4-0.2,0.6-0.5,1.1-0.3
				c-0.7-1.7-0.8-3.6-1.3-4.9c-0.5,0.2-0.8,0-1.1-0.4c2-1.2-0.4-3,0.8-4.3c-0.2-0.9-1.5-0.7-1.8-1.5c0.7-2.6,5.1-0.3,3.3,1.8
				c0.8,3,2.1,7.2,0.7,9.9c1,0.9,0.1,1.7,0.1,3.1c-0.4,0.3-0.6,0.3-1.1,0.1C156.9,134.1,155.7,133.3,156.5,132.7z"/>
		</g>
		<g>
			<rect x="153.7" y="118" class="st0" width="4.7" height="16.2"/>
			<path class="st1" d="M156.5,131.9c-0.1-0.4-0.4,0.2-0.7,0c0.3-0.3,0.4-0.8,0.1-1.3c0.4-0.2,0.6-0.5,1.1-0.3
				c-0.7-1.7-0.8-3.6-1.3-4.9c-0.5,0.2-0.8,0-1.1-0.4c2-1.2-0.4-3,0.8-4.3c-0.2-0.9-1.5-0.7-1.8-1.5c0.7-2.6,5.1-0.3,3.3,1.8
				c0.8,3,2.1,7.2,0.7,9.9c1,0.9,0.1,1.7,0.1,3.1c-0.4,0.3-0.6,0.3-1.1,0.1C156.9,133.3,155.7,132.4,156.5,131.9z"/>
		</g>
		<g>
			<rect x="153.7" y="117.2" class="st0" width="4.7" height="16.2"/>
			<path class="st1" d="M156.5,131.1c-0.1-0.4-0.4,0.2-0.7,0c0.3-0.3,0.4-0.8,0.1-1.3c0.4-0.2,0.6-0.5,1.1-0.3
				c-0.7-1.7-0.8-3.6-1.3-4.9c-0.5,0.2-0.8,0-1.1-0.4c2-1.2-0.4-3,0.8-4.3c-0.2-0.9-1.5-0.7-1.8-1.5c0.7-2.6,5.1-0.3,3.3,1.8
				c0.8,3,2.1,7.2,0.7,9.9c1,0.9,0.1,1.7,0.1,3.1c-0.4,0.3-0.6,0.3-1.1,0.1C156.9,132.5,155.7,131.6,156.5,131.1z"/>
		</g>
		<g>
			<rect x="153.7" y="116.4" class="st0" width="4.7" height="16.2"/>
			<path class="st1" d="M156.5,130.3c-0.1-0.4-0.4,0.2-0.7,0c0.3-0.3,0.4-0.8,0.1-1.3c0.4-0.2,0.6-0.5,1.1-0.3
				c-0.7-1.7-0.8-3.6-1.3-4.9c-0.5,0.2-0.8,0-1.1-0.4c2-1.2-0.4-3,0.8-4.3c-0.2-0.9-1.5-0.7-1.8-1.5c0.7-2.6,5.1-0.3,3.3,1.8
				c0.8,3,2.1,7.2,0.7,9.9c1,0.9,0.1,1.7,0.1,3.1c-0.4,0.3-0.6,0.3-1.1,0.1C156.9,131.7,155.7,130.8,156.5,130.3z"/>
		</g>
		<g>
			<rect x="153.7" y="115.6" class="st0" width="4.7" height="16.2"/>
			<path class="st1" d="M156.5,129.5c-0.1-0.4-0.4,0.2-0.7,0c0.3-0.3,0.4-0.8,0.1-1.3c0.4-0.2,0.6-0.5,1.1-0.3
				c-0.7-1.7-0.8-3.6-1.3-4.9c-0.5,0.2-0.8,0-1.1-0.4c2-1.2-0.4-3,0.8-4.3c-0.2-0.9-1.5-0.7-1.8-1.5c0.7-2.6,5.1-0.3,3.3,1.8
				c0.8,3,2.1,7.2,0.7,9.9c1,0.9,0.1,1.7,0.1,3.1c-0.4,0.3-0.6,0.3-1.1,0.1C156.9,130.9,155.7,130,156.5,129.5z"/>
		</g>
		<g>
			<rect x="153.7" y="114.8" class="st0" width="4.7" height="16.2"/>
			<path class="st1" d="M156.5,128.6c-0.1-0.4-0.4,0.2-0.7,0c0.3-0.3,0.4-0.8,0.1-1.3c0.4-0.2,0.6-0.5,1.1-0.3
				c-0.7-1.7-0.8-3.6-1.3-4.9c-0.5,0.2-0.8,0-1.1-0.4c2-1.2-0.4-3,0.8-4.3c-0.2-0.9-1.5-0.7-1.8-1.5c0.7-2.6,5.1-0.3,3.3,1.8
				c0.8,3,2.1,7.2,0.7,9.9c1,0.9,0.1,1.7,0.1,3.1c-0.4,0.3-0.6,0.3-1.1,0.1C156.9,130.1,155.7,129.2,156.5,128.6z"/>
		</g>
		<g>
			<rect x="153.7" y="114" class="st0" width="4.7" height="16.2"/>
			<path class="st1" d="M156.5,127.8c-0.1-0.4-0.4,0.2-0.7,0c0.3-0.3,0.4-0.8,0.1-1.3c0.4-0.2,0.6-0.5,1.1-0.3
				c-0.7-1.7-0.8-3.6-1.3-4.9c-0.5,0.2-0.8,0-1.1-0.4c2-1.2-0.4-3,0.8-4.3c-0.2-0.9-1.5-0.7-1.8-1.5c0.7-2.6,5.1-0.3,3.3,1.8
				c0.8,3,2.1,7.2,0.7,9.9c1,0.9,0.1,1.7,0.1,3.1c-0.4,0.3-0.6,0.3-1.1,0.1C156.9,129.2,155.7,128.4,156.5,127.8z"/>
		</g>
		<g>
			<rect x="153.7" y="113.1" class="st0" width="4.7" height="16.2"/>
			<path class="st1" d="M156.5,127c-0.1-0.4-0.4,0.2-0.7,0c0.3-0.3,0.4-0.8,0.1-1.3c0.4-0.2,0.6-0.5,1.1-0.3
				c-0.7-1.7-0.8-3.6-1.3-4.9c-0.5,0.2-0.8,0-1.1-0.4c2-1.2-0.4-3,0.8-4.3c-0.2-0.9-1.5-0.7-1.8-1.5c0.7-2.6,5.1-0.3,3.3,1.8
				c0.8,3,2.1,7.2,0.7,9.9c1,0.9,0.1,1.7,0.1,3.1c-0.4,0.3-0.6,0.3-1.1,0.1C156.9,128.4,155.7,127.6,156.5,127z"/>
		</g>
		<g>
			<rect x="153.7" y="112.3" class="st0" width="4.7" height="16.2"/>
			<path class="st1" d="M156.5,126.2c-0.1-0.4-0.4,0.2-0.7,0c0.3-0.3,0.4-0.8,0.1-1.3c0.4-0.2,0.6-0.5,1.1-0.3
				c-0.7-1.7-0.8-3.6-1.3-4.9c-0.5,0.2-0.8,0-1.1-0.4c2-1.2-0.4-3,0.8-4.3c-0.2-0.9-1.5-0.7-1.8-1.5c0.7-2.6,5.1-0.3,3.3,1.8
				c0.8,3,2.1,7.2,0.7,9.9c1,0.9,0.1,1.7,0.1,3.1c-0.4,0.3-0.6,0.3-1.1,0.1C156.9,127.6,155.7,126.8,156.5,126.2z"/>
		</g>
		<g>
			<rect x="153.7" y="111.5" class="st0" width="4.7" height="16.2"/>
			<path class="st1" d="M156.5,125.4c-0.1-0.4-0.4,0.2-0.7,0c0.3-0.3,0.4-0.8,0.1-1.3c0.4-0.2,0.6-0.5,1.1-0.3
				c-0.7-1.7-0.8-3.6-1.3-4.9c-0.5,0.2-0.8,0-1.1-0.4c2-1.2-0.4-3,0.8-4.3c-0.2-0.9-1.5-0.7-1.8-1.5c0.7-2.6,5.1-0.3,3.3,1.8
				c0.8,3,2.1,7.2,0.7,9.9c1,0.9,0.1,1.7,0.1,3.1c-0.4,0.3-0.6,0.3-1.1,0.1C156.9,126.8,155.7,126,156.5,125.4z"/>
		</g>
		<g>
			<rect x="153.7" y="110.7" class="st0" width="4.7" height="16.2"/>
			<path class="st1" d="M156.5,124.6c-0.1-0.4-0.4,0.2-0.7,0c0.3-0.3,0.4-0.8,0.1-1.3c0.4-0.2,0.6-0.5,1.1-0.3
				c-0.7-1.7-0.8-3.6-1.3-4.9c-0.5,0.2-0.8,0-1.1-0.4c2-1.2-0.4-3,0.8-4.3c-0.2-0.9-1.5-0.7-1.8-1.5c0.7-2.6,5.1-0.3,3.3,1.8
				c0.8,3,2.1,7.2,0.7,9.9c1,0.9,0.1,1.7,0.1,3.1c-0.4,0.3-0.6,0.3-1.1,0.1C156.9,126,155.7,125.2,156.5,124.6z"/>
		</g>
		<g>
			<rect x="153.7" y="109.9" class="st0" width="4.7" height="16.2"/>
			<path class="st1" d="M156.5,123.8c-0.1-0.4-0.4,0.2-0.7,0c0.3-0.3,0.4-0.8,0.1-1.3c0.4-0.2,0.6-0.5,1.1-0.3
				c-0.7-1.7-0.8-3.6-1.3-4.9c-0.5,0.2-0.8,0-1.1-0.4c2-1.2-0.4-3,0.8-4.3c-0.2-0.9-1.5-0.7-1.8-1.5c0.7-2.6,5.1-0.3,3.3,1.8
				c0.8,3,2.1,7.2,0.7,9.9c1,0.9,0.1,1.7,0.1,3.1c-0.4,0.3-0.6,0.3-1.1,0.1C156.9,125.2,155.7,124.3,156.5,123.8z"/>
		</g>
		<g>
			<rect x="153.7" y="109.1" class="st0" width="4.7" height="16.2"/>
			<path class="st1" d="M156.5,123c-0.1-0.4-0.4,0.2-0.7,0c0.3-0.3,0.4-0.8,0.1-1.3c0.4-0.2,0.6-0.5,1.1-0.3
				c-0.7-1.7-0.8-3.6-1.3-4.9c-0.5,0.2-0.8,0-1.1-0.4c2-1.2-0.4-3,0.8-4.3c-0.2-0.9-1.5-0.7-1.8-1.5c0.7-2.6,5.1-0.3,3.3,1.8
				c0.8,3,2.1,7.2,0.7,9.9c1,0.9,0.1,1.7,0.1,3.1c-0.4,0.3-0.6,0.3-1.1,0.1C156.9,124.4,155.7,123.5,156.5,123z"/>
		</g>
		<g>
			<rect x="153.7" y="108.3" class="st0" width="4.7" height="16.2"/>
			<path class="st1" d="M156.5,122.2c-0.1-0.4-0.4,0.2-0.7,0c0.3-0.3,0.4-0.8,0.1-1.3c0.4-0.2,0.6-0.5,1.1-0.3
				c-0.7-1.7-0.8-3.6-1.3-4.9c-0.5,0.2-0.8,0-1.1-0.4c2-1.2-0.4-3,0.8-4.3c-0.2-0.9-1.5-0.7-1.8-1.5c0.7-2.6,5.1-0.3,3.3,1.8
				c0.8,3,2.1,7.2,0.7,9.9c1,0.9,0.1,1.7,0.1,3.1c-0.4,0.3-0.6,0.3-1.1,0.1C156.9,123.6,155.7,122.7,156.5,122.2z"/>
		</g>
		<g>
			<rect x="153.7" y="107.5" class="st0" width="4.7" height="16.2"/>
			<path class="st1" d="M156.5,121.4c-0.1-0.4-0.4,0.2-0.7,0c0.3-0.3,0.4-0.8,0.1-1.3c0.4-0.2,0.6-0.5,1.1-0.3
				c-0.7-1.7-0.8-3.6-1.3-4.9c-0.5,0.2-0.8,0-1.1-0.4c2-1.2-0.4-3,0.8-4.3c-0.2-0.9-1.5-0.7-1.8-1.5c0.7-2.6,5.1-0.3,3.3,1.8
				c0.8,3,2.1,7.2,0.7,9.9c1,0.9,0.1,1.7,0.1,3.1c-0.4,0.3-0.6,0.3-1.1,0.1C156.9,122.8,155.7,121.9,156.5,121.4z"/>
		</g>
		<g>
			<rect x="153.7" y="106.7" class="st0" width="4.7" height="16.2"/>
			<path class="st1" d="M156.5,120.5c-0.1-0.4-0.4,0.2-0.7,0c0.3-0.3,0.4-0.8,0.1-1.3c0.4-0.2,0.6-0.5,1.1-0.3
				c-0.7-1.7-0.8-3.6-1.3-4.9c-0.5,0.2-0.8,0-1.1-0.4c2-1.2-0.4-3,0.8-4.3c-0.2-0.9-1.5-0.7-1.8-1.5c0.7-2.6,5.1-0.3,3.3,1.8
				c0.8,3,2.1,7.2,0.7,9.9c1,0.9,0.1,1.7,0.1,3.1c-0.4,0.3-0.6,0.3-1.1,0.1C156.9,122,155.7,121.1,156.5,120.5z"/>
		</g>
		<g>
			<rect x="153.7" y="105.9" class="st0" width="4.7" height="16.2"/>
			<path class="st1" d="M156.5,119.7c-0.1-0.4-0.4,0.2-0.7,0c0.3-0.3,0.4-0.8,0.1-1.3c0.4-0.2,0.6-0.5,1.1-0.3
				c-0.7-1.7-0.8-3.6-1.3-4.9c-0.5,0.2-0.8,0-1.1-0.4c2-1.2-0.4-3,0.8-4.3c-0.2-0.9-1.5-0.7-1.8-1.5c0.7-2.6,5.1-0.3,3.3,1.8
				c0.8,3,2.1,7.2,0.7,9.9c1,0.9,0.1,1.7,0.1,3.1c-0.4,0.3-0.6,0.3-1.1,0.1C156.9,121.1,155.7,120.3,156.5,119.7z"/>
		</g>
		<g>
			<rect x="153.7" y="105" class="st0" width="4.7" height="16.2"/>
			<path class="st1" d="M156.5,118.9c-0.1-0.4-0.4,0.2-0.7,0c0.3-0.3,0.4-0.8,0.1-1.3c0.4-0.2,0.6-0.5,1.1-0.3
				c-0.7-1.7-0.8-3.6-1.3-4.9c-0.5,0.2-0.8,0-1.1-0.4c2-1.2-0.4-3,0.8-4.3c-0.2-0.9-1.5-0.7-1.8-1.5c0.7-2.6,5.1-0.3,3.3,1.8
				c0.8,3,2.1,7.2,0.7,9.9c1,0.9,0.1,1.7,0.1,3.1c-0.4,0.3-0.6,0.3-1.1,0.1C156.9,120.3,155.7,119.5,156.5,118.9z"/>
		</g>
		<g>
			<rect x="153.7" y="104.2" class="st0" width="4.7" height="16.2"/>
			<path class="st1" d="M156.5,118.1c-0.1-0.4-0.4,0.2-0.7,0c0.3-0.3,0.4-0.8,0.1-1.3c0.4-0.2,0.6-0.5,1.1-0.3
				c-0.7-1.7-0.8-3.6-1.3-4.9c-0.5,0.2-0.8,0-1.1-0.4c2-1.2-0.4-3,0.8-4.3c-0.2-0.9-1.5-0.7-1.8-1.5c0.7-2.6,5.1-0.3,3.3,1.8
				c0.8,3,2.1,7.2,0.7,9.9c1,0.9,0.1,1.7,0.1,3.1c-0.4,0.3-0.6,0.3-1.1,0.1C156.9,119.5,155.7,118.7,156.5,118.1z"/>
		</g>
		<g>
			<rect x="153.7" y="103.4" class="st0" width="4.7" height="16.2"/>
			<path class="st1" d="M156.5,117.3c-0.1-0.4-0.4,0.2-0.7,0c0.3-0.3,0.4-0.8,0.1-1.3c0.4-0.2,0.6-0.5,1.1-0.3
				c-0.7-1.7-0.8-3.6-1.3-4.9c-0.5,0.2-0.8,0-1.1-0.4c2-1.2-0.4-3,0.8-4.3c-0.2-0.9-1.5-0.7-1.8-1.5c0.7-2.6,5.1-0.3,3.3,1.8
				c0.8,3,2.1,7.2,0.7,9.9c1,0.9,0.1,1.7,0.1,3.1c-0.4,0.3-0.6,0.3-1.1,0.1C156.9,118.7,155.7,117.9,156.5,117.3z"/>
		</g>
		<g>
			<rect x="153.7" y="102.6" class="st0" width="4.7" height="16.2"/>
			<path class="st1" d="M156.5,116.5c-0.1-0.4-0.4,0.2-0.7,0c0.3-0.3,0.4-0.8,0.1-1.3c0.4-0.2,0.6-0.5,1.1-0.3
				c-0.7-1.7-0.8-3.6-1.3-4.9c-0.5,0.2-0.8,0-1.1-0.4c2-1.2-0.4-3,0.8-4.3c-0.2-0.9-1.5-0.7-1.8-1.5c0.7-2.6,5.1-0.3,3.3,1.8
				c0.8,3,2.1,7.2,0.7,9.9c1,0.9,0.1,1.7,0.1,3.1c-0.4,0.3-0.6,0.3-1.1,0.1C156.9,117.9,155.7,117.1,156.5,116.5z"/>
		</g>
		<g>
			<rect x="153.7" y="101.8" class="st0" width="4.7" height="16.2"/>
			<path class="st1" d="M156.5,115.7c-0.1-0.4-0.4,0.2-0.7,0c0.3-0.3,0.4-0.8,0.1-1.3c0.4-0.2,0.6-0.5,1.1-0.3
				c-0.7-1.7-0.8-3.6-1.3-4.9c-0.5,0.2-0.8,0-1.1-0.4c2-1.2-0.4-3,0.8-4.3c-0.2-0.9-1.5-0.7-1.8-1.5c0.7-2.6,5.1-0.3,3.3,1.8
				c0.8,3,2.1,7.2,0.7,9.9c1,0.9,0.1,1.7,0.1,3.1c-0.4,0.3-0.6,0.3-1.1,0.1C156.9,117.1,155.7,116.3,156.5,115.7z"/>
		</g>
		<g>
			<rect x="153.7" y="101" class="st0" width="4.7" height="16.2"/>
			<path class="st1" d="M156.5,114.9c-0.1-0.4-0.4,0.2-0.7,0c0.3-0.3,0.4-0.8,0.1-1.3c0.4-0.2,0.6-0.5,1.1-0.3
				c-0.7-1.7-0.8-3.6-1.3-4.9c-0.5,0.2-0.8,0-1.1-0.4c2-1.2-0.4-3,0.8-4.3c-0.2-0.9-1.5-0.7-1.8-1.5c0.7-2.6,5.1-0.3,3.3,1.8
				c0.8,3,2.1,7.2,0.7,9.9c1,0.9,0.1,1.7,0.1,3.1c-0.4,0.3-0.6,0.3-1.1,0.1C156.9,116.3,155.7,115.4,156.5,114.9z"/>
		</g>
		<g>
			<rect x="153.7" y="100.2" class="st0" width="4.7" height="16.2"/>
			<path class="st1" d="M156.5,114.1c-0.1-0.4-0.4,0.2-0.7,0c0.3-0.3,0.4-0.8,0.1-1.3c0.4-0.2,0.6-0.5,1.1-0.3
				c-0.7-1.7-0.8-3.6-1.3-4.9c-0.5,0.2-0.8,0-1.1-0.4c2-1.2-0.4-3,0.8-4.3c-0.2-0.9-1.5-0.7-1.8-1.5c0.7-2.6,5.1-0.3,3.3,1.8
				c0.8,3,2.1,7.2,0.7,9.9c1,0.9,0.1,1.7,0.1,3.1c-0.4,0.3-0.6,0.3-1.1,0.1C156.9,115.5,155.7,114.6,156.5,114.1z"/>
		</g>
		<g>
			<rect x="153.7" y="99.4" class="st0" width="4.7" height="16.2"/>
			<path class="st1" d="M156.5,113.3c-0.1-0.4-0.4,0.2-0.7,0c0.3-0.3,0.4-0.8,0.1-1.3c0.4-0.2,0.6-0.5,1.1-0.3
				c-0.7-1.7-0.8-3.6-1.3-4.9c-0.5,0.2-0.8,0-1.1-0.4c2-1.2-0.4-3,0.8-4.3c-0.2-0.9-1.5-0.7-1.8-1.5c0.7-2.6,5.1-0.3,3.3,1.8
				c0.8,3,2.1,7.2,0.7,9.9c1,0.9,0.1,1.7,0.1,3.1c-0.4,0.3-0.6,0.3-1.1,0.1C156.9,114.7,155.7,113.8,156.5,113.3z"/>
		</g>
		<g>
			<rect x="153.7" y="98.6" class="st0" width="4.7" height="16.2"/>
			<path class="st1" d="M156.5,112.4c-0.1-0.4-0.4,0.2-0.7,0c0.3-0.3,0.4-0.8,0.1-1.3c0.4-0.2,0.6-0.5,1.1-0.3
				c-0.7-1.7-0.8-3.6-1.3-4.9c-0.5,0.2-0.8,0-1.1-0.4c2-1.2-0.4-3,0.8-4.3c-0.2-0.9-1.5-0.7-1.8-1.5c0.7-2.6,5.1-0.3,3.3,1.8
				c0.8,3,2.1,7.2,0.7,9.9c1,0.9,0.1,1.7,0.1,3.1c-0.4,0.3-0.6,0.3-1.1,0.1C156.9,113.9,155.7,113,156.5,112.4z"/>
		</g>
		<g>
			<rect x="153.7" y="97.8" class="st0" width="4.7" height="16.2"/>
			<path class="st1" d="M156.5,111.6c-0.1-0.4-0.4,0.2-0.7,0c0.3-0.3,0.4-0.8,0.1-1.3c0.4-0.2,0.6-0.5,1.1-0.3
				c-0.7-1.7-0.8-3.6-1.3-4.9c-0.5,0.2-0.8,0-1.1-0.4c2-1.2-0.4-3,0.8-4.3c-0.2-0.9-1.5-0.7-1.8-1.5c0.7-2.6,5.1-0.3,3.3,1.8
				c0.8,3,2.1,7.2,0.7,9.9c1,0.9,0.1,1.7,0.1,3.1c-0.4,0.3-0.6,0.3-1.1,0.1C156.9,113.1,155.7,112.2,156.5,111.6z"/>
		</g>
		<g>
			<rect x="153.7" y="97" class="st0" width="4.7" height="16.2"/>
			<path class="st1" d="M156.5,110.8c-0.1-0.4-0.4,0.2-0.7,0c0.3-0.3,0.4-0.8,0.1-1.3c0.4-0.2,0.6-0.5,1.1-0.3
				c-0.7-1.7-0.8-3.6-1.3-4.9c-0.5,0.2-0.8,0-1.1-0.4c2-1.2-0.4-3,0.8-4.3c-0.2-0.9-1.5-0.7-1.8-1.5c0.7-2.6,5.1-0.3,3.3,1.8
				c0.8,3,2.1,7.2,0.7,9.9c1,0.9,0.1,1.7,0.1,3.1c-0.4,0.3-0.6,0.3-1.1,0.1C156.9,112.2,155.7,111.4,156.5,110.8z"/>
		</g>
		<g>
			<rect x="153.7" y="96.1" class="st0" width="4.7" height="16.2"/>
			<path class="st1" d="M156.5,110c-0.1-0.4-0.4,0.2-0.7,0c0.3-0.3,0.4-0.8,0.1-1.3c0.4-0.2,0.6-0.5,1.1-0.3
				c-0.7-1.7-0.8-3.6-1.3-4.9c-0.5,0.2-0.8,0-1.1-0.4c2-1.2-0.4-3,0.8-4.3c-0.2-0.9-1.5-0.7-1.8-1.5c0.7-2.6,5.1-0.3,3.3,1.8
				c0.8,3,2.1,7.2,0.7,9.9c1,0.9,0.1,1.7,0.1,3.1c-0.4,0.3-0.6,0.3-1.1,0.1C156.9,111.4,155.7,110.6,156.5,110z"/>
		</g>
		<g>
			<rect x="153.7" y="95.3" class="st0" width="4.7" height="16.2"/>
			<path class="st1" d="M156.5,109.2c-0.1-0.4-0.4,0.2-0.7,0c0.3-0.3,0.4-0.8,0.1-1.3c0.4-0.2,0.6-0.5,1.1-0.3
				c-0.7-1.7-0.8-3.6-1.3-4.9c-0.5,0.2-0.8,0-1.1-0.4c2-1.2-0.4-3,0.8-4.3c-0.2-0.9-1.5-0.7-1.8-1.5c0.7-2.6,5.1-0.3,3.3,1.8
				c0.8,3,2.1,7.2,0.7,9.9c1,0.9,0.1,1.7,0.1,3.1c-0.4,0.3-0.6,0.3-1.1,0.1C156.9,110.6,155.7,109.8,156.5,109.2z"/>
		</g>
		<g>
			<rect x="153.7" y="94.5" class="st0" width="4.7" height="16.2"/>
			<path class="st1" d="M156.5,108.4c-0.1-0.4-0.4,0.2-0.7,0c0.3-0.3,0.4-0.8,0.1-1.3c0.4-0.2,0.6-0.5,1.1-0.3
				c-0.7-1.7-0.8-3.6-1.3-4.9c-0.5,0.2-0.8,0-1.1-0.4c2-1.2-0.4-3,0.8-4.3c-0.2-0.9-1.5-0.7-1.8-1.5c0.7-2.6,5.1-0.3,3.3,1.8
				c0.8,3,2.1,7.2,0.7,9.9c1,0.9,0.1,1.7,0.1,3.1c-0.4,0.3-0.6,0.3-1.1,0.1C156.9,109.8,155.7,109,156.5,108.4z"/>
		</g>
		<g>
			<rect x="153.7" y="93.7" class="st0" width="4.7" height="16.2"/>
			<path class="st1" d="M156.5,107.6c-0.1-0.4-0.4,0.2-0.7,0c0.3-0.3,0.4-0.8,0.1-1.3c0.4-0.2,0.6-0.5,1.1-0.3
				c-0.7-1.7-0.8-3.6-1.3-4.9c-0.5,0.2-0.8,0-1.1-0.4c2-1.2-0.4-3,0.8-4.3c-0.2-0.9-1.5-0.7-1.8-1.5c0.7-2.6,5.1-0.3,3.3,1.8
				c0.8,3,2.1,7.2,0.7,9.9c1,0.9,0.1,1.7,0.1,3.1c-0.4,0.3-0.6,0.3-1.1,0.1C156.9,109,155.7,108.2,156.5,107.6z"/>
		</g>
		<g>
			<rect x="153.7" y="92.9" class="st0" width="4.7" height="16.2"/>
			<path class="st1" d="M156.5,106.8c-0.1-0.4-0.4,0.2-0.7,0c0.3-0.3,0.4-0.8,0.1-1.3c0.4-0.2,0.6-0.5,1.1-0.3
				c-0.7-1.7-0.8-3.6-1.3-4.9c-0.5,0.2-0.8,0-1.1-0.4c2-1.2-0.4-3,0.8-4.3c-0.2-0.9-1.5-0.7-1.8-1.5c0.7-2.6,5.1-0.3,3.3,1.8
				c0.8,3,2.1,7.2,0.7,9.9c1,0.9,0.1,1.7,0.1,3.1c-0.4,0.3-0.6,0.3-1.1,0.1C156.9,108.2,155.7,107.3,156.5,106.8z"/>
		</g>
		<g>
			<rect x="153.7" y="92.1" class="st0" width="4.7" height="16.2"/>
			<path class="st1" d="M156.5,106c-0.1-0.4-0.4,0.2-0.7,0c0.3-0.3,0.4-0.8,0.1-1.3c0.4-0.2,0.6-0.5,1.1-0.3
				c-0.7-1.7-0.8-3.6-1.3-4.9c-0.5,0.2-0.8,0-1.1-0.4c2-1.2-0.4-3,0.8-4.3c-0.2-0.9-1.5-0.7-1.8-1.5c0.7-2.6,5.1-0.3,3.3,1.8
				c0.8,3,2.1,7.2,0.7,9.9c1,0.9,0.1,1.7,0.1,3.1c-0.4,0.3-0.6,0.3-1.1,0.1C156.9,107.4,155.7,106.5,156.5,106z"/>
		</g>
		<g>
			<rect x="153.7" y="91.3" class="st0" width="4.7" height="16.2"/>
			<path class="st1" d="M156.5,105.2c-0.1-0.4-0.4,0.2-0.7,0c0.3-0.3,0.4-0.8,0.1-1.3c0.4-0.2,0.6-0.5,1.1-0.3
				c-0.7-1.7-0.8-3.6-1.3-4.9c-0.5,0.2-0.8,0-1.1-0.4c2-1.2-0.4-3,0.8-4.3c-0.2-0.9-1.5-0.7-1.8-1.5c0.7-2.6,5.1-0.3,3.3,1.8
				c0.8,3,2.1,7.2,0.7,9.9c1,0.9,0.1,1.7,0.1,3.1c-0.4,0.3-0.6,0.3-1.1,0.1C156.9,106.6,155.7,105.7,156.5,105.2z"/>
		</g>
		<g>
			<rect x="153.7" y="90.5" class="st0" width="4.7" height="16.2"/>
			<path class="st1" d="M156.5,104.4c-0.1-0.4-0.4,0.2-0.7,0c0.3-0.3,0.4-0.8,0.1-1.3c0.4-0.2,0.6-0.5,1.1-0.3
				c-0.7-1.7-0.8-3.6-1.3-4.9c-0.5,0.2-0.8,0-1.1-0.4c2-1.2-0.4-3,0.8-4.3c-0.2-0.9-1.5-0.7-1.8-1.5c0.7-2.6,5.1-0.3,3.3,1.8
				c0.8,3,2.1,7.2,0.7,9.9c1,0.9,0.1,1.7,0.1,3.1c-0.4,0.3-0.6,0.3-1.1,0.1C156.9,105.8,155.7,104.9,156.5,104.4z"/>
		</g>
		<g>
			<rect x="153.7" y="89.7" class="st0" width="4.7" height="16.2"/>
			<path class="st1" d="M156.5,103.5c-0.1-0.4-0.4,0.2-0.7,0c0.3-0.3,0.4-0.8,0.1-1.3c0.4-0.2,0.6-0.5,1.1-0.3
				c-0.7-1.7-0.8-3.6-1.3-4.9c-0.5,0.2-0.8,0-1.1-0.4c2-1.2-0.4-3,0.8-4.3c-0.2-0.9-1.5-0.7-1.8-1.5c0.7-2.6,5.1-0.3,3.3,1.8
				c0.8,3,2.1,7.2,0.7,9.9c1,0.9,0.1,1.7,0.1,3.1c-0.4,0.3-0.6,0.3-1.1,0.1C156.9,105,155.7,104.1,156.5,103.5z"/>
		</g>
		<g>
			<rect x="153.7" y="88.9" class="st0" width="4.7" height="16.2"/>
			<path class="st1" d="M156.5,102.7c-0.1-0.4-0.4,0.2-0.7,0c0.3-0.3,0.4-0.8,0.1-1.3c0.4-0.2,0.6-0.5,1.1-0.3
				c-0.7-1.7-0.8-3.6-1.3-4.9c-0.5,0.2-0.8,0-1.1-0.4c2-1.2-0.4-3,0.8-4.3c-0.2-0.9-1.5-0.7-1.8-1.5c0.7-2.6,5.1-0.3,3.3,1.8
				c0.8,3,2.1,7.2,0.7,9.9c1,0.9,0.1,1.7,0.1,3.1c-0.4,0.3-0.6,0.3-1.1,0.1C156.9,104.1,155.7,103.3,156.5,102.7z"/>
		</g>
		<g>
			<rect x="153.7" y="88" class="st0" width="4.7" height="16.2"/>
			<path class="st1" d="M156.5,101.9c-0.1-0.4-0.4,0.2-0.7,0c0.3-0.3,0.4-0.8,0.1-1.3c0.4-0.2,0.6-0.5,1.1-0.3
				c-0.7-1.7-0.8-3.6-1.3-4.9c-0.5,0.2-0.8,0-1.1-0.4c2-1.2-0.4-3,0.8-4.3c-0.2-0.9-1.5-0.7-1.8-1.5c0.7-2.6,5.1-0.3,3.3,1.8
				c0.8,3,2.1,7.2,0.7,9.9c1,0.9,0.1,1.7,0.1,3.1c-0.4,0.3-0.6,0.3-1.1,0.1C156.9,103.3,155.7,102.5,156.5,101.9z"/>
		</g>
		<g>
			<rect x="153.7" y="87.2" class="st0" width="4.7" height="16.2"/>
			<path class="st1" d="M156.5,101.1c-0.1-0.4-0.4,0.2-0.7,0c0.3-0.3,0.4-0.8,0.1-1.3c0.4-0.2,0.6-0.5,1.1-0.3
				c-0.7-1.7-0.8-3.6-1.3-4.9c-0.5,0.2-0.8,0-1.1-0.4c2-1.2-0.4-3,0.8-4.3c-0.2-0.9-1.5-0.7-1.8-1.5c0.7-2.6,5.1-0.3,3.3,1.8
				c0.8,3,2.1,7.2,0.7,9.9c1,0.9,0.1,1.7,0.1,3.1c-0.4,0.3-0.6,0.3-1.1,0.1C156.9,102.5,155.7,101.7,156.5,101.1z"/>
		</g>
		<g>
			<rect x="153.7" y="86.4" class="st0" width="4.7" height="16.2"/>
			<path class="st1" d="M156.5,100.3c-0.1-0.4-0.4,0.2-0.7,0c0.3-0.3,0.4-0.8,0.1-1.3c0.4-0.2,0.6-0.5,1.1-0.3
				c-0.7-1.7-0.8-3.6-1.3-4.9c-0.5,0.2-0.8,0-1.1-0.4c2-1.2-0.4-3,0.8-4.3c-0.2-0.9-1.5-0.7-1.8-1.5c0.7-2.6,5.1-0.3,3.3,1.8
				c0.8,3,2.1,7.2,0.7,9.9c1,0.9,0.1,1.7,0.1,3.1c-0.4,0.3-0.6,0.3-1.1,0.1C156.9,101.7,155.7,100.9,156.5,100.3z"/>
		</g>
		<g>
			<rect x="153.7" y="85.6" class="st0" width="4.7" height="16.2"/>
			<path class="st1" d="M156.5,99.5c-0.1-0.4-0.4,0.2-0.7,0c0.3-0.3,0.4-0.8,0.1-1.3c0.4-0.2,0.6-0.5,1.1-0.3
				c-0.7-1.7-0.8-3.6-1.3-4.9c-0.5,0.2-0.8,0-1.1-0.4c2-1.2-0.4-3,0.8-4.3c-0.2-0.9-1.5-0.7-1.8-1.5c0.7-2.6,5.1-0.3,3.3,1.8
				c0.8,3,2.1,7.2,0.7,9.9c1,0.9,0.1,1.7,0.1,3.1c-0.4,0.3-0.6,0.3-1.1,0.1C156.9,100.9,155.7,100.1,156.5,99.5z"/>
		</g>
		<g>
			<rect x="153.7" y="84.8" class="st0" width="4.7" height="16.2"/>
			<path class="st1" d="M156.5,98.7c-0.1-0.4-0.4,0.2-0.7,0c0.3-0.3,0.4-0.8,0.1-1.3c0.4-0.2,0.6-0.5,1.1-0.3
				c-0.7-1.7-0.8-3.6-1.3-4.9c-0.5,0.2-0.8,0-1.1-0.4c2-1.2-0.4-3,0.8-4.3c-0.2-0.9-1.5-0.7-1.8-1.5c0.7-2.6,5.1-0.3,3.3,1.8
				c0.8,3,2.1,7.2,0.7,9.9c1,0.9,0.1,1.7,0.1,3.1c-0.4,0.3-0.6,0.3-1.1,0.1C156.9,100.1,155.7,99.3,156.5,98.7z"/>
		</g>
		<g>
			<rect x="153.7" y="84" class="st0" width="4.7" height="16.2"/>
			<path class="st1" d="M156.5,97.9c-0.1-0.4-0.4,0.2-0.7,0c0.3-0.3,0.4-0.8,0.1-1.3c0.4-0.2,0.6-0.5,1.1-0.3
				c-0.7-1.7-0.8-3.6-1.3-4.9c-0.5,0.2-0.8,0-1.1-0.4c2-1.2-0.4-3,0.8-4.3c-0.2-0.9-1.5-0.7-1.8-1.5c0.7-2.6,5.1-0.3,3.3,1.8
				c0.8,3,2.1,7.2,0.7,9.9c1,0.9,0.1,1.7,0.1,3.1c-0.4,0.3-0.6,0.3-1.1,0.1C156.9,99.3,155.7,98.4,156.5,97.9z"/>
		</g>
		<g>
			<rect x="153.7" y="83.2" class="st0" width="4.7" height="16.2"/>
			<path class="st1" d="M156.5,97.1c-0.1-0.4-0.4,0.2-0.7,0c0.3-0.3,0.4-0.8,0.1-1.3c0.4-0.2,0.6-0.5,1.1-0.3
				c-0.7-1.7-0.8-3.6-1.3-4.9c-0.5,0.2-0.8,0-1.1-0.4c2-1.2-0.4-3,0.8-4.3c-0.2-0.9-1.5-0.7-1.8-1.5c0.7-2.6,5.1-0.3,3.3,1.8
				c0.8,3,2.1,7.2,0.7,9.9c1,0.9,0.1,1.7,0.1,3.1c-0.4,0.3-0.6,0.3-1.1,0.1C156.9,98.5,155.7,97.6,156.5,97.1z"/>
		</g>
		<g>
			<rect x="153.7" y="82.4" class="st0" width="4.7" height="16.2"/>
			<path class="st1" d="M156.5,96.3c-0.1-0.4-0.4,0.2-0.7,0c0.3-0.3,0.4-0.8,0.1-1.3c0.4-0.2,0.6-0.5,1.1-0.3
				c-0.7-1.7-0.8-3.6-1.3-4.9c-0.5,0.2-0.8,0-1.1-0.4c2-1.2-0.4-3,0.8-4.3c-0.2-0.9-1.5-0.7-1.8-1.5c0.7-2.6,5.1-0.3,3.3,1.8
				c0.8,3,2.1,7.2,0.7,9.9c1,0.9,0.1,1.7,0.1,3.1c-0.4,0.3-0.6,0.3-1.1,0.1C156.9,97.7,155.7,96.8,156.5,96.3z"/>
		</g>
		<g>
			<rect x="153.7" y="81.6" class="st0" width="4.7" height="16.2"/>
			<path class="st1" d="M156.5,95.4c-0.1-0.4-0.4,0.2-0.7,0c0.3-0.3,0.4-0.8,0.1-1.3c0.4-0.2,0.6-0.5,1.1-0.3
				c-0.7-1.7-0.8-3.6-1.3-4.9c-0.5,0.2-0.8,0-1.1-0.4c2-1.2-0.4-3,0.8-4.3c-0.2-0.9-1.5-0.7-1.8-1.5c0.7-2.6,5.1-0.3,3.3,1.8
				c0.8,3,2.1,7.2,0.7,9.9c1,0.9,0.1,1.7,0.1,3.1c-0.4,0.3-0.6,0.3-1.1,0.1C156.9,96.9,155.7,96,156.5,95.4z"/>
		</g>
		<g>
			<rect x="153.7" y="80.8" class="st0" width="4.7" height="16.2"/>
			<path class="st1" d="M156.5,94.6c-0.1-0.4-0.4,0.2-0.7,0c0.3-0.3,0.4-0.8,0.1-1.3c0.4-0.2,0.6-0.5,1.1-0.3
				c-0.7-1.7-0.8-3.6-1.3-4.9c-0.5,0.2-0.8,0-1.1-0.4c2-1.2-0.4-3,0.8-4.3c-0.2-0.9-1.5-0.7-1.8-1.5c0.7-2.6,5.1-0.3,3.3,1.8
				c0.8,3,2.1,7.2,0.7,9.9c1,0.9,0.1,1.7,0.1,3.1c-0.4,0.3-0.6,0.3-1.1,0.1C156.9,96.1,155.7,95.2,156.5,94.6z"/>
		</g>
		<g>
			<rect x="153.7" y="80" class="st0" width="4.7" height="16.2"/>
			<path class="st1" d="M156.5,93.8c-0.1-0.4-0.4,0.2-0.7,0c0.3-0.3,0.4-0.8,0.1-1.3c0.4-0.2,0.6-0.5,1.1-0.3
				c-0.7-1.7-0.8-3.6-1.3-4.9c-0.5,0.2-0.8,0-1.1-0.4c2-1.2-0.4-3,0.8-4.3c-0.2-0.9-1.5-0.7-1.8-1.5c0.7-2.6,5.1-0.3,3.3,1.8
				c0.8,3,2.1,7.2,0.7,9.9c1,0.9,0.1,1.7,0.1,3.1c-0.4,0.3-0.6,0.3-1.1,0.1C156.9,95.2,155.7,94.4,156.5,93.8z"/>
		</g>
		<g>
			<rect x="153.7" y="79.1" class="st0" width="4.7" height="16.2"/>
			<path class="st1" d="M156.5,93c-0.1-0.4-0.4,0.2-0.7,0c0.3-0.3,0.4-0.8,0.1-1.3c0.4-0.2,0.6-0.5,1.1-0.3
				c-0.7-1.7-0.8-3.6-1.3-4.9c-0.5,0.2-0.8,0-1.1-0.4c2-1.2-0.4-3,0.8-4.3c-0.2-0.9-1.5-0.7-1.8-1.5c0.7-2.6,5.1-0.3,3.3,1.8
				c0.8,3,2.1,7.2,0.7,9.9c1,0.9,0.1,1.7,0.1,3.1c-0.4,0.3-0.6,0.3-1.1,0.1C156.9,94.4,155.7,93.6,156.5,93z"/>
		</g>
		<g>
			<rect x="153.7" y="78.3" class="st0" width="4.7" height="16.2"/>
			<path class="st1" d="M156.5,92.2c-0.1-0.4-0.4,0.2-0.7,0c0.3-0.3,0.4-0.8,0.1-1.3c0.4-0.2,0.6-0.5,1.1-0.3
				c-0.7-1.7-0.8-3.6-1.3-4.9c-0.5,0.2-0.8,0-1.1-0.4c2-1.2-0.4-3,0.8-4.3c-0.2-0.9-1.5-0.7-1.8-1.5c0.7-2.6,5.1-0.3,3.3,1.8
				c0.8,3,2.1,7.2,0.7,9.9c1,0.9,0.1,1.7,0.1,3.1c-0.4,0.3-0.6,0.3-1.1,0.1C156.9,93.6,155.7,92.8,156.5,92.2z"/>
		</g>
		<g>
			<rect x="153.7" y="77.5" class="st0" width="4.7" height="16.2"/>
			<path class="st1" d="M156.5,91.4c-0.1-0.4-0.4,0.2-0.7,0c0.3-0.3,0.4-0.8,0.1-1.3c0.4-0.2,0.6-0.5,1.1-0.3
				c-0.7-1.7-0.8-3.6-1.3-4.9c-0.5,0.2-0.8,0-1.1-0.4c2-1.2-0.4-3,0.8-4.3c-0.2-0.9-1.5-0.7-1.8-1.5c0.7-2.6,5.1-0.3,3.3,1.8
				c0.8,3,2.1,7.2,0.7,9.9c1,0.9,0.1,1.7,0.1,3.1c-0.4,0.3-0.6,0.3-1.1,0.1C156.9,92.8,155.7,92,156.5,91.4z"/>
		</g>
		<g>
			<rect x="153.7" y="76.7" class="st0" width="4.7" height="16.2"/>
			<path class="st1" d="M156.5,90.6c-0.1-0.4-0.4,0.2-0.7,0c0.3-0.3,0.4-0.8,0.1-1.3c0.4-0.2,0.6-0.5,1.1-0.3
				c-0.7-1.7-0.8-3.6-1.3-4.9c-0.5,0.2-0.8,0-1.1-0.4c2-1.2-0.4-3,0.8-4.3c-0.2-0.9-1.5-0.7-1.8-1.5c0.7-2.6,5.1-0.3,3.3,1.8
				c0.8,3,2.1,7.2,0.7,9.9c1,0.9,0.1,1.7,0.1,3.1c-0.4,0.3-0.6,0.3-1.1,0.1C156.9,92,155.7,91.2,156.5,90.6z"/>
		</g>
		<g>
			<rect x="153.7" y="75.9" class="st0" width="4.7" height="16.2"/>
			<path class="st1" d="M156.5,89.8c-0.1-0.4-0.4,0.2-0.7,0c0.3-0.3,0.4-0.8,0.1-1.3c0.4-0.2,0.6-0.5,1.1-0.3
				c-0.7-1.7-0.8-3.6-1.3-4.9c-0.5,0.2-0.8,0-1.1-0.4c2-1.2-0.4-3,0.8-4.3c-0.2-0.9-1.5-0.7-1.8-1.5c0.7-2.6,5.1-0.3,3.3,1.8
				c0.8,3,2.1,7.2,0.7,9.9c1,0.9,0.1,1.7,0.1,3.1c-0.4,0.3-0.6,0.3-1.1,0.1C156.9,91.2,155.7,90.3,156.5,89.8z"/>
		</g>
		<g>
			<rect x="153.7" y="75.1" class="st0" width="4.7" height="16.2"/>
			<path class="st1" d="M156.5,89c-0.1-0.4-0.4,0.2-0.7,0c0.3-0.3,0.4-0.8,0.1-1.3c0.4-0.2,0.6-0.5,1.1-0.3
				c-0.7-1.7-0.8-3.6-1.3-4.9c-0.5,0.2-0.8,0-1.1-0.4c2-1.2-0.4-3,0.8-4.3c-0.2-0.9-1.5-0.7-1.8-1.5c0.7-2.6,5.1-0.3,3.3,1.8
				c0.8,3,2.1,7.2,0.7,9.9c1,0.9,0.1,1.7,0.1,3.1c-0.4,0.3-0.6,0.3-1.1,0.1C156.9,90.4,155.7,89.5,156.5,89z"/>
		</g>
		<g>
			<rect x="153.7" y="74.3" class="st0" width="4.7" height="16.2"/>
			<path class="st1" d="M156.5,88.2c-0.1-0.4-0.4,0.2-0.7,0c0.3-0.3,0.4-0.8,0.1-1.3c0.4-0.2,0.6-0.5,1.1-0.3
				c-0.7-1.7-0.8-3.6-1.3-4.9c-0.5,0.2-0.8,0-1.1-0.4c2-1.2-0.4-3,0.8-4.3c-0.2-0.9-1.5-0.7-1.8-1.5c0.7-2.6,5.1-0.3,3.3,1.8
				c0.8,3,2.1,7.2,0.7,9.9c1,0.9,0.1,1.7,0.1,3.1c-0.4,0.3-0.6,0.3-1.1,0.1C156.9,89.6,155.7,88.7,156.5,88.2z"/>
		</g>
		<g>
			<rect x="153.7" y="73.5" class="st0" width="4.7" height="16.2"/>
			<path class="st1" d="M156.5,87.4c-0.1-0.4-0.4,0.2-0.7,0c0.3-0.3,0.4-0.8,0.1-1.3c0.4-0.2,0.6-0.5,1.1-0.3
				c-0.7-1.7-0.8-3.6-1.3-4.9c-0.5,0.2-0.8,0-1.1-0.4c2-1.2-0.4-3,0.8-4.3c-0.2-0.9-1.5-0.7-1.8-1.5c0.7-2.6,5.1-0.3,3.3,1.8
				c0.8,3,2.1,7.2,0.7,9.9c1,0.9,0.1,1.7,0.1,3.1c-0.4,0.3-0.6,0.3-1.1,0.1C156.9,88.8,155.7,87.9,156.5,87.4z"/>
		</g>
		<g>
			<rect x="153.7" y="72.7" class="st0" width="4.7" height="16.2"/>
			<path class="st1" d="M156.5,86.5c-0.1-0.4-0.4,0.2-0.7,0c0.3-0.3,0.4-0.8,0.1-1.3c0.4-0.2,0.6-0.5,1.1-0.3
				c-0.7-1.7-0.8-3.6-1.3-4.9c-0.5,0.2-0.8,0-1.1-0.4c2-1.2-0.4-3,0.8-4.3c-0.2-0.9-1.5-0.7-1.8-1.5c0.7-2.6,5.1-0.3,3.3,1.8
				c0.8,3,2.1,7.2,0.7,9.9c1,0.9,0.1,1.7,0.1,3.1c-0.4,0.3-0.6,0.3-1.1,0.1C156.9,88,155.7,87.1,156.5,86.5z"/>
		</g>
		<g>
			<rect x="153.7" y="71.9" class="st0" width="4.7" height="16.2"/>
			<path class="st1" d="M156.5,85.7c-0.1-0.4-0.4,0.2-0.7,0c0.3-0.3,0.4-0.8,0.1-1.3c0.4-0.2,0.6-0.5,1.1-0.3
				c-0.7-1.7-0.8-3.6-1.3-4.9c-0.5,0.2-0.8,0-1.1-0.4c2-1.2-0.4-3,0.8-4.3c-0.2-0.9-1.5-0.7-1.8-1.5c0.7-2.6,5.1-0.3,3.3,1.8
				c0.8,3,2.1,7.2,0.7,9.9c1,0.9,0.1,1.7,0.1,3.1c-0.4,0.3-0.6,0.3-1.1,0.1C156.9,87.1,155.7,86.3,156.5,85.7z"/>
		</g>
		<g>
			<rect x="153.7" y="71" class="st0" width="4.7" height="16.2"/>
			<path class="st1" d="M156.5,84.9c-0.1-0.4-0.4,0.2-0.7,0c0.3-0.3,0.4-0.8,0.1-1.3c0.4-0.2,0.6-0.5,1.1-0.3
				c-0.7-1.7-0.8-3.6-1.3-4.9c-0.5,0.2-0.8,0-1.1-0.4c2-1.2-0.4-3,0.8-4.3c-0.2-0.9-1.5-0.7-1.8-1.5c0.7-2.6,5.1-0.3,3.3,1.8
				c0.8,3,2.1,7.2,0.7,9.9c1,0.9,0.1,1.7,0.1,3.1c-0.4,0.3-0.6,0.3-1.1,0.1C156.9,86.3,155.7,85.5,156.5,84.9z"/>
		</g>
		<g>
			<rect x="153.7" y="70.2" class="st0" width="4.7" height="16.2"/>
			<path class="st1" d="M156.5,84.1c-0.1-0.4-0.4,0.2-0.7,0c0.3-0.3,0.4-0.8,0.1-1.3c0.4-0.2,0.6-0.5,1.1-0.3
				c-0.7-1.7-0.8-3.6-1.3-4.9c-0.5,0.2-0.8,0-1.1-0.4c2-1.2-0.4-3,0.8-4.3c-0.2-0.9-1.5-0.7-1.8-1.5c0.7-2.6,5.1-0.3,3.3,1.8
				c0.8,3,2.1,7.2,0.7,9.9c1,0.9,0.1,1.7,0.1,3.1c-0.4,0.3-0.6,0.3-1.1,0.1C156.9,85.5,155.7,84.7,156.5,84.1z"/>
		</g>
		<g>
			<rect x="153.7" y="69.4" class="st0" width="4.7" height="16.2"/>
			<path class="st1" d="M156.5,83.3c-0.1-0.4-0.4,0.2-0.7,0c0.3-0.3,0.4-0.8,0.1-1.3c0.4-0.2,0.6-0.5,1.1-0.3
				c-0.7-1.7-0.8-3.6-1.3-4.9c-0.5,0.2-0.8,0-1.1-0.4c2-1.2-0.4-3,0.8-4.3c-0.2-0.9-1.5-0.7-1.8-1.5c0.7-2.6,5.1-0.3,3.3,1.8
				c0.8,3,2.1,7.2,0.7,9.9c1,0.9,0.1,1.7,0.1,3.1c-0.4,0.3-0.6,0.3-1.1,0.1C156.9,84.7,155.7,83.9,156.5,83.3z"/>
		</g>
		<g>
			<rect x="153.7" y="68.6" class="st0" width="4.7" height="16.2"/>
			<path class="st1" d="M156.5,82.5c-0.1-0.4-0.4,0.2-0.7,0c0.3-0.3,0.4-0.8,0.1-1.3c0.4-0.2,0.6-0.5,1.1-0.3
				c-0.7-1.7-0.8-3.6-1.3-4.9c-0.5,0.2-0.8,0-1.1-0.4c2-1.2-0.4-3,0.8-4.3c-0.2-0.9-1.5-0.7-1.8-1.5c0.7-2.6,5.1-0.3,3.3,1.8
				c0.8,3,2.1,7.2,0.7,9.9c1,0.9,0.1,1.7,0.1,3.1c-0.4,0.3-0.6,0.3-1.1,0.1C156.9,83.9,155.7,83.1,156.5,82.5z"/>
		</g>
		<g>
			<rect x="153.7" y="67.8" class="st0" width="4.7" height="16.2"/>
			<path class="st1" d="M156.5,81.7c-0.1-0.4-0.4,0.2-0.7,0c0.3-0.3,0.4-0.8,0.1-1.3c0.4-0.2,0.6-0.5,1.1-0.3
				c-0.7-1.7-0.8-3.6-1.3-4.9c-0.5,0.2-0.8,0-1.1-0.4c2-1.2-0.4-3,0.8-4.3c-0.2-0.9-1.5-0.7-1.8-1.5c0.7-2.6,5.1-0.3,3.3,1.8
				c0.8,3,2.1,7.2,0.7,9.9c1,0.9,0.1,1.7,0.1,3.1c-0.4,0.3-0.6,0.3-1.1,0.1C156.9,83.1,155.7,82.3,156.5,81.7z"/>
		</g>
		<g>
			<rect x="153.7" y="67" class="st0" width="4.7" height="16.2"/>
			<path class="st1" d="M156.5,80.9c-0.1-0.4-0.4,0.2-0.7,0c0.3-0.3,0.4-0.8,0.1-1.3c0.4-0.2,0.6-0.5,1.1-0.3
				c-0.7-1.7-0.8-3.6-1.3-4.9c-0.5,0.2-0.8,0-1.1-0.4c2-1.2-0.4-3,0.8-4.3c-0.2-0.9-1.5-0.7-1.8-1.5c0.7-2.6,5.1-0.3,3.3,1.8
				c0.8,3,2.1,7.2,0.7,9.9c1,0.9,0.1,1.7,0.1,3.1c-0.4,0.3-0.6,0.3-1.1,0.1C156.9,82.3,155.7,81.4,156.5,80.9z"/>
		</g>
		<g>
			<rect x="153.7" y="66.2" class="st0" width="4.7" height="16.2"/>
			<path class="st1" d="M156.5,80.1c-0.1-0.4-0.4,0.2-0.7,0c0.3-0.3,0.4-0.8,0.1-1.3c0.4-0.2,0.6-0.5,1.1-0.3
				c-0.7-1.7-0.8-3.6-1.3-4.9c-0.5,0.2-0.8,0-1.1-0.4c2-1.2-0.4-3,0.8-4.3c-0.2-0.9-1.5-0.7-1.8-1.5c0.7-2.6,5.1-0.3,3.3,1.8
				c0.8,3,2.1,7.2,0.7,9.9c1,0.9,0.1,1.7,0.1,3.1c-0.4,0.3-0.6,0.3-1.1,0.1C156.9,81.5,155.7,80.6,156.5,80.1z"/>
		</g>
		<g>
			<rect x="153.7" y="65.4" class="st0" width="4.7" height="16.2"/>
			<path class="st1" d="M156.5,79.3c-0.1-0.4-0.4,0.2-0.7,0c0.3-0.3,0.4-0.8,0.1-1.3c0.4-0.2,0.6-0.5,1.1-0.3
				c-0.7-1.7-0.8-3.6-1.3-4.9c-0.5,0.2-0.8,0-1.1-0.4c2-1.2-0.4-3,0.8-4.3c-0.2-0.9-1.5-0.7-1.8-1.5c0.7-2.6,5.1-0.3,3.3,1.8
				c0.8,3,2.1,7.2,0.7,9.9c1,0.9,0.1,1.7,0.1,3.1c-0.4,0.3-0.6,0.3-1.1,0.1C156.9,80.7,155.7,79.8,156.5,79.3z"/>
		</g>
		<g>
			<rect x="153.7" y="64.6" class="st0" width="4.7" height="16.2"/>
			<path class="st1" d="M156.5,78.4c-0.1-0.4-0.4,0.2-0.7,0c0.3-0.3,0.4-0.8,0.1-1.3c0.4-0.2,0.6-0.5,1.1-0.3
				c-0.7-1.7-0.8-3.6-1.3-4.9c-0.5,0.2-0.8,0-1.1-0.4c2-1.2-0.4-3,0.8-4.3c-0.2-0.9-1.5-0.7-1.8-1.5c0.7-2.6,5.1-0.3,3.3,1.8
				c0.8,3,2.1,7.2,0.7,9.9c1,0.9,0.1,1.7,0.1,3.1c-0.4,0.3-0.6,0.3-1.1,0.1C156.9,79.9,155.7,79,156.5,78.4z"/>
		</g>
		<g>
			<rect x="153.7" y="63.8" class="st0" width="4.7" height="16.2"/>
			<path class="st1" d="M156.5,77.6c-0.1-0.4-0.4,0.2-0.7,0c0.3-0.3,0.4-0.8,0.1-1.3c0.4-0.2,0.6-0.5,1.1-0.3
				c-0.7-1.7-0.8-3.6-1.3-4.9c-0.5,0.2-0.8,0-1.1-0.4c2-1.2-0.4-3,0.8-4.3c-0.2-0.9-1.5-0.7-1.8-1.5c0.7-2.6,5.1-0.3,3.3,1.8
				c0.8,3,2.1,7.2,0.7,9.9c1,0.9,0.1,1.7,0.1,3.1c-0.4,0.3-0.6,0.3-1.1,0.1C156.9,79.1,155.7,78.2,156.5,77.6z"/>
		</g>
		<g>
			<rect x="153.7" y="63" class="st0" width="4.7" height="16.2"/>
			<path class="st1" d="M156.5,76.8c-0.1-0.4-0.4,0.2-0.7,0c0.3-0.3,0.4-0.8,0.1-1.3c0.4-0.2,0.6-0.5,1.1-0.3
				c-0.7-1.7-0.8-3.6-1.3-4.9c-0.5,0.2-0.8,0-1.1-0.4c2-1.2-0.4-3,0.8-4.3c-0.2-0.9-1.5-0.7-1.8-1.5c0.7-2.6,5.1-0.3,3.3,1.8
				c0.8,3,2.1,7.2,0.7,9.9c1,0.9,0.1,1.7,0.1,3.1c-0.4,0.3-0.6,0.3-1.1,0.1C156.9,78.2,155.7,77.4,156.5,76.8z"/>
		</g>
		<g>
			<rect x="153.7" y="62.1" class="st0" width="4.7" height="16.2"/>
			<path class="st1" d="M156.5,76c-0.1-0.4-0.4,0.2-0.7,0c0.3-0.3,0.4-0.8,0.1-1.3c0.4-0.2,0.6-0.5,1.1-0.3
				c-0.7-1.7-0.8-3.6-1.3-4.9c-0.5,0.2-0.8,0-1.1-0.4c2-1.2-0.4-3,0.8-4.3c-0.2-0.9-1.5-0.7-1.8-1.5c0.7-2.6,5.1-0.3,3.3,1.8
				c0.8,3,2.1,7.2,0.7,9.9c1,0.9,0.1,1.7,0.1,3.1c-0.4,0.3-0.6,0.3-1.1,0.1C156.9,77.4,155.7,76.6,156.5,76z"/>
		</g>
		<g>
			<rect x="153.7" y="61.3" class="st0" width="4.7" height="16.2"/>
			<path class="st1" d="M156.5,75.2c-0.1-0.4-0.4,0.2-0.7,0c0.3-0.3,0.4-0.8,0.1-1.3c0.4-0.2,0.6-0.5,1.1-0.3
				c-0.7-1.7-0.8-3.6-1.3-4.9c-0.5,0.2-0.8,0-1.1-0.4c2-1.2-0.4-3,0.8-4.3c-0.2-0.9-1.5-0.7-1.8-1.5c0.7-2.6,5.1-0.3,3.3,1.8
				c0.8,3,2.1,7.2,0.7,9.9c1,0.9,0.1,1.7,0.1,3.1c-0.4,0.3-0.6,0.3-1.1,0.1C156.9,76.6,155.7,75.8,156.5,75.2z"/>
		</g>
		<g>
			<rect x="153.7" y="60.5" class="st0" width="4.7" height="16.2"/>
			<path class="st1" d="M156.5,74.4c-0.1-0.4-0.4,0.2-0.7,0c0.3-0.3,0.4-0.8,0.1-1.3c0.4-0.2,0.6-0.5,1.1-0.3
				c-0.7-1.7-0.8-3.6-1.3-4.9c-0.5,0.2-0.8,0-1.1-0.4c2-1.2-0.4-3,0.8-4.3c-0.2-0.9-1.5-0.7-1.8-1.5c0.7-2.6,5.1-0.3,3.3,1.8
				c0.8,3,2.1,7.2,0.7,9.9c1,0.9,0.1,1.7,0.1,3.1c-0.4,0.3-0.6,0.3-1.1,0.1C156.9,75.8,155.7,75,156.5,74.4z"/>
		</g>
		<g>
			<rect x="153.7" y="59.7" class="st0" width="4.7" height="16.2"/>
			<path class="st1" d="M156.5,73.6c-0.1-0.4-0.4,0.2-0.7,0c0.3-0.3,0.4-0.8,0.1-1.3c0.4-0.2,0.6-0.5,1.1-0.3
				c-0.7-1.7-0.8-3.6-1.3-4.9c-0.5,0.2-0.8,0-1.1-0.4c2-1.2-0.4-3,0.8-4.3c-0.2-0.9-1.5-0.7-1.8-1.5c0.7-2.6,5.1-0.3,3.3,1.8
				c0.8,3,2.1,7.2,0.7,9.9c1,0.9,0.1,1.7,0.1,3.1c-0.4,0.3-0.6,0.3-1.1,0.1C156.9,75,155.7,74.2,156.5,73.6z"/>
		</g>
		<g>
			<rect x="153.7" y="58.9" class="st0" width="4.7" height="16.2"/>
			<path class="st1" d="M156.5,72.8c-0.1-0.4-0.4,0.2-0.7,0c0.3-0.3,0.4-0.8,0.1-1.3c0.4-0.2,0.6-0.5,1.1-0.3
				c-0.7-1.7-0.8-3.6-1.3-4.9c-0.5,0.2-0.8,0-1.1-0.4c2-1.2-0.4-3,0.8-4.3c-0.2-0.9-1.5-0.7-1.8-1.5c0.7-2.6,5.1-0.3,3.3,1.8
				c0.8,3,2.1,7.2,0.7,9.9c1,0.9,0.1,1.7,0.1,3.1c-0.4,0.3-0.6,0.3-1.1,0.1C156.9,74.2,155.7,73.3,156.5,72.8z"/>
		</g>
		<g>
			<rect x="153.7" y="58.1" class="st0" width="4.7" height="16.2"/>
			<path class="st1" d="M156.5,72c-0.1-0.4-0.4,0.2-0.7,0c0.3-0.3,0.4-0.8,0.1-1.3c0.4-0.2,0.6-0.5,1.1-0.3
				c-0.7-1.7-0.8-3.6-1.3-4.9c-0.5,0.2-0.8,0-1.1-0.4c2-1.2-0.4-3,0.8-4.3c-0.2-0.9-1.5-0.7-1.8-1.5c0.7-2.6,5.1-0.3,3.3,1.8
				c0.8,3,2.1,7.2,0.7,9.9c1,0.9,0.1,1.7,0.1,3.1c-0.4,0.3-0.6,0.3-1.1,0.1C156.9,73.4,155.7,72.5,156.5,72z"/>
		</g>
		<g>
			<rect x="153.7" y="57.3" class="st0" width="4.7" height="16.2"/>
			<path class="st1" d="M156.5,71.2c-0.1-0.4-0.4,0.2-0.7,0c0.3-0.3,0.4-0.8,0.1-1.3c0.4-0.2,0.6-0.5,1.1-0.3
				c-0.7-1.7-0.8-3.6-1.3-4.9c-0.5,0.2-0.8,0-1.1-0.4c2-1.2-0.4-3,0.8-4.3c-0.2-0.9-1.5-0.7-1.8-1.5c0.7-2.6,5.1-0.3,3.3,1.8
				c0.8,3,2.1,7.2,0.7,9.9c1,0.9,0.1,1.7,0.1,3.1c-0.4,0.3-0.6,0.3-1.1,0.1C156.9,72.6,155.7,71.7,156.5,71.2z"/>
		</g>
		<g>
			<rect x="153.7" y="56.5" class="st0" width="4.7" height="16.2"/>
			<path class="st1" d="M156.5,70.4c-0.1-0.4-0.4,0.2-0.7,0c0.3-0.3,0.4-0.8,0.1-1.3c0.4-0.2,0.6-0.5,1.1-0.3
				c-0.7-1.7-0.8-3.6-1.3-4.9c-0.5,0.2-0.8,0-1.1-0.4c2-1.2-0.4-3,0.8-4.3c-0.2-0.9-1.5-0.7-1.8-1.5c0.7-2.6,5.1-0.3,3.3,1.8
				c0.8,3,2.1,7.2,0.7,9.9c1,0.9,0.1,1.7,0.1,3.1c-0.4,0.3-0.6,0.3-1.1,0.1C156.9,71.8,155.7,70.9,156.5,70.4z"/>
		</g>
		<g>
			<rect x="153.7" y="55.7" class="st0" width="4.7" height="16.2"/>
			<path class="st1" d="M156.5,69.5c-0.1-0.4-0.4,0.2-0.7,0c0.3-0.3,0.4-0.8,0.1-1.3c0.4-0.2,0.6-0.5,1.1-0.3
				c-0.7-1.7-0.8-3.6-1.3-4.9c-0.5,0.2-0.8,0-1.1-0.4c2-1.2-0.4-3,0.8-4.3c-0.2-0.9-1.5-0.7-1.8-1.5c0.7-2.6,5.1-0.3,3.3,1.8
				c0.8,3,2.1,7.2,0.7,9.9c1,0.9,0.1,1.7,0.1,3.1c-0.4,0.3-0.6,0.3-1.1,0.1C156.9,71,155.7,70.1,156.5,69.5z"/>
		</g>
		<g>
			<rect x="153.7" y="54.9" class="st0" width="4.7" height="16.2"/>
			<path class="st1" d="M156.5,68.7c-0.1-0.4-0.4,0.2-0.7,0c0.3-0.3,0.4-0.8,0.1-1.3c0.4-0.2,0.6-0.5,1.1-0.3
				c-0.7-1.7-0.8-3.6-1.3-4.9c-0.5,0.2-0.8,0-1.1-0.4c2-1.2-0.4-3,0.8-4.3c-0.2-0.9-1.5-0.7-1.8-1.5c0.7-2.6,5.1-0.3,3.3,1.8
				c0.8,3,2.1,7.2,0.7,9.9c1,0.9,0.1,1.7,0.1,3.1c-0.4,0.3-0.6,0.3-1.1,0.1C156.9,70.1,155.7,69.3,156.5,68.7z"/>
		</g>
		<g>
			<rect x="153.7" y="54" class="st0" width="4.7" height="16.2"/>
			<path class="st1" d="M156.5,67.9c-0.1-0.4-0.4,0.2-0.7,0c0.3-0.3,0.4-0.8,0.1-1.3c0.4-0.2,0.6-0.5,1.1-0.3
				c-0.7-1.7-0.8-3.6-1.3-4.9c-0.5,0.2-0.8,0-1.1-0.4c2-1.2-0.4-3,0.8-4.3c-0.2-0.9-1.5-0.7-1.8-1.5c0.7-2.6,5.1-0.3,3.3,1.8
				c0.8,3,2.1,7.2,0.7,9.9c1,0.9,0.1,1.7,0.1,3.1c-0.4,0.3-0.6,0.3-1.1,0.1C156.9,69.3,155.7,68.5,156.5,67.9z"/>
		</g>
		<g>
			<rect x="153.7" y="53.2" class="st0" width="4.7" height="16.2"/>
			<path class="st1" d="M156.5,67.1c-0.1-0.4-0.4,0.2-0.7,0c0.3-0.3,0.4-0.8,0.1-1.3c0.4-0.2,0.6-0.5,1.1-0.3
				c-0.7-1.7-0.8-3.6-1.3-4.9c-0.5,0.2-0.8,0-1.1-0.4c2-1.2-0.4-3,0.8-4.3c-0.2-0.9-1.5-0.7-1.8-1.5c0.7-2.6,5.1-0.3,3.3,1.8
				c0.8,3,2.1,7.2,0.7,9.9c1,0.9,0.1,1.7,0.1,3.1c-0.4,0.3-0.6,0.3-1.1,0.1C156.9,68.5,155.7,67.7,156.5,67.1z"/>
		</g>
		<g>
			<rect x="153.7" y="52.4" class="st0" width="4.7" height="16.2"/>
			<path class="st1" d="M156.5,66.3c-0.1-0.4-0.4,0.2-0.7,0c0.3-0.3,0.4-0.8,0.1-1.3c0.4-0.2,0.6-0.5,1.1-0.3
				c-0.7-1.7-0.8-3.6-1.3-4.9c-0.5,0.2-0.8,0-1.1-0.4c2-1.2-0.4-3,0.8-4.3c-0.2-0.9-1.5-0.7-1.8-1.5c0.7-2.6,5.1-0.3,3.3,1.8
				c0.8,3,2.1,7.2,0.7,9.9c1,0.9,0.1,1.7,0.1,3.1c-0.4,0.3-0.6,0.3-1.1,0.1C156.9,67.7,155.7,66.9,156.5,66.3z"/>
		</g>
		<g>
			<rect x="153.7" y="51.6" class="st0" width="4.7" height="16.2"/>
			<path class="st1" d="M156.5,65.5c-0.1-0.4-0.4,0.2-0.7,0c0.3-0.3,0.4-0.8,0.1-1.3c0.4-0.2,0.6-0.5,1.1-0.3
				c-0.7-1.7-0.8-3.6-1.3-4.9c-0.5,0.2-0.8,0-1.1-0.4c2-1.2-0.4-3,0.8-4.3c-0.2-0.9-1.5-0.7-1.8-1.5c0.7-2.6,5.1-0.3,3.3,1.8
				c0.8,3,2.1,7.2,0.7,9.9c1,0.9,0.1,1.7,0.1,3.1c-0.4,0.3-0.6,0.3-1.1,0.1C156.9,66.9,155.7,66.1,156.5,65.5z"/>
		</g>
		<g>
			<rect x="153.7" y="50.8" class="st0" width="4.7" height="16.2"/>
			<path class="st1" d="M156.5,64.7c-0.1-0.4-0.4,0.2-0.7,0c0.3-0.3,0.4-0.8,0.1-1.3c0.4-0.2,0.6-0.5,1.1-0.3
				c-0.7-1.7-0.8-3.6-1.3-4.9c-0.5,0.2-0.8,0-1.1-0.4c2-1.2-0.4-3,0.8-4.3c-0.2-0.9-1.5-0.7-1.8-1.5c0.7-2.6,5.1-0.3,3.3,1.8
				c0.8,3,2.1,7.2,0.7,9.9c1,0.9,0.1,1.7,0.1,3.1c-0.4,0.3-0.6,0.3-1.1,0.1C156.9,66.1,155.7,65.3,156.5,64.7z"/>
		</g>
	</g>
</g>
<g>
	<g>
		<g>
			<g>
				<g class="st2">
					<g>
						<path class="st3" d="M194,94.8c-0.3,0.4-0.6,0.8-1,1.2c0.2-0.2,0.4-0.3,0.7-0.4C194,95.4,194,95.1,194,94.8z"/>
						<path class="st3" d="M192.1,97.1c-0.1,0.1-0.1,0.1-0.2,0.2c0,0.1-0.1,0.2-0.1,0.2C191.9,97.4,192,97.3,192.1,97.1z"/>
						<path class="st3" d="M190.7,99.4c0.3-0.4,0.6-0.7,0.8-1.1C191.2,98.6,190.9,98.9,190.7,99.4z"/>
						<path class="st3" d="M192.1,97.8c-0.2,0.1-0.3,0-0.3-0.2c0,0,0,0,0,0c-0.1,0.2-0.3,0.5-0.4,0.7
							C191.7,98.1,191.9,97.9,192.1,97.8z"/>
						<path class="st3" d="M192.1,97.8c0.2-0.1,0.4-0.2,0.5-0.2C192.5,97.6,192.3,97.7,192.1,97.8z"/>
						<path class="st3" d="M194,100.1c-0.1,0.3-0.7-0.3-0.9,0.3c-0.6,1.1-0.9,2.2-1.6,3.2c-0.2,0.5-1.4,0.7-1.6,1.2
							c-0.6,1.1-1.6,4.4-0.5,2.8c1.6-2.3,2.6-4,4-6.1c1-1.9,1.9-3.7,2.9-5.6c0.3-0.5,0.7-0.9,1.1-1.3c-0.5,0.5-1.1,1-1.7,1.6
							C194.9,96.9,194.9,98.6,194,100.1z"/>
						<path class="st3" d="M201.2,86c-0.1,0.3-0.3,0.8-0.3,0.8c-1.2,0.6-1.8,1.7-2.3,2.9c0.2-0.1,0.4-0.1,0.7-0.2
							c0.4-0.6,0.3-0.8-0.3-0.4c1.3-0.9,2.2-1.9,3-3.1C201.7,86,201.5,85.8,201.2,86z"/>
						<path class="st3" d="M202.4,85.3c-0.1,0.2-0.3,0.5-0.4,0.7c0,0,0,0,0.1,0C202.2,85.8,202.3,85.5,202.4,85.3
							C202.4,85.3,202.4,85.3,202.4,85.3z"/>
						<path class="st3" d="M187.8,104.4c-2.1,2.9-4.2,5.5-6.2,8.1c0,0.3,0,0.6-0.3,0.8c-0.3,0.1-0.5,0.3-0.7,0.4
							c-0.3,0.4-0.6,0.7-0.9,1.1c-0.1,0.1-0.2,0.3-0.3,0.4c0,0,0,0,0,0c-0.1,0.3,0.1,0.3,0.3,0.2c0.2-0.1,0.4-0.2,0.5-0.2
							c-0.1,0-0.3,0.2-0.5,0.2c-0.2,0.1-0.4,0.3-0.7,0.5c-0.2,0.4-0.5,0.8-0.8,1.1c0.2-0.5,0.5-0.8,0.8-1.1c0.1-0.2,0.3-0.5,0.4-0.7
							c0-0.1,0.1-0.2,0.1-0.2c-0.7,0.9-1.4,1.7-2.1,2.5c-0.1,0.2-0.3,0.4-0.4,0.6c-0.4,0.7-0.8,1.4-1.4,1.5
							c-0.1,0.1-0.2,0.3-0.4,0.5c0,0,0.1,0,0.1,0c-0.1,0.1-0.1,0.1-0.2,0.1c-0.5,0.6-1,1.3-1.6,1.9c-0.2,0.5-0.4,1.1-0.6,1.6
							c0,0-0.4,0.1-0.7,0.2c0,0.3-0.1,0.6-0.2,1c0.5-0.2,0.9-0.4,1.3-0.6c0.7-0.2,0.1-1.5,1.1-1.5c-1,0.1-0.4,1.3-1.1,1.5
							c-0.4,0.2-0.8,0.4-1.3,0.6c-0.4,0.7-1.1,1.4-1.9,1.8c0.3-1,1.1-1.5,1.9-1.8c0.2-0.3,0.3-0.7,0.2-1c0.2-0.1,0.7-0.2,0.7-0.2
							c0.2-0.5,0.4-1.1,0.6-1.6c-1,1.2-2.1,2.5-3.1,3.8c-6.9,8.3-12.8,16.2-19.8,24.9c-3.8,4.7-7.6,9.1-11.4,13.3
							c-7.6,8.5-12.9,17.4-21.5,25.3c-3.2,3.1-7.8,9.8-10.3,13.3c-2.3,5.3,2.2,5.1,2.6,5c4.5-1,4.8-4.2,10.5-8.8
							c-3.7,3.3,0.6-4,5-6.4c6.5-3.4,10.2-12.4,15.7-18.5c1.4-1.5,2.6-3.3,4.1-5.2c8.5-9.5,14.5-19.6,22.7-30.1
							c2.1-2.8,3.4-5.7,4.8-8.4c1.2-1.8,2.9-3.4,4-4.8c1.7-2.2,2.9-4.3,4-6.3c-1.4,2.1-2.4,3.7-4,6.1c-1.1,1.5,0-1.7,0.5-2.8
							c0.2-0.5,1.4-0.7,1.6-1.2c0.7-0.9,1.1-2,1.6-3.2c0.2-0.5,0.8,0,0.9-0.3c0.9-1.5,0.8-3.2,1.7-3.9c0.6-0.6,1.2-1.1,1.7-1.6
							c0.3-0.3,0.6-0.7,0.9-1.1c0.1-0.3,0.3-0.6,0.4-0.9c-0.4,0-0.6-0.1-0.9-0.2c0.3-0.3,0.8-0.7,1.1-1.1c-0.3,0.3-0.8,0.7-1.1,1.1
							c0.3,0.1,0.6,0.2,0.9,0.2c1-2.1,2.2-4.4,3.4-6.6c0,0-0.1,0-0.1,0c-0.8,1.2-1.7,2.2-3,3.1c0.5-0.4,0.7-0.2,0.3,0.4
							c-0.2,0.1-0.4,0.1-0.7,0.2c0.6-1.1,1.1-2.3,2.3-2.9c0,0,0.2-0.5,0.3-0.8c0.3-0.3,0.5-0.1,0.8,0c0.2-0.2,0.3-0.5,0.5-0.7
							C189.4,103.2,187.8,104.4,187.8,104.4z"/>
						<path class="st3" d="M179.1,116c0.1-0.2,0.2-0.4,0.4-0.6c-0.6,0.7-1.2,1.4-1.7,2.1C178.3,117.4,178.7,116.7,179.1,116z"/>
					</g>
				</g>
			</g>
		</g>
	</g>
</g>
<g>
	<g>
		<g>
			<g>
				<g class="st4">
					<path class="st3" d="M118.9,78.7c1,4.6,8.5,17.4,11.4,23.4c1.2,2.2,2,3.9,2.6,5.2c0.5,1.1-0.8-1.4-2.6-5.2
						c-0.9-1.7-2-3.7-3.2-6c1.1,3.2,2.2,6.2,2.9,8.4c0.8,1.4,1.7,2.9,2.5,4.4c3.7,6.6,7.5,12.8,11,19.4c1.3,2.4,4.3,7.5,5.4,9.9
						l-16.6-28.4c0.1,0.3,0.2,0.5,0.4,0.8l8.4,15.1c0.5,0.8,1,1.7,1.4,2.6l-1.4-2.6c-1.3-2.2-2.7-4.2-4.2-6.6
						c-0.9-1.5-1.7-3.3-2.5-4.8c-0.7-1.2-1.1-2.5-1.6-3.7l-1.2-2.3c-0.2-0.2-0.3-0.4-0.5-0.6c0,0,0,0,0,0c0,2.5,9.7,22,11.8,25
						c1.6,2.4,3.9,4.1,5.7,6.7c0.6,0.9,0.8,1.8,1.4,2.4c0.2,0,0.5,0.3,0.8,0.6c1.2,1.8,1.8,3.9,3,5.1c0.8,0.9,0.1,5,0.7,5
						c2-0.2,0.5,0,1.8,2.4c0.1,0.3,1.3,0.8,1.6,1.4c0.8,2.1,1.6,2.4,3.1,4.4c2.5,2.9,1.9,4.2,4.6,6.5c0.3,0.3,3.7,4.4,3.7,4.4
						c2,3.6,4.1,5.3,4.6,8.7c2.9,2.6,4.3,7.5,6.5,10.7c2.2,3.3,2.3,5.1,3.4,8.5c0.4,0.9,0.9,1.5,0.9,2.1c0.1,0.6,1.4,1.4,1.8,2.4
						c-0.2,0-0.4,0-0.5,0c0.1,0.3,0.4,0.9,0.5,1.2c0.1,0.3,0,0.3-0.2,0.3c-0.4,0-0.7,0.1-0.6,0.7c0.5,1.3,1,2.6,1.6,3.9
						c0.9,1.1,1.9,2.1,2.9,3.2c0.2,0,0.5-0.1,0.7,0c0.3,0.3,0.6,0.6,1,0.9c0.5,0,1-0.4,1.3-0.4c1.2-0.7,3.2,0,4.1-1
						c0.2-0.3-0.9-2.4-0.9-3.7c0-0.3,0.7-0.1,1.3-0.1c-0.7-1.2-0.3-1.5,0.4-1.3c-0.1-0.3-0.3-0.6-0.3-0.6c0.2,0,0.7-0.1,0.7-0.1
						c-1.3-3.3-2.3-7.3-4.6-9.9c-0.5-0.6-1.4-1.4-2-2c-0.3-0.3-0.5-1.2-0.7-1.5c-0.7-0.3-1.1,0.1-1.6,0.1c-0.9-2.4-3-7.6-4.4-6.5
						c-1-1.8-1.9-1.7-3.1-3.5c-1.6-2.3-3.5-5.3-5.4-8.3c-1.1-1.6-2-3.2-3-4.8c-0.4-0.6-0.7-1.2-1.1-1.7
						c-7.4-11.9-11.6-21.5-19.8-32.4c-16.6-22.2-28.9-50.2-32.1-56.3L118.9,78.7z"/>
				</g>
			</g>
		</g>
	</g>
</g>
<radialGradient id="SVGID_1_" cx="152.6776" cy="166.8143" r="62.9135" gradientTransform="matrix(0.8912 0 0 1.0493 19.9855 -28.1213)" gradientUnits="userSpaceOnUse">
	<stop  offset="4.950495e-03" style="stop-color:#FFFFFF"/>
	<stop  offset="1" style="stop-color:#FFF9AE;stop-opacity:0"/>
</radialGradient>
<radialGradient id="SVGID_2_" cx="152.6776" cy="166.8143" r="63.1651" gradientTransform="matrix(0.8912 0 0 1.0493 19.9855 -28.1213)" gradientUnits="userSpaceOnUse">
	<stop  offset="0" style="stop-color:#FFF9AE"/>
	<stop  offset="1" style="stop-color:#FFF9AE;stop-opacity:0"/>
</radialGradient>
<ellipse class="st5" cx="156.1" cy="146.9" rx="51.8" ry="70.7"/>
</svg>
